<?xml version="1.0" encoding="utf-8" standalone="no"?>
<!DOCTYPE svg PUBLIC "-//W3C//DTD SVG 1.1//EN"
  "http://www.w3.org/Graphics/SVG/1.1/DTD/svg11.dtd">
<svg xmlns:xlink="http://www.w3.org/1999/xlink" width="1000.278125pt" height="388.844525pt" viewBox="0 0 1000.278125 388.844525" xmlns="http://www.w3.org/2000/svg" version="1.1">
 <metadata>
  <rdf:RDF xmlns:dc="http://purl.org/dc/elements/1.1/" xmlns:cc="http://creativecommons.org/ns#" xmlns:rdf="http://www.w3.org/1999/02/22-rdf-syntax-ns#">
   <cc:Work>
    <dc:type rdf:resource="http://purl.org/dc/dcmitype/StillImage"/>
    <dc:date>2022-11-05T04:15:20.896133</dc:date>
    <dc:format>image/svg+xml</dc:format>
    <dc:creator>
     <cc:Agent>
      <dc:title>Matplotlib v3.5.1, https://matplotlib.org/</dc:title>
     </cc:Agent>
    </dc:creator>
   </cc:Work>
  </rdf:RDF>
 </metadata>
 <defs>
  <style type="text/css">*{stroke-linejoin: round; stroke-linecap: butt}</style>
 </defs>
 <g id="figure_1">
  <g id="axes_1">
   <g id="patch_1">
    <path d="M 43.148125 353.2239 
L 993.078125 353.2239 
L 993.078125 35.2559 
L 43.148125 35.2559 
z
" style="fill: #ffffff"/>
   </g>
   <g id="patch_2">
    <path d="M 43.148125 289.6303 
L 959.602553 289.6303 
L 959.602553 35.2559 
L 43.148125 35.2559 
z
" clip-path="url(#p0cd35a73eb)" style="fill: #e6c3c3"/>
   </g>
   <g id="patch_3">
    <path d="M 43.148125 337.3255 
L 959.602553 337.3255 
L 959.602553 289.6303 
L 43.148125 289.6303 
z
" clip-path="url(#p0cd35a73eb)" style="fill: #e6dcc3"/>
   </g>
   <g id="patch_4">
    <path d="M 43.148125 353.2239 
L 959.602553 353.2239 
L 959.602553 337.3255 
L 43.148125 337.3255 
z
" clip-path="url(#p0cd35a73eb)" style="fill: #c3e6c3"/>
   </g>
   <g id="matplotlib.axis_1">
    <g id="xtick_1">
     <g id="text_1">
      <!-- 0 -->
      <g transform="translate(74.078697 366.30265)scale(0.08 -0.08)">
       <defs>
        <path id="DejaVuSans-30" d="M 2034 4250 
Q 1547 4250 1301 3770 
Q 1056 3291 1056 2328 
Q 1056 1369 1301 889 
Q 1547 409 2034 409 
Q 2525 409 2770 889 
Q 3016 1369 3016 2328 
Q 3016 3291 2770 3770 
Q 2525 4250 2034 4250 
z
M 2034 4750 
Q 2819 4750 3233 4129 
Q 3647 3509 3647 2328 
Q 3647 1150 3233 529 
Q 2819 -91 2034 -91 
Q 1250 -91 836 529 
Q 422 1150 422 2328 
Q 422 3509 836 4129 
Q 1250 4750 2034 4750 
z
" transform="scale(0.015625)"/>
       </defs>
       <use xlink:href="#DejaVuSans-30"/>
      </g>
     </g>
    </g>
    <g id="xtick_2">
     <g id="text_2">
      <!-- 20 -->
      <g transform="translate(265.594984 366.30265)scale(0.08 -0.08)">
       <defs>
        <path id="DejaVuSans-32" d="M 1228 531 
L 3431 531 
L 3431 0 
L 469 0 
L 469 531 
Q 828 903 1448 1529 
Q 2069 2156 2228 2338 
Q 2531 2678 2651 2914 
Q 2772 3150 2772 3378 
Q 2772 3750 2511 3984 
Q 2250 4219 1831 4219 
Q 1534 4219 1204 4116 
Q 875 4013 500 3803 
L 500 4441 
Q 881 4594 1212 4672 
Q 1544 4750 1819 4750 
Q 2544 4750 2975 4387 
Q 3406 4025 3406 3419 
Q 3406 3131 3298 2873 
Q 3191 2616 2906 2266 
Q 2828 2175 2409 1742 
Q 1991 1309 1228 531 
z
" transform="scale(0.015625)"/>
       </defs>
       <use xlink:href="#DejaVuSans-32"/>
       <use xlink:href="#DejaVuSans-30" x="63.623047"/>
      </g>
     </g>
    </g>
    <g id="xtick_3">
     <g id="text_3">
      <!-- 40 -->
      <g transform="translate(459.656271 366.30265)scale(0.08 -0.08)">
       <defs>
        <path id="DejaVuSans-34" d="M 2419 4116 
L 825 1625 
L 2419 1625 
L 2419 4116 
z
M 2253 4666 
L 3047 4666 
L 3047 1625 
L 3713 1625 
L 3713 1100 
L 3047 1100 
L 3047 0 
L 2419 0 
L 2419 1100 
L 313 1100 
L 313 1709 
L 2253 4666 
z
" transform="scale(0.015625)"/>
       </defs>
       <use xlink:href="#DejaVuSans-34"/>
       <use xlink:href="#DejaVuSans-30" x="63.623047"/>
      </g>
     </g>
    </g>
    <g id="xtick_4">
     <g id="text_4">
      <!-- 60 -->
      <g transform="translate(653.717558 366.30265)scale(0.08 -0.08)">
       <defs>
        <path id="DejaVuSans-36" d="M 2113 2584 
Q 1688 2584 1439 2293 
Q 1191 2003 1191 1497 
Q 1191 994 1439 701 
Q 1688 409 2113 409 
Q 2538 409 2786 701 
Q 3034 994 3034 1497 
Q 3034 2003 2786 2293 
Q 2538 2584 2113 2584 
z
M 3366 4563 
L 3366 3988 
Q 3128 4100 2886 4159 
Q 2644 4219 2406 4219 
Q 1781 4219 1451 3797 
Q 1122 3375 1075 2522 
Q 1259 2794 1537 2939 
Q 1816 3084 2150 3084 
Q 2853 3084 3261 2657 
Q 3669 2231 3669 1497 
Q 3669 778 3244 343 
Q 2819 -91 2113 -91 
Q 1303 -91 875 529 
Q 447 1150 447 2328 
Q 447 3434 972 4092 
Q 1497 4750 2381 4750 
Q 2619 4750 2861 4703 
Q 3103 4656 3366 4563 
z
" transform="scale(0.015625)"/>
       </defs>
       <use xlink:href="#DejaVuSans-36"/>
       <use xlink:href="#DejaVuSans-30" x="63.623047"/>
      </g>
     </g>
    </g>
    <g id="xtick_5">
     <g id="text_5">
      <!-- 80 -->
      <g transform="translate(847.778845 366.30265)scale(0.08 -0.08)">
       <defs>
        <path id="DejaVuSans-38" d="M 2034 2216 
Q 1584 2216 1326 1975 
Q 1069 1734 1069 1313 
Q 1069 891 1326 650 
Q 1584 409 2034 409 
Q 2484 409 2743 651 
Q 3003 894 3003 1313 
Q 3003 1734 2745 1975 
Q 2488 2216 2034 2216 
z
M 1403 2484 
Q 997 2584 770 2862 
Q 544 3141 544 3541 
Q 544 4100 942 4425 
Q 1341 4750 2034 4750 
Q 2731 4750 3128 4425 
Q 3525 4100 3525 3541 
Q 3525 3141 3298 2862 
Q 3072 2584 2669 2484 
Q 3125 2378 3379 2068 
Q 3634 1759 3634 1313 
Q 3634 634 3220 271 
Q 2806 -91 2034 -91 
Q 1263 -91 848 271 
Q 434 634 434 1313 
Q 434 1759 690 2068 
Q 947 2378 1403 2484 
z
M 1172 3481 
Q 1172 3119 1398 2916 
Q 1625 2713 2034 2713 
Q 2441 2713 2670 2916 
Q 2900 3119 2900 3481 
Q 2900 3844 2670 4047 
Q 2441 4250 2034 4250 
Q 1625 4250 1398 4047 
Q 1172 3844 1172 3481 
z
" transform="scale(0.015625)"/>
       </defs>
       <use xlink:href="#DejaVuSans-38"/>
       <use xlink:href="#DejaVuSans-30" x="63.623047"/>
      </g>
     </g>
    </g>
    <g id="text_6">
     <!-- Position (bp) -->
     <g transform="translate(486.81 379.564837)scale(0.1 -0.1)">
      <defs>
       <path id="DejaVuSans-50" d="M 1259 4147 
L 1259 2394 
L 2053 2394 
Q 2494 2394 2734 2622 
Q 2975 2850 2975 3272 
Q 2975 3691 2734 3919 
Q 2494 4147 2053 4147 
L 1259 4147 
z
M 628 4666 
L 2053 4666 
Q 2838 4666 3239 4311 
Q 3641 3956 3641 3272 
Q 3641 2581 3239 2228 
Q 2838 1875 2053 1875 
L 1259 1875 
L 1259 0 
L 628 0 
L 628 4666 
z
" transform="scale(0.015625)"/>
       <path id="DejaVuSans-6f" d="M 1959 3097 
Q 1497 3097 1228 2736 
Q 959 2375 959 1747 
Q 959 1119 1226 758 
Q 1494 397 1959 397 
Q 2419 397 2687 759 
Q 2956 1122 2956 1747 
Q 2956 2369 2687 2733 
Q 2419 3097 1959 3097 
z
M 1959 3584 
Q 2709 3584 3137 3096 
Q 3566 2609 3566 1747 
Q 3566 888 3137 398 
Q 2709 -91 1959 -91 
Q 1206 -91 779 398 
Q 353 888 353 1747 
Q 353 2609 779 3096 
Q 1206 3584 1959 3584 
z
" transform="scale(0.015625)"/>
       <path id="DejaVuSans-73" d="M 2834 3397 
L 2834 2853 
Q 2591 2978 2328 3040 
Q 2066 3103 1784 3103 
Q 1356 3103 1142 2972 
Q 928 2841 928 2578 
Q 928 2378 1081 2264 
Q 1234 2150 1697 2047 
L 1894 2003 
Q 2506 1872 2764 1633 
Q 3022 1394 3022 966 
Q 3022 478 2636 193 
Q 2250 -91 1575 -91 
Q 1294 -91 989 -36 
Q 684 19 347 128 
L 347 722 
Q 666 556 975 473 
Q 1284 391 1588 391 
Q 1994 391 2212 530 
Q 2431 669 2431 922 
Q 2431 1156 2273 1281 
Q 2116 1406 1581 1522 
L 1381 1569 
Q 847 1681 609 1914 
Q 372 2147 372 2553 
Q 372 3047 722 3315 
Q 1072 3584 1716 3584 
Q 2034 3584 2315 3537 
Q 2597 3491 2834 3397 
z
" transform="scale(0.015625)"/>
       <path id="DejaVuSans-69" d="M 603 3500 
L 1178 3500 
L 1178 0 
L 603 0 
L 603 3500 
z
M 603 4863 
L 1178 4863 
L 1178 4134 
L 603 4134 
L 603 4863 
z
" transform="scale(0.015625)"/>
       <path id="DejaVuSans-74" d="M 1172 4494 
L 1172 3500 
L 2356 3500 
L 2356 3053 
L 1172 3053 
L 1172 1153 
Q 1172 725 1289 603 
Q 1406 481 1766 481 
L 2356 481 
L 2356 0 
L 1766 0 
Q 1100 0 847 248 
Q 594 497 594 1153 
L 594 3053 
L 172 3053 
L 172 3500 
L 594 3500 
L 594 4494 
L 1172 4494 
z
" transform="scale(0.015625)"/>
       <path id="DejaVuSans-6e" d="M 3513 2113 
L 3513 0 
L 2938 0 
L 2938 2094 
Q 2938 2591 2744 2837 
Q 2550 3084 2163 3084 
Q 1697 3084 1428 2787 
Q 1159 2491 1159 1978 
L 1159 0 
L 581 0 
L 581 3500 
L 1159 3500 
L 1159 2956 
Q 1366 3272 1645 3428 
Q 1925 3584 2291 3584 
Q 2894 3584 3203 3211 
Q 3513 2838 3513 2113 
z
" transform="scale(0.015625)"/>
       <path id="DejaVuSans-20" transform="scale(0.015625)"/>
       <path id="DejaVuSans-28" d="M 1984 4856 
Q 1566 4138 1362 3434 
Q 1159 2731 1159 2009 
Q 1159 1288 1364 580 
Q 1569 -128 1984 -844 
L 1484 -844 
Q 1016 -109 783 600 
Q 550 1309 550 2009 
Q 550 2706 781 3412 
Q 1013 4119 1484 4856 
L 1984 4856 
z
" transform="scale(0.015625)"/>
       <path id="DejaVuSans-62" d="M 3116 1747 
Q 3116 2381 2855 2742 
Q 2594 3103 2138 3103 
Q 1681 3103 1420 2742 
Q 1159 2381 1159 1747 
Q 1159 1113 1420 752 
Q 1681 391 2138 391 
Q 2594 391 2855 752 
Q 3116 1113 3116 1747 
z
M 1159 2969 
Q 1341 3281 1617 3432 
Q 1894 3584 2278 3584 
Q 2916 3584 3314 3078 
Q 3713 2572 3713 1747 
Q 3713 922 3314 415 
Q 2916 -91 2278 -91 
Q 1894 -91 1617 61 
Q 1341 213 1159 525 
L 1159 0 
L 581 0 
L 581 4863 
L 1159 4863 
L 1159 2969 
z
" transform="scale(0.015625)"/>
       <path id="DejaVuSans-70" d="M 1159 525 
L 1159 -1331 
L 581 -1331 
L 581 3500 
L 1159 3500 
L 1159 2969 
Q 1341 3281 1617 3432 
Q 1894 3584 2278 3584 
Q 2916 3584 3314 3078 
Q 3713 2572 3713 1747 
Q 3713 922 3314 415 
Q 2916 -91 2278 -91 
Q 1894 -91 1617 61 
Q 1341 213 1159 525 
z
M 3116 1747 
Q 3116 2381 2855 2742 
Q 2594 3103 2138 3103 
Q 1681 3103 1420 2742 
Q 1159 2381 1159 1747 
Q 1159 1113 1420 752 
Q 1681 391 2138 391 
Q 2594 391 2855 752 
Q 3116 1113 3116 1747 
z
" transform="scale(0.015625)"/>
       <path id="DejaVuSans-29" d="M 513 4856 
L 1013 4856 
Q 1481 4119 1714 3412 
Q 1947 2706 1947 2009 
Q 1947 1309 1714 600 
Q 1481 -109 1013 -844 
L 513 -844 
Q 928 -128 1133 580 
Q 1338 1288 1338 2009 
Q 1338 2731 1133 3434 
Q 928 4138 513 4856 
z
" transform="scale(0.015625)"/>
      </defs>
      <use xlink:href="#DejaVuSans-50"/>
      <use xlink:href="#DejaVuSans-6f" x="56.677734"/>
      <use xlink:href="#DejaVuSans-73" x="117.859375"/>
      <use xlink:href="#DejaVuSans-69" x="169.958984"/>
      <use xlink:href="#DejaVuSans-74" x="197.742188"/>
      <use xlink:href="#DejaVuSans-69" x="236.951172"/>
      <use xlink:href="#DejaVuSans-6f" x="264.734375"/>
      <use xlink:href="#DejaVuSans-6e" x="325.916016"/>
      <use xlink:href="#DejaVuSans-20" x="389.294922"/>
      <use xlink:href="#DejaVuSans-28" x="421.082031"/>
      <use xlink:href="#DejaVuSans-62" x="460.095703"/>
      <use xlink:href="#DejaVuSans-70" x="523.572266"/>
      <use xlink:href="#DejaVuSans-29" x="587.048828"/>
     </g>
    </g>
   </g>
   <g id="matplotlib.axis_2">
    <g id="ytick_1">
     <g id="line2d_1">
      <path d="M 43.148125 353.2239 
L 993.078125 353.2239 
" clip-path="url(#p0cd35a73eb)" style="fill: none; stroke: #dedede; stroke-linecap: square"/>
     </g>
     <g id="text_7">
      <!-- 0 -->
      <g transform="translate(31.058125 356.263275)scale(0.08 -0.08)">
       <use xlink:href="#DejaVuSans-30"/>
      </g>
     </g>
    </g>
    <g id="ytick_2">
     <g id="line2d_2">
      <path d="M 43.148125 289.6303 
L 993.078125 289.6303 
" clip-path="url(#p0cd35a73eb)" style="fill: none; stroke: #dedede; stroke-linecap: square"/>
     </g>
     <g id="text_8">
      <!-- 20 -->
      <g transform="translate(25.968125 292.669675)scale(0.08 -0.08)">
       <use xlink:href="#DejaVuSans-32"/>
       <use xlink:href="#DejaVuSans-30" x="63.623047"/>
      </g>
     </g>
    </g>
    <g id="ytick_3">
     <g id="line2d_3">
      <path d="M 43.148125 226.0367 
L 993.078125 226.0367 
" clip-path="url(#p0cd35a73eb)" style="fill: none; stroke: #dedede; stroke-linecap: square"/>
     </g>
     <g id="text_9">
      <!-- 40 -->
      <g transform="translate(25.968125 229.076075)scale(0.08 -0.08)">
       <use xlink:href="#DejaVuSans-34"/>
       <use xlink:href="#DejaVuSans-30" x="63.623047"/>
      </g>
     </g>
    </g>
    <g id="ytick_4">
     <g id="line2d_4">
      <path d="M 43.148125 162.4431 
L 993.078125 162.4431 
" clip-path="url(#p0cd35a73eb)" style="fill: none; stroke: #dedede; stroke-linecap: square"/>
     </g>
     <g id="text_10">
      <!-- 60 -->
      <g transform="translate(25.968125 165.482475)scale(0.08 -0.08)">
       <use xlink:href="#DejaVuSans-36"/>
       <use xlink:href="#DejaVuSans-30" x="63.623047"/>
      </g>
     </g>
    </g>
    <g id="ytick_5">
     <g id="line2d_5">
      <path d="M 43.148125 98.8495 
L 993.078125 98.8495 
" clip-path="url(#p0cd35a73eb)" style="fill: none; stroke: #dedede; stroke-linecap: square"/>
     </g>
     <g id="text_11">
      <!-- 80 -->
      <g transform="translate(25.968125 101.888875)scale(0.08 -0.08)">
       <use xlink:href="#DejaVuSans-38"/>
       <use xlink:href="#DejaVuSans-30" x="63.623047"/>
      </g>
     </g>
    </g>
    <g id="ytick_6">
     <g id="line2d_6">
      <path d="M 43.148125 35.2559 
L 993.078125 35.2559 
" clip-path="url(#p0cd35a73eb)" style="fill: none; stroke: #dedede; stroke-linecap: square"/>
     </g>
     <g id="text_12">
      <!-- 100 -->
      <g transform="translate(20.878125 38.295275)scale(0.08 -0.08)">
       <defs>
        <path id="DejaVuSans-31" d="M 794 531 
L 1825 531 
L 1825 4091 
L 703 3866 
L 703 4441 
L 1819 4666 
L 2450 4666 
L 2450 531 
L 3481 531 
L 3481 0 
L 794 0 
L 794 531 
z
" transform="scale(0.015625)"/>
       </defs>
       <use xlink:href="#DejaVuSans-31"/>
       <use xlink:href="#DejaVuSans-30" x="63.623047"/>
       <use xlink:href="#DejaVuSans-30" x="127.246094"/>
      </g>
     </g>
    </g>
    <g id="text_13">
     <!-- % of Sequences -->
     <g transform="translate(14.798437 234.257869)rotate(-90)scale(0.1 -0.1)">
      <defs>
       <path id="DejaVuSans-25" d="M 4653 2053 
Q 4381 2053 4226 1822 
Q 4072 1591 4072 1178 
Q 4072 772 4226 539 
Q 4381 306 4653 306 
Q 4919 306 5073 539 
Q 5228 772 5228 1178 
Q 5228 1588 5073 1820 
Q 4919 2053 4653 2053 
z
M 4653 2450 
Q 5147 2450 5437 2106 
Q 5728 1763 5728 1178 
Q 5728 594 5436 251 
Q 5144 -91 4653 -91 
Q 4153 -91 3862 251 
Q 3572 594 3572 1178 
Q 3572 1766 3864 2108 
Q 4156 2450 4653 2450 
z
M 1428 4353 
Q 1159 4353 1004 4120 
Q 850 3888 850 3481 
Q 850 3069 1003 2837 
Q 1156 2606 1428 2606 
Q 1700 2606 1854 2837 
Q 2009 3069 2009 3481 
Q 2009 3884 1853 4118 
Q 1697 4353 1428 4353 
z
M 4250 4750 
L 4750 4750 
L 1831 -91 
L 1331 -91 
L 4250 4750 
z
M 1428 4750 
Q 1922 4750 2215 4408 
Q 2509 4066 2509 3481 
Q 2509 2891 2217 2550 
Q 1925 2209 1428 2209 
Q 931 2209 642 2551 
Q 353 2894 353 3481 
Q 353 4063 643 4406 
Q 934 4750 1428 4750 
z
" transform="scale(0.015625)"/>
       <path id="DejaVuSans-66" d="M 2375 4863 
L 2375 4384 
L 1825 4384 
Q 1516 4384 1395 4259 
Q 1275 4134 1275 3809 
L 1275 3500 
L 2222 3500 
L 2222 3053 
L 1275 3053 
L 1275 0 
L 697 0 
L 697 3053 
L 147 3053 
L 147 3500 
L 697 3500 
L 697 3744 
Q 697 4328 969 4595 
Q 1241 4863 1831 4863 
L 2375 4863 
z
" transform="scale(0.015625)"/>
       <path id="DejaVuSans-53" d="M 3425 4513 
L 3425 3897 
Q 3066 4069 2747 4153 
Q 2428 4238 2131 4238 
Q 1616 4238 1336 4038 
Q 1056 3838 1056 3469 
Q 1056 3159 1242 3001 
Q 1428 2844 1947 2747 
L 2328 2669 
Q 3034 2534 3370 2195 
Q 3706 1856 3706 1288 
Q 3706 609 3251 259 
Q 2797 -91 1919 -91 
Q 1588 -91 1214 -16 
Q 841 59 441 206 
L 441 856 
Q 825 641 1194 531 
Q 1563 422 1919 422 
Q 2459 422 2753 634 
Q 3047 847 3047 1241 
Q 3047 1584 2836 1778 
Q 2625 1972 2144 2069 
L 1759 2144 
Q 1053 2284 737 2584 
Q 422 2884 422 3419 
Q 422 4038 858 4394 
Q 1294 4750 2059 4750 
Q 2388 4750 2728 4690 
Q 3069 4631 3425 4513 
z
" transform="scale(0.015625)"/>
       <path id="DejaVuSans-65" d="M 3597 1894 
L 3597 1613 
L 953 1613 
Q 991 1019 1311 708 
Q 1631 397 2203 397 
Q 2534 397 2845 478 
Q 3156 559 3463 722 
L 3463 178 
Q 3153 47 2828 -22 
Q 2503 -91 2169 -91 
Q 1331 -91 842 396 
Q 353 884 353 1716 
Q 353 2575 817 3079 
Q 1281 3584 2069 3584 
Q 2775 3584 3186 3129 
Q 3597 2675 3597 1894 
z
M 3022 2063 
Q 3016 2534 2758 2815 
Q 2500 3097 2075 3097 
Q 1594 3097 1305 2825 
Q 1016 2553 972 2059 
L 3022 2063 
z
" transform="scale(0.015625)"/>
       <path id="DejaVuSans-71" d="M 947 1747 
Q 947 1113 1208 752 
Q 1469 391 1925 391 
Q 2381 391 2643 752 
Q 2906 1113 2906 1747 
Q 2906 2381 2643 2742 
Q 2381 3103 1925 3103 
Q 1469 3103 1208 2742 
Q 947 2381 947 1747 
z
M 2906 525 
Q 2725 213 2448 61 
Q 2172 -91 1784 -91 
Q 1150 -91 751 415 
Q 353 922 353 1747 
Q 353 2572 751 3078 
Q 1150 3584 1784 3584 
Q 2172 3584 2448 3432 
Q 2725 3281 2906 2969 
L 2906 3500 
L 3481 3500 
L 3481 -1331 
L 2906 -1331 
L 2906 525 
z
" transform="scale(0.015625)"/>
       <path id="DejaVuSans-75" d="M 544 1381 
L 544 3500 
L 1119 3500 
L 1119 1403 
Q 1119 906 1312 657 
Q 1506 409 1894 409 
Q 2359 409 2629 706 
Q 2900 1003 2900 1516 
L 2900 3500 
L 3475 3500 
L 3475 0 
L 2900 0 
L 2900 538 
Q 2691 219 2414 64 
Q 2138 -91 1772 -91 
Q 1169 -91 856 284 
Q 544 659 544 1381 
z
M 1991 3584 
L 1991 3584 
z
" transform="scale(0.015625)"/>
       <path id="DejaVuSans-63" d="M 3122 3366 
L 3122 2828 
Q 2878 2963 2633 3030 
Q 2388 3097 2138 3097 
Q 1578 3097 1268 2742 
Q 959 2388 959 1747 
Q 959 1106 1268 751 
Q 1578 397 2138 397 
Q 2388 397 2633 464 
Q 2878 531 3122 666 
L 3122 134 
Q 2881 22 2623 -34 
Q 2366 -91 2075 -91 
Q 1284 -91 818 406 
Q 353 903 353 1747 
Q 353 2603 823 3093 
Q 1294 3584 2113 3584 
Q 2378 3584 2631 3529 
Q 2884 3475 3122 3366 
z
" transform="scale(0.015625)"/>
      </defs>
      <use xlink:href="#DejaVuSans-25"/>
      <use xlink:href="#DejaVuSans-20" x="95.019531"/>
      <use xlink:href="#DejaVuSans-6f" x="126.806641"/>
      <use xlink:href="#DejaVuSans-66" x="187.988281"/>
      <use xlink:href="#DejaVuSans-20" x="223.193359"/>
      <use xlink:href="#DejaVuSans-53" x="254.980469"/>
      <use xlink:href="#DejaVuSans-65" x="318.457031"/>
      <use xlink:href="#DejaVuSans-71" x="379.980469"/>
      <use xlink:href="#DejaVuSans-75" x="443.457031"/>
      <use xlink:href="#DejaVuSans-65" x="506.835938"/>
      <use xlink:href="#DejaVuSans-6e" x="568.359375"/>
      <use xlink:href="#DejaVuSans-63" x="631.738281"/>
      <use xlink:href="#DejaVuSans-65" x="686.71875"/>
      <use xlink:href="#DejaVuSans-73" x="748.242188"/>
     </g>
    </g>
   </g>
   <g id="line2d_7">
    <path d="M 86.326761 350.773682 
L 96.029826 350.517751 
L 105.73289 350.261171 
L 115.435954 350.145021 
L 125.139019 349.986538 
L 134.842083 349.744149 
L 144.545147 349.007849 
L 154.248212 347.317029 
L 163.951276 344.30348 
L 173.654341 338.119995 
L 193.060469 331.150734 
L 212.466598 325.237825 
L 231.872727 320.155387 
L 251.278855 314.647637 
L 270.684984 308.236669 
L 290.091113 275.60147 
L 309.497241 238.021171 
L 328.90337 232.61509 
L 348.309499 226.450141 
L 367.715628 208.877679 
L 387.121756 177.321432 
L 406.527885 157.36221 
L 425.934014 150.630197 
L 445.340142 148.092934 
L 464.746271 145.884697 
L 484.1524 142.612364 
L 503.558528 138.283922 
L 522.964657 135.899009 
L 542.370786 134.53831 
L 561.776915 133.47185 
L 581.183043 132.077824 
L 600.589172 131.183785 
L 619.995301 130.384105 
L 639.401429 129.476295 
L 658.807558 126.656252 
L 678.213687 110.801116 
L 697.619816 100.10311 
L 717.025944 95.37472 
L 736.432073 84.702443 
L 755.838202 73.337825 
L 775.24433 66.476541 
L 794.650459 63.979135 
L 814.056588 58.030414 
L 833.462716 50.474426 
L 852.868845 46.313908 
L 872.274974 45.769884 
L 891.681103 45.445668 
L 911.087231 45.036521 
L 930.49336 44.575689 
L 949.899489 44.159083 
" clip-path="url(#p0cd35a73eb)" style="fill: none; stroke: #7cb5ec; stroke-linecap: square"/>
   </g>
   <g id="line2d_8">
    <path d="M 86.326761 351.947938 
L 96.029826 351.809363 
L 105.73289 351.67873 
L 115.435954 351.61489 
L 125.139019 351.527859 
L 134.842083 351.381939 
L 144.545147 350.852034 
L 154.248212 349.661957 
L 163.951276 347.439724 
L 173.654341 341.837092 
L 193.060469 331.817482 
L 212.466598 319.241216 
L 231.872727 306.234655 
L 251.278855 292.661562 
L 270.684984 276.271137 
L 290.091113 248.551663 
L 309.497241 221.384549 
L 328.90337 210.515204 
L 348.309499 199.240225 
L 367.715628 183.845318 
L 387.121756 161.390544 
L 406.527885 140.833946 
L 425.934014 131.571572 
L 445.340142 124.609594 
L 464.746271 118.567872 
L 484.1524 112.464774 
L 503.558528 105.958615 
L 522.964657 101.135897 
L 542.370786 96.819072 
L 561.776915 93.757807 
L 581.183043 90.561223 
L 600.589172 88.016376 
L 619.995301 86.134968 
L 639.401429 84.124175 
L 658.807558 81.495487 
L 678.213687 74.166639 
L 697.619816 69.174333 
L 717.025944 66.660716 
L 736.432073 61.922711 
L 755.838202 57.059247 
L 775.24433 53.773893 
L 794.650459 52.249723 
L 814.056588 49.479817 
L 833.462716 46.261893 
L 852.868845 44.443615 
L 872.274974 44.006173 
L 891.681103 43.67875 
L 911.087231 43.346169 
L 930.49336 42.993308 
L 949.899489 42.688507 
" clip-path="url(#p0cd35a73eb)" style="fill: none; stroke: #434348; stroke-linecap: square"/>
   </g>
   <g id="line2d_9">
    <path d="M 86.326761 350.192621 
L 96.029826 349.927894 
L 105.73289 349.638827 
L 115.435954 349.514836 
L 125.139019 349.351366 
L 134.842083 349.124727 
L 144.545147 348.428819 
L 154.248212 346.472502 
L 163.951276 341.900875 
L 173.654341 331.079661 
L 193.060469 319.921267 
L 212.466598 311.640431 
L 231.872727 304.884278 
L 251.278855 297.786424 
L 270.684984 290.303767 
L 290.091113 252.395232 
L 309.497241 210.618542 
L 328.90337 204.948094 
L 348.309499 200.544002 
L 367.715628 190.884305 
L 387.121756 170.574111 
L 406.527885 151.334559 
L 425.934014 145.014041 
L 445.340142 142.111845 
L 464.746271 139.152899 
L 484.1524 135.618533 
L 503.558528 131.301956 
L 522.964657 128.914129 
L 542.370786 127.383955 
L 561.776915 126.082139 
L 581.183043 124.299059 
L 600.589172 123.316978 
L 619.995301 122.248066 
L 639.401429 121.229429 
L 658.807558 118.220135 
L 678.213687 103.902219 
L 697.619816 94.674882 
L 717.025944 90.458874 
L 736.432073 80.100574 
L 755.838202 69.436254 
L 775.24433 63.13714 
L 794.650459 60.756632 
L 814.056588 55.442864 
L 833.462716 49.300446 
L 852.868845 46.173246 
L 872.274974 45.675992 
L 891.681103 45.342183 
L 911.087231 44.917238 
L 930.49336 44.415157 
L 949.899489 43.974778 
" clip-path="url(#p0cd35a73eb)" style="fill: none; stroke: #90ed7d; stroke-linecap: square"/>
   </g>
   <g id="line2d_10">
    <path d="M 86.326761 350.802713 
L 96.029826 350.562949 
L 105.73289 350.328143 
L 115.435954 350.22079 
L 125.139019 350.085054 
L 134.842083 349.874424 
L 144.545147 349.162634 
L 154.248212 347.584686 
L 163.951276 344.684701 
L 173.654341 337.940385 
L 193.060469 327.704968 
L 212.466598 316.49276 
L 231.872727 305.93417 
L 251.278855 295.722316 
L 270.684984 283.103858 
L 290.091113 249.819926 
L 309.497241 214.844926 
L 328.90337 207.221071 
L 348.309499 200.382713 
L 367.715628 188.131376 
L 387.121756 163.650671 
L 406.527885 143.501269 
L 425.934014 136.60476 
L 445.340142 132.263855 
L 464.746271 128.498797 
L 484.1524 124.036516 
L 503.558528 118.551016 
L 522.964657 114.790139 
L 542.370786 111.70099 
L 561.776915 109.699491 
L 581.183043 107.357258 
L 600.589172 105.6286 
L 619.995301 104.375061 
L 639.401429 103.048899 
L 658.807558 100.313668 
L 678.213687 89.359329 
L 697.619816 82.314467 
L 717.025944 78.976244 
L 736.432073 71.601159 
L 755.838202 64.099609 
L 775.24433 59.234264 
L 794.650459 57.390961 
L 814.056588 53.424954 
L 833.462716 48.639941 
L 852.868845 46.074721 
L 872.274974 45.653563 
L 891.681103 45.359459 
L 911.087231 45.007918 
L 930.49336 44.612173 
L 949.899489 44.280952 
" clip-path="url(#p0cd35a73eb)" style="fill: none; stroke: #f7a35c; stroke-linecap: square"/>
   </g>
   <g id="line2d_11">
    <path d="M 86.326761 351.305417 
L 96.029826 351.098579 
L 105.73289 350.879209 
L 115.435954 350.784828 
L 125.139019 350.658842 
L 134.842083 350.464993 
L 144.545147 349.792221 
L 154.248212 347.909611 
L 163.951276 343.884424 
L 173.654341 334.599281 
L 193.060469 323.504411 
L 212.466598 313.946276 
L 231.872727 305.574893 
L 251.278855 297.248592 
L 270.684984 288.099865 
L 290.091113 254.252341 
L 309.497241 216.699595 
L 328.90337 209.995516 
L 348.309499 203.154663 
L 367.715628 188.524939 
L 387.121756 160.448273 
L 406.527885 138.473626 
L 425.934014 131.337825 
L 445.340142 127.882676 
L 464.746271 124.857945 
L 484.1524 121.368744 
L 503.558528 117.346786 
L 522.964657 114.841388 
L 542.370786 112.942316 
L 561.776915 111.503482 
L 581.183043 109.712678 
L 600.589172 108.589267 
L 619.995301 107.632035 
L 639.401429 106.638732 
L 658.807558 104.206933 
L 678.213687 92.201482 
L 697.619816 84.462236 
L 717.025944 80.933498 
L 736.432073 72.969067 
L 755.838202 64.438441 
L 775.24433 59.327626 
L 794.650459 57.218772 
L 814.056588 52.741383 
L 833.462716 47.567051 
L 852.868845 44.709656 
L 872.274974 44.257838 
L 891.681103 43.98091 
L 911.087231 43.670383 
L 930.49336 43.301379 
L 949.899489 42.923322 
" clip-path="url(#p0cd35a73eb)" style="fill: none; stroke: #8085e9; stroke-linecap: square"/>
   </g>
   <g id="line2d_12">
    <path d="M 86.326761 351.178551 
L 96.029826 350.942151 
L 105.73289 350.692038 
L 115.435954 350.583008 
L 125.139019 350.432663 
L 134.842083 350.219403 
L 144.545147 349.604957 
L 154.248212 347.942937 
L 163.951276 344.00121 
L 173.654341 334.155064 
L 193.060469 323.172446 
L 212.466598 314.652042 
L 231.872727 307.800068 
L 251.278855 301.564042 
L 270.684984 294.565216 
L 290.091113 258.782781 
L 309.497241 219.996336 
L 328.90337 214.835592 
L 348.309499 211.340508 
L 367.715628 205.846144 
L 387.121756 185.806032 
L 406.527885 155.885258 
L 425.934014 143.315557 
L 445.340142 139.579131 
L 464.746271 135.798556 
L 484.1524 132.666378 
L 503.558528 128.745343 
L 522.964657 126.302537 
L 542.370786 124.865393 
L 561.776915 123.731575 
L 581.183043 122.412743 
L 600.589172 121.497837 
L 619.995301 120.612805 
L 639.401429 119.752321 
L 658.807558 116.819157 
L 678.213687 103.30598 
L 697.619816 94.62915 
L 717.025944 90.495712 
L 736.432073 80.733297 
L 755.838202 70.420732 
L 775.24433 64.398559 
L 794.650459 61.930499 
L 814.056588 56.486307 
L 833.462716 50.122412 
L 852.868845 46.731887 
L 872.274974 46.19235 
L 891.681103 45.878095 
L 911.087231 45.51753 
L 930.49336 45.076775 
L 949.899489 44.613144 
" clip-path="url(#p0cd35a73eb)" style="fill: none; stroke: #f15c80; stroke-linecap: square"/>
   </g>
   <g id="line2d_13">
    <path d="M 86.326761 351.706642 
L 96.029826 351.563132 
L 105.73289 351.425272 
L 115.435954 351.359791 
L 125.139019 351.267269 
L 134.842083 351.088812 
L 144.545147 350.360801 
L 154.248212 348.297865 
L 163.951276 343.914725 
L 173.654341 333.749744 
L 193.060469 320.885976 
L 212.466598 309.152188 
L 231.872727 298.44957 
L 251.278855 288.021203 
L 270.684984 276.694395 
L 290.091113 242.025408 
L 309.497241 203.840253 
L 328.90337 195.932046 
L 348.309499 186.257382 
L 367.715628 169.585962 
L 387.121756 150.641862 
L 406.527885 138.698012 
L 425.934014 132.439628 
L 445.340142 128.713206 
L 464.746271 125.288608 
L 484.1524 120.772406 
L 503.558528 115.196013 
L 522.964657 111.717383 
L 542.370786 109.023664 
L 561.776915 107.021787 
L 581.183043 104.793857 
L 600.589172 103.277366 
L 619.995301 102.018553 
L 639.401429 100.733991 
L 658.807558 98.449942 
L 678.213687 88.738032 
L 697.619816 82.003765 
L 717.025944 78.568316 
L 736.432073 71.775056 
L 755.838202 64.358501 
L 775.24433 59.604841 
L 794.650459 57.469809 
L 814.056588 53.344626 
L 833.462716 48.719358 
L 852.868845 46.203486 
L 872.274974 45.684664 
L 891.681103 45.377126 
L 911.087231 45.082547 
L 930.49336 44.717776 
L 949.899489 44.316026 
" clip-path="url(#p0cd35a73eb)" style="fill: none; stroke: #e4d354; stroke-linecap: square"/>
   </g>
   <g id="line2d_14">
    <path d="M 86.326761 351.058035 
L 96.029826 350.876223 
L 105.73289 350.70885 
L 115.435954 350.631739 
L 125.139019 350.530931 
L 134.842083 350.340618 
L 144.545147 349.638564 
L 154.248212 347.662718 
L 163.951276 343.355063 
L 173.654341 333.382904 
L 193.060469 323.271459 
L 212.466598 316.0538 
L 231.872727 310.197226 
L 251.278855 304.195644 
L 270.684984 297.852167 
L 290.091113 265.560634 
L 309.497241 230.957416 
L 328.90337 226.120598 
L 348.309499 216.748425 
L 367.715628 187.964851 
L 387.121756 152.150164 
L 406.527885 134.194989 
L 425.934014 127.693866 
L 445.340142 125.361083 
L 464.746271 123.224768 
L 484.1524 120.381484 
L 503.558528 116.684157 
L 522.964657 114.602945 
L 542.370786 113.457719 
L 561.776915 112.440309 
L 581.183043 110.975608 
L 600.589172 110.202514 
L 619.995301 109.378134 
L 639.401429 108.518195 
L 658.807558 106.392322 
L 678.213687 94.728029 
L 697.619816 86.997516 
L 717.025944 83.442991 
L 736.432073 75.883709 
L 755.838202 67.205271 
L 775.24433 61.640938 
L 794.650459 59.257058 
L 814.056588 54.583328 
L 833.462716 49.176599 
L 852.868845 46.388516 
L 872.274974 45.862336 
L 891.681103 45.562469 
L 911.087231 45.248198 
L 930.49336 44.839912 
L 949.899489 44.347617 
" clip-path="url(#p0cd35a73eb)" style="fill: none; stroke: #2b908f; stroke-linecap: square"/>
   </g>
   <g id="line2d_15">
    <path d="M 86.326761 351.847767 
L 96.029826 351.705465 
L 105.73289 351.575349 
L 115.435954 351.518036 
L 125.139019 351.439089 
L 134.842083 351.306972 
L 144.545147 350.830086 
L 154.248212 349.407702 
L 163.951276 346.030698 
L 173.654341 337.668807 
L 193.060469 327.16626 
L 212.466598 317.532807 
L 231.872727 308.749071 
L 251.278855 300.254198 
L 270.684984 290.85021 
L 290.091113 260.989307 
L 309.497241 229.526846 
L 328.90337 222.896693 
L 348.309499 216.67336 
L 367.715628 204.082869 
L 387.121756 180.237791 
L 406.527885 159.414357 
L 425.934014 151.068511 
L 445.340142 146.99687 
L 464.746271 143.185042 
L 484.1524 138.973145 
L 503.558528 133.783435 
L 522.964657 130.420778 
L 542.370786 127.933682 
L 561.776915 125.904942 
L 581.183043 123.4749 
L 600.589172 121.940744 
L 619.995301 120.595971 
L 639.401429 119.245539 
L 658.807558 116.409788 
L 678.213687 104.441912 
L 697.619816 96.296423 
L 717.025944 92.010206 
L 736.432073 83.506136 
L 755.838202 74.066695 
L 775.24433 68.076061 
L 794.650459 65.275808 
L 814.056588 59.371059 
L 833.462716 52.727263 
L 852.868845 49.215431 
L 872.274974 48.501206 
L 891.681103 48.083259 
L 911.087231 47.67928 
L 930.49336 47.178675 
L 949.899489 46.566103 
" clip-path="url(#p0cd35a73eb)" style="fill: none; stroke: #f45b5b; stroke-linecap: square"/>
   </g>
   <g id="line2d_16">
    <path d="M 86.326761 352.018833 
L 96.029826 351.906547 
L 105.73289 351.797782 
L 115.435954 351.746907 
L 125.139019 351.680074 
L 134.842083 351.549329 
L 144.545147 350.998193 
L 154.248212 349.366153 
L 163.951276 345.780217 
L 173.654341 336.928117 
L 193.060469 324.653183 
L 212.466598 312.084325 
L 231.872727 299.911536 
L 251.278855 288.328906 
L 270.684984 275.084207 
L 290.091113 246.208479 
L 309.497241 216.623513 
L 328.90337 208.025721 
L 348.309499 199.861102 
L 367.715628 186.219 
L 387.121756 165.954989 
L 406.527885 150.440616 
L 425.934014 143.207862 
L 445.340142 138.329787 
L 464.746271 133.7022 
L 484.1524 128.694005 
L 503.558528 122.777998 
L 522.964657 118.799737 
L 542.370786 115.659195 
L 561.776915 113.173349 
L 581.183043 110.571626 
L 600.589172 108.654177 
L 619.995301 107.140432 
L 639.401429 105.586381 
L 658.807558 102.894869 
L 678.213687 92.881872 
L 697.619816 85.712571 
L 717.025944 81.996457 
L 736.432073 74.604153 
L 755.838202 66.116765 
L 775.24433 61.000615 
L 794.650459 58.662246 
L 814.056588 54.236454 
L 833.462716 49.346719 
L 852.868845 46.702675 
L 872.274974 46.107662 
L 891.681103 45.736194 
L 911.087231 45.365326 
L 930.49336 44.921782 
L 949.899489 44.453247 
" clip-path="url(#p0cd35a73eb)" style="fill: none; stroke: #91e8e1; stroke-linecap: square"/>
   </g>
   <g id="line2d_17">
    <path d="M 86.326761 350.393176 
L 96.029826 350.070965 
L 105.73289 349.830104 
L 115.435954 349.729373 
L 125.139019 349.595668 
L 134.842083 349.426348 
L 144.545147 348.900855 
L 154.248212 347.594165 
L 163.951276 345.008322 
L 173.654341 338.518778 
L 193.060469 326.956159 
L 212.466598 312.765832 
L 231.872727 298.00256 
L 251.278855 283.600535 
L 270.684984 266.574502 
L 290.091113 241.311773 
L 309.497241 216.74679 
L 328.90337 204.87528 
L 348.309499 192.473522 
L 367.715628 176.823932 
L 387.121756 158.354851 
L 406.527885 143.011479 
L 425.934014 133.075309 
L 445.340142 125.291238 
L 464.746271 118.415252 
L 484.1524 111.447355 
L 503.558528 103.927305 
L 522.964657 98.2844 
L 542.370786 93.501588 
L 561.776915 90.043307 
L 581.183043 86.639514 
L 600.589172 83.743304 
L 619.995301 81.733131 
L 639.401429 79.731257 
L 658.807558 77.172216 
L 678.213687 69.475354 
L 697.619816 64.210644 
L 717.025944 61.927058 
L 736.432073 57.908527 
L 755.838202 54.116783 
L 775.24433 51.574418 
L 794.650459 50.3926 
L 814.056588 48.148701 
L 833.462716 45.183635 
L 852.868845 43.474223 
L 872.274974 43.134465 
L 891.681103 42.872193 
L 911.087231 42.623364 
L 930.49336 42.356891 
L 949.899489 42.152548 
" clip-path="url(#p0cd35a73eb)" style="fill: none; stroke: #7cb5ec; stroke-linecap: square"/>
   </g>
   <g id="line2d_18">
    <path d="M 86.326761 351.620261 
L 96.029826 351.478158 
L 105.73289 351.342228 
L 115.435954 351.283641 
L 125.139019 351.204196 
L 134.842083 351.048343 
L 144.545147 350.461686 
L 154.248212 348.892146 
L 163.951276 345.625973 
L 173.654341 337.605996 
L 193.060469 326.136803 
L 212.466598 314.596766 
L 231.872727 303.74683 
L 251.278855 292.496019 
L 270.684984 279.909205 
L 290.091113 250.341956 
L 309.497241 219.711891 
L 328.90337 211.248309 
L 348.309499 202.935292 
L 367.715628 191.008081 
L 387.121756 175.229479 
L 406.527885 162.088299 
L 425.934014 155.154508 
L 445.340142 150.20039 
L 464.746271 145.988848 
L 484.1524 141.177864 
L 503.558528 135.760133 
L 522.964657 132.32575 
L 542.370786 129.334042 
L 561.776915 127.119954 
L 581.183043 124.538607 
L 600.589172 122.814588 
L 619.995301 121.403364 
L 639.401429 119.954453 
L 658.807558 116.784768 
L 678.213687 103.356653 
L 697.619816 94.602259 
L 717.025944 90.387846 
L 736.432073 81.29188 
L 755.838202 72.00481 
L 775.24433 65.943675 
L 794.650459 63.42206 
L 814.056588 57.806183 
L 833.462716 51.097768 
L 852.868845 47.517474 
L 872.274974 46.928346 
L 891.681103 46.546923 
L 911.087231 46.096845 
L 930.49336 45.581921 
L 949.899489 45.103166 
" clip-path="url(#p0cd35a73eb)" style="fill: none; stroke: #434348; stroke-linecap: square"/>
   </g>
   <g id="line2d_19">
    <path d="M 86.326761 350.892832 
L 96.029826 350.666265 
L 105.73289 350.480017 
L 115.435954 350.395018 
L 125.139019 350.280559 
L 134.842083 350.095614 
L 144.545147 349.464771 
L 154.248212 347.773215 
L 163.951276 344.122953 
L 173.654341 335.063538 
L 193.060469 322.517031 
L 212.466598 310.157282 
L 231.872727 298.927021 
L 251.278855 287.610782 
L 270.684984 276.001856 
L 290.091113 249.182897 
L 309.497241 220.514544 
L 328.90337 212.488991 
L 348.309499 205.278539 
L 367.715628 194.951967 
L 387.121756 176.78829 
L 406.527885 158.09041 
L 425.934014 148.245635 
L 445.340142 142.902102 
L 464.746271 138.336217 
L 484.1524 133.624753 
L 503.558528 128.394084 
L 522.964657 124.815359 
L 542.370786 121.96662 
L 561.776915 119.733313 
L 581.183043 117.084562 
L 600.589172 115.332047 
L 619.995301 113.776957 
L 639.401429 112.256197 
L 658.807558 109.396543 
L 678.213687 97.297044 
L 697.619816 89.283692 
L 717.025944 85.640445 
L 736.432073 77.653546 
L 755.838202 69.566468 
L 775.24433 64.053845 
L 794.650459 61.808785 
L 814.056588 56.862322 
L 833.462716 50.805364 
L 852.868845 47.552309 
L 872.274974 46.989626 
L 891.681103 46.636559 
L 911.087231 46.250399 
L 930.49336 45.801156 
L 949.899489 45.360951 
" clip-path="url(#p0cd35a73eb)" style="fill: none; stroke: #90ed7d; stroke-linecap: square"/>
   </g>
   <g id="line2d_20">
    <path d="M 86.326761 351.262796 
L 96.029826 351.068335 
L 105.73289 350.864118 
L 115.435954 350.770927 
L 125.139019 350.645886 
L 134.842083 350.446797 
L 144.545147 349.63946 
L 154.248212 347.1952 
L 163.951276 341.471762 
L 173.654341 328.476314 
L 193.060469 315.542763 
L 212.466598 306.303004 
L 231.872727 298.680324 
L 251.278855 291.215879 
L 270.684984 282.669974 
L 290.091113 242.874969 
L 309.497241 196.711914 
L 328.90337 190.274749 
L 348.309499 185.081804 
L 367.715628 174.964796 
L 387.121756 160.382478 
L 406.527885 150.51068 
L 425.934014 146.211684 
L 445.340142 143.72683 
L 464.746271 141.346016 
L 484.1524 137.666035 
L 503.558528 132.408184 
L 522.964657 129.448315 
L 542.370786 127.32533 
L 561.776915 125.625198 
L 581.183043 123.688329 
L 600.589172 122.461337 
L 619.995301 121.480637 
L 639.401429 120.404514 
L 658.807558 117.507548 
L 678.213687 103.284628 
L 697.619816 94.040553 
L 717.025944 89.67398 
L 736.432073 79.658672 
L 755.838202 69.466523 
L 775.24433 63.053772 
L 794.650459 60.679822 
L 814.056588 55.267705 
L 833.462716 49.038863 
L 852.868845 45.692395 
L 872.274974 45.193181 
L 891.681103 44.872095 
L 911.087231 44.4712 
L 930.49336 44.008463 
L 949.899489 43.60716 
" clip-path="url(#p0cd35a73eb)" style="fill: none; stroke: #f7a35c; stroke-linecap: square"/>
   </g>
   <g id="line2d_21">
    <path d="M 86.326761 351.531876 
L 96.029826 351.373061 
L 105.73289 351.203535 
L 115.435954 351.130063 
L 125.139019 351.032668 
L 134.842083 350.873015 
L 144.545147 350.292234 
L 154.248212 348.368999 
L 163.951276 343.362991 
L 173.654341 330.417642 
L 193.060469 316.243901 
L 212.466598 305.360436 
L 231.872727 296.130165 
L 251.278855 287.181066 
L 270.684984 277.699975 
L 290.091113 237.709804 
L 309.497241 193.689047 
L 328.90337 187.041808 
L 348.309499 182.364624 
L 367.715628 175.567173 
L 387.121756 162.685353 
L 406.527885 148.024204 
L 425.934014 140.574469 
L 445.340142 137.148238 
L 464.746271 133.686633 
L 484.1524 129.795962 
L 503.558528 124.79517 
L 522.964657 121.760188 
L 542.370786 119.433254 
L 561.776915 117.675104 
L 581.183043 115.554837 
L 600.589172 114.270184 
L 619.995301 113.077683 
L 639.401429 111.904985 
L 658.807558 109.17845 
L 678.213687 97.169211 
L 697.619816 89.205604 
L 717.025944 85.342221 
L 736.432073 76.46781 
L 755.838202 67.138551 
L 775.24433 61.469647 
L 794.650459 59.03124 
L 814.056588 54.04484 
L 833.462716 48.838694 
L 852.868845 46.190478 
L 872.274974 45.663269 
L 891.681103 45.335773 
L 911.087231 44.9814 
L 930.49336 44.544547 
L 949.899489 44.061315 
" clip-path="url(#p0cd35a73eb)" style="fill: none; stroke: #8085e9; stroke-linecap: square"/>
   </g>
   <g id="line2d_22">
    <path d="M 86.326761 351.091893 
L 96.029826 350.908675 
L 105.73289 350.727149 
L 115.435954 350.651717 
L 125.139019 350.546339 
L 134.842083 350.357025 
L 144.545147 349.571007 
L 154.248212 347.312848 
L 163.951276 342.15738 
L 173.654341 330.1315 
L 193.060469 316.296627 
L 212.466598 303.861091 
L 231.872727 292.659968 
L 251.278855 282.537783 
L 270.684984 270.815779 
L 290.091113 234.306484 
L 309.497241 195.200474 
L 328.90337 186.899713 
L 348.309499 180.222099 
L 367.715628 170.597264 
L 387.121756 154.118079 
L 406.527885 140.50645 
L 425.934014 133.628552 
L 445.340142 129.539757 
L 464.746271 125.871301 
L 484.1524 121.44205 
L 503.558528 115.905799 
L 522.964657 112.577373 
L 542.370786 110.175132 
L 561.776915 108.433438 
L 581.183043 106.526258 
L 600.589172 105.156424 
L 619.995301 104.076503 
L 639.401429 102.939943 
L 658.807558 100.618986 
L 678.213687 89.555451 
L 697.619816 82.261159 
L 717.025944 78.925145 
L 736.432073 71.197386 
L 755.838202 63.0747 
L 775.24433 58.406824 
L 794.650459 56.427072 
L 814.056588 52.228665 
L 833.462716 47.499132 
L 852.868845 44.780097 
L 872.274974 44.314578 
L 891.681103 44.032788 
L 911.087231 43.704189 
L 930.49336 43.311872 
L 949.899489 42.957964 
" clip-path="url(#p0cd35a73eb)" style="fill: none; stroke: #f15c80; stroke-linecap: square"/>
   </g>
   <g id="line2d_23">
    <path d="M 86.326761 351.632605 
L 96.029826 351.48896 
L 105.73289 351.349827 
L 115.435954 351.285751 
L 125.139019 351.193099 
L 134.842083 351.03787 
L 144.545147 350.332364 
L 154.248212 348.365143 
L 163.951276 343.923437 
L 173.654341 333.101861 
L 193.060469 320.307607 
L 212.466598 309.472707 
L 231.872727 300.169525 
L 251.278855 291.198936 
L 270.684984 280.825832 
L 290.091113 243.457039 
L 309.497241 202.369975 
L 328.90337 195.023254 
L 348.309499 189.740692 
L 367.715628 182.405608 
L 387.121756 164.494714 
L 406.527885 146.547074 
L 425.934014 138.755678 
L 445.340142 134.884422 
L 464.746271 131.511626 
L 484.1524 127.502135 
L 503.558528 122.816577 
L 522.964657 119.890432 
L 542.370786 117.662026 
L 561.776915 116.064398 
L 581.183043 114.153392 
L 600.589172 112.842351 
L 619.995301 111.770461 
L 639.401429 110.582383 
L 658.807558 108.086137 
L 678.213687 96.028543 
L 697.619816 87.889395 
L 717.025944 83.774469 
L 736.432073 75.344536 
L 755.838202 66.318006 
L 775.24433 60.85115 
L 794.650459 58.344512 
L 814.056588 53.586717 
L 833.462716 48.176819 
L 852.868845 45.279351 
L 872.274974 44.731518 
L 891.681103 44.42716 
L 911.087231 44.128949 
L 930.49336 43.757757 
L 949.899489 43.298344 
" clip-path="url(#p0cd35a73eb)" style="fill: none; stroke: #e4d354; stroke-linecap: square"/>
   </g>
   <g id="line2d_24">
    <path d="M 86.326761 351.690923 
L 96.029826 351.529544 
L 105.73289 351.372686 
L 115.435954 351.299858 
L 125.139019 351.188748 
L 134.842083 350.986537 
L 144.545147 350.154791 
L 154.248212 348.086163 
L 163.951276 344.206524 
L 173.654341 335.348212 
L 193.060469 322.241872 
L 212.466598 308.373011 
L 231.872727 295.082695 
L 251.278855 281.474267 
L 270.684984 266.239179 
L 290.091113 235.189712 
L 309.497241 202.969238 
L 328.90337 192.791321 
L 348.309499 182.981355 
L 367.715628 169.809751 
L 387.121756 152.368559 
L 406.527885 138.119142 
L 425.934014 130.161234 
L 445.340142 124.800723 
L 464.746271 120.20059 
L 484.1524 115.292539 
L 503.558528 110.166291 
L 522.964657 106.698004 
L 542.370786 103.977632 
L 561.776915 101.785511 
L 581.183043 99.478788 
L 600.589172 97.822836 
L 619.995301 96.459696 
L 639.401429 95.028662 
L 658.807558 92.754983 
L 678.213687 83.25023 
L 697.619816 76.763233 
L 717.025944 73.525697 
L 736.432073 67.208445 
L 755.838202 60.358776 
L 775.24433 56.093444 
L 794.650459 54.196286 
L 814.056588 50.676528 
L 833.462716 46.562737 
L 852.868845 44.227029 
L 872.274974 43.787869 
L 891.681103 43.508727 
L 911.087231 43.217375 
L 930.49336 42.888685 
L 949.899489 42.568964 
" clip-path="url(#p0cd35a73eb)" style="fill: none; stroke: #2b908f; stroke-linecap: square"/>
   </g>
   <g id="line2d_25">
    <path d="M 86.326761 351.829463 
L 96.029826 351.676511 
L 105.73289 351.537271 
L 115.435954 351.469459 
L 125.139019 351.376301 
L 134.842083 351.230138 
L 144.545147 350.759738 
L 154.248212 349.621 
L 163.951276 347.290134 
L 173.654341 341.651013 
L 193.060469 333.338046 
L 212.466598 324.242254 
L 231.872727 315.754355 
L 251.278855 306.584266 
L 270.684984 296.2704 
L 290.091113 268.163211 
L 309.497241 237.842126 
L 328.90337 230.869451 
L 348.309499 223.76671 
L 367.715628 213.467866 
L 387.121756 193.085769 
L 406.527885 169.68271 
L 425.934014 159.466612 
L 445.340142 154.416767 
L 464.746271 150.219114 
L 484.1524 145.530896 
L 503.558528 139.606408 
L 522.964657 135.721173 
L 542.370786 133.036003 
L 561.776915 130.97242 
L 581.183043 128.154879 
L 600.589172 126.565788 
L 619.995301 125.138823 
L 639.401429 123.668896 
L 658.807558 120.538916 
L 678.213687 106.012835 
L 697.619816 96.652532 
L 717.025944 92.517274 
L 736.432073 83.367892 
L 755.838202 73.809963 
L 775.24433 67.917737 
L 794.650459 65.426272 
L 814.056588 59.552165 
L 833.462716 51.947015 
L 852.868845 47.862108 
L 872.274974 47.268386 
L 891.681103 46.866539 
L 911.087231 46.413273 
L 930.49336 45.909908 
L 949.899489 45.447727 
" clip-path="url(#p0cd35a73eb)" style="fill: none; stroke: #f45b5b; stroke-linecap: square"/>
   </g>
   <g id="line2d_26">
    <path d="M 86.326761 351.92331 
L 96.029826 351.792918 
L 105.73289 351.66309 
L 115.435954 351.603292 
L 125.139019 351.519884 
L 134.842083 351.383819 
L 144.545147 350.892937 
L 154.248212 349.486273 
L 163.951276 346.374099 
L 173.654341 338.993494 
L 193.060469 330.530147 
L 212.466598 323.554303 
L 231.872727 317.551643 
L 251.278855 311.301504 
L 270.684984 304.464569 
L 290.091113 277.992257 
L 309.497241 248.02451 
L 328.90337 242.628128 
L 348.309499 237.884904 
L 367.715628 227.127417 
L 387.121756 203.260386 
L 406.527885 181.037973 
L 425.934014 172.539676 
L 445.340142 168.674212 
L 464.746271 165.359015 
L 484.1524 161.728851 
L 503.558528 157.25061 
L 522.964657 154.477386 
L 542.370786 152.508591 
L 561.776915 150.894016 
L 581.183043 148.723285 
L 600.589172 147.451651 
L 619.995301 146.268056 
L 639.401429 145.03937 
L 658.807558 141.948552 
L 678.213687 125.770897 
L 697.619816 114.993954 
L 717.025944 109.621928 
L 736.432073 97.884479 
L 755.838202 85.212118 
L 775.24433 77.542252 
L 794.650459 74.109831 
L 814.056588 65.747402 
L 833.462716 55.950749 
L 852.868845 50.585956 
L 872.274974 49.760814 
L 891.681103 49.293064 
L 911.087231 48.800858 
L 930.49336 48.226189 
L 949.899489 47.587712 
" clip-path="url(#p0cd35a73eb)" style="fill: none; stroke: #91e8e1; stroke-linecap: square"/>
   </g>
   <g id="line2d_27">
    <path d="M 86.326761 351.475587 
L 96.029826 351.31325 
L 105.73289 351.158402 
L 115.435954 351.08829 
L 125.139019 350.988125 
L 134.842083 350.844011 
L 144.545147 350.319186 
L 154.248212 348.881636 
L 163.951276 345.642692 
L 173.654341 337.805875 
L 193.060469 328.24489 
L 212.466598 319.545993 
L 231.872727 311.638694 
L 251.278855 303.713549 
L 270.684984 295.263168 
L 290.091113 262.773473 
L 309.497241 227.536514 
L 328.90337 221.421169 
L 348.309499 214.585406 
L 367.715628 200.348242 
L 387.121756 178.025553 
L 406.527885 161.205685 
L 425.934014 154.525941 
L 445.340142 151.33977 
L 464.746271 148.310301 
L 484.1524 144.195804 
L 503.558528 138.310157 
L 522.964657 134.420031 
L 542.370786 131.516453 
L 561.776915 129.504646 
L 581.183043 126.967459 
L 600.589172 125.499993 
L 619.995301 124.255154 
L 639.401429 122.944316 
L 658.807558 119.795282 
L 678.213687 105.633817 
L 697.619816 96.409204 
L 717.025944 92.262923 
L 736.432073 82.817101 
L 755.838202 72.991828 
L 775.24433 66.814038 
L 794.650459 64.202548 
L 814.056588 58.265415 
L 833.462716 51.237647 
L 852.868845 47.571133 
L 872.274974 46.992029 
L 891.681103 46.625351 
L 911.087231 46.235295 
L 930.49336 45.784642 
L 949.899489 45.269298 
" clip-path="url(#p0cd35a73eb)" style="fill: none; stroke: #7cb5ec; stroke-linecap: square"/>
   </g>
   <g id="line2d_28">
    <path d="M 86.326761 352.028495 
L 96.029826 351.924642 
L 105.73289 351.81934 
L 115.435954 351.773797 
L 125.139019 351.709263 
L 134.842083 351.594143 
L 144.545147 351.105343 
L 154.248212 349.764534 
L 163.951276 346.926553 
L 173.654341 340.276713 
L 193.060469 331.155559 
L 212.466598 321.18015 
L 231.872727 311.405787 
L 251.278855 301.749591 
L 270.684984 289.420363 
L 290.091113 259.977919 
L 309.497241 229.619163 
L 328.90337 221.774098 
L 348.309499 214.790698 
L 367.715628 205.088607 
L 387.121756 190.131413 
L 406.527885 177.829774 
L 425.934014 171.355417 
L 445.340142 166.420688 
L 464.746271 161.943929 
L 484.1524 156.603381 
L 503.558528 149.912111 
L 522.964657 145.407666 
L 542.370786 141.067906 
L 561.776915 138.181432 
L 581.183043 135.042967 
L 600.589172 132.68008 
L 619.995301 131.095 
L 639.401429 129.350566 
L 658.807558 125.965757 
L 678.213687 112.107339 
L 697.619816 102.556973 
L 717.025944 97.880503 
L 736.432073 87.774935 
L 755.838202 77.230697 
L 775.24433 70.970904 
L 794.650459 68.273291 
L 814.056588 61.677558 
L 833.462716 53.685786 
L 852.868845 49.42356 
L 872.274974 48.721703 
L 891.681103 48.268828 
L 911.087231 47.743256 
L 930.49336 47.169345 
L 949.899489 46.645461 
" clip-path="url(#p0cd35a73eb)" style="fill: none; stroke: #434348; stroke-linecap: square"/>
   </g>
   <g id="line2d_29">
    <path d="M 86.326761 351.317583 
L 96.029826 351.137347 
L 105.73289 350.976251 
L 115.435954 350.904992 
L 125.139019 350.806588 
L 134.842083 350.644038 
L 144.545147 350.063514 
L 154.248212 348.712421 
L 163.951276 346.094966 
L 173.654341 340.077538 
L 193.060469 332.238958 
L 212.466598 324.623526 
L 231.872727 317.622108 
L 251.278855 310.730578 
L 270.684984 302.205262 
L 290.091113 272.775358 
L 309.497241 242.329303 
L 328.90337 236.431753 
L 348.309499 229.265709 
L 367.715628 213.898641 
L 387.121756 184.490243 
L 406.527885 159.791285 
L 425.934014 150.885645 
L 445.340142 147.109043 
L 464.746271 143.798142 
L 484.1524 140.170174 
L 503.558528 135.713766 
L 522.964657 132.645813 
L 542.370786 130.126611 
L 561.776915 128.429889 
L 581.183043 126.467773 
L 600.589172 125.0123 
L 619.995301 123.941904 
L 639.401429 122.722893 
L 658.807558 119.801015 
L 678.213687 106.13166 
L 697.619816 96.850369 
L 717.025944 92.520011 
L 736.432073 83.100975 
L 755.838202 73.014068 
L 775.24433 67.050151 
L 794.650459 64.468225 
L 814.056588 58.518658 
L 833.462716 51.42065 
L 852.868845 47.636948 
L 872.274974 47.0549 
L 891.681103 46.712357 
L 911.087231 46.321898 
L 930.49336 45.864006 
L 949.899489 45.352277 
" clip-path="url(#p0cd35a73eb)" style="fill: none; stroke: #90ed7d; stroke-linecap: square"/>
   </g>
   <g id="line2d_30">
    <path d="M 86.326761 348.557469 
L 96.029826 348.027844 
L 105.73289 347.611627 
L 115.435954 347.426208 
L 125.139019 347.159529 
L 134.842083 346.856045 
L 144.545147 346.186774 
L 154.248212 344.932564 
L 163.951276 342.692591 
L 173.654341 337.570288 
L 193.060469 331.517255 
L 212.466598 326.066651 
L 231.872727 321.330215 
L 251.278855 316.155754 
L 270.684984 310.080565 
L 290.091113 273.50013 
L 309.497241 236.690748 
L 328.90337 231.88733 
L 348.309499 228.108311 
L 367.715628 218.841476 
L 387.121756 190.939626 
L 406.527885 157.108701 
L 425.934014 137.499183 
L 445.340142 133.416547 
L 464.746271 131.361102 
L 484.1524 127.992969 
L 503.558528 124.227688 
L 522.964657 122.146389 
L 542.370786 121.049219 
L 561.776915 120.058074 
L 581.183043 118.599138 
L 600.589172 117.82951 
L 619.995301 117.105093 
L 639.401429 116.188788 
L 658.807558 113.686704 
L 678.213687 99.553342 
L 697.619816 89.30816 
L 717.025944 84.835686 
L 736.432073 76.099212 
L 755.838202 67.392059 
L 775.24433 61.357716 
L 794.650459 58.597514 
L 814.056588 54.061005 
L 833.462716 48.470292 
L 852.868845 45.871913 
L 872.274974 45.43744 
L 891.681103 45.176472 
L 911.087231 44.9051 
L 930.49336 44.536311 
L 949.899489 43.99946 
" clip-path="url(#p0cd35a73eb)" style="fill: none; stroke: #f7a35c; stroke-linecap: square"/>
   </g>
   <g id="line2d_31">
    <path d="M 86.326761 351.755602 
L 96.029826 351.619838 
L 105.73289 351.479701 
L 115.435954 351.412292 
L 125.139019 351.320877 
L 134.842083 351.158046 
L 144.545147 350.509926 
L 154.248212 348.503984 
L 163.951276 343.802124 
L 173.654341 331.560057 
L 193.060469 314.56346 
L 212.466598 298.522646 
L 231.872727 283.77494 
L 251.278855 269.481083 
L 270.684984 254.150117 
L 290.091113 220.364495 
L 309.497241 185.060036 
L 328.90337 175.296699 
L 348.309499 166.999447 
L 367.715628 157.955525 
L 387.121756 144.915455 
L 406.527885 129.651095 
L 425.934014 119.87336 
L 445.340142 114.285983 
L 464.746271 109.201518 
L 484.1524 104.11596 
L 503.558528 98.803386 
L 522.964657 95.236232 
L 542.370786 92.208364 
L 561.776915 89.930142 
L 581.183043 87.557195 
L 600.589172 85.792861 
L 619.995301 84.360083 
L 639.401429 82.920053 
L 658.807558 80.724991 
L 678.213687 73.147826 
L 697.619816 68.090555 
L 717.025944 65.582093 
L 736.432073 60.46308 
L 755.838202 55.092597 
L 775.24433 51.733631 
L 794.650459 50.227056 
L 814.056588 47.702472 
L 833.462716 44.943904 
L 852.868845 43.513995 
L 872.274974 43.156871 
L 891.681103 42.920615 
L 911.087231 42.659747 
L 930.49336 42.356544 
L 949.899489 42.067984 
" clip-path="url(#p0cd35a73eb)" style="fill: none; stroke: #8085e9; stroke-linecap: square"/>
   </g>
   <g id="line2d_32">
    <path d="M 86.326761 350.970547 
L 96.029826 350.761618 
L 105.73289 350.557756 
L 115.435954 350.472425 
L 125.139019 350.36276 
L 134.842083 350.16554 
L 144.545147 349.435421 
L 154.248212 347.451248 
L 163.951276 342.920448 
L 173.654341 331.991545 
L 193.060469 319.215692 
L 212.466598 308.237636 
L 231.872727 298.76489 
L 251.278855 289.61057 
L 270.684984 278.947258 
L 290.091113 237.828218 
L 309.497241 194.104803 
L 328.90337 186.948476 
L 348.309499 181.562671 
L 367.715628 173.917411 
L 387.121756 158.633753 
L 406.527885 143.516943 
L 425.934014 136.535416 
L 445.340142 132.786027 
L 464.746271 129.405534 
L 484.1524 125.4659 
L 503.558528 120.877191 
L 522.964657 118.21966 
L 542.370786 116.161655 
L 561.776915 114.667759 
L 581.183043 112.794644 
L 600.589172 111.559915 
L 619.995301 110.565028 
L 639.401429 109.537855 
L 658.807558 106.947063 
L 678.213687 94.626631 
L 697.619816 86.554619 
L 717.025944 82.970129 
L 736.432073 74.668308 
L 755.838202 66.121142 
L 775.24433 61.0422 
L 794.650459 58.937145 
L 814.056588 53.962119 
L 833.462716 48.15234 
L 852.868845 45.149903 
L 872.274974 44.690864 
L 891.681103 44.390271 
L 911.087231 44.027547 
L 930.49336 43.617141 
L 949.899489 43.20993 
" clip-path="url(#p0cd35a73eb)" style="fill: none; stroke: #f15c80; stroke-linecap: square"/>
   </g>
   <g id="line2d_33">
    <path d="M 86.326761 352.152324 
L 96.029826 352.057606 
L 105.73289 351.976982 
L 115.435954 351.939182 
L 125.139019 351.883298 
L 134.842083 351.774026 
L 144.545147 351.327369 
L 154.248212 350.084942 
L 163.951276 347.388295 
L 173.654341 340.168538 
L 193.060469 327.78871 
L 212.466598 313.368449 
L 231.872727 298.748111 
L 251.278855 283.989682 
L 270.684984 266.825549 
L 290.091113 237.646415 
L 309.497241 209.825566 
L 328.90337 198.652782 
L 348.309499 187.954377 
L 367.715628 174.395769 
L 387.121756 157.866767 
L 406.527885 143.97739 
L 425.934014 134.374699 
L 445.340142 126.904719 
L 464.746271 120.257345 
L 484.1524 113.575811 
L 503.558528 107.206687 
L 522.964657 102.357834 
L 542.370786 96.979156 
L 561.776915 93.599138 
L 581.183043 89.975791 
L 600.589172 87.093609 
L 619.995301 85.035287 
L 639.401429 82.99707 
L 658.807558 80.3964 
L 678.213687 73.568797 
L 697.619816 68.964642 
L 717.025944 66.434911 
L 736.432073 62.03917 
L 755.838202 57.556184 
L 775.24433 54.54614 
L 794.650459 52.881694 
L 814.056588 50.087646 
L 833.462716 46.981394 
L 852.868845 45.288312 
L 872.274974 44.796475 
L 891.681103 44.428485 
L 911.087231 44.087548 
L 930.49336 43.713922 
L 949.899489 43.362282 
" clip-path="url(#p0cd35a73eb)" style="fill: none; stroke: #e4d354; stroke-linecap: square"/>
   </g>
   <g id="line2d_34">
    <path d="M 86.326761 351.19797 
L 96.029826 351.021931 
L 105.73289 350.867808 
L 115.435954 350.80125 
L 125.139019 350.707059 
L 134.842083 350.560906 
L 144.545147 349.997936 
L 154.248212 348.240287 
L 163.951276 343.798234 
L 173.654341 332.449773 
L 193.060469 320.058209 
L 212.466598 310.749142 
L 231.872727 303.102528 
L 251.278855 295.630646 
L 270.684984 287.297908 
L 290.091113 249.359944 
L 309.497241 207.27535 
L 328.90337 201.247003 
L 348.309499 196.177955 
L 367.715628 184.060909 
L 387.121756 163.225985 
L 406.527885 149.756537 
L 425.934014 143.958522 
L 445.340142 141.316151 
L 464.746271 138.889358 
L 484.1524 135.369196 
L 503.558528 130.897083 
L 522.964657 128.3919 
L 542.370786 126.428673 
L 561.776915 124.845498 
L 581.183043 122.789234 
L 600.589172 121.686611 
L 619.995301 120.683298 
L 639.401429 119.647247 
L 658.807558 116.9867 
L 678.213687 103.565567 
L 697.619816 94.719352 
L 717.025944 90.558364 
L 736.432073 81.551912 
L 755.838202 72.046722 
L 775.24433 65.85185 
L 794.650459 63.063767 
L 814.056588 57.04863 
L 833.462716 50.421499 
L 852.868845 46.987761 
L 872.274974 46.35048 
L 891.681103 45.995305 
L 911.087231 45.64262 
L 930.49336 45.19342 
L 949.899489 44.619109 
" clip-path="url(#p0cd35a73eb)" style="fill: none; stroke: #2b908f; stroke-linecap: square"/>
   </g>
   <g id="line2d_35">
    <path d="M 86.326761 350.196071 
L 96.029826 349.892807 
L 105.73289 349.648404 
L 115.435954 349.543611 
L 125.139019 349.417513 
L 134.842083 349.215073 
L 144.545147 348.63251 
L 154.248212 346.89627 
L 163.951276 342.477882 
L 173.654341 331.571557 
L 193.060469 319.209354 
L 212.466598 309.647506 
L 231.872727 301.468028 
L 251.278855 292.524211 
L 270.684984 285.112605 
L 290.091113 256.696597 
L 309.497241 224.429768 
L 328.90337 219.028327 
L 348.309499 213.08851 
L 367.715628 196.057344 
L 387.121756 166.022046 
L 406.527885 141.567039 
L 425.934014 132.466027 
L 445.340142 128.933758 
L 464.746271 125.738425 
L 484.1524 122.29081 
L 503.558528 117.96948 
L 522.964657 115.255231 
L 542.370786 113.451766 
L 561.776915 111.704879 
L 581.183043 108.906489 
L 600.589172 107.708333 
L 619.995301 106.149006 
L 639.401429 104.795152 
L 658.807558 102.617989 
L 678.213687 92.862584 
L 697.619816 86.052501 
L 717.025944 82.751183 
L 736.432073 75.895122 
L 755.838202 68.452557 
L 775.24433 63.469462 
L 794.650459 61.260366 
L 814.056588 56.794237 
L 833.462716 51.481191 
L 852.868845 48.440751 
L 872.274974 47.794698 
L 891.681103 47.40632 
L 911.087231 46.998581 
L 930.49336 46.497189 
L 949.899489 46.035271 
" clip-path="url(#p0cd35a73eb)" style="fill: none; stroke: #f45b5b; stroke-linecap: square"/>
   </g>
   <g id="line2d_36">
    <path d="M 86.326761 349.949645 
L 96.029826 349.663632 
L 105.73289 349.4864 
L 115.435954 349.409335 
L 125.139019 349.314201 
L 134.842083 349.154026 
L 144.545147 348.638387 
L 154.248212 347.328114 
L 163.951276 344.410613 
L 173.654341 337.594965 
L 193.060469 330.099599 
L 212.466598 324.214658 
L 231.872727 319.004151 
L 251.278855 312.774071 
L 270.684984 306.782264 
L 290.091113 276.65403 
L 309.497241 247.873762 
L 328.90337 242.851561 
L 348.309499 223.870406 
L 367.715628 186.629756 
L 387.121756 148.772031 
L 406.527885 130.034882 
L 425.934014 121.991274 
L 445.340142 119.643358 
L 464.746271 117.600593 
L 484.1524 114.733585 
L 503.558528 111.429833 
L 522.964657 109.330965 
L 542.370786 107.912757 
L 561.776915 106.451281 
L 581.183043 104.407823 
L 600.589172 103.518747 
L 619.995301 102.657866 
L 639.401429 101.714504 
L 658.807558 99.852334 
L 678.213687 89.501631 
L 697.619816 82.017429 
L 717.025944 78.797592 
L 736.432073 72.916784 
L 755.838202 66.379133 
L 775.24433 61.16918 
L 794.650459 58.970719 
L 814.056588 55.134819 
L 833.462716 50.267974 
L 852.868845 47.928545 
L 872.274974 47.415236 
L 891.681103 47.103817 
L 911.087231 46.761722 
L 930.49336 46.331323 
L 949.899489 45.709227 
" clip-path="url(#p0cd35a73eb)" style="fill: none; stroke: #91e8e1; stroke-linecap: square"/>
   </g>
   <g id="line2d_37">
    <path d="M 86.326761 351.775372 
L 96.029826 351.64122 
L 105.73289 351.517795 
L 115.435954 351.464243 
L 125.139019 351.391204 
L 134.842083 351.248682 
L 144.545147 350.673029 
L 154.248212 349.10939 
L 163.951276 345.913775 
L 173.654341 338.520957 
L 193.060469 329.85684 
L 212.466598 322.312761 
L 231.872727 315.559666 
L 251.278855 308.678361 
L 270.684984 300.200532 
L 290.091113 260.764185 
L 309.497241 217.701649 
L 328.90337 211.315761 
L 348.309499 206.432126 
L 367.715628 192.755411 
L 387.121756 166.55879 
L 406.527885 153.400458 
L 425.934014 147.958572 
L 445.340142 145.171558 
L 464.746271 142.605628 
L 484.1524 139.00409 
L 503.558528 134.598622 
L 522.964657 132.187211 
L 542.370786 130.720291 
L 561.776915 129.424594 
L 581.183043 127.873754 
L 600.589172 126.944265 
L 619.995301 126.092636 
L 639.401429 125.115168 
L 658.807558 122.597023 
L 678.213687 109.55934 
L 697.619816 100.479919 
L 717.025944 95.72132 
L 736.432073 86.085378 
L 755.838202 74.469161 
L 775.24433 67.654067 
L 794.650459 64.512911 
L 814.056588 58.733929 
L 833.462716 52.408622 
L 852.868845 49.192452 
L 872.274974 48.493995 
L 891.681103 48.142949 
L 911.087231 47.812179 
L 930.49336 47.361555 
L 949.899489 46.731158 
" clip-path="url(#p0cd35a73eb)" style="fill: none; stroke: #7cb5ec; stroke-linecap: square"/>
   </g>
   <g id="line2d_38">
    <path d="M 86.326761 350.130757 
L 96.029826 349.821742 
L 105.73289 349.543126 
L 115.435954 349.411507 
L 125.139019 349.246266 
L 134.842083 348.998814 
L 144.545147 348.259258 
L 154.248212 346.156597 
L 163.951276 341.292965 
L 173.654341 330.007003 
L 193.060469 317.54928 
L 212.466598 308.099451 
L 231.872727 300.020013 
L 251.278855 291.547316 
L 270.684984 283.933006 
L 290.091113 253.459442 
L 309.497241 219.410605 
L 328.90337 213.949369 
L 348.309499 206.430599 
L 367.715628 182.665142 
L 387.121756 144.7801 
L 406.527885 122.51686 
L 425.934014 115.458269 
L 445.340142 112.474565 
L 464.746271 109.684643 
L 484.1524 106.480905 
L 503.558528 102.631205 
L 522.964657 100.262781 
L 542.370786 98.687674 
L 561.776915 97.228195 
L 581.183043 95.364114 
L 600.589172 94.271196 
L 619.995301 92.934485 
L 639.401429 91.755551 
L 658.807558 89.730939 
L 678.213687 81.162589 
L 697.619816 75.188376 
L 717.025944 72.25225 
L 736.432073 65.973726 
L 755.838202 59.568344 
L 775.24433 55.695644 
L 794.650459 53.978494 
L 814.056588 50.684216 
L 833.462716 47.06221 
L 852.868845 44.978308 
L 872.274974 44.605697 
L 891.681103 44.358595 
L 911.087231 44.103355 
L 930.49336 43.795404 
L 949.899489 43.507976 
" clip-path="url(#p0cd35a73eb)" style="fill: none; stroke: #434348; stroke-linecap: square"/>
   </g>
   <g id="line2d_39">
    <path d="M 86.326761 351.343905 
L 96.029826 351.177268 
L 105.73289 351.007846 
L 115.435954 350.933492 
L 125.139019 350.835575 
L 134.842083 350.673766 
L 144.545147 350.125277 
L 154.248212 348.306985 
L 163.951276 343.467221 
L 173.654341 330.881566 
L 193.060469 317.098562 
L 212.466598 307.193148 
L 231.872727 299.109014 
L 251.278855 291.132804 
L 270.684984 283.76538 
L 290.091113 253.126363 
L 309.497241 218.488522 
L 328.90337 213.128284 
L 348.309499 209.06806 
L 367.715628 201.155235 
L 387.121756 179.283948 
L 406.527885 153.946626 
L 425.934014 143.723953 
L 445.340142 139.995277 
L 464.746271 136.25036 
L 484.1524 132.731092 
L 503.558528 128.360971 
L 522.964657 125.698098 
L 542.370786 123.932076 
L 561.776915 122.224709 
L 581.183043 119.863838 
L 600.589172 118.682472 
L 619.995301 117.286738 
L 639.401429 116.031829 
L 658.807558 113.350295 
L 678.213687 101.39468 
L 697.619816 93.302492 
L 717.025944 89.176958 
L 736.432073 80.416035 
L 755.838202 70.803824 
L 775.24433 64.735372 
L 794.650459 62.078271 
L 814.056588 56.72961 
L 833.462716 51.005555 
L 852.868845 47.908271 
L 872.274974 47.269398 
L 891.681103 46.897917 
L 911.087231 46.488657 
L 930.49336 45.980077 
L 949.899489 45.458191 
" clip-path="url(#p0cd35a73eb)" style="fill: none; stroke: #90ed7d; stroke-linecap: square"/>
   </g>
   <g id="line2d_40">
    <path d="M 86.326761 351.895607 
L 96.029826 351.751289 
L 105.73289 351.611202 
L 115.435954 351.54788 
L 125.139019 351.460045 
L 134.842083 351.29718 
L 144.545147 350.666218 
L 154.248212 348.595287 
L 163.951276 343.596596 
L 173.654341 331.122043 
L 193.060469 318.14919 
L 212.466598 309.4544 
L 231.872727 302.729481 
L 251.278855 296.491631 
L 270.684984 290.478521 
L 290.091113 263.22063 
L 309.497241 232.674612 
L 328.90337 228.242049 
L 348.309499 224.653385 
L 367.715628 212.317484 
L 387.121756 177.289864 
L 406.527885 147.91543 
L 425.934014 139.270022 
L 445.340142 136.258413 
L 464.746271 133.318804 
L 484.1524 130.557263 
L 503.558528 126.943908 
L 522.964657 124.849858 
L 542.370786 123.647984 
L 561.776915 122.495887 
L 581.183043 120.952181 
L 600.589172 120.126369 
L 619.995301 119.21656 
L 639.401429 118.277808 
L 658.807558 116.132462 
L 678.213687 104.726636 
L 697.619816 96.179371 
L 717.025944 91.814253 
L 736.432073 82.84562 
L 755.838202 71.919462 
L 775.24433 65.55208 
L 794.650459 62.319708 
L 814.056588 56.750559 
L 833.462716 51.116606 
L 852.868845 47.993387 
L 872.274974 47.280307 
L 891.681103 46.919131 
L 911.087231 46.57965 
L 930.49336 46.106036 
L 949.899489 45.515241 
" clip-path="url(#p0cd35a73eb)" style="fill: none; stroke: #f7a35c; stroke-linecap: square"/>
   </g>
   <g id="line2d_41">
    <path d="M 43.148125 353.2239 
L 993.078125 353.2239 
" clip-path="url(#p0cd35a73eb)" style="fill: none; stroke: #dedede; stroke-width: 2; stroke-linecap: square"/>
   </g>
   <g id="text_14">
    <!-- FastQC: Adapter Content -->
    <g transform="translate(418.815625 19.3575)scale(0.16 -0.16)">
     <defs>
      <path id="DejaVuSans-46" d="M 628 4666 
L 3309 4666 
L 3309 4134 
L 1259 4134 
L 1259 2759 
L 3109 2759 
L 3109 2228 
L 1259 2228 
L 1259 0 
L 628 0 
L 628 4666 
z
" transform="scale(0.015625)"/>
      <path id="DejaVuSans-61" d="M 2194 1759 
Q 1497 1759 1228 1600 
Q 959 1441 959 1056 
Q 959 750 1161 570 
Q 1363 391 1709 391 
Q 2188 391 2477 730 
Q 2766 1069 2766 1631 
L 2766 1759 
L 2194 1759 
z
M 3341 1997 
L 3341 0 
L 2766 0 
L 2766 531 
Q 2569 213 2275 61 
Q 1981 -91 1556 -91 
Q 1019 -91 701 211 
Q 384 513 384 1019 
Q 384 1609 779 1909 
Q 1175 2209 1959 2209 
L 2766 2209 
L 2766 2266 
Q 2766 2663 2505 2880 
Q 2244 3097 1772 3097 
Q 1472 3097 1187 3025 
Q 903 2953 641 2809 
L 641 3341 
Q 956 3463 1253 3523 
Q 1550 3584 1831 3584 
Q 2591 3584 2966 3190 
Q 3341 2797 3341 1997 
z
" transform="scale(0.015625)"/>
      <path id="DejaVuSans-51" d="M 2522 4238 
Q 1834 4238 1429 3725 
Q 1025 3213 1025 2328 
Q 1025 1447 1429 934 
Q 1834 422 2522 422 
Q 3209 422 3611 934 
Q 4013 1447 4013 2328 
Q 4013 3213 3611 3725 
Q 3209 4238 2522 4238 
z
M 3406 84 
L 4238 -825 
L 3475 -825 
L 2784 -78 
Q 2681 -84 2626 -87 
Q 2572 -91 2522 -91 
Q 1538 -91 948 567 
Q 359 1225 359 2328 
Q 359 3434 948 4092 
Q 1538 4750 2522 4750 
Q 3503 4750 4090 4092 
Q 4678 3434 4678 2328 
Q 4678 1516 4351 937 
Q 4025 359 3406 84 
z
" transform="scale(0.015625)"/>
      <path id="DejaVuSans-43" d="M 4122 4306 
L 4122 3641 
Q 3803 3938 3442 4084 
Q 3081 4231 2675 4231 
Q 1875 4231 1450 3742 
Q 1025 3253 1025 2328 
Q 1025 1406 1450 917 
Q 1875 428 2675 428 
Q 3081 428 3442 575 
Q 3803 722 4122 1019 
L 4122 359 
Q 3791 134 3420 21 
Q 3050 -91 2638 -91 
Q 1578 -91 968 557 
Q 359 1206 359 2328 
Q 359 3453 968 4101 
Q 1578 4750 2638 4750 
Q 3056 4750 3426 4639 
Q 3797 4528 4122 4306 
z
" transform="scale(0.015625)"/>
      <path id="DejaVuSans-3a" d="M 750 794 
L 1409 794 
L 1409 0 
L 750 0 
L 750 794 
z
M 750 3309 
L 1409 3309 
L 1409 2516 
L 750 2516 
L 750 3309 
z
" transform="scale(0.015625)"/>
      <path id="DejaVuSans-41" d="M 2188 4044 
L 1331 1722 
L 3047 1722 
L 2188 4044 
z
M 1831 4666 
L 2547 4666 
L 4325 0 
L 3669 0 
L 3244 1197 
L 1141 1197 
L 716 0 
L 50 0 
L 1831 4666 
z
" transform="scale(0.015625)"/>
      <path id="DejaVuSans-64" d="M 2906 2969 
L 2906 4863 
L 3481 4863 
L 3481 0 
L 2906 0 
L 2906 525 
Q 2725 213 2448 61 
Q 2172 -91 1784 -91 
Q 1150 -91 751 415 
Q 353 922 353 1747 
Q 353 2572 751 3078 
Q 1150 3584 1784 3584 
Q 2172 3584 2448 3432 
Q 2725 3281 2906 2969 
z
M 947 1747 
Q 947 1113 1208 752 
Q 1469 391 1925 391 
Q 2381 391 2643 752 
Q 2906 1113 2906 1747 
Q 2906 2381 2643 2742 
Q 2381 3103 1925 3103 
Q 1469 3103 1208 2742 
Q 947 2381 947 1747 
z
" transform="scale(0.015625)"/>
      <path id="DejaVuSans-72" d="M 2631 2963 
Q 2534 3019 2420 3045 
Q 2306 3072 2169 3072 
Q 1681 3072 1420 2755 
Q 1159 2438 1159 1844 
L 1159 0 
L 581 0 
L 581 3500 
L 1159 3500 
L 1159 2956 
Q 1341 3275 1631 3429 
Q 1922 3584 2338 3584 
Q 2397 3584 2469 3576 
Q 2541 3569 2628 3553 
L 2631 2963 
z
" transform="scale(0.015625)"/>
     </defs>
     <use xlink:href="#DejaVuSans-46"/>
     <use xlink:href="#DejaVuSans-61" x="48.394531"/>
     <use xlink:href="#DejaVuSans-73" x="109.673828"/>
     <use xlink:href="#DejaVuSans-74" x="161.773438"/>
     <use xlink:href="#DejaVuSans-51" x="200.982422"/>
     <use xlink:href="#DejaVuSans-43" x="279.693359"/>
     <use xlink:href="#DejaVuSans-3a" x="349.517578"/>
     <use xlink:href="#DejaVuSans-20" x="383.208984"/>
     <use xlink:href="#DejaVuSans-41" x="414.996094"/>
     <use xlink:href="#DejaVuSans-64" x="481.654297"/>
     <use xlink:href="#DejaVuSans-61" x="545.130859"/>
     <use xlink:href="#DejaVuSans-70" x="606.410156"/>
     <use xlink:href="#DejaVuSans-74" x="669.886719"/>
     <use xlink:href="#DejaVuSans-65" x="709.095703"/>
     <use xlink:href="#DejaVuSans-72" x="770.619141"/>
     <use xlink:href="#DejaVuSans-20" x="811.732422"/>
     <use xlink:href="#DejaVuSans-43" x="843.519531"/>
     <use xlink:href="#DejaVuSans-6f" x="913.34375"/>
     <use xlink:href="#DejaVuSans-6e" x="974.525391"/>
     <use xlink:href="#DejaVuSans-74" x="1037.904297"/>
     <use xlink:href="#DejaVuSans-65" x="1077.113281"/>
     <use xlink:href="#DejaVuSans-6e" x="1138.636719"/>
     <use xlink:href="#DejaVuSans-74" x="1202.015625"/>
    </g>
   </g>
  </g>
 </g>
 <defs>
  <clipPath id="p0cd35a73eb">
   <rect x="43.148125" y="35.2559" width="949.93" height="317.968"/>
  </clipPath>
 </defs>
</svg>
