<?xml version="1.0" encoding="utf-8" standalone="no"?>
<!DOCTYPE svg PUBLIC "-//W3C//DTD SVG 1.1//EN"
  "http://www.w3.org/Graphics/SVG/1.1/DTD/svg11.dtd">
<svg xmlns:xlink="http://www.w3.org/1999/xlink" width="1000.358125pt" height="388.844525pt" viewBox="0 0 1000.358125 388.844525" xmlns="http://www.w3.org/2000/svg" version="1.1">
 <metadata>
  <rdf:RDF xmlns:dc="http://purl.org/dc/elements/1.1/" xmlns:cc="http://creativecommons.org/ns#" xmlns:rdf="http://www.w3.org/1999/02/22-rdf-syntax-ns#">
   <cc:Work>
    <dc:type rdf:resource="http://purl.org/dc/dcmitype/StillImage"/>
    <dc:date>2022-11-05T04:14:58.685124</dc:date>
    <dc:format>image/svg+xml</dc:format>
    <dc:creator>
     <cc:Agent>
      <dc:title>Matplotlib v3.5.1, https://matplotlib.org/</dc:title>
     </cc:Agent>
    </dc:creator>
   </cc:Work>
  </rdf:RDF>
 </metadata>
 <defs>
  <style type="text/css">*{stroke-linejoin: round; stroke-linecap: butt}</style>
 </defs>
 <g id="figure_1">
  <g id="axes_1">
   <g id="patch_1">
    <path d="M 32.968125 353.2239 
L 993.158125 353.2239 
L 993.158125 35.2559 
L 32.968125 35.2559 
z
" style="fill: #ffffff"/>
   </g>
   <g id="patch_2">
    <path d="M 764.541458 353.2239 
L 947.434792 353.2239 
L 947.434792 35.2559 
L 764.541458 35.2559 
z
" clip-path="url(#p17effd66b8)" style="fill: #ffebd1"/>
   </g>
   <g id="patch_3">
    <path d="M 508.490792 353.2239 
L 764.541458 353.2239 
L 764.541458 35.2559 
L 508.490792 35.2559 
z
" clip-path="url(#p17effd66b8)" style="fill: #e2f5ff"/>
   </g>
   <g id="patch_4">
    <path d="M 362.176125 353.2239 
L 508.490792 353.2239 
L 508.490792 35.2559 
L 362.176125 35.2559 
z
" clip-path="url(#p17effd66b8)" style="fill: #e5fce0"/>
   </g>
   <g id="patch_5">
    <path d="M 32.968125 353.2239 
L 362.176125 353.2239 
L 362.176125 35.2559 
L 32.968125 35.2559 
z
" clip-path="url(#p17effd66b8)" style="fill: #ffffe2"/>
   </g>
   <g id="matplotlib.axis_1">
    <g id="xtick_1">
     <g id="text_1">
      <!-- 0 -->
      <g transform="translate(30.423125 366.30265)scale(0.08 -0.08)">
       <defs>
        <path id="DejaVuSans-30" d="M 2034 4250 
Q 1547 4250 1301 3770 
Q 1056 3291 1056 2328 
Q 1056 1369 1301 889 
Q 1547 409 2034 409 
Q 2525 409 2770 889 
Q 3016 1369 3016 2328 
Q 3016 3291 2770 3770 
Q 2525 4250 2034 4250 
z
M 2034 4750 
Q 2819 4750 3233 4129 
Q 3647 3509 3647 2328 
Q 3647 1150 3233 529 
Q 2819 -91 2034 -91 
Q 1250 -91 836 529 
Q 422 1150 422 2328 
Q 422 3509 836 4129 
Q 1250 4750 2034 4750 
z
" transform="scale(0.015625)"/>
       </defs>
       <use xlink:href="#DejaVuSans-30"/>
      </g>
     </g>
    </g>
    <g id="xtick_2">
     <g id="text_2">
      <!-- 10 -->
      <g transform="translate(210.771458 366.30265)scale(0.08 -0.08)">
       <defs>
        <path id="DejaVuSans-31" d="M 794 531 
L 1825 531 
L 1825 4091 
L 703 3866 
L 703 4441 
L 1819 4666 
L 2450 4666 
L 2450 531 
L 3481 531 
L 3481 0 
L 794 0 
L 794 531 
z
" transform="scale(0.015625)"/>
       </defs>
       <use xlink:href="#DejaVuSans-31"/>
       <use xlink:href="#DejaVuSans-30" x="63.623047"/>
      </g>
     </g>
    </g>
    <g id="xtick_3">
     <g id="text_3">
      <!-- 20 -->
      <g transform="translate(393.664792 366.30265)scale(0.08 -0.08)">
       <defs>
        <path id="DejaVuSans-32" d="M 1228 531 
L 3431 531 
L 3431 0 
L 469 0 
L 469 531 
Q 828 903 1448 1529 
Q 2069 2156 2228 2338 
Q 2531 2678 2651 2914 
Q 2772 3150 2772 3378 
Q 2772 3750 2511 3984 
Q 2250 4219 1831 4219 
Q 1534 4219 1204 4116 
Q 875 4013 500 3803 
L 500 4441 
Q 881 4594 1212 4672 
Q 1544 4750 1819 4750 
Q 2544 4750 2975 4387 
Q 3406 4025 3406 3419 
Q 3406 3131 3298 2873 
Q 3191 2616 2906 2266 
Q 2828 2175 2409 1742 
Q 1991 1309 1228 531 
z
" transform="scale(0.015625)"/>
       </defs>
       <use xlink:href="#DejaVuSans-32"/>
       <use xlink:href="#DejaVuSans-30" x="63.623047"/>
      </g>
     </g>
    </g>
    <g id="xtick_4">
     <g id="text_4">
      <!-- 30 -->
      <g transform="translate(576.558125 366.30265)scale(0.08 -0.08)">
       <defs>
        <path id="DejaVuSans-33" d="M 2597 2516 
Q 3050 2419 3304 2112 
Q 3559 1806 3559 1356 
Q 3559 666 3084 287 
Q 2609 -91 1734 -91 
Q 1441 -91 1130 -33 
Q 819 25 488 141 
L 488 750 
Q 750 597 1062 519 
Q 1375 441 1716 441 
Q 2309 441 2620 675 
Q 2931 909 2931 1356 
Q 2931 1769 2642 2001 
Q 2353 2234 1838 2234 
L 1294 2234 
L 1294 2753 
L 1863 2753 
Q 2328 2753 2575 2939 
Q 2822 3125 2822 3475 
Q 2822 3834 2567 4026 
Q 2313 4219 1838 4219 
Q 1578 4219 1281 4162 
Q 984 4106 628 3988 
L 628 4550 
Q 988 4650 1302 4700 
Q 1616 4750 1894 4750 
Q 2613 4750 3031 4423 
Q 3450 4097 3450 3541 
Q 3450 3153 3228 2886 
Q 3006 2619 2597 2516 
z
" transform="scale(0.015625)"/>
       </defs>
       <use xlink:href="#DejaVuSans-33"/>
       <use xlink:href="#DejaVuSans-30" x="63.623047"/>
      </g>
     </g>
    </g>
    <g id="xtick_5">
     <g id="text_5">
      <!-- 40 -->
      <g transform="translate(759.451458 366.30265)scale(0.08 -0.08)">
       <defs>
        <path id="DejaVuSans-34" d="M 2419 4116 
L 825 1625 
L 2419 1625 
L 2419 4116 
z
M 2253 4666 
L 3047 4666 
L 3047 1625 
L 3713 1625 
L 3713 1100 
L 3047 1100 
L 3047 0 
L 2419 0 
L 2419 1100 
L 313 1100 
L 313 1709 
L 2253 4666 
z
" transform="scale(0.015625)"/>
       </defs>
       <use xlink:href="#DejaVuSans-34"/>
       <use xlink:href="#DejaVuSans-30" x="63.623047"/>
      </g>
     </g>
    </g>
    <g id="xtick_6">
     <g id="text_6">
      <!-- 50 -->
      <g transform="translate(942.344792 366.30265)scale(0.08 -0.08)">
       <defs>
        <path id="DejaVuSans-35" d="M 691 4666 
L 3169 4666 
L 3169 4134 
L 1269 4134 
L 1269 2991 
Q 1406 3038 1543 3061 
Q 1681 3084 1819 3084 
Q 2600 3084 3056 2656 
Q 3513 2228 3513 1497 
Q 3513 744 3044 326 
Q 2575 -91 1722 -91 
Q 1428 -91 1123 -41 
Q 819 9 494 109 
L 494 744 
Q 775 591 1075 516 
Q 1375 441 1709 441 
Q 2250 441 2565 725 
Q 2881 1009 2881 1497 
Q 2881 1984 2565 2268 
Q 2250 2553 1709 2553 
Q 1456 2553 1204 2497 
Q 953 2441 691 2322 
L 691 4666 
z
" transform="scale(0.015625)"/>
       </defs>
       <use xlink:href="#DejaVuSans-35"/>
       <use xlink:href="#DejaVuSans-30" x="63.623047"/>
      </g>
     </g>
    </g>
    <g id="text_7">
     <!-- Read Lenth (bp) -->
     <g transform="translate(472.998281 379.564837)scale(0.1 -0.1)">
      <defs>
       <path id="DejaVuSans-52" d="M 2841 2188 
Q 3044 2119 3236 1894 
Q 3428 1669 3622 1275 
L 4263 0 
L 3584 0 
L 2988 1197 
Q 2756 1666 2539 1819 
Q 2322 1972 1947 1972 
L 1259 1972 
L 1259 0 
L 628 0 
L 628 4666 
L 2053 4666 
Q 2853 4666 3247 4331 
Q 3641 3997 3641 3322 
Q 3641 2881 3436 2590 
Q 3231 2300 2841 2188 
z
M 1259 4147 
L 1259 2491 
L 2053 2491 
Q 2509 2491 2742 2702 
Q 2975 2913 2975 3322 
Q 2975 3731 2742 3939 
Q 2509 4147 2053 4147 
L 1259 4147 
z
" transform="scale(0.015625)"/>
       <path id="DejaVuSans-65" d="M 3597 1894 
L 3597 1613 
L 953 1613 
Q 991 1019 1311 708 
Q 1631 397 2203 397 
Q 2534 397 2845 478 
Q 3156 559 3463 722 
L 3463 178 
Q 3153 47 2828 -22 
Q 2503 -91 2169 -91 
Q 1331 -91 842 396 
Q 353 884 353 1716 
Q 353 2575 817 3079 
Q 1281 3584 2069 3584 
Q 2775 3584 3186 3129 
Q 3597 2675 3597 1894 
z
M 3022 2063 
Q 3016 2534 2758 2815 
Q 2500 3097 2075 3097 
Q 1594 3097 1305 2825 
Q 1016 2553 972 2059 
L 3022 2063 
z
" transform="scale(0.015625)"/>
       <path id="DejaVuSans-61" d="M 2194 1759 
Q 1497 1759 1228 1600 
Q 959 1441 959 1056 
Q 959 750 1161 570 
Q 1363 391 1709 391 
Q 2188 391 2477 730 
Q 2766 1069 2766 1631 
L 2766 1759 
L 2194 1759 
z
M 3341 1997 
L 3341 0 
L 2766 0 
L 2766 531 
Q 2569 213 2275 61 
Q 1981 -91 1556 -91 
Q 1019 -91 701 211 
Q 384 513 384 1019 
Q 384 1609 779 1909 
Q 1175 2209 1959 2209 
L 2766 2209 
L 2766 2266 
Q 2766 2663 2505 2880 
Q 2244 3097 1772 3097 
Q 1472 3097 1187 3025 
Q 903 2953 641 2809 
L 641 3341 
Q 956 3463 1253 3523 
Q 1550 3584 1831 3584 
Q 2591 3584 2966 3190 
Q 3341 2797 3341 1997 
z
" transform="scale(0.015625)"/>
       <path id="DejaVuSans-64" d="M 2906 2969 
L 2906 4863 
L 3481 4863 
L 3481 0 
L 2906 0 
L 2906 525 
Q 2725 213 2448 61 
Q 2172 -91 1784 -91 
Q 1150 -91 751 415 
Q 353 922 353 1747 
Q 353 2572 751 3078 
Q 1150 3584 1784 3584 
Q 2172 3584 2448 3432 
Q 2725 3281 2906 2969 
z
M 947 1747 
Q 947 1113 1208 752 
Q 1469 391 1925 391 
Q 2381 391 2643 752 
Q 2906 1113 2906 1747 
Q 2906 2381 2643 2742 
Q 2381 3103 1925 3103 
Q 1469 3103 1208 2742 
Q 947 2381 947 1747 
z
" transform="scale(0.015625)"/>
       <path id="DejaVuSans-20" transform="scale(0.015625)"/>
       <path id="DejaVuSans-4c" d="M 628 4666 
L 1259 4666 
L 1259 531 
L 3531 531 
L 3531 0 
L 628 0 
L 628 4666 
z
" transform="scale(0.015625)"/>
       <path id="DejaVuSans-6e" d="M 3513 2113 
L 3513 0 
L 2938 0 
L 2938 2094 
Q 2938 2591 2744 2837 
Q 2550 3084 2163 3084 
Q 1697 3084 1428 2787 
Q 1159 2491 1159 1978 
L 1159 0 
L 581 0 
L 581 3500 
L 1159 3500 
L 1159 2956 
Q 1366 3272 1645 3428 
Q 1925 3584 2291 3584 
Q 2894 3584 3203 3211 
Q 3513 2838 3513 2113 
z
" transform="scale(0.015625)"/>
       <path id="DejaVuSans-74" d="M 1172 4494 
L 1172 3500 
L 2356 3500 
L 2356 3053 
L 1172 3053 
L 1172 1153 
Q 1172 725 1289 603 
Q 1406 481 1766 481 
L 2356 481 
L 2356 0 
L 1766 0 
Q 1100 0 847 248 
Q 594 497 594 1153 
L 594 3053 
L 172 3053 
L 172 3500 
L 594 3500 
L 594 4494 
L 1172 4494 
z
" transform="scale(0.015625)"/>
       <path id="DejaVuSans-68" d="M 3513 2113 
L 3513 0 
L 2938 0 
L 2938 2094 
Q 2938 2591 2744 2837 
Q 2550 3084 2163 3084 
Q 1697 3084 1428 2787 
Q 1159 2491 1159 1978 
L 1159 0 
L 581 0 
L 581 4863 
L 1159 4863 
L 1159 2956 
Q 1366 3272 1645 3428 
Q 1925 3584 2291 3584 
Q 2894 3584 3203 3211 
Q 3513 2838 3513 2113 
z
" transform="scale(0.015625)"/>
       <path id="DejaVuSans-28" d="M 1984 4856 
Q 1566 4138 1362 3434 
Q 1159 2731 1159 2009 
Q 1159 1288 1364 580 
Q 1569 -128 1984 -844 
L 1484 -844 
Q 1016 -109 783 600 
Q 550 1309 550 2009 
Q 550 2706 781 3412 
Q 1013 4119 1484 4856 
L 1984 4856 
z
" transform="scale(0.015625)"/>
       <path id="DejaVuSans-62" d="M 3116 1747 
Q 3116 2381 2855 2742 
Q 2594 3103 2138 3103 
Q 1681 3103 1420 2742 
Q 1159 2381 1159 1747 
Q 1159 1113 1420 752 
Q 1681 391 2138 391 
Q 2594 391 2855 752 
Q 3116 1113 3116 1747 
z
M 1159 2969 
Q 1341 3281 1617 3432 
Q 1894 3584 2278 3584 
Q 2916 3584 3314 3078 
Q 3713 2572 3713 1747 
Q 3713 922 3314 415 
Q 2916 -91 2278 -91 
Q 1894 -91 1617 61 
Q 1341 213 1159 525 
L 1159 0 
L 581 0 
L 581 4863 
L 1159 4863 
L 1159 2969 
z
" transform="scale(0.015625)"/>
       <path id="DejaVuSans-70" d="M 1159 525 
L 1159 -1331 
L 581 -1331 
L 581 3500 
L 1159 3500 
L 1159 2969 
Q 1341 3281 1617 3432 
Q 1894 3584 2278 3584 
Q 2916 3584 3314 3078 
Q 3713 2572 3713 1747 
Q 3713 922 3314 415 
Q 2916 -91 2278 -91 
Q 1894 -91 1617 61 
Q 1341 213 1159 525 
z
M 3116 1747 
Q 3116 2381 2855 2742 
Q 2594 3103 2138 3103 
Q 1681 3103 1420 2742 
Q 1159 2381 1159 1747 
Q 1159 1113 1420 752 
Q 1681 391 2138 391 
Q 2594 391 2855 752 
Q 3116 1113 3116 1747 
z
" transform="scale(0.015625)"/>
       <path id="DejaVuSans-29" d="M 513 4856 
L 1013 4856 
Q 1481 4119 1714 3412 
Q 1947 2706 1947 2009 
Q 1947 1309 1714 600 
Q 1481 -109 1013 -844 
L 513 -844 
Q 928 -128 1133 580 
Q 1338 1288 1338 2009 
Q 1338 2731 1133 3434 
Q 928 4138 513 4856 
z
" transform="scale(0.015625)"/>
      </defs>
      <use xlink:href="#DejaVuSans-52"/>
      <use xlink:href="#DejaVuSans-65" x="64.982422"/>
      <use xlink:href="#DejaVuSans-61" x="126.505859"/>
      <use xlink:href="#DejaVuSans-64" x="187.785156"/>
      <use xlink:href="#DejaVuSans-20" x="251.261719"/>
      <use xlink:href="#DejaVuSans-4c" x="283.048828"/>
      <use xlink:href="#DejaVuSans-65" x="337.011719"/>
      <use xlink:href="#DejaVuSans-6e" x="398.535156"/>
      <use xlink:href="#DejaVuSans-74" x="461.914062"/>
      <use xlink:href="#DejaVuSans-68" x="501.123047"/>
      <use xlink:href="#DejaVuSans-20" x="564.501953"/>
      <use xlink:href="#DejaVuSans-28" x="596.289062"/>
      <use xlink:href="#DejaVuSans-62" x="635.302734"/>
      <use xlink:href="#DejaVuSans-70" x="698.779297"/>
      <use xlink:href="#DejaVuSans-29" x="762.255859"/>
     </g>
    </g>
   </g>
   <g id="matplotlib.axis_2">
    <g id="ytick_1">
     <g id="line2d_1">
      <path d="M 32.968125 353.2239 
L 993.158125 353.2239 
" clip-path="url(#p17effd66b8)" style="fill: none; stroke: #dedede; stroke-linecap: square"/>
     </g>
     <g id="text_8">
      <!-- 0 -->
      <g transform="translate(20.878125 356.263275)scale(0.08 -0.08)">
       <use xlink:href="#DejaVuSans-30"/>
      </g>
     </g>
    </g>
    <g id="ytick_2">
     <g id="line2d_2">
      <path d="M 32.968125 296.543962 
L 993.158125 296.543962 
" clip-path="url(#p17effd66b8)" style="fill: none; stroke: #dedede; stroke-linecap: square"/>
     </g>
     <g id="text_9">
      <!-- 1 -->
      <g transform="translate(20.878125 299.583337)scale(0.08 -0.08)">
       <use xlink:href="#DejaVuSans-31"/>
      </g>
     </g>
    </g>
    <g id="ytick_3">
     <g id="line2d_3">
      <path d="M 32.968125 239.864024 
L 993.158125 239.864024 
" clip-path="url(#p17effd66b8)" style="fill: none; stroke: #dedede; stroke-linecap: square"/>
     </g>
     <g id="text_10">
      <!-- 2 -->
      <g transform="translate(20.878125 242.903399)scale(0.08 -0.08)">
       <use xlink:href="#DejaVuSans-32"/>
      </g>
     </g>
    </g>
    <g id="ytick_4">
     <g id="line2d_4">
      <path d="M 32.968125 183.184086 
L 993.158125 183.184086 
" clip-path="url(#p17effd66b8)" style="fill: none; stroke: #dedede; stroke-linecap: square"/>
     </g>
     <g id="text_11">
      <!-- 3 -->
      <g transform="translate(20.878125 186.223461)scale(0.08 -0.08)">
       <use xlink:href="#DejaVuSans-33"/>
      </g>
     </g>
    </g>
    <g id="ytick_5">
     <g id="line2d_5">
      <path d="M 32.968125 126.504147 
L 993.158125 126.504147 
" clip-path="url(#p17effd66b8)" style="fill: none; stroke: #dedede; stroke-linecap: square"/>
     </g>
     <g id="text_12">
      <!-- 4 -->
      <g transform="translate(20.878125 129.543522)scale(0.08 -0.08)">
       <use xlink:href="#DejaVuSans-34"/>
      </g>
     </g>
    </g>
    <g id="ytick_6">
     <g id="line2d_6">
      <path d="M 32.968125 69.824209 
L 993.158125 69.824209 
" clip-path="url(#p17effd66b8)" style="fill: none; stroke: #dedede; stroke-linecap: square"/>
     </g>
     <g id="text_13">
      <!-- 5 -->
      <g transform="translate(20.878125 72.863584)scale(0.08 -0.08)">
       <use xlink:href="#DejaVuSans-35"/>
      </g>
     </g>
    </g>
    <g id="text_14">
     <!-- Read Count -->
     <g transform="translate(14.798437 223.241463)rotate(-90)scale(0.1 -0.1)">
      <defs>
       <path id="DejaVuSans-43" d="M 4122 4306 
L 4122 3641 
Q 3803 3938 3442 4084 
Q 3081 4231 2675 4231 
Q 1875 4231 1450 3742 
Q 1025 3253 1025 2328 
Q 1025 1406 1450 917 
Q 1875 428 2675 428 
Q 3081 428 3442 575 
Q 3803 722 4122 1019 
L 4122 359 
Q 3791 134 3420 21 
Q 3050 -91 2638 -91 
Q 1578 -91 968 557 
Q 359 1206 359 2328 
Q 359 3453 968 4101 
Q 1578 4750 2638 4750 
Q 3056 4750 3426 4639 
Q 3797 4528 4122 4306 
z
" transform="scale(0.015625)"/>
       <path id="DejaVuSans-6f" d="M 1959 3097 
Q 1497 3097 1228 2736 
Q 959 2375 959 1747 
Q 959 1119 1226 758 
Q 1494 397 1959 397 
Q 2419 397 2687 759 
Q 2956 1122 2956 1747 
Q 2956 2369 2687 2733 
Q 2419 3097 1959 3097 
z
M 1959 3584 
Q 2709 3584 3137 3096 
Q 3566 2609 3566 1747 
Q 3566 888 3137 398 
Q 2709 -91 1959 -91 
Q 1206 -91 779 398 
Q 353 888 353 1747 
Q 353 2609 779 3096 
Q 1206 3584 1959 3584 
z
" transform="scale(0.015625)"/>
       <path id="DejaVuSans-75" d="M 544 1381 
L 544 3500 
L 1119 3500 
L 1119 1403 
Q 1119 906 1312 657 
Q 1506 409 1894 409 
Q 2359 409 2629 706 
Q 2900 1003 2900 1516 
L 2900 3500 
L 3475 3500 
L 3475 0 
L 2900 0 
L 2900 538 
Q 2691 219 2414 64 
Q 2138 -91 1772 -91 
Q 1169 -91 856 284 
Q 544 659 544 1381 
z
M 1991 3584 
L 1991 3584 
z
" transform="scale(0.015625)"/>
      </defs>
      <use xlink:href="#DejaVuSans-52"/>
      <use xlink:href="#DejaVuSans-65" x="64.982422"/>
      <use xlink:href="#DejaVuSans-61" x="126.505859"/>
      <use xlink:href="#DejaVuSans-64" x="187.785156"/>
      <use xlink:href="#DejaVuSans-20" x="251.261719"/>
      <use xlink:href="#DejaVuSans-43" x="283.048828"/>
      <use xlink:href="#DejaVuSans-6f" x="352.873047"/>
      <use xlink:href="#DejaVuSans-75" x="414.054688"/>
      <use xlink:href="#DejaVuSans-6e" x="477.433594"/>
      <use xlink:href="#DejaVuSans-74" x="540.8125"/>
     </g>
    </g>
    <g id="text_15">
     <!-- 1e6 -->
     <g transform="translate(32.968125 32.2559)scale(0.1 -0.1)">
      <defs>
       <path id="DejaVuSans-36" d="M 2113 2584 
Q 1688 2584 1439 2293 
Q 1191 2003 1191 1497 
Q 1191 994 1439 701 
Q 1688 409 2113 409 
Q 2538 409 2786 701 
Q 3034 994 3034 1497 
Q 3034 2003 2786 2293 
Q 2538 2584 2113 2584 
z
M 3366 4563 
L 3366 3988 
Q 3128 4100 2886 4159 
Q 2644 4219 2406 4219 
Q 1781 4219 1451 3797 
Q 1122 3375 1075 2522 
Q 1259 2794 1537 2939 
Q 1816 3084 2150 3084 
Q 2853 3084 3261 2657 
Q 3669 2231 3669 1497 
Q 3669 778 3244 343 
Q 2819 -91 2113 -91 
Q 1303 -91 875 529 
Q 447 1150 447 2328 
Q 447 3434 972 4092 
Q 1497 4750 2381 4750 
Q 2619 4750 2861 4703 
Q 3103 4656 3366 4563 
z
" transform="scale(0.015625)"/>
      </defs>
      <use xlink:href="#DejaVuSans-31"/>
      <use xlink:href="#DejaVuSans-65" x="63.623047"/>
      <use xlink:href="#DejaVuSans-36" x="125.146484"/>
     </g>
    </g>
   </g>
   <g id="line2d_7">
    <path d="M 32.968125 346.070665 
L 51.257458 352.446761 
L 69.546792 352.491312 
L 87.836125 352.866193 
L 106.125458 352.735432 
L 124.414792 352.405895 
L 142.704125 350.252794 
L 160.993458 346.550347 
L 179.282792 340.760888 
L 197.572125 334.050664 
L 215.861458 328.740321 
L 234.150792 325.248326 
L 252.440125 321.273532 
L 270.729458 318.023448 
L 289.018792 314.505778 
L 307.308125 317.632526 
L 325.597458 317.1915 
L 343.886792 315.230714 
L 362.176125 312.874472 
L 380.465458 307.196276 
L 398.754792 301.621067 
L 417.044125 281.222184 
L 435.333458 237.652486 
L 453.622792 277.011375 
L 471.912125 316.285698 
L 490.201458 323.919635 
L 508.490792 326.749381 
L 526.780125 322.755032 
L 545.069458 314.050524 
L 563.358792 312.216532 
L 581.648125 301.568922 
L 599.937458 295.342177 
L 618.226792 268.512105 
L 636.516125 295.75101 
L 654.805458 322.072209 
L 673.094792 327.5429 
L 691.384125 331.718001 
L 709.673458 333.078773 
L 727.962792 336.827187 
L 746.252125 336.306072 
L 764.541458 335.612423 
L 782.830792 339.150611 
L 801.120125 330.424452 
L 819.409458 336.153376 
L 837.698792 336.860175 
L 855.988125 326.280468 
L 874.277458 341.970665 
L 892.566792 335.775264 
L 910.856125 324.322006 
L 929.145458 256.280178 
L 947.434792 154.292224 
" clip-path="url(#p17effd66b8)" style="fill: none; stroke: #7cb5ec; stroke-linecap: square"/>
   </g>
   <g id="line2d_8">
    <path d="M 32.968125 338.830143 
L 51.257458 351.967022 
L 69.546792 351.850375 
L 87.836125 352.635165 
L 106.125458 352.447158 
L 124.414792 352.147208 
L 142.704125 349.917362 
L 160.993458 343.931281 
L 179.282792 331.502561 
L 197.572125 317.885999 
L 215.861458 321.085525 
L 234.150792 327.727733 
L 252.440125 330.333877 
L 270.729458 334.030939 
L 289.018792 335.818681 
L 307.308125 337.475606 
L 325.597458 337.911475 
L 343.886792 334.597342 
L 362.176125 338.287829 
L 380.465458 338.807301 
L 398.754792 325.796875 
L 417.044125 274.506178 
L 435.333458 177.496084 
L 453.622792 256.596622 
L 471.912125 324.907566 
L 490.201458 344.253166 
L 508.490792 345.541218 
L 526.780125 343.21462 
L 545.069458 339.029826 
L 563.358792 334.413642 
L 581.648125 313.149993 
L 599.937458 308.982998 
L 618.226792 288.567054 
L 636.516125 305.457336 
L 654.805458 330.336881 
L 673.094792 338.38821 
L 691.384125 345.625047 
L 709.673458 346.95986 
L 727.962792 345.731549 
L 746.252125 345.406149 
L 764.541458 348.196163 
L 782.830792 348.070503 
L 801.120125 334.917584 
L 819.409458 345.047932 
L 837.698792 346.707067 
L 855.988125 316.918869 
L 874.277458 346.897172 
L 892.566792 347.561121 
L 910.856125 323.778785 
L 929.145458 234.627251 
L 947.434792 103.462846 
" clip-path="url(#p17effd66b8)" style="fill: none; stroke: #434348; stroke-linecap: square"/>
   </g>
   <g id="line2d_9">
    <path d="M 32.968125 339.633128 
L 51.257458 351.877751 
L 69.546792 351.905411 
L 87.836125 352.621676 
L 106.125458 352.461725 
L 124.414792 352.041273 
L 142.704125 349.225074 
L 160.993458 344.361141 
L 179.282792 336.934936 
L 197.572125 328.925721 
L 215.861458 326.073019 
L 234.150792 324.590612 
L 252.440125 322.687187 
L 270.729458 322.208524 
L 289.018792 319.837943 
L 307.308125 324.402378 
L 325.597458 325.574293 
L 343.886792 324.0988 
L 362.176125 324.249569 
L 380.465458 318.892635 
L 398.754792 308.905686 
L 417.044125 270.48281 
L 435.333458 188.804865 
L 453.622792 255.905693 
L 471.912125 319.134488 
L 490.201458 335.372837 
L 508.490792 337.297801 
L 526.780125 334.813236 
L 545.069458 329.076886 
L 563.358792 322.905008 
L 581.648125 300.243065 
L 599.937458 286.591758 
L 618.226792 264.194284 
L 636.516125 297.270259 
L 654.805458 327.550269 
L 673.094792 334.088753 
L 691.384125 339.582966 
L 709.673458 340.834289 
L 727.962792 342.814459 
L 746.252125 342.522218 
L 764.541458 342.688346 
L 782.830792 344.107102 
L 801.120125 331.791402 
L 819.409458 339.393825 
L 837.698792 340.380339 
L 855.988125 317.396794 
L 874.277458 344.263539 
L 892.566792 340.195279 
L 910.856125 322.298929 
L 929.145458 231.789626 
L 947.434792 111.261608 
" clip-path="url(#p17effd66b8)" style="fill: none; stroke: #90ed7d; stroke-linecap: square"/>
   </g>
   <g id="line2d_10">
    <path d="M 32.968125 342.719861 
L 51.257458 352.089848 
L 69.546792 352.022342 
L 87.836125 352.706979 
L 106.125458 352.533595 
L 124.414792 352.162852 
L 142.704125 349.540611 
L 160.993458 342.912516 
L 179.282792 331.174497 
L 197.572125 318.894165 
L 215.861458 320.174905 
L 234.150792 323.38588 
L 252.440125 324.40935 
L 270.729458 327.907862 
L 289.018792 327.959838 
L 307.308125 330.566095 
L 325.597458 332.05383 
L 343.886792 329.241315 
L 362.176125 331.052352 
L 380.465458 330.837818 
L 398.754792 319.818615 
L 417.044125 272.851691 
L 435.333458 176.209733 
L 453.622792 252.530119 
L 471.912125 319.854833 
L 490.201458 339.187567 
L 508.490792 341.129251 
L 526.780125 335.314457 
L 545.069458 326.084525 
L 563.358792 317.46311 
L 581.648125 291.436986 
L 599.937458 276.606454 
L 618.226792 260.271976 
L 636.516125 293.880968 
L 654.805458 323.794599 
L 673.094792 334.171902 
L 691.384125 342.443999 
L 709.673458 343.75631 
L 727.962792 345.033876 
L 746.252125 344.446898 
L 764.541458 345.784658 
L 782.830792 346.911965 
L 801.120125 334.992855 
L 819.409458 344.037896 
L 837.698792 345.583161 
L 855.988125 321.187322 
L 874.277458 346.459433 
L 892.566792 345.191106 
L 910.856125 325.216019 
L 929.145458 236.987063 
L 947.434792 105.658343 
" clip-path="url(#p17effd66b8)" style="fill: none; stroke: #f7a35c; stroke-linecap: square"/>
   </g>
   <g id="line2d_11">
    <path d="M 32.968125 343.31738 
L 51.257458 352.077945 
L 69.546792 352.012026 
L 87.836125 352.694396 
L 106.125458 352.494316 
L 124.414792 352.190285 
L 142.704125 350.245653 
L 160.993458 345.170814 
L 179.282792 334.123214 
L 197.572125 320.939121 
L 215.861458 322.381625 
L 234.150792 327.38669 
L 252.440125 329.30933 
L 270.729458 333.152684 
L 289.018792 334.707584 
L 307.308125 336.881884 
L 325.597458 338.005337 
L 343.886792 337.595541 
L 362.176125 339.22968 
L 380.465458 339.718261 
L 398.754792 326.342532 
L 417.044125 277.738295 
L 435.333458 184.076455 
L 453.622792 263.101948 
L 471.912125 326.505034 
L 490.201458 344.963026 
L 508.490792 346.403886 
L 526.780125 344.622776 
L 545.069458 343.341016 
L 563.358792 342.24596 
L 581.648125 331.767823 
L 599.937458 317.484138 
L 618.226792 251.77792 
L 636.516125 282.634818 
L 654.805458 305.556752 
L 673.094792 321.425264 
L 691.384125 342.497675 
L 709.673458 345.569614 
L 727.962792 343.002807 
L 746.252125 342.325368 
L 764.541458 348.575182 
L 782.830792 348.514194 
L 801.120125 336.89322 
L 819.409458 345.530165 
L 837.698792 346.821278 
L 855.988125 319.865603 
L 874.277458 346.736371 
L 892.566792 348.02822 
L 910.856125 324.001141 
L 929.145458 239.249556 
L 947.434792 98.080972 
" clip-path="url(#p17effd66b8)" style="fill: none; stroke: #8085e9; stroke-linecap: square"/>
   </g>
   <g id="line2d_12">
    <path d="M 32.968125 342.296858 
L 51.257458 352.081856 
L 69.546792 352.079362 
L 87.836125 352.705052 
L 106.125458 352.516591 
L 124.414792 352.142447 
L 142.704125 349.939411 
L 160.993458 345.680991 
L 179.282792 339.775678 
L 197.572125 334.200072 
L 215.861458 336.112567 
L 234.150792 337.998762 
L 252.440125 338.600759 
L 270.729458 340.343384 
L 289.018792 340.851123 
L 307.308125 342.031369 
L 325.597458 342.604233 
L 343.886792 339.871637 
L 362.176125 341.348093 
L 380.465458 341.551517 
L 398.754792 331.152732 
L 417.044125 291.067433 
L 435.333458 208.123825 
L 453.622792 270.484623 
L 471.912125 328.220452 
L 490.201458 344.96722 
L 508.490792 346.453255 
L 526.780125 340.533715 
L 545.069458 330.30293 
L 563.358792 319.750656 
L 581.648125 286.123582 
L 599.937458 281.749761 
L 618.226792 281.38786 
L 636.516125 310.60104 
L 654.805458 331.971247 
L 673.094792 337.173048 
L 691.384125 346.413465 
L 709.673458 347.906075 
L 727.962792 348.003451 
L 746.252125 347.887314 
L 764.541458 349.390012 
L 782.830792 349.345122 
L 801.120125 335.563792 
L 819.409458 345.69176 
L 837.698792 347.178645 
L 855.988125 318.168208 
L 874.277458 347.345397 
L 892.566792 348.07158 
L 910.856125 323.305565 
L 929.145458 227.852411 
L 947.434792 102.853083 
" clip-path="url(#p17effd66b8)" style="fill: none; stroke: #f15c80; stroke-linecap: square"/>
   </g>
   <g id="line2d_13">
    <path d="M 32.968125 347.142143 
L 51.257458 352.648599 
L 69.546792 352.670477 
L 87.836125 352.961302 
L 106.125458 352.852533 
L 124.414792 352.508939 
L 142.704125 350.305337 
L 160.993458 344.95135 
L 179.282792 335.644334 
L 197.572125 325.957676 
L 215.861458 326.239715 
L 234.150792 327.694746 
L 252.440125 328.099157 
L 270.729458 330.595568 
L 289.018792 329.511508 
L 307.308125 332.120089 
L 325.597458 333.287979 
L 343.886792 331.622325 
L 362.176125 332.659908 
L 380.465458 332.415504 
L 398.754792 324.466653 
L 417.044125 293.652548 
L 435.333458 222.832666 
L 453.622792 278.563158 
L 471.912125 326.444783 
L 490.201458 340.611594 
L 508.490792 341.73737 
L 526.780125 334.440622 
L 545.069458 324.603932 
L 563.358792 323.181946 
L 581.648125 308.074192 
L 599.937458 315.897327 
L 618.226792 320.936513 
L 636.516125 329.532593 
L 654.805458 336.992466 
L 673.094792 340.588808 
L 691.384125 344.460841 
L 709.673458 345.996074 
L 727.962792 346.513846 
L 746.252125 346.318073 
L 764.541458 346.243255 
L 782.830792 347.014499 
L 801.120125 336.338096 
L 819.409458 343.49955 
L 837.698792 344.620622 
L 855.988125 332.400711 
L 874.277458 347.227616 
L 892.566792 344.948969 
L 910.856125 332.087044 
L 929.145458 272.358349 
L 947.434792 180.30004 
" clip-path="url(#p17effd66b8)" style="fill: none; stroke: #e4d354; stroke-linecap: square"/>
   </g>
   <g id="line2d_14">
    <path d="M 32.968125 344.4117 
L 51.257458 352.484 
L 69.546792 352.543117 
L 87.836125 352.910177 
L 106.125458 352.813481 
L 124.414792 352.449482 
L 142.704125 350.367004 
L 160.993458 345.187252 
L 179.282792 335.688941 
L 197.572125 324.875202 
L 215.861458 328.758685 
L 234.150792 333.208854 
L 252.440125 335.423339 
L 270.729458 339.288117 
L 289.018792 340.152089 
L 307.308125 341.571582 
L 325.597458 341.912228 
L 343.886792 340.106519 
L 362.176125 341.871419 
L 380.465458 342.744233 
L 398.754792 333.8346 
L 417.044125 294.688827 
L 435.333458 226.570538 
L 453.622792 285.826919 
L 471.912125 332.78228 
L 490.201458 346.926475 
L 508.490792 346.848484 
L 526.780125 335.64065 
L 545.069458 318.391301 
L 563.358792 302.122628 
L 581.648125 255.760763 
L 599.937458 280.827522 
L 618.226792 303.676395 
L 636.516125 314.643453 
L 654.805458 333.595014 
L 673.094792 339.596853 
L 691.384125 347.100029 
L 709.673458 348.867537 
L 727.962792 349.035649 
L 746.252125 348.18256 
L 764.541458 350.081734 
L 782.830792 349.833703 
L 801.120125 339.962382 
L 819.409458 347.150588 
L 837.698792 348.435919 
L 855.988125 331.352189 
L 874.277458 348.739893 
L 892.566792 349.126847 
L 910.856125 333.066927 
L 929.145458 262.291595 
L 947.434792 173.831102 
" clip-path="url(#p17effd66b8)" style="fill: none; stroke: #2b908f; stroke-linecap: square"/>
   </g>
   <g id="line2d_15">
    <path d="M 32.968125 347.164531 
L 51.257458 352.597303 
L 69.546792 352.651036 
L 87.836125 352.970881 
L 106.125458 352.875772 
L 124.414792 352.642137 
L 142.704125 351.122605 
L 160.993458 346.956969 
L 179.282792 338.344453 
L 197.572125 328.689025 
L 215.861458 328.619932 
L 234.150792 330.509075 
L 252.440125 330.717997 
L 270.729458 332.742661 
L 289.018792 331.807555 
L 307.308125 334.246833 
L 325.597458 335.174514 
L 343.886792 333.898705 
L 362.176125 335.019551 
L 380.465458 334.461877 
L 398.754792 326.007951 
L 417.044125 295.43859 
L 435.333458 232.712829 
L 453.622792 287.124663 
L 471.912125 328.541431 
L 490.201458 341.560132 
L 508.490792 342.759933 
L 526.780125 340.124316 
L 545.069458 335.003397 
L 563.358792 331.65469 
L 581.648125 303.5394 
L 599.937458 302.01777 
L 618.226792 294.998073 
L 636.516125 304.233559 
L 654.805458 325.739968 
L 673.094792 335.476901 
L 691.384125 342.565011 
L 709.673458 344.819399 
L 727.962792 344.765836 
L 746.252125 344.308316 
L 764.541458 345.886512 
L 782.830792 346.531813 
L 801.120125 336.76569 
L 819.409458 343.032904 
L 837.698792 344.136632 
L 855.988125 327.630754 
L 874.277458 345.626578 
L 892.566792 344.44123 
L 910.856125 324.381407 
L 929.145458 244.529803 
L 947.434792 108.667538 
" clip-path="url(#p17effd66b8)" style="fill: none; stroke: #f45b5b; stroke-linecap: square"/>
   </g>
   <g id="line2d_16">
    <path d="M 32.968125 347.851662 
L 51.257458 352.723643 
L 69.546792 352.73804 
L 87.836125 352.99701 
L 106.125458 352.925707 
L 124.414792 352.64055 
L 142.704125 350.766371 
L 160.993458 345.945799 
L 179.282792 337.232676 
L 197.572125 327.306715 
L 215.861458 326.101983 
L 234.150792 326.040882 
L 252.440125 325.2235 
L 270.729458 326.441666 
L 289.018792 322.674037 
L 307.308125 326.657276 
L 325.597458 328.291926 
L 343.886792 327.444957 
L 362.176125 326.315553 
L 380.465458 324.77981 
L 398.754792 318.763801 
L 417.044125 296.100101 
L 435.333458 244.152088 
L 453.622792 289.508338 
L 471.912125 325.617256 
L 490.201458 336.247125 
L 508.490792 338.016446 
L 526.780125 335.682139 
L 545.069458 330.595625 
L 563.358792 326.042866 
L 581.648125 308.406223 
L 599.937458 308.333729 
L 618.226792 306.888334 
L 636.516125 317.547903 
L 654.805458 332.35497 
L 673.094792 337.356011 
L 691.384125 341.216822 
L 709.673458 342.598282 
L 727.962792 342.910929 
L 746.252125 342.640792 
L 764.541458 343.37219 
L 782.830792 344.61042 
L 801.120125 335.552796 
L 819.409458 341.024337 
L 837.698792 342.275717 
L 855.988125 324.788142 
L 874.277458 344.957188 
L 892.566792 342.888993 
L 910.856125 327.202367 
L 929.145458 256.933584 
L 947.434792 143.974831 
" clip-path="url(#p17effd66b8)" style="fill: none; stroke: #91e8e1; stroke-linecap: square"/>
   </g>
   <g id="line2d_17">
    <path d="M 32.968125 340.850103 
L 51.257458 351.815517 
L 69.546792 352.171354 
L 87.836125 352.78327 
L 106.125458 352.639076 
L 124.414792 352.483377 
L 142.704125 350.926322 
L 160.993458 347.508975 
L 179.282792 341.914949 
L 197.572125 335.663945 
L 215.861458 331.581516 
L 234.150792 327.871814 
L 252.440125 324.442281 
L 270.729458 323.422949 
L 289.018792 317.502446 
L 307.308125 321.82021 
L 325.597458 322.563171 
L 343.886792 322.691381 
L 362.176125 318.838789 
L 380.465458 315.744461 
L 398.754792 313.467344 
L 417.044125 301.23536 
L 435.333458 275.753987 
L 453.622792 299.76786 
L 471.912125 322.524458 
L 490.201458 328.245958 
L 508.490792 329.922324 
L 526.780125 326.721551 
L 545.069458 320.924667 
L 563.358792 320.477973 
L 581.648125 313.96267 
L 599.937458 311.754533 
L 618.226792 313.649854 
L 636.516125 318.995339 
L 654.805458 326.87402 
L 673.094792 331.873134 
L 691.384125 335.224846 
L 709.673458 335.611686 
L 727.962792 338.256769 
L 746.252125 338.528776 
L 764.541458 337.356011 
L 782.830792 339.582683 
L 801.120125 335.312473 
L 819.409458 337.188182 
L 837.698792 337.059178 
L 855.988125 334.917244 
L 874.277458 343.442983 
L 892.566792 338.813536 
L 910.856125 328.999178 
L 929.145458 278.504438 
L 947.434792 208.703548 
" clip-path="url(#p17effd66b8)" style="fill: none; stroke: #7cb5ec; stroke-linecap: square"/>
   </g>
   <g id="line2d_18">
    <path d="M 32.968125 346.40383 
L 51.257458 352.619465 
L 69.546792 352.645708 
L 87.836125 352.974735 
L 106.125458 352.885067 
L 124.414792 352.560575 
L 142.704125 350.730153 
L 160.993458 346.546493 
L 179.282792 339.327396 
L 197.572125 331.141283 
L 215.861458 329.161736 
L 234.150792 328.97951 
L 252.440125 328.193019 
L 270.729458 328.988295 
L 289.018792 328.533609 
L 307.308125 330.413966 
L 325.597458 331.179032 
L 343.886792 328.087311 
L 362.176125 329.730859 
L 380.465458 327.537289 
L 398.754792 320.881364 
L 417.044125 296.467444 
L 435.333458 247.254578 
L 453.622792 288.499492 
L 471.912125 327.778462 
L 490.201458 337.161089 
L 508.490792 338.711059 
L 526.780125 335.904211 
L 545.069458 331.577265 
L 563.358792 329.202659 
L 581.648125 321.322617 
L 599.937458 320.044088 
L 618.226792 317.070715 
L 636.516125 324.404645 
L 654.805458 335.04551 
L 673.094792 338.63352 
L 691.384125 341.491833 
L 709.673458 342.319813 
L 727.962792 344.549659 
L 746.252125 344.080179 
L 764.541458 344.302138 
L 782.830792 345.874779 
L 801.120125 335.836819 
L 819.409458 343.047924 
L 837.698792 344.66982 
L 855.988125 326.705227 
L 874.277458 346.111135 
L 892.566792 343.210709 
L 910.856125 324.013214 
L 929.145458 245.032441 
L 947.434792 118.434568 
" clip-path="url(#p17effd66b8)" style="fill: none; stroke: #434348; stroke-linecap: square"/>
   </g>
   <g id="line2d_19">
    <path d="M 32.968125 340.080446 
L 51.257458 351.944974 
L 69.546792 352.172997 
L 87.836125 352.744841 
L 106.125458 352.577069 
L 124.414792 352.180026 
L 142.704125 349.66525 
L 160.993458 343.679395 
L 179.282792 332.628564 
L 197.572125 319.866906 
L 215.861458 317.722704 
L 234.150792 318.275957 
L 252.440125 317.037217 
L 270.729458 318.567008 
L 289.018792 319.240253 
L 307.308125 322.197642 
L 325.597458 322.476167 
L 343.886792 319.88136 
L 362.176125 322.827583 
L 380.465458 321.945926 
L 398.754792 315.004731 
L 417.044125 285.141092 
L 435.333458 224.602384 
L 453.622792 272.046836 
L 471.912125 320.390572 
L 490.201458 333.260206 
L 508.490792 335.297056 
L 526.780125 333.206926 
L 545.069458 329.7206 
L 563.358792 326.894482 
L 581.648125 312.725461 
L 599.937458 304.829945 
L 618.226792 285.253205 
L 636.516125 299.901511 
L 654.805458 316.517008 
L 673.094792 324.656021 
L 691.384125 335.78303 
L 709.673458 338.125441 
L 727.962792 340.465246 
L 746.252125 339.7292 
L 764.541458 341.362773 
L 782.830792 343.133114 
L 801.120125 331.996923 
L 819.409458 339.984997 
L 837.698792 341.640674 
L 855.988125 320.254654 
L 874.277458 343.434878 
L 892.566792 341.36708 
L 910.856125 317.420033 
L 929.145458 219.009661 
L 947.434792 67.831003 
" clip-path="url(#p17effd66b8)" style="fill: none; stroke: #90ed7d; stroke-linecap: square"/>
   </g>
   <g id="line2d_20">
    <path d="M 32.968125 342.309611 
L 51.257458 352.141993 
L 69.546792 352.087014 
L 87.836125 352.704825 
L 106.125458 352.527927 
L 124.414792 352.115184 
L 142.704125 348.730144 
L 160.993458 339.615614 
L 179.282792 321.351637 
L 197.572125 302.745654 
L 215.861458 309.464324 
L 234.150792 318.183399 
L 252.440125 323.031914 
L 270.729458 329.056991 
L 289.018792 328.841041 
L 307.308125 332.529885 
L 325.597458 334.070275 
L 343.886792 331.177955 
L 362.176125 333.261056 
L 380.465458 333.053834 
L 398.754792 318.232597 
L 417.044125 259.611938 
L 435.333458 131.777989 
L 453.622792 225.325166 
L 471.912125 315.875392 
L 490.201458 341.23717 
L 508.490792 342.772856 
L 526.780125 339.227639 
L 545.069458 333.761596 
L 563.358792 328.545738 
L 581.648125 309.238851 
L 599.937458 313.976784 
L 618.226792 313.138034 
L 636.516125 326.408338 
L 654.805458 336.866467 
L 673.094792 341.328651 
L 691.384125 345.414708 
L 709.673458 346.650614 
L 727.962792 346.461813 
L 746.252125 346.126381 
L 764.541458 347.623582 
L 782.830792 347.542133 
L 801.120125 329.13708 
L 819.409458 341.02326 
L 837.698792 342.922605 
L 855.988125 311.829181 
L 874.277458 345.175972 
L 892.566792 344.016471 
L 910.856125 319.034051 
L 929.145458 212.503257 
L 947.434792 58.312741 
" clip-path="url(#p17effd66b8)" style="fill: none; stroke: #f7a35c; stroke-linecap: square"/>
   </g>
   <g id="line2d_21">
    <path d="M 32.968125 346.33264 
L 51.257458 352.576615 
L 69.546792 352.532688 
L 87.836125 352.924517 
L 106.125458 352.826177 
L 124.414792 352.573101 
L 142.704125 350.858646 
L 160.993458 345.389429 
L 179.282792 332.826547 
L 197.572125 317.456875 
L 215.861458 319.264682 
L 234.150792 325.118529 
L 252.440125 327.891652 
L 270.729458 332.17076 
L 289.018792 331.976348 
L 307.308125 334.977381 
L 325.597458 335.717791 
L 343.886792 333.767888 
L 362.176125 336.650459 
L 380.465458 336.803779 
L 398.754792 325.263913 
L 417.044125 282.248261 
L 435.333458 196.961335 
L 453.622792 265.252498 
L 471.912125 326.413156 
L 490.201458 343.634448 
L 508.490792 344.993009 
L 526.780125 343.708529 
L 545.069458 342.328542 
L 563.358792 341.154417 
L 581.648125 332.805349 
L 599.937458 330.263424 
L 618.226792 314.468029 
L 636.516125 323.351475 
L 654.805458 332.071117 
L 673.094792 337.424197 
L 691.384125 345.163163 
L 709.673458 346.819464 
L 727.962792 346.137774 
L 746.252125 345.344198 
L 764.541458 347.826269 
L 782.830792 348.122479 
L 801.120125 337.064166 
L 819.409458 344.64063 
L 837.698792 345.610537 
L 855.988125 327.267379 
L 874.277458 347.246377 
L 892.566792 345.96371 
L 910.856125 329.977984 
L 929.145458 261.294595 
L 947.434792 152.460895 
" clip-path="url(#p17effd66b8)" style="fill: none; stroke: #8085e9; stroke-linecap: square"/>
   </g>
   <g id="line2d_22">
    <path d="M 32.968125 342.540979 
L 51.257458 352.305798 
L 69.546792 352.314697 
L 87.836125 352.845618 
L 106.125458 352.6957 
L 124.414792 352.273774 
L 142.704125 349.283851 
L 160.993458 341.904916 
L 179.282792 327.380909 
L 197.572125 312.247762 
L 215.861458 314.623502 
L 234.150792 319.208002 
L 252.440125 321.140391 
L 270.729458 323.382253 
L 289.018792 320.302435 
L 307.308125 326.013165 
L 325.597458 328.213197 
L 343.886792 327.884227 
L 362.176125 327.335622 
L 380.465458 326.107537 
L 398.754792 315.663239 
L 417.044125 273.19058 
L 435.333458 184.348632 
L 453.622792 258.410606 
L 471.912125 319.209192 
L 490.201458 335.883126 
L 508.490792 338.582905 
L 526.780125 337.059235 
L 545.069458 333.159315 
L 563.358792 330.86083 
L 581.648125 321.390293 
L 599.937458 312.880707 
L 618.226792 300.287332 
L 636.516125 322.668766 
L 654.805458 330.576637 
L 673.094792 335.849629 
L 691.384125 341.535306 
L 709.673458 343.092361 
L 727.962792 344.11192 
L 746.252125 343.788051 
L 764.541458 344.373894 
L 782.830792 345.562699 
L 801.120125 332.910547 
L 819.409458 341.019802 
L 837.698792 342.188656 
L 855.988125 322.337868 
L 874.277458 345.761193 
L 892.566792 344.464299 
L 910.856125 326.942546 
L 929.145458 251.217809 
L 947.434792 137.454938 
" clip-path="url(#p17effd66b8)" style="fill: none; stroke: #f15c80; stroke-linecap: square"/>
   </g>
   <g id="line2d_23">
    <path d="M 32.968125 346.469125 
L 51.257458 352.614194 
L 69.546792 352.633182 
L 87.836125 352.950986 
L 106.125458 352.830031 
L 124.414792 352.565052 
L 142.704125 350.229329 
L 160.993458 344.874038 
L 179.282792 334.363481 
L 197.572125 322.358046 
L 215.861458 323.079525 
L 234.150792 326.62956 
L 252.440125 327.906502 
L 270.729458 330.8593 
L 289.018792 331.264618 
L 307.308125 333.813628 
L 325.597458 334.969502 
L 343.886792 333.805353 
L 362.176125 334.079004 
L 380.465458 333.268027 
L 398.754792 324.09863 
L 417.044125 284.254164 
L 435.333458 202.696664 
L 453.622792 268.26447 
L 471.912125 324.530418 
L 490.201458 341.261146 
L 508.490792 343.393672 
L 526.780125 342.1623 
L 545.069458 340.266129 
L 563.358792 339.010442 
L 581.648125 332.261165 
L 599.937458 317.887813 
L 618.226792 292.621597 
L 636.516125 318.374523 
L 654.805458 330.922782 
L 673.094792 336.323019 
L 691.384125 343.062491 
L 709.673458 345.359445 
L 727.962792 346.195531 
L 746.252125 345.794974 
L 764.541458 346.429279 
L 782.830792 347.578238 
L 801.120125 337.208303 
L 819.409458 344.879536 
L 837.698792 345.969208 
L 855.988125 326.180995 
L 874.277458 347.263438 
L 892.566792 345.87835 
L 910.856125 329.458115 
L 929.145458 257.597929 
L 947.434792 149.813772 
" clip-path="url(#p17effd66b8)" style="fill: none; stroke: #e4d354; stroke-linecap: square"/>
   </g>
   <g id="line2d_24">
    <path d="M 32.968125 346.149394 
L 51.257458 352.479012 
L 69.546792 352.500097 
L 87.836125 352.887845 
L 106.125458 352.70987 
L 124.414792 352.289645 
L 142.704125 349.384061 
L 160.993458 343.669306 
L 179.282792 335.301023 
L 197.572125 326.68692 
L 215.861458 324.476686 
L 234.150792 323.034068 
L 252.440125 321.272965 
L 270.729458 321.40656 
L 289.018792 320.686895 
L 307.308125 322.791308 
L 325.597458 323.792729 
L 343.886792 321.475256 
L 362.176125 320.33854 
L 380.465458 318.94291 
L 398.754792 313.801869 
L 417.044125 289.597099 
L 435.333458 232.823525 
L 453.622792 280.749304 
L 471.912125 320.69296 
L 490.201458 331.890818 
L 508.490792 334.307594 
L 526.780125 331.149728 
L 545.069458 325.570608 
L 563.358792 324.323083 
L 581.648125 316.885938 
L 599.937458 313.885132 
L 618.226792 306.938949 
L 636.516125 321.508074 
L 654.805458 331.147574 
L 673.094792 334.606808 
L 691.384125 338.912216 
L 709.673458 340.861155 
L 727.962792 342.67463 
L 746.252125 342.502606 
L 764.541458 342.660913 
L 782.830792 344.327814 
L 801.120125 336.176672 
L 819.409458 342.506971 
L 837.698792 344.144057 
L 855.988125 329.287169 
L 874.277458 345.916609 
L 892.566792 344.459538 
L 910.856125 330.654232 
L 929.145458 266.96939 
L 947.434792 167.45869 
" clip-path="url(#p17effd66b8)" style="fill: none; stroke: #2b908f; stroke-linecap: square"/>
   </g>
   <g id="line2d_25">
    <path d="M 32.968125 347.873711 
L 51.257458 352.636809 
L 69.546792 352.689578 
L 87.836125 352.963116 
L 106.125458 352.866363 
L 124.414792 352.663335 
L 142.704125 351.419041 
L 160.993458 348.85144 
L 179.282792 344.273004 
L 197.572125 339.277064 
L 215.861458 337.823791 
L 234.150792 337.420286 
L 252.440125 336.412347 
L 270.729458 335.51516 
L 289.018792 335.622965 
L 307.308125 337.300862 
L 325.597458 337.484448 
L 343.886792 334.193894 
L 362.176125 336.574848 
L 380.465458 334.424582 
L 398.754792 328.213877 
L 417.044125 305.204203 
L 435.333458 258.323093 
L 453.622792 294.559767 
L 471.912125 332.486354 
L 490.201458 341.968965 
L 508.490792 342.883779 
L 526.780125 339.609152 
L 545.069458 336.208866 
L 563.358792 334.719034 
L 581.648125 328.111513 
L 599.937458 319.116577 
L 618.226792 289.900846 
L 636.516125 308.008953 
L 654.805458 327.083623 
L 673.094792 332.732742 
L 691.384125 341.796488 
L 709.673458 343.628213 
L 727.962792 345.015568 
L 746.252125 344.69782 
L 764.541458 346.222964 
L 782.830792 347.190434 
L 801.120125 336.235902 
L 819.409458 343.410449 
L 837.698792 344.147401 
L 855.988125 327.599977 
L 874.277458 346.460056 
L 892.566792 345.398951 
L 910.856125 326.057999 
L 929.145458 247.776033 
L 947.434792 135.464339 
" clip-path="url(#p17effd66b8)" style="fill: none; stroke: #f45b5b; stroke-linecap: square"/>
   </g>
   <g id="line2d_26">
    <path d="M 32.968125 347.581809 
L 51.257458 352.657951 
L 69.546792 352.659651 
L 87.836125 352.964419 
L 106.125458 352.861545 
L 124.414792 352.632785 
L 142.704125 351.093698 
L 160.993458 347.119641 
L 179.282792 339.715257 
L 197.572125 331.537476 
L 215.861458 332.542864 
L 234.150792 335.299153 
L 252.440125 336.298137 
L 270.729458 338.559213 
L 289.018792 338.92956 
L 307.308125 340.484914 
L 325.597458 340.871754 
L 343.886792 338.662767 
L 362.176125 340.405562 
L 380.465458 340.223619 
L 398.754792 332.630775 
L 417.044125 303.626744 
L 435.333458 243.066667 
L 453.622792 289.072526 
L 471.912125 331.409889 
L 490.201458 344.541157 
L 508.490792 345.516335 
L 526.780125 343.262514 
L 545.069458 339.639136 
L 563.358792 333.504099 
L 581.648125 312.785655 
L 599.937458 303.689942 
L 618.226792 285.374727 
L 636.516125 303.72412 
L 654.805458 326.938069 
L 673.094792 334.383942 
L 691.384125 343.318571 
L 709.673458 344.973568 
L 727.962792 346.032746 
L 746.252125 345.290919 
L 764.541458 347.468279 
L 782.830792 348.315927 
L 801.120125 337.22321 
L 819.409458 345.027471 
L 837.698792 346.581351 
L 855.988125 320.270694 
L 874.277458 345.559922 
L 892.566792 345.703946 
L 910.856125 319.005031 
L 929.145458 217.451416 
L 947.434792 50.388829 
" clip-path="url(#p17effd66b8)" style="fill: none; stroke: #91e8e1; stroke-linecap: square"/>
   </g>
   <g id="line2d_27">
    <path d="M 32.968125 345.959516 
L 51.257458 352.549522 
L 69.546792 352.580923 
L 87.836125 352.932225 
L 106.125458 352.806509 
L 124.414792 352.62502 
L 142.704125 351.041666 
L 160.993458 347.251762 
L 179.282792 339.762755 
L 197.572125 331.242683 
L 215.861458 332.068567 
L 234.150792 333.542358 
L 252.440125 334.292574 
L 270.729458 336.017061 
L 289.018792 334.281918 
L 307.308125 337.262376 
L 325.597458 338.355675 
L 343.886792 335.225922 
L 362.176125 338.171522 
L 380.465458 337.726925 
L 398.754792 328.967267 
L 417.044125 293.059676 
L 435.333458 227.601092 
L 453.622792 281.145836 
L 471.912125 329.968631 
L 490.201458 343.668683 
L 508.490792 344.715731 
L 526.780125 339.491995 
L 545.069458 332.336833 
L 563.358792 327.231841 
L 581.648125 307.681796 
L 599.937458 307.051969 
L 618.226792 305.455352 
L 636.516125 316.879193 
L 654.805458 333.765904 
L 673.094792 339.017754 
L 691.384125 345.504886 
L 709.673458 347.037852 
L 727.962792 346.810168 
L 746.252125 346.693634 
L 764.541458 347.491858 
L 782.830792 347.406611 
L 801.120125 336.343934 
L 819.409458 342.446096 
L 837.698792 342.513659 
L 855.988125 324.73577 
L 874.277458 345.33853 
L 892.566792 343.517234 
L 910.856125 325.271622 
L 929.145458 243.02189 
L 947.434792 120.199751 
" clip-path="url(#p17effd66b8)" style="fill: none; stroke: #7cb5ec; stroke-linecap: square"/>
   </g>
   <g id="line2d_28">
    <path d="M 32.968125 347.925233 
L 51.257458 352.763716 
L 69.546792 352.757424 
L 87.836125 353.021893 
L 106.125458 352.93778 
L 124.414792 352.71293 
L 142.704125 351.055949 
L 160.993458 347.277381 
L 179.282792 340.633529 
L 197.572125 333.681621 
L 215.861458 333.33763 
L 234.150792 333.141121 
L 252.440125 332.392606 
L 270.729458 331.64205 
L 289.018792 328.754604 
L 307.308125 332.19672 
L 325.597458 333.033202 
L 343.886792 332.041247 
L 362.176125 330.082218 
L 380.465458 326.693665 
L 398.754792 319.987238 
L 417.044125 294.765685 
L 435.333458 242.036736 
L 453.622792 287.060671 
L 471.912125 327.279112 
L 490.201458 338.04796 
L 508.490792 339.875945 
L 526.780125 338.154121 
L 545.069458 334.71909 
L 563.358792 333.6772 
L 581.648125 324.685551 
L 599.937458 320.199901 
L 618.226792 315.016294 
L 636.516125 326.495512 
L 654.805458 335.649038 
L 673.094792 339.055729 
L 691.384125 341.62265 
L 709.673458 342.016179 
L 727.962792 343.419121 
L 746.252125 343.379502 
L 764.541458 342.966928 
L 782.830792 344.58123 
L 801.120125 333.319209 
L 819.409458 339.788601 
L 837.698792 340.364582 
L 855.988125 319.221208 
L 874.277458 343.090774 
L 892.566792 338.003239 
L 910.856125 318.020501 
L 929.145458 224.595185 
L 947.434792 80.799089 
" clip-path="url(#p17effd66b8)" style="fill: none; stroke: #434348; stroke-linecap: square"/>
   </g>
   <g id="line2d_29">
    <path d="M 32.968125 344.587124 
L 51.257458 352.406349 
L 69.546792 352.493749 
L 87.836125 352.900768 
L 106.125458 352.776979 
L 124.414792 352.486097 
L 142.704125 350.591004 
L 160.993458 347.097706 
L 179.282792 341.354781 
L 197.572125 335.125882 
L 215.861458 334.863001 
L 234.150792 335.767046 
L 252.440125 335.423282 
L 270.729458 336.28374 
L 289.018792 335.851329 
L 307.308125 337.612885 
L 325.597458 338.30608 
L 343.886792 337.401639 
L 362.176125 337.227178 
L 380.465458 335.490958 
L 398.754792 327.275994 
L 417.044125 292.508577 
L 435.333458 233.433798 
L 453.622792 286.32967 
L 471.912125 330.451771 
L 490.201458 342.634671 
L 508.490792 343.6281 
L 526.780125 337.400675 
L 545.069458 329.397071 
L 563.358792 320.591899 
L 581.648125 302.814974 
L 599.937458 287.731082 
L 618.226792 267.598821 
L 636.516125 297.895722 
L 654.805458 325.200545 
L 673.094792 331.93962 
L 691.384125 342.900443 
L 709.673458 345.019422 
L 727.962792 345.660812 
L 746.252125 345.088799 
L 764.541458 346.988427 
L 782.830792 347.503534 
L 801.120125 337.939985 
L 819.409458 344.39753 
L 837.698792 345.528408 
L 855.988125 322.934311 
L 874.277458 345.9492 
L 892.566792 343.758067 
L 910.856125 323.038942 
L 929.145458 232.954002 
L 947.434792 105.078734 
" clip-path="url(#p17effd66b8)" style="fill: none; stroke: #90ed7d; stroke-linecap: square"/>
   </g>
   <g id="line2d_30">
    <path d="M 32.968125 334.313489 
L 51.257458 351.077204 
L 69.546792 351.535801 
L 87.836125 352.471701 
L 106.125458 352.141937 
L 124.414792 351.993889 
L 142.704125 350.509951 
L 160.993458 348.138009 
L 179.282792 344.139353 
L 197.572125 339.093025 
L 215.861458 339.95609 
L 234.150792 341.349113 
L 252.440125 341.158668 
L 270.729458 342.203223 
L 289.018792 343.125972 
L 307.308125 343.665792 
L 325.597458 344.009102 
L 343.886792 341.797565 
L 362.176125 343.278668 
L 380.465458 343.565298 
L 398.754792 333.134716 
L 417.044125 285.453625 
L 435.333458 211.819074 
L 453.622792 284.694001 
L 471.912125 332.85007 
L 490.201458 346.578461 
L 508.490792 347.881532 
L 526.780125 345.638877 
L 545.069458 343.040952 
L 563.358792 333.228465 
L 581.648125 328.145861 
L 599.937458 290.89796 
L 618.226792 276.374746 
L 636.516125 287.203165 
L 654.805458 287.292549 
L 673.094792 314.314199 
L 691.384125 337.631929 
L 709.673458 346.645796 
L 727.962792 348.804339 
L 746.252125 348.818962 
L 764.541458 349.755088 
L 782.830792 348.243887 
L 801.120125 339.28738 
L 819.409458 347.324255 
L 837.698792 348.233288 
L 855.988125 335.426569 
L 874.277458 349.492943 
L 892.566792 349.279203 
L 910.856125 329.026951 
L 929.145458 243.249346 
L 947.434792 160.749316 
" clip-path="url(#p17effd66b8)" style="fill: none; stroke: #f7a35c; stroke-linecap: square"/>
   </g>
   <g id="line2d_31">
    <path d="M 32.968125 345.01058 
L 51.257458 352.464275 
L 69.546792 352.438316 
L 87.836125 352.846355 
L 106.125458 352.711797 
L 124.414792 352.31226 
L 142.704125 349.598424 
L 160.993458 342.000082 
L 179.282792 326.903664 
L 197.572125 308.914642 
L 215.861458 304.83584 
L 234.150792 305.985026 
L 252.440125 305.854889 
L 270.729458 309.448567 
L 289.018792 308.583631 
L 307.308125 312.69491 
L 325.597458 313.768485 
L 343.886792 312.314191 
L 362.176125 314.333981 
L 380.465458 312.226337 
L 398.754792 302.290684 
L 417.044125 268.907334 
L 435.333458 194.245062 
L 453.622792 254.279489 
L 471.912125 314.619874 
L 490.201458 328.518022 
L 508.490792 331.856697 
L 526.780125 330.432727 
L 545.069458 327.205655 
L 563.358792 328.606669 
L 581.648125 327.133558 
L 599.937458 320.368524 
L 618.226792 298.904625 
L 636.516125 312.058111 
L 654.805458 318.775137 
L 673.094792 324.689349 
L 691.384125 335.134101 
L 709.673458 337.799929 
L 727.962792 339.528723 
L 746.252125 338.500379 
L 764.541458 339.387307 
L 782.830792 342.359036 
L 801.120125 331.766179 
L 819.409458 339.921119 
L 837.698792 341.575152 
L 855.988125 327.428293 
L 874.277458 344.501934 
L 892.566792 341.421096 
L 910.856125 329.182027 
L 929.145458 265.567525 
L 947.434792 170.417553 
" clip-path="url(#p17effd66b8)" style="fill: none; stroke: #8085e9; stroke-linecap: square"/>
   </g>
   <g id="line2d_32">
    <path d="M 32.968125 344.119458 
L 51.257458 352.380049 
L 69.546792 352.399944 
L 87.836125 352.878549 
L 106.125458 352.780266 
L 124.414792 352.42783 
L 142.704125 350.273256 
L 160.993458 345.203179 
L 179.282792 334.909252 
L 197.572125 323.434342 
L 215.861458 324.472038 
L 234.150792 328.07076 
L 252.440125 329.003089 
L 270.729458 331.515087 
L 289.018792 332.119238 
L 307.308125 334.312072 
L 325.597458 335.554609 
L 343.886792 333.875693 
L 362.176125 335.536188 
L 380.465458 334.098388 
L 398.754792 322.861364 
L 417.044125 278.946541 
L 435.333458 199.452815 
L 453.622792 266.601311 
L 471.912125 326.518807 
L 490.201458 342.455959 
L 508.490792 343.553679 
L 526.780125 342.533497 
L 545.069458 340.689642 
L 563.358792 338.916183 
L 581.648125 332.508289 
L 599.937458 326.278427 
L 618.226792 304.145422 
L 636.516125 325.729256 
L 654.805458 334.925462 
L 673.094792 338.634371 
L 691.384125 344.169507 
L 709.673458 345.743735 
L 727.962792 346.880905 
L 746.252125 345.730189 
L 764.541458 347.192021 
L 782.830792 348.244397 
L 801.120125 337.315825 
L 819.409458 345.611558 
L 837.698792 347.123552 
L 855.988125 329.804656 
L 874.277458 346.180964 
L 892.566792 346.621084 
L 910.856125 331.481702 
L 929.145458 262.844508 
L 947.434792 164.817745 
" clip-path="url(#p17effd66b8)" style="fill: none; stroke: #f15c80; stroke-linecap: square"/>
   </g>
   <g id="line2d_33">
    <path d="M 32.968125 348.216454 
L 51.257458 352.781683 
L 69.546792 352.846638 
L 87.836125 353.047399 
L 106.125458 352.962889 
L 124.414792 352.713044 
L 142.704125 351.134904 
L 160.993458 347.41568 
L 179.282792 340.614881 
L 197.572125 332.317391 
L 215.861458 327.541597 
L 234.150792 324.23812 
L 252.440125 321.134326 
L 270.729458 319.848769 
L 289.018792 317.257022 
L 307.308125 319.395329 
L 325.597458 320.124403 
L 343.886792 318.843663 
L 362.176125 317.013751 
L 380.465458 313.3206 
L 398.754792 308.651874 
L 417.044125 289.031376 
L 435.333458 253.144077 
L 453.622792 289.139862 
L 471.912125 321.161249 
L 490.201458 328.188655 
L 508.490792 330.819001 
L 526.780125 328.820749 
L 545.069458 324.321213 
L 563.358792 323.025169 
L 581.648125 315.644307 
L 599.937458 315.154763 
L 618.226792 312.237446 
L 636.516125 321.580227 
L 654.805458 327.512576 
L 673.094792 330.861737 
L 691.384125 333.776673 
L 709.673458 335.284189 
L 727.962792 338.630516 
L 746.252125 338.117846 
L 764.541458 335.820098 
L 782.830792 340.067013 
L 801.120125 334.388193 
L 819.409458 339.333914 
L 837.698792 340.040203 
L 855.988125 332.735406 
L 874.277458 343.500003 
L 892.566792 334.304873 
L 910.856125 329.19529 
L 929.145458 273.579745 
L 947.434792 182.670735 
" clip-path="url(#p17effd66b8)" style="fill: none; stroke: #e4d354; stroke-linecap: square"/>
   </g>
   <g id="line2d_34">
    <path d="M 32.968125 345.248636 
L 51.257458 352.530591 
L 69.546792 352.617198 
L 87.836125 352.961925 
L 106.125458 352.85242 
L 124.414792 352.648485 
L 142.704125 351.007941 
L 160.993458 346.302883 
L 179.282792 335.731054 
L 197.572125 322.783826 
L 215.861458 324.742401 
L 234.150792 329.300318 
L 252.440125 331.966713 
L 270.729458 335.689564 
L 289.018792 336.241627 
L 307.308125 338.529513 
L 325.597458 339.352449 
L 343.886792 337.49516 
L 362.176125 339.653476 
L 380.465458 339.108101 
L 398.754792 329.330926 
L 417.044125 288.413792 
L 435.333458 207.759033 
L 453.622792 272.354041 
L 471.912125 328.793033 
L 490.201458 345.076896 
L 508.490792 346.428712 
L 526.780125 343.735792 
L 545.069458 339.035948 
L 563.358792 333.128028 
L 581.648125 312.099091 
L 599.937458 310.166021 
L 618.226792 316.234572 
L 636.516125 326.668385 
L 654.805458 337.116765 
L 673.094792 341.674739 
L 691.384125 346.701229 
L 709.673458 348.378332 
L 727.962792 348.601368 
L 746.252125 348.144697 
L 764.541458 348.870314 
L 782.830792 349.081447 
L 801.120125 338.103053 
L 819.409458 346.07843 
L 837.698792 347.286166 
L 855.988125 331.739483 
L 874.277458 348.009062 
L 892.566792 346.576534 
L 910.856125 329.652924 
L 929.145458 255.140457 
L 947.434792 138.989264 
" clip-path="url(#p17effd66b8)" style="fill: none; stroke: #2b908f; stroke-linecap: square"/>
   </g>
   <g id="line2d_35">
    <path d="M 32.968125 339.935742 
L 51.257458 351.892715 
L 69.546792 352.150439 
L 87.836125 352.763546 
L 106.125458 352.668947 
L 124.414792 352.333968 
L 142.704125 350.665708 
L 160.993458 345.600392 
L 179.282792 333.809661 
L 197.572125 320.738474 
L 215.861458 322.434054 
L 234.150792 326.562961 
L 252.440125 328.788272 
L 270.729458 332.904709 
L 289.018792 334.335934 
L 307.308125 335.859548 
L 325.597458 334.992118 
L 343.886792 330.90368 
L 362.176125 337.501169 
L 380.465458 339.11564 
L 398.754792 331.998737 
L 417.044125 298.831678 
L 435.333458 233.50068 
L 453.622792 282.420965 
L 471.912125 331.026846 
L 490.201458 344.542234 
L 508.490792 345.315065 
L 526.780125 340.461505 
L 545.069458 334.451221 
L 563.358792 321.801733 
L 581.648125 285.164727 
L 599.937458 290.617678 
L 618.226792 282.552009 
L 636.516125 297.423124 
L 654.805458 320.567584 
L 673.094792 334.173773 
L 691.384125 343.956673 
L 709.673458 345.909127 
L 727.962792 346.063467 
L 746.252125 345.351623 
L 764.541458 348.033945 
L 782.830792 347.92903 
L 801.120125 338.672573 
L 819.409458 344.912807 
L 837.698792 346.309118 
L 855.988125 332.2814 
L 874.277458 347.061714 
L 892.566792 347.055196 
L 910.856125 329.393727 
L 929.145458 255.655678 
L 947.434792 155.239742 
" clip-path="url(#p17effd66b8)" style="fill: none; stroke: #f45b5b; stroke-linecap: square"/>
   </g>
   <g id="line2d_36">
    <path d="M 32.968125 339.789168 
L 51.257458 352.050229 
L 69.546792 352.496923 
L 87.836125 352.907343 
L 106.125458 352.832865 
L 124.414792 352.565619 
L 142.704125 351.108718 
L 160.993458 347.846334 
L 179.282792 341.23547 
L 197.572125 333.91911 
L 215.861458 335.890892 
L 234.150792 338.151231 
L 252.440125 339.173283 
L 270.729458 341.582294 
L 289.018792 342.234283 
L 307.308125 342.719067 
L 325.597458 342.413222 
L 343.886792 338.10481 
L 362.176125 343.055462 
L 380.465458 342.944313 
L 398.754792 334.666775 
L 417.044125 293.379124 
L 435.333458 243.86489 
L 453.622792 298.168692 
L 471.912125 336.217765 
L 490.201458 345.631509 
L 508.490792 344.133798 
L 526.780125 313.433847 
L 545.069458 285.879745 
L 563.358792 283.942198 
L 581.648125 253.053615 
L 599.937458 273.009771 
L 618.226792 302.702634 
L 636.516125 313.216876 
L 654.805458 329.732786 
L 673.094792 335.242303 
L 691.384125 346.511975 
L 709.673458 349.061325 
L 727.962792 348.953237 
L 746.252125 348.668137 
L 764.541458 349.802529 
L 782.830792 348.535392 
L 801.120125 342.428696 
L 819.409458 347.606238 
L 837.698792 348.01354 
L 855.988125 339.028013 
L 874.277458 348.673011 
L 892.566792 348.436599 
L 910.856125 331.810389 
L 929.145458 256.979155 
L 947.434792 191.042759 
" clip-path="url(#p17effd66b8)" style="fill: none; stroke: #91e8e1; stroke-linecap: square"/>
   </g>
   <g id="line2d_37">
    <path d="M 32.968125 347.30232 
L 51.257458 352.675068 
L 69.546792 352.718655 
L 87.836125 353.005172 
L 106.125458 352.924347 
L 124.414792 352.64021 
L 142.704125 350.870606 
L 160.993458 346.827002 
L 179.282792 340.152599 
L 197.572125 332.702475 
L 215.861458 333.804673 
L 234.150792 335.828317 
L 252.440125 336.577966 
L 270.729458 338.13213 
L 289.018792 338.347457 
L 307.308125 339.598326 
L 325.597458 340.075401 
L 343.886792 338.546913 
L 362.176125 339.380959 
L 380.465458 338.626549 
L 398.754792 326.812579 
L 417.044125 285.907801 
L 435.333458 191.469219 
L 453.622792 270.989018 
L 471.912125 327.05925 
L 490.201458 343.936439 
L 508.490792 345.700092 
L 526.780125 343.763338 
L 545.069458 339.693208 
L 563.358792 334.428492 
L 581.648125 292.416982 
L 599.937458 296.177979 
L 618.226792 313.716226 
L 636.516125 326.826976 
L 654.805458 337.757078 
L 673.094792 342.101596 
L 691.384125 346.358599 
L 709.673458 347.718294 
L 727.962792 348.279199 
L 746.252125 347.525582 
L 764.541458 348.557894 
L 782.830792 348.910557 
L 801.120125 337.014968 
L 819.409458 346.098382 
L 837.698792 347.521048 
L 855.988125 324.139667 
L 874.277458 347.575971 
L 892.566792 348.044034 
L 910.856125 328.018388 
L 929.145458 248.27578 
L 947.434792 128.909814 
" clip-path="url(#p17effd66b8)" style="fill: none; stroke: #7cb5ec; stroke-linecap: square"/>
   </g>
   <g id="line2d_38">
    <path d="M 32.968125 339.88524 
L 51.257458 351.891015 
L 69.546792 352.022739 
L 87.836125 352.655854 
L 106.125458 352.51098 
L 124.414792 352.156617 
L 142.704125 350.033896 
L 160.993458 344.152616 
L 179.282792 332.234185 
L 197.572125 319.991999 
L 215.861458 322.326362 
L 234.150792 326.830547 
L 252.440125 329.42252 
L 270.729458 333.609524 
L 289.018792 334.712176 
L 307.308125 336.097036 
L 325.597458 336.238453 
L 343.886792 332.8953 
L 362.176125 337.684925 
L 380.465458 339.266919 
L 398.754792 330.870863 
L 417.044125 296.120449 
L 435.333458 226.536473 
L 453.622792 280.811595 
L 471.912125 330.637058 
L 490.201458 344.779383 
L 508.490792 345.509364 
L 526.780125 338.753058 
L 545.069458 324.901162 
L 563.358792 311.3563 
L 581.648125 259.950033 
L 599.937458 272.987156 
L 618.226792 279.683267 
L 636.516125 305.538388 
L 654.805458 329.754268 
L 673.094792 338.255579 
L 691.384125 345.606853 
L 709.673458 347.130863 
L 727.962792 347.241106 
L 746.252125 346.5054 
L 764.541458 348.537093 
L 782.830792 348.585611 
L 801.120125 339.483379 
L 819.409458 346.265417 
L 837.698792 347.50019 
L 855.988125 332.075595 
L 874.277458 348.216398 
L 892.566792 348.39647 
L 910.856125 334.536468 
L 929.145458 278.325896 
L 947.434792 198.733887 
" clip-path="url(#p17effd66b8)" style="fill: none; stroke: #434348; stroke-linecap: square"/>
   </g>
   <g id="line2d_39">
    <path d="M 32.968125 345.12258 
L 51.257458 352.505085 
L 69.546792 352.492219 
L 87.836125 352.903375 
L 106.125458 352.801521 
L 124.414792 352.525036 
L 142.704125 350.859723 
L 160.993458 345.385461 
L 179.282792 332.354517 
L 197.572125 316.713688 
L 215.861458 317.751214 
L 234.150792 324.26646 
L 252.440125 327.79677 
L 270.729458 332.787155 
L 289.018792 334.131716 
L 307.308125 336.322226 
L 325.597458 336.385991 
L 343.886792 334.505237 
L 362.176125 338.665034 
L 380.465458 339.775281 
L 398.754792 331.065218 
L 417.044125 296.534326 
L 435.333458 224.373737 
L 453.622792 279.37969 
L 471.912125 330.91394 
L 490.201458 344.89722 
L 508.490792 345.929249 
L 526.780125 344.403878 
L 545.069458 343.123932 
L 563.358792 339.036571 
L 581.648125 323.41371 
L 599.937458 307.567926 
L 618.226792 285.599122 
L 636.516125 295.585731 
L 654.805458 317.406884 
L 673.094792 331.666479 
L 691.384125 343.875054 
L 709.673458 346.050714 
L 727.962792 344.721853 
L 746.252125 343.817864 
L 764.541458 348.206875 
L 782.830792 348.31281 
L 801.120125 337.677103 
L 819.409458 345.268984 
L 837.698792 346.865318 
L 855.988125 325.487969 
L 874.277458 346.57489 
L 892.566792 347.389607 
L 910.856125 327.949749 
L 929.145458 248.888717 
L 947.434792 130.300343 
" clip-path="url(#p17effd66b8)" style="fill: none; stroke: #90ed7d; stroke-linecap: square"/>
   </g>
   <g id="line2d_40">
    <path d="M 32.968125 346.826662 
L 51.257458 352.529061 
L 69.546792 352.548955 
L 87.836125 352.918735 
L 106.125458 352.800501 
L 124.414792 352.439676 
L 142.704125 350.185289 
L 160.993458 343.251008 
L 179.282792 329.143598 
L 197.572125 312.186945 
L 215.861458 315.130674 
L 234.150792 322.816927 
L 252.440125 327.166659 
L 270.729458 333.518836 
L 289.018792 334.933171 
L 307.308125 337.58018 
L 325.597458 338.003636 
L 343.886792 337.413655 
L 362.176125 339.931321 
L 380.465458 341.085551 
L 398.754792 332.800928 
L 417.044125 298.667306 
L 435.333458 219.951738 
L 453.622792 283.729195 
L 471.912125 331.021291 
L 490.201458 345.898982 
L 508.490792 347.336385 
L 526.780125 345.006159 
L 545.069458 340.938353 
L 563.358792 330.18923 
L 581.648125 292.623864 
L 599.937458 261.91575 
L 618.226792 258.706702 
L 636.516125 276.607134 
L 654.805458 317.622097 
L 673.094792 333.646366 
L 691.384125 344.557084 
L 709.673458 346.487716 
L 727.962792 346.312745 
L 746.252125 344.582023 
L 764.541458 349.078103 
L 782.830792 349.49453 
L 801.120125 338.184162 
L 819.409458 346.058025 
L 837.698792 347.67125 
L 855.988125 322.503203 
L 874.277458 347.132564 
L 892.566792 348.046924 
L 910.856125 326.360387 
L 929.145458 236.91746 
L 947.434792 106.418308 
" clip-path="url(#p17effd66b8)" style="fill: none; stroke: #f7a35c; stroke-linecap: square"/>
   </g>
   <g id="line2d_41">
    <path d="M 32.968125 353.2239 
L 993.158125 353.2239 
" clip-path="url(#p17effd66b8)" style="fill: none; stroke: #dedede; stroke-width: 2; stroke-linecap: square"/>
   </g>
   <g id="text_16">
    <!-- miRTrace: Read Length Distribution -->
    <g transform="translate(372.160625 19.3575)scale(0.16 -0.16)">
     <defs>
      <path id="DejaVuSans-6d" d="M 3328 2828 
Q 3544 3216 3844 3400 
Q 4144 3584 4550 3584 
Q 5097 3584 5394 3201 
Q 5691 2819 5691 2113 
L 5691 0 
L 5113 0 
L 5113 2094 
Q 5113 2597 4934 2840 
Q 4756 3084 4391 3084 
Q 3944 3084 3684 2787 
Q 3425 2491 3425 1978 
L 3425 0 
L 2847 0 
L 2847 2094 
Q 2847 2600 2669 2842 
Q 2491 3084 2119 3084 
Q 1678 3084 1418 2786 
Q 1159 2488 1159 1978 
L 1159 0 
L 581 0 
L 581 3500 
L 1159 3500 
L 1159 2956 
Q 1356 3278 1631 3431 
Q 1906 3584 2284 3584 
Q 2666 3584 2933 3390 
Q 3200 3197 3328 2828 
z
" transform="scale(0.015625)"/>
      <path id="DejaVuSans-69" d="M 603 3500 
L 1178 3500 
L 1178 0 
L 603 0 
L 603 3500 
z
M 603 4863 
L 1178 4863 
L 1178 4134 
L 603 4134 
L 603 4863 
z
" transform="scale(0.015625)"/>
      <path id="DejaVuSans-54" d="M -19 4666 
L 3928 4666 
L 3928 4134 
L 2272 4134 
L 2272 0 
L 1638 0 
L 1638 4134 
L -19 4134 
L -19 4666 
z
" transform="scale(0.015625)"/>
      <path id="DejaVuSans-72" d="M 2631 2963 
Q 2534 3019 2420 3045 
Q 2306 3072 2169 3072 
Q 1681 3072 1420 2755 
Q 1159 2438 1159 1844 
L 1159 0 
L 581 0 
L 581 3500 
L 1159 3500 
L 1159 2956 
Q 1341 3275 1631 3429 
Q 1922 3584 2338 3584 
Q 2397 3584 2469 3576 
Q 2541 3569 2628 3553 
L 2631 2963 
z
" transform="scale(0.015625)"/>
      <path id="DejaVuSans-63" d="M 3122 3366 
L 3122 2828 
Q 2878 2963 2633 3030 
Q 2388 3097 2138 3097 
Q 1578 3097 1268 2742 
Q 959 2388 959 1747 
Q 959 1106 1268 751 
Q 1578 397 2138 397 
Q 2388 397 2633 464 
Q 2878 531 3122 666 
L 3122 134 
Q 2881 22 2623 -34 
Q 2366 -91 2075 -91 
Q 1284 -91 818 406 
Q 353 903 353 1747 
Q 353 2603 823 3093 
Q 1294 3584 2113 3584 
Q 2378 3584 2631 3529 
Q 2884 3475 3122 3366 
z
" transform="scale(0.015625)"/>
      <path id="DejaVuSans-3a" d="M 750 794 
L 1409 794 
L 1409 0 
L 750 0 
L 750 794 
z
M 750 3309 
L 1409 3309 
L 1409 2516 
L 750 2516 
L 750 3309 
z
" transform="scale(0.015625)"/>
      <path id="DejaVuSans-67" d="M 2906 1791 
Q 2906 2416 2648 2759 
Q 2391 3103 1925 3103 
Q 1463 3103 1205 2759 
Q 947 2416 947 1791 
Q 947 1169 1205 825 
Q 1463 481 1925 481 
Q 2391 481 2648 825 
Q 2906 1169 2906 1791 
z
M 3481 434 
Q 3481 -459 3084 -895 
Q 2688 -1331 1869 -1331 
Q 1566 -1331 1297 -1286 
Q 1028 -1241 775 -1147 
L 775 -588 
Q 1028 -725 1275 -790 
Q 1522 -856 1778 -856 
Q 2344 -856 2625 -561 
Q 2906 -266 2906 331 
L 2906 616 
Q 2728 306 2450 153 
Q 2172 0 1784 0 
Q 1141 0 747 490 
Q 353 981 353 1791 
Q 353 2603 747 3093 
Q 1141 3584 1784 3584 
Q 2172 3584 2450 3431 
Q 2728 3278 2906 2969 
L 2906 3500 
L 3481 3500 
L 3481 434 
z
" transform="scale(0.015625)"/>
      <path id="DejaVuSans-44" d="M 1259 4147 
L 1259 519 
L 2022 519 
Q 2988 519 3436 956 
Q 3884 1394 3884 2338 
Q 3884 3275 3436 3711 
Q 2988 4147 2022 4147 
L 1259 4147 
z
M 628 4666 
L 1925 4666 
Q 3281 4666 3915 4102 
Q 4550 3538 4550 2338 
Q 4550 1131 3912 565 
Q 3275 0 1925 0 
L 628 0 
L 628 4666 
z
" transform="scale(0.015625)"/>
      <path id="DejaVuSans-73" d="M 2834 3397 
L 2834 2853 
Q 2591 2978 2328 3040 
Q 2066 3103 1784 3103 
Q 1356 3103 1142 2972 
Q 928 2841 928 2578 
Q 928 2378 1081 2264 
Q 1234 2150 1697 2047 
L 1894 2003 
Q 2506 1872 2764 1633 
Q 3022 1394 3022 966 
Q 3022 478 2636 193 
Q 2250 -91 1575 -91 
Q 1294 -91 989 -36 
Q 684 19 347 128 
L 347 722 
Q 666 556 975 473 
Q 1284 391 1588 391 
Q 1994 391 2212 530 
Q 2431 669 2431 922 
Q 2431 1156 2273 1281 
Q 2116 1406 1581 1522 
L 1381 1569 
Q 847 1681 609 1914 
Q 372 2147 372 2553 
Q 372 3047 722 3315 
Q 1072 3584 1716 3584 
Q 2034 3584 2315 3537 
Q 2597 3491 2834 3397 
z
" transform="scale(0.015625)"/>
     </defs>
     <use xlink:href="#DejaVuSans-6d"/>
     <use xlink:href="#DejaVuSans-69" x="97.412109"/>
     <use xlink:href="#DejaVuSans-52" x="125.195312"/>
     <use xlink:href="#DejaVuSans-54" x="187.427734"/>
     <use xlink:href="#DejaVuSans-72" x="233.761719"/>
     <use xlink:href="#DejaVuSans-61" x="274.875"/>
     <use xlink:href="#DejaVuSans-63" x="336.154297"/>
     <use xlink:href="#DejaVuSans-65" x="391.134766"/>
     <use xlink:href="#DejaVuSans-3a" x="452.658203"/>
     <use xlink:href="#DejaVuSans-20" x="486.349609"/>
     <use xlink:href="#DejaVuSans-52" x="518.136719"/>
     <use xlink:href="#DejaVuSans-65" x="583.119141"/>
     <use xlink:href="#DejaVuSans-61" x="644.642578"/>
     <use xlink:href="#DejaVuSans-64" x="705.921875"/>
     <use xlink:href="#DejaVuSans-20" x="769.398438"/>
     <use xlink:href="#DejaVuSans-4c" x="801.185547"/>
     <use xlink:href="#DejaVuSans-65" x="855.148438"/>
     <use xlink:href="#DejaVuSans-6e" x="916.671875"/>
     <use xlink:href="#DejaVuSans-67" x="980.050781"/>
     <use xlink:href="#DejaVuSans-74" x="1043.527344"/>
     <use xlink:href="#DejaVuSans-68" x="1082.736328"/>
     <use xlink:href="#DejaVuSans-20" x="1146.115234"/>
     <use xlink:href="#DejaVuSans-44" x="1177.902344"/>
     <use xlink:href="#DejaVuSans-69" x="1254.904297"/>
     <use xlink:href="#DejaVuSans-73" x="1282.6875"/>
     <use xlink:href="#DejaVuSans-74" x="1334.787109"/>
     <use xlink:href="#DejaVuSans-72" x="1373.996094"/>
     <use xlink:href="#DejaVuSans-69" x="1415.109375"/>
     <use xlink:href="#DejaVuSans-62" x="1442.892578"/>
     <use xlink:href="#DejaVuSans-75" x="1506.369141"/>
     <use xlink:href="#DejaVuSans-74" x="1569.748047"/>
     <use xlink:href="#DejaVuSans-69" x="1608.957031"/>
     <use xlink:href="#DejaVuSans-6f" x="1636.740234"/>
     <use xlink:href="#DejaVuSans-6e" x="1697.921875"/>
    </g>
   </g>
  </g>
 </g>
 <defs>
  <clipPath id="p17effd66b8">
   <rect x="32.968125" y="35.2559" width="960.19" height="317.968"/>
  </clipPath>
 </defs>
</svg>
