<?xml version="1.0" encoding="utf-8" standalone="no"?>
<!DOCTYPE svg PUBLIC "-//W3C//DTD SVG 1.1//EN"
  "http://www.w3.org/Graphics/SVG/1.1/DTD/svg11.dtd">
<svg xmlns:xlink="http://www.w3.org/1999/xlink" width="1000.358125pt" height="388.844525pt" viewBox="0 0 1000.358125 388.844525" xmlns="http://www.w3.org/2000/svg" version="1.1">
 <metadata>
  <rdf:RDF xmlns:dc="http://purl.org/dc/elements/1.1/" xmlns:cc="http://creativecommons.org/ns#" xmlns:rdf="http://www.w3.org/1999/02/22-rdf-syntax-ns#">
   <cc:Work>
    <dc:type rdf:resource="http://purl.org/dc/dcmitype/StillImage"/>
    <dc:date>2022-11-05T04:15:19.145717</dc:date>
    <dc:format>image/svg+xml</dc:format>
    <dc:creator>
     <cc:Agent>
      <dc:title>Matplotlib v3.5.1, https://matplotlib.org/</dc:title>
     </cc:Agent>
    </dc:creator>
   </cc:Work>
  </rdf:RDF>
 </metadata>
 <defs>
  <style type="text/css">*{stroke-linejoin: round; stroke-linecap: butt}</style>
 </defs>
 <g id="figure_1">
  <g id="axes_1">
   <g id="patch_1">
    <path d="M 32.968125 353.2239 
L 993.158125 353.2239 
L 993.158125 35.2559 
L 32.968125 35.2559 
z
" style="fill: #ffffff"/>
   </g>
   <g id="patch_2">
    <path d="M 32.968125 -918.6481 
L 993.158125 -918.6481 
L 993.158125 -6006.1361 
L 32.968125 -6006.1361 
z
" clip-path="url(#p20c035c631)" style="fill: #e6c3c3"/>
   </g>
   <g id="patch_3">
    <path d="M 32.968125 35.2559 
L 993.158125 35.2559 
L 993.158125 -918.6481 
L 32.968125 -918.6481 
z
" clip-path="url(#p20c035c631)" style="fill: #e6dcc3"/>
   </g>
   <g id="patch_4">
    <path d="M 32.968125 353.2239 
L 993.158125 353.2239 
L 993.158125 35.2559 
L 32.968125 35.2559 
z
" clip-path="url(#p20c035c631)" style="fill: #c3e6c3"/>
   </g>
   <g id="matplotlib.axis_1">
    <g id="xtick_1">
     <g id="text_1">
      <!-- 0 -->
      <g transform="translate(30.423125 366.30265)scale(0.08 -0.08)">
       <defs>
        <path id="DejaVuSans-30" d="M 2034 4250 
Q 1547 4250 1301 3770 
Q 1056 3291 1056 2328 
Q 1056 1369 1301 889 
Q 1547 409 2034 409 
Q 2525 409 2770 889 
Q 3016 1369 3016 2328 
Q 3016 3291 2770 3770 
Q 2525 4250 2034 4250 
z
M 2034 4750 
Q 2819 4750 3233 4129 
Q 3647 3509 3647 2328 
Q 3647 1150 3233 529 
Q 2819 -91 2034 -91 
Q 1250 -91 836 529 
Q 422 1150 422 2328 
Q 422 3509 836 4129 
Q 1250 4750 2034 4750 
z
" transform="scale(0.015625)"/>
       </defs>
       <use xlink:href="#DejaVuSans-30"/>
      </g>
     </g>
    </g>
    <g id="xtick_2">
     <g id="text_2">
      <!-- 20 -->
      <g transform="translate(210.858592 366.30265)scale(0.08 -0.08)">
       <defs>
        <path id="DejaVuSans-32" d="M 1228 531 
L 3431 531 
L 3431 0 
L 469 0 
L 469 531 
Q 828 903 1448 1529 
Q 2069 2156 2228 2338 
Q 2531 2678 2651 2914 
Q 2772 3150 2772 3378 
Q 2772 3750 2511 3984 
Q 2250 4219 1831 4219 
Q 1534 4219 1204 4116 
Q 875 4013 500 3803 
L 500 4441 
Q 881 4594 1212 4672 
Q 1544 4750 1819 4750 
Q 2544 4750 2975 4387 
Q 3406 4025 3406 3419 
Q 3406 3131 3298 2873 
Q 3191 2616 2906 2266 
Q 2828 2175 2409 1742 
Q 1991 1309 1228 531 
z
" transform="scale(0.015625)"/>
       </defs>
       <use xlink:href="#DejaVuSans-32"/>
       <use xlink:href="#DejaVuSans-30" x="63.623047"/>
      </g>
     </g>
    </g>
    <g id="xtick_3">
     <g id="text_3">
      <!-- 40 -->
      <g transform="translate(393.839059 366.30265)scale(0.08 -0.08)">
       <defs>
        <path id="DejaVuSans-34" d="M 2419 4116 
L 825 1625 
L 2419 1625 
L 2419 4116 
z
M 2253 4666 
L 3047 4666 
L 3047 1625 
L 3713 1625 
L 3713 1100 
L 3047 1100 
L 3047 0 
L 2419 0 
L 2419 1100 
L 313 1100 
L 313 1709 
L 2253 4666 
z
" transform="scale(0.015625)"/>
       </defs>
       <use xlink:href="#DejaVuSans-34"/>
       <use xlink:href="#DejaVuSans-30" x="63.623047"/>
      </g>
     </g>
    </g>
    <g id="xtick_4">
     <g id="text_4">
      <!-- 60 -->
      <g transform="translate(576.819526 366.30265)scale(0.08 -0.08)">
       <defs>
        <path id="DejaVuSans-36" d="M 2113 2584 
Q 1688 2584 1439 2293 
Q 1191 2003 1191 1497 
Q 1191 994 1439 701 
Q 1688 409 2113 409 
Q 2538 409 2786 701 
Q 3034 994 3034 1497 
Q 3034 2003 2786 2293 
Q 2538 2584 2113 2584 
z
M 3366 4563 
L 3366 3988 
Q 3128 4100 2886 4159 
Q 2644 4219 2406 4219 
Q 1781 4219 1451 3797 
Q 1122 3375 1075 2522 
Q 1259 2794 1537 2939 
Q 1816 3084 2150 3084 
Q 2853 3084 3261 2657 
Q 3669 2231 3669 1497 
Q 3669 778 3244 343 
Q 2819 -91 2113 -91 
Q 1303 -91 875 529 
Q 447 1150 447 2328 
Q 447 3434 972 4092 
Q 1497 4750 2381 4750 
Q 2619 4750 2861 4703 
Q 3103 4656 3366 4563 
z
" transform="scale(0.015625)"/>
       </defs>
       <use xlink:href="#DejaVuSans-36"/>
       <use xlink:href="#DejaVuSans-30" x="63.623047"/>
      </g>
     </g>
    </g>
    <g id="xtick_5">
     <g id="text_5">
      <!-- 80 -->
      <g transform="translate(759.799993 366.30265)scale(0.08 -0.08)">
       <defs>
        <path id="DejaVuSans-38" d="M 2034 2216 
Q 1584 2216 1326 1975 
Q 1069 1734 1069 1313 
Q 1069 891 1326 650 
Q 1584 409 2034 409 
Q 2484 409 2743 651 
Q 3003 894 3003 1313 
Q 3003 1734 2745 1975 
Q 2488 2216 2034 2216 
z
M 1403 2484 
Q 997 2584 770 2862 
Q 544 3141 544 3541 
Q 544 4100 942 4425 
Q 1341 4750 2034 4750 
Q 2731 4750 3128 4425 
Q 3525 4100 3525 3541 
Q 3525 3141 3298 2862 
Q 3072 2584 2669 2484 
Q 3125 2378 3379 2068 
Q 3634 1759 3634 1313 
Q 3634 634 3220 271 
Q 2806 -91 2034 -91 
Q 1263 -91 848 271 
Q 434 634 434 1313 
Q 434 1759 690 2068 
Q 947 2378 1403 2484 
z
M 1172 3481 
Q 1172 3119 1398 2916 
Q 1625 2713 2034 2713 
Q 2441 2713 2670 2916 
Q 2900 3119 2900 3481 
Q 2900 3844 2670 4047 
Q 2441 4250 2034 4250 
Q 1625 4250 1398 4047 
Q 1172 3844 1172 3481 
z
" transform="scale(0.015625)"/>
       </defs>
       <use xlink:href="#DejaVuSans-38"/>
       <use xlink:href="#DejaVuSans-30" x="63.623047"/>
      </g>
     </g>
    </g>
    <g id="xtick_6">
     <g id="text_6">
      <!-- 100 -->
      <g transform="translate(940.235459 366.30265)scale(0.08 -0.08)">
       <defs>
        <path id="DejaVuSans-31" d="M 794 531 
L 1825 531 
L 1825 4091 
L 703 3866 
L 703 4441 
L 1819 4666 
L 2450 4666 
L 2450 531 
L 3481 531 
L 3481 0 
L 794 0 
L 794 531 
z
" transform="scale(0.015625)"/>
       </defs>
       <use xlink:href="#DejaVuSans-31"/>
       <use xlink:href="#DejaVuSans-30" x="63.623047"/>
       <use xlink:href="#DejaVuSans-30" x="127.246094"/>
      </g>
     </g>
    </g>
    <g id="text_7">
     <!-- Position in Read (bp) -->
     <g transform="translate(461.46 379.564837)scale(0.1 -0.1)">
      <defs>
       <path id="DejaVuSans-50" d="M 1259 4147 
L 1259 2394 
L 2053 2394 
Q 2494 2394 2734 2622 
Q 2975 2850 2975 3272 
Q 2975 3691 2734 3919 
Q 2494 4147 2053 4147 
L 1259 4147 
z
M 628 4666 
L 2053 4666 
Q 2838 4666 3239 4311 
Q 3641 3956 3641 3272 
Q 3641 2581 3239 2228 
Q 2838 1875 2053 1875 
L 1259 1875 
L 1259 0 
L 628 0 
L 628 4666 
z
" transform="scale(0.015625)"/>
       <path id="DejaVuSans-6f" d="M 1959 3097 
Q 1497 3097 1228 2736 
Q 959 2375 959 1747 
Q 959 1119 1226 758 
Q 1494 397 1959 397 
Q 2419 397 2687 759 
Q 2956 1122 2956 1747 
Q 2956 2369 2687 2733 
Q 2419 3097 1959 3097 
z
M 1959 3584 
Q 2709 3584 3137 3096 
Q 3566 2609 3566 1747 
Q 3566 888 3137 398 
Q 2709 -91 1959 -91 
Q 1206 -91 779 398 
Q 353 888 353 1747 
Q 353 2609 779 3096 
Q 1206 3584 1959 3584 
z
" transform="scale(0.015625)"/>
       <path id="DejaVuSans-73" d="M 2834 3397 
L 2834 2853 
Q 2591 2978 2328 3040 
Q 2066 3103 1784 3103 
Q 1356 3103 1142 2972 
Q 928 2841 928 2578 
Q 928 2378 1081 2264 
Q 1234 2150 1697 2047 
L 1894 2003 
Q 2506 1872 2764 1633 
Q 3022 1394 3022 966 
Q 3022 478 2636 193 
Q 2250 -91 1575 -91 
Q 1294 -91 989 -36 
Q 684 19 347 128 
L 347 722 
Q 666 556 975 473 
Q 1284 391 1588 391 
Q 1994 391 2212 530 
Q 2431 669 2431 922 
Q 2431 1156 2273 1281 
Q 2116 1406 1581 1522 
L 1381 1569 
Q 847 1681 609 1914 
Q 372 2147 372 2553 
Q 372 3047 722 3315 
Q 1072 3584 1716 3584 
Q 2034 3584 2315 3537 
Q 2597 3491 2834 3397 
z
" transform="scale(0.015625)"/>
       <path id="DejaVuSans-69" d="M 603 3500 
L 1178 3500 
L 1178 0 
L 603 0 
L 603 3500 
z
M 603 4863 
L 1178 4863 
L 1178 4134 
L 603 4134 
L 603 4863 
z
" transform="scale(0.015625)"/>
       <path id="DejaVuSans-74" d="M 1172 4494 
L 1172 3500 
L 2356 3500 
L 2356 3053 
L 1172 3053 
L 1172 1153 
Q 1172 725 1289 603 
Q 1406 481 1766 481 
L 2356 481 
L 2356 0 
L 1766 0 
Q 1100 0 847 248 
Q 594 497 594 1153 
L 594 3053 
L 172 3053 
L 172 3500 
L 594 3500 
L 594 4494 
L 1172 4494 
z
" transform="scale(0.015625)"/>
       <path id="DejaVuSans-6e" d="M 3513 2113 
L 3513 0 
L 2938 0 
L 2938 2094 
Q 2938 2591 2744 2837 
Q 2550 3084 2163 3084 
Q 1697 3084 1428 2787 
Q 1159 2491 1159 1978 
L 1159 0 
L 581 0 
L 581 3500 
L 1159 3500 
L 1159 2956 
Q 1366 3272 1645 3428 
Q 1925 3584 2291 3584 
Q 2894 3584 3203 3211 
Q 3513 2838 3513 2113 
z
" transform="scale(0.015625)"/>
       <path id="DejaVuSans-20" transform="scale(0.015625)"/>
       <path id="DejaVuSans-52" d="M 2841 2188 
Q 3044 2119 3236 1894 
Q 3428 1669 3622 1275 
L 4263 0 
L 3584 0 
L 2988 1197 
Q 2756 1666 2539 1819 
Q 2322 1972 1947 1972 
L 1259 1972 
L 1259 0 
L 628 0 
L 628 4666 
L 2053 4666 
Q 2853 4666 3247 4331 
Q 3641 3997 3641 3322 
Q 3641 2881 3436 2590 
Q 3231 2300 2841 2188 
z
M 1259 4147 
L 1259 2491 
L 2053 2491 
Q 2509 2491 2742 2702 
Q 2975 2913 2975 3322 
Q 2975 3731 2742 3939 
Q 2509 4147 2053 4147 
L 1259 4147 
z
" transform="scale(0.015625)"/>
       <path id="DejaVuSans-65" d="M 3597 1894 
L 3597 1613 
L 953 1613 
Q 991 1019 1311 708 
Q 1631 397 2203 397 
Q 2534 397 2845 478 
Q 3156 559 3463 722 
L 3463 178 
Q 3153 47 2828 -22 
Q 2503 -91 2169 -91 
Q 1331 -91 842 396 
Q 353 884 353 1716 
Q 353 2575 817 3079 
Q 1281 3584 2069 3584 
Q 2775 3584 3186 3129 
Q 3597 2675 3597 1894 
z
M 3022 2063 
Q 3016 2534 2758 2815 
Q 2500 3097 2075 3097 
Q 1594 3097 1305 2825 
Q 1016 2553 972 2059 
L 3022 2063 
z
" transform="scale(0.015625)"/>
       <path id="DejaVuSans-61" d="M 2194 1759 
Q 1497 1759 1228 1600 
Q 959 1441 959 1056 
Q 959 750 1161 570 
Q 1363 391 1709 391 
Q 2188 391 2477 730 
Q 2766 1069 2766 1631 
L 2766 1759 
L 2194 1759 
z
M 3341 1997 
L 3341 0 
L 2766 0 
L 2766 531 
Q 2569 213 2275 61 
Q 1981 -91 1556 -91 
Q 1019 -91 701 211 
Q 384 513 384 1019 
Q 384 1609 779 1909 
Q 1175 2209 1959 2209 
L 2766 2209 
L 2766 2266 
Q 2766 2663 2505 2880 
Q 2244 3097 1772 3097 
Q 1472 3097 1187 3025 
Q 903 2953 641 2809 
L 641 3341 
Q 956 3463 1253 3523 
Q 1550 3584 1831 3584 
Q 2591 3584 2966 3190 
Q 3341 2797 3341 1997 
z
" transform="scale(0.015625)"/>
       <path id="DejaVuSans-64" d="M 2906 2969 
L 2906 4863 
L 3481 4863 
L 3481 0 
L 2906 0 
L 2906 525 
Q 2725 213 2448 61 
Q 2172 -91 1784 -91 
Q 1150 -91 751 415 
Q 353 922 353 1747 
Q 353 2572 751 3078 
Q 1150 3584 1784 3584 
Q 2172 3584 2448 3432 
Q 2725 3281 2906 2969 
z
M 947 1747 
Q 947 1113 1208 752 
Q 1469 391 1925 391 
Q 2381 391 2643 752 
Q 2906 1113 2906 1747 
Q 2906 2381 2643 2742 
Q 2381 3103 1925 3103 
Q 1469 3103 1208 2742 
Q 947 2381 947 1747 
z
" transform="scale(0.015625)"/>
       <path id="DejaVuSans-28" d="M 1984 4856 
Q 1566 4138 1362 3434 
Q 1159 2731 1159 2009 
Q 1159 1288 1364 580 
Q 1569 -128 1984 -844 
L 1484 -844 
Q 1016 -109 783 600 
Q 550 1309 550 2009 
Q 550 2706 781 3412 
Q 1013 4119 1484 4856 
L 1984 4856 
z
" transform="scale(0.015625)"/>
       <path id="DejaVuSans-62" d="M 3116 1747 
Q 3116 2381 2855 2742 
Q 2594 3103 2138 3103 
Q 1681 3103 1420 2742 
Q 1159 2381 1159 1747 
Q 1159 1113 1420 752 
Q 1681 391 2138 391 
Q 2594 391 2855 752 
Q 3116 1113 3116 1747 
z
M 1159 2969 
Q 1341 3281 1617 3432 
Q 1894 3584 2278 3584 
Q 2916 3584 3314 3078 
Q 3713 2572 3713 1747 
Q 3713 922 3314 415 
Q 2916 -91 2278 -91 
Q 1894 -91 1617 61 
Q 1341 213 1159 525 
L 1159 0 
L 581 0 
L 581 4863 
L 1159 4863 
L 1159 2969 
z
" transform="scale(0.015625)"/>
       <path id="DejaVuSans-70" d="M 1159 525 
L 1159 -1331 
L 581 -1331 
L 581 3500 
L 1159 3500 
L 1159 2969 
Q 1341 3281 1617 3432 
Q 1894 3584 2278 3584 
Q 2916 3584 3314 3078 
Q 3713 2572 3713 1747 
Q 3713 922 3314 415 
Q 2916 -91 2278 -91 
Q 1894 -91 1617 61 
Q 1341 213 1159 525 
z
M 3116 1747 
Q 3116 2381 2855 2742 
Q 2594 3103 2138 3103 
Q 1681 3103 1420 2742 
Q 1159 2381 1159 1747 
Q 1159 1113 1420 752 
Q 1681 391 2138 391 
Q 2594 391 2855 752 
Q 3116 1113 3116 1747 
z
" transform="scale(0.015625)"/>
       <path id="DejaVuSans-29" d="M 513 4856 
L 1013 4856 
Q 1481 4119 1714 3412 
Q 1947 2706 1947 2009 
Q 1947 1309 1714 600 
Q 1481 -109 1013 -844 
L 513 -844 
Q 928 -128 1133 580 
Q 1338 1288 1338 2009 
Q 1338 2731 1133 3434 
Q 928 4138 513 4856 
z
" transform="scale(0.015625)"/>
      </defs>
      <use xlink:href="#DejaVuSans-50"/>
      <use xlink:href="#DejaVuSans-6f" x="56.677734"/>
      <use xlink:href="#DejaVuSans-73" x="117.859375"/>
      <use xlink:href="#DejaVuSans-69" x="169.958984"/>
      <use xlink:href="#DejaVuSans-74" x="197.742188"/>
      <use xlink:href="#DejaVuSans-69" x="236.951172"/>
      <use xlink:href="#DejaVuSans-6f" x="264.734375"/>
      <use xlink:href="#DejaVuSans-6e" x="325.916016"/>
      <use xlink:href="#DejaVuSans-20" x="389.294922"/>
      <use xlink:href="#DejaVuSans-69" x="421.082031"/>
      <use xlink:href="#DejaVuSans-6e" x="448.865234"/>
      <use xlink:href="#DejaVuSans-20" x="512.244141"/>
      <use xlink:href="#DejaVuSans-52" x="544.03125"/>
      <use xlink:href="#DejaVuSans-65" x="609.013672"/>
      <use xlink:href="#DejaVuSans-61" x="670.537109"/>
      <use xlink:href="#DejaVuSans-64" x="731.816406"/>
      <use xlink:href="#DejaVuSans-20" x="795.292969"/>
      <use xlink:href="#DejaVuSans-28" x="827.080078"/>
      <use xlink:href="#DejaVuSans-62" x="866.09375"/>
      <use xlink:href="#DejaVuSans-70" x="929.570312"/>
      <use xlink:href="#DejaVuSans-29" x="993.046875"/>
     </g>
    </g>
   </g>
   <g id="matplotlib.axis_2">
    <g id="ytick_1">
     <g id="line2d_1">
      <path d="M 32.968125 353.2239 
L 993.158125 353.2239 
" clip-path="url(#p20c035c631)" style="fill: none; stroke: #dedede; stroke-linecap: square"/>
     </g>
     <g id="text_8">
      <!-- 0 -->
      <g transform="translate(20.878125 356.263275)scale(0.08 -0.08)">
       <use xlink:href="#DejaVuSans-30"/>
      </g>
     </g>
    </g>
    <g id="ytick_2">
     <g id="line2d_2">
      <path d="M 32.968125 289.6303 
L 993.158125 289.6303 
" clip-path="url(#p20c035c631)" style="fill: none; stroke: #dedede; stroke-linecap: square"/>
     </g>
     <g id="text_9">
      <!-- 1 -->
      <g transform="translate(20.878125 292.669675)scale(0.08 -0.08)">
       <use xlink:href="#DejaVuSans-31"/>
      </g>
     </g>
    </g>
    <g id="ytick_3">
     <g id="line2d_3">
      <path d="M 32.968125 226.0367 
L 993.158125 226.0367 
" clip-path="url(#p20c035c631)" style="fill: none; stroke: #dedede; stroke-linecap: square"/>
     </g>
     <g id="text_10">
      <!-- 2 -->
      <g transform="translate(20.878125 229.076075)scale(0.08 -0.08)">
       <use xlink:href="#DejaVuSans-32"/>
      </g>
     </g>
    </g>
    <g id="ytick_4">
     <g id="line2d_4">
      <path d="M 32.968125 162.4431 
L 993.158125 162.4431 
" clip-path="url(#p20c035c631)" style="fill: none; stroke: #dedede; stroke-linecap: square"/>
     </g>
     <g id="text_11">
      <!-- 3 -->
      <g transform="translate(20.878125 165.482475)scale(0.08 -0.08)">
       <defs>
        <path id="DejaVuSans-33" d="M 2597 2516 
Q 3050 2419 3304 2112 
Q 3559 1806 3559 1356 
Q 3559 666 3084 287 
Q 2609 -91 1734 -91 
Q 1441 -91 1130 -33 
Q 819 25 488 141 
L 488 750 
Q 750 597 1062 519 
Q 1375 441 1716 441 
Q 2309 441 2620 675 
Q 2931 909 2931 1356 
Q 2931 1769 2642 2001 
Q 2353 2234 1838 2234 
L 1294 2234 
L 1294 2753 
L 1863 2753 
Q 2328 2753 2575 2939 
Q 2822 3125 2822 3475 
Q 2822 3834 2567 4026 
Q 2313 4219 1838 4219 
Q 1578 4219 1281 4162 
Q 984 4106 628 3988 
L 628 4550 
Q 988 4650 1302 4700 
Q 1616 4750 1894 4750 
Q 2613 4750 3031 4423 
Q 3450 4097 3450 3541 
Q 3450 3153 3228 2886 
Q 3006 2619 2597 2516 
z
" transform="scale(0.015625)"/>
       </defs>
       <use xlink:href="#DejaVuSans-33"/>
      </g>
     </g>
    </g>
    <g id="ytick_5">
     <g id="line2d_5">
      <path d="M 32.968125 98.8495 
L 993.158125 98.8495 
" clip-path="url(#p20c035c631)" style="fill: none; stroke: #dedede; stroke-linecap: square"/>
     </g>
     <g id="text_12">
      <!-- 4 -->
      <g transform="translate(20.878125 101.888875)scale(0.08 -0.08)">
       <use xlink:href="#DejaVuSans-34"/>
      </g>
     </g>
    </g>
    <g id="ytick_6">
     <g id="line2d_6">
      <path d="M 32.968125 35.2559 
L 993.158125 35.2559 
" clip-path="url(#p20c035c631)" style="fill: none; stroke: #dedede; stroke-linecap: square"/>
     </g>
     <g id="text_13">
      <!-- 5 -->
      <g transform="translate(20.878125 38.295275)scale(0.08 -0.08)">
       <defs>
        <path id="DejaVuSans-35" d="M 691 4666 
L 3169 4666 
L 3169 4134 
L 1269 4134 
L 1269 2991 
Q 1406 3038 1543 3061 
Q 1681 3084 1819 3084 
Q 2600 3084 3056 2656 
Q 3513 2228 3513 1497 
Q 3513 744 3044 326 
Q 2575 -91 1722 -91 
Q 1428 -91 1123 -41 
Q 819 9 494 109 
L 494 744 
Q 775 591 1075 516 
Q 1375 441 1709 441 
Q 2250 441 2565 725 
Q 2881 1009 2881 1497 
Q 2881 1984 2565 2268 
Q 2250 2553 1709 2553 
Q 1456 2553 1204 2497 
Q 953 2441 691 2322 
L 691 4666 
z
" transform="scale(0.015625)"/>
       </defs>
       <use xlink:href="#DejaVuSans-35"/>
      </g>
     </g>
    </g>
    <g id="text_14">
     <!-- Percentage N-Count -->
     <g transform="translate(14.798438 244.344588)rotate(-90)scale(0.1 -0.1)">
      <defs>
       <path id="DejaVuSans-72" d="M 2631 2963 
Q 2534 3019 2420 3045 
Q 2306 3072 2169 3072 
Q 1681 3072 1420 2755 
Q 1159 2438 1159 1844 
L 1159 0 
L 581 0 
L 581 3500 
L 1159 3500 
L 1159 2956 
Q 1341 3275 1631 3429 
Q 1922 3584 2338 3584 
Q 2397 3584 2469 3576 
Q 2541 3569 2628 3553 
L 2631 2963 
z
" transform="scale(0.015625)"/>
       <path id="DejaVuSans-63" d="M 3122 3366 
L 3122 2828 
Q 2878 2963 2633 3030 
Q 2388 3097 2138 3097 
Q 1578 3097 1268 2742 
Q 959 2388 959 1747 
Q 959 1106 1268 751 
Q 1578 397 2138 397 
Q 2388 397 2633 464 
Q 2878 531 3122 666 
L 3122 134 
Q 2881 22 2623 -34 
Q 2366 -91 2075 -91 
Q 1284 -91 818 406 
Q 353 903 353 1747 
Q 353 2603 823 3093 
Q 1294 3584 2113 3584 
Q 2378 3584 2631 3529 
Q 2884 3475 3122 3366 
z
" transform="scale(0.015625)"/>
       <path id="DejaVuSans-67" d="M 2906 1791 
Q 2906 2416 2648 2759 
Q 2391 3103 1925 3103 
Q 1463 3103 1205 2759 
Q 947 2416 947 1791 
Q 947 1169 1205 825 
Q 1463 481 1925 481 
Q 2391 481 2648 825 
Q 2906 1169 2906 1791 
z
M 3481 434 
Q 3481 -459 3084 -895 
Q 2688 -1331 1869 -1331 
Q 1566 -1331 1297 -1286 
Q 1028 -1241 775 -1147 
L 775 -588 
Q 1028 -725 1275 -790 
Q 1522 -856 1778 -856 
Q 2344 -856 2625 -561 
Q 2906 -266 2906 331 
L 2906 616 
Q 2728 306 2450 153 
Q 2172 0 1784 0 
Q 1141 0 747 490 
Q 353 981 353 1791 
Q 353 2603 747 3093 
Q 1141 3584 1784 3584 
Q 2172 3584 2450 3431 
Q 2728 3278 2906 2969 
L 2906 3500 
L 3481 3500 
L 3481 434 
z
" transform="scale(0.015625)"/>
       <path id="DejaVuSans-4e" d="M 628 4666 
L 1478 4666 
L 3547 763 
L 3547 4666 
L 4159 4666 
L 4159 0 
L 3309 0 
L 1241 3903 
L 1241 0 
L 628 0 
L 628 4666 
z
" transform="scale(0.015625)"/>
       <path id="DejaVuSans-2d" d="M 313 2009 
L 1997 2009 
L 1997 1497 
L 313 1497 
L 313 2009 
z
" transform="scale(0.015625)"/>
       <path id="DejaVuSans-43" d="M 4122 4306 
L 4122 3641 
Q 3803 3938 3442 4084 
Q 3081 4231 2675 4231 
Q 1875 4231 1450 3742 
Q 1025 3253 1025 2328 
Q 1025 1406 1450 917 
Q 1875 428 2675 428 
Q 3081 428 3442 575 
Q 3803 722 4122 1019 
L 4122 359 
Q 3791 134 3420 21 
Q 3050 -91 2638 -91 
Q 1578 -91 968 557 
Q 359 1206 359 2328 
Q 359 3453 968 4101 
Q 1578 4750 2638 4750 
Q 3056 4750 3426 4639 
Q 3797 4528 4122 4306 
z
" transform="scale(0.015625)"/>
       <path id="DejaVuSans-75" d="M 544 1381 
L 544 3500 
L 1119 3500 
L 1119 1403 
Q 1119 906 1312 657 
Q 1506 409 1894 409 
Q 2359 409 2629 706 
Q 2900 1003 2900 1516 
L 2900 3500 
L 3475 3500 
L 3475 0 
L 2900 0 
L 2900 538 
Q 2691 219 2414 64 
Q 2138 -91 1772 -91 
Q 1169 -91 856 284 
Q 544 659 544 1381 
z
M 1991 3584 
L 1991 3584 
z
" transform="scale(0.015625)"/>
      </defs>
      <use xlink:href="#DejaVuSans-50"/>
      <use xlink:href="#DejaVuSans-65" x="56.677734"/>
      <use xlink:href="#DejaVuSans-72" x="118.201172"/>
      <use xlink:href="#DejaVuSans-63" x="157.064453"/>
      <use xlink:href="#DejaVuSans-65" x="212.044922"/>
      <use xlink:href="#DejaVuSans-6e" x="273.568359"/>
      <use xlink:href="#DejaVuSans-74" x="336.947266"/>
      <use xlink:href="#DejaVuSans-61" x="376.15625"/>
      <use xlink:href="#DejaVuSans-67" x="437.435547"/>
      <use xlink:href="#DejaVuSans-65" x="500.912109"/>
      <use xlink:href="#DejaVuSans-20" x="562.435547"/>
      <use xlink:href="#DejaVuSans-4e" x="594.222656"/>
      <use xlink:href="#DejaVuSans-2d" x="669.027344"/>
      <use xlink:href="#DejaVuSans-43" x="705.111328"/>
      <use xlink:href="#DejaVuSans-6f" x="774.935547"/>
      <use xlink:href="#DejaVuSans-75" x="836.117188"/>
      <use xlink:href="#DejaVuSans-6e" x="899.496094"/>
      <use xlink:href="#DejaVuSans-74" x="962.875"/>
     </g>
    </g>
   </g>
   <g id="line2d_7">
    <path d="M 42.117148 353.216256 
L 51.266172 353.187464 
L 60.415195 349.770381 
L 69.564218 353.2239 
L 78.713242 353.223136 
L 87.862265 353.223645 
L 97.011288 353.2239 
L 106.160312 353.2239 
L 115.309335 353.2239 
L 124.458358 353.221862 
L 142.756405 353.2239 
L 161.054452 353.2239 
L 179.352499 353.2239 
L 197.650545 353.199694 
L 215.948592 353.2239 
L 234.246639 353.2239 
L 252.544685 353.2239 
L 270.842732 353.2239 
L 289.140779 353.2239 
L 307.438825 353.2239 
L 325.736872 353.2239 
L 344.034919 353.148735 
L 362.332965 353.188865 
L 380.631012 353.223645 
L 398.929059 353.2239 
L 417.227105 353.135231 
L 435.525152 353.222116 
L 453.823199 353.08631 
L 472.121246 353.216001 
L 490.419292 353.223518 
L 508.717339 353.2239 
L 527.015386 353.2239 
L 545.313432 353.2239 
L 563.611479 353.213963 
L 581.909526 353.212307 
L 600.207572 353.150518 
L 618.505619 353.219951 
L 636.803666 353.189757 
L 655.101712 353.2239 
L 673.399759 353.222753 
L 691.697806 353.2239 
L 709.995852 353.2239 
L 728.293899 353.2239 
L 746.591946 353.2239 
L 764.889993 353.2239 
L 783.188039 353.2239 
L 801.486086 353.2239 
L 819.784133 353.2239 
L 838.082179 353.141601 
L 856.380226 353.21116 
L 874.678273 353.2239 
L 892.976319 353.2239 
L 911.274366 353.128478 
L 929.572413 353.2239 
L 947.870459 353.2239 
" clip-path="url(#p20c035c631)" style="fill: none; stroke: #5cb85c; stroke-linecap: square"/>
   </g>
   <g id="line2d_8">
    <path d="M 42.117148 353.216393 
L 51.266172 353.185959 
L 60.415195 349.711625 
L 69.564218 353.2239 
L 78.713242 353.223291 
L 87.862265 353.2239 
L 97.011288 353.2239 
L 106.160312 353.2239 
L 115.309335 353.2239 
L 124.458358 353.220857 
L 142.756405 353.2239 
L 161.054452 353.2239 
L 179.352499 353.2239 
L 197.650545 353.199654 
L 215.948592 353.2239 
L 234.246639 353.2239 
L 252.544685 353.2239 
L 270.842732 353.2239 
L 289.140779 353.2239 
L 307.438825 353.2239 
L 325.736872 353.2239 
L 344.034919 353.148627 
L 362.332965 353.188089 
L 380.631012 353.223697 
L 398.929059 353.2239 
L 417.227105 353.13341 
L 435.525152 353.222886 
L 453.823199 353.077817 
L 472.121246 353.217407 
L 490.419292 353.223799 
L 508.717339 353.2239 
L 527.015386 353.2239 
L 545.313432 353.2239 
L 563.611479 353.212234 
L 581.909526 353.212842 
L 600.207572 353.148322 
L 618.505619 353.220248 
L 636.803666 353.185756 
L 655.101712 353.2239 
L 673.399759 353.222784 
L 691.697806 353.2239 
L 709.995852 353.223596 
L 728.293899 353.2239 
L 746.591946 353.2239 
L 764.889993 353.2239 
L 783.188039 353.2239 
L 801.486086 353.2239 
L 819.784133 353.2239 
L 838.082179 353.141526 
L 856.380226 353.209089 
L 874.678273 353.2239 
L 892.976319 353.2239 
L 911.274366 353.126207 
L 929.572413 353.2239 
L 947.870459 353.2239 
" clip-path="url(#p20c035c631)" style="fill: none; stroke: #5cb85c; stroke-linecap: square"/>
   </g>
   <g id="line2d_9">
    <path d="M 42.117148 353.215516 
L 51.266172 353.187728 
L 60.415195 349.766939 
L 69.564218 353.2239 
L 78.713242 353.222942 
L 87.862265 353.22366 
L 97.011288 353.2239 
L 106.160312 353.2239 
L 115.309335 353.2239 
L 124.458358 353.222822 
L 142.756405 353.2239 
L 161.054452 353.2239 
L 179.352499 353.2239 
L 197.650545 353.200184 
L 215.948592 353.2239 
L 234.246639 353.2239 
L 252.544685 353.2239 
L 270.842732 353.2239 
L 289.140779 353.2239 
L 307.438825 353.2239 
L 325.736872 353.2239 
L 344.034919 353.150597 
L 362.332965 353.189764 
L 380.631012 353.2239 
L 398.929059 353.22378 
L 417.227105 353.131912 
L 435.525152 353.222582 
L 453.823199 353.084601 
L 472.121246 353.218151 
L 490.419292 353.22366 
L 508.717339 353.2239 
L 527.015386 353.2239 
L 545.313432 353.2239 
L 563.611479 353.215156 
L 581.909526 353.214318 
L 600.207572 353.14928 
L 618.505619 353.219708 
L 636.803666 353.189524 
L 655.101712 353.2239 
L 673.399759 353.222822 
L 691.697806 353.2239 
L 709.995852 353.22378 
L 728.293899 353.2239 
L 746.591946 353.2239 
L 764.889993 353.2239 
L 783.188039 353.2239 
L 801.486086 353.2239 
L 819.784133 353.2239 
L 838.082179 353.140776 
L 856.380226 353.210246 
L 874.678273 353.2239 
L 892.976319 353.2239 
L 911.274366 353.12796 
L 929.572413 353.2239 
L 947.870459 353.2239 
" clip-path="url(#p20c035c631)" style="fill: none; stroke: #5cb85c; stroke-linecap: square"/>
   </g>
   <g id="line2d_10">
    <path d="M 42.117148 353.216399 
L 51.266172 353.187609 
L 60.415195 349.788826 
L 69.564218 353.2239 
L 78.713242 353.221467 
L 87.862265 353.223697 
L 97.011288 353.2239 
L 106.160312 353.2239 
L 115.309335 353.2239 
L 124.458358 353.221974 
L 142.756405 353.2239 
L 161.054452 353.2239 
L 179.352499 353.2239 
L 197.650545 353.201497 
L 215.948592 353.2239 
L 234.246639 353.2239 
L 252.544685 353.2239 
L 270.842732 353.2239 
L 289.140779 353.2239 
L 307.438825 353.2239 
L 325.736872 353.2239 
L 344.034919 353.145438 
L 362.332965 353.187001 
L 380.631012 353.223292 
L 398.929059 353.223799 
L 417.227105 353.126381 
L 435.525152 353.222684 
L 453.823199 353.078533 
L 472.121246 353.219237 
L 490.419292 353.223495 
L 508.717339 353.2239 
L 527.015386 353.2239 
L 545.313432 353.2239 
L 563.611479 353.21204 
L 581.909526 353.212546 
L 600.207572 353.147871 
L 618.505619 353.217716 
L 636.803666 353.185075 
L 655.101712 353.2239 
L 673.399759 353.222582 
L 691.697806 353.2239 
L 709.995852 353.223697 
L 728.293899 353.2239 
L 746.591946 353.2239 
L 764.889993 353.2239 
L 783.188039 353.2239 
L 801.486086 353.2239 
L 819.784133 353.2239 
L 838.082179 353.136619 
L 856.380226 353.211229 
L 874.678273 353.2239 
L 892.976319 353.2239 
L 911.274366 353.123339 
L 929.572413 353.2239 
L 947.870459 353.2239 
" clip-path="url(#p20c035c631)" style="fill: none; stroke: #5cb85c; stroke-linecap: square"/>
   </g>
   <g id="line2d_11">
    <path d="M 42.117148 353.217463 
L 51.266172 353.187144 
L 60.415195 349.752475 
L 69.564218 353.2239 
L 78.713242 353.223069 
L 87.862265 353.223692 
L 97.011288 353.2239 
L 106.160312 353.2239 
L 115.309335 353.2239 
L 124.458358 353.221616 
L 142.756405 353.2239 
L 161.054452 353.2239 
L 179.352499 353.2239 
L 197.650545 353.201265 
L 215.948592 353.2239 
L 234.246639 353.2239 
L 252.544685 353.2239 
L 270.842732 353.2239 
L 289.140779 353.2239 
L 307.438825 353.2239 
L 325.736872 353.2239 
L 344.034919 353.147897 
L 362.332965 353.186625 
L 380.631012 353.223692 
L 398.929059 353.2239 
L 417.227105 353.127962 
L 435.525152 353.22255 
L 453.823199 353.075009 
L 472.121246 353.217151 
L 490.419292 353.223796 
L 508.717339 353.2239 
L 527.015386 353.2239 
L 545.313432 353.2239 
L 563.611479 353.211544 
L 581.909526 353.212063 
L 600.207572 353.14852 
L 618.505619 353.219228 
L 636.803666 353.187041 
L 655.101712 353.2239 
L 673.399759 353.223069 
L 691.697806 353.2239 
L 709.995852 353.2239 
L 728.293899 353.2239 
L 746.591946 353.2239 
L 764.889993 353.2239 
L 783.188039 353.2239 
L 801.486086 353.2239 
L 819.784133 353.2239 
L 838.082179 353.13523 
L 856.380226 353.209052 
L 874.678273 353.2239 
L 892.976319 353.2239 
L 911.274366 353.128377 
L 929.572413 353.2239 
L 947.870459 353.2239 
" clip-path="url(#p20c035c631)" style="fill: none; stroke: #5cb85c; stroke-linecap: square"/>
   </g>
   <g id="line2d_12">
    <path d="M 42.117148 353.217091 
L 51.266172 353.184923 
L 60.415195 349.799997 
L 69.564218 353.2239 
L 78.713242 353.223196 
L 87.862265 353.2239 
L 97.011288 353.2239 
L 106.160312 353.2239 
L 115.309335 353.2239 
L 124.458358 353.221552 
L 142.756405 353.2239 
L 161.054452 353.2239 
L 179.352499 353.2239 
L 197.650545 353.200067 
L 215.948592 353.2239 
L 234.246639 353.2239 
L 252.544685 353.2239 
L 270.842732 353.2239 
L 289.140779 353.2239 
L 307.438825 353.2239 
L 325.736872 353.2239 
L 344.034919 353.151111 
L 362.332965 353.191028 
L 380.631012 353.22343 
L 398.929059 353.2239 
L 417.227105 353.138314 
L 435.525152 353.222609 
L 453.823199 353.079613 
L 472.121246 353.218147 
L 490.419292 353.22343 
L 508.717339 353.2239 
L 527.015386 353.2239 
L 545.313432 353.2239 
L 563.611479 353.21486 
L 581.909526 353.214743 
L 600.207572 353.154281 
L 618.505619 353.220026 
L 636.803666 353.190793 
L 655.101712 353.2239 
L 673.399759 353.222139 
L 691.697806 353.2239 
L 709.995852 353.223783 
L 728.293899 353.2239 
L 746.591946 353.2239 
L 764.889993 353.2239 
L 783.188039 353.2239 
L 801.486086 353.2239 
L 819.784133 353.2239 
L 838.082179 353.141954 
L 856.380226 353.209577 
L 874.678273 353.2239 
L 892.976319 353.2239 
L 911.274366 353.127044 
L 929.572413 353.2239 
L 947.870459 353.2239 
" clip-path="url(#p20c035c631)" style="fill: none; stroke: #5cb85c; stroke-linecap: square"/>
   </g>
   <g id="line2d_13">
    <path d="M 42.117148 353.216235 
L 51.266172 353.183303 
L 60.415195 349.78449 
L 69.564218 353.2239 
L 78.713242 353.222197 
L 87.862265 353.2239 
L 97.011288 353.2239 
L 106.160312 353.2239 
L 115.309335 353.2239 
L 124.458358 353.222197 
L 142.756405 353.2239 
L 161.054452 353.2239 
L 179.352499 353.223758 
L 197.650545 353.198349 
L 215.948592 353.2239 
L 234.246639 353.2239 
L 252.544685 353.2239 
L 270.842732 353.2239 
L 289.140779 353.2239 
L 307.438825 353.2239 
L 325.736872 353.2239 
L 344.034919 353.146112 
L 362.332965 353.187135 
L 380.631012 353.223474 
L 398.929059 353.2239 
L 417.227105 353.128511 
L 435.525152 353.223048 
L 453.823199 353.075706 
L 472.121246 353.217654 
L 490.419292 353.223758 
L 508.717339 353.2239 
L 527.015386 353.2239 
L 545.313432 353.2239 
L 563.611479 353.212402 
L 581.909526 353.212118 
L 600.207572 353.149803 
L 618.505619 353.218932 
L 636.803666 353.187845 
L 655.101712 353.2239 
L 673.399759 353.222764 
L 691.697806 353.2239 
L 709.995852 353.223758 
L 728.293899 353.2239 
L 746.591946 353.2239 
L 764.889993 353.2239 
L 783.188039 353.2239 
L 801.486086 353.2239 
L 819.784133 353.2239 
L 838.082179 353.139725 
L 856.380226 353.208995 
L 874.678273 353.2239 
L 892.976319 353.2239 
L 911.274366 353.122265 
L 929.572413 353.2239 
L 947.870459 353.2239 
" clip-path="url(#p20c035c631)" style="fill: none; stroke: #5cb85c; stroke-linecap: square"/>
   </g>
   <g id="line2d_14">
    <path d="M 42.117148 353.215777 
L 51.266172 353.193369 
L 60.415195 349.792408 
L 69.564218 353.22362 
L 78.713242 353.222219 
L 87.862265 353.22334 
L 97.011288 353.2239 
L 106.160312 353.2239 
L 115.309335 353.2239 
L 124.458358 353.222219 
L 142.756405 353.2239 
L 161.054452 353.2239 
L 179.352499 353.22376 
L 197.650545 353.198831 
L 215.948592 353.2239 
L 234.246639 353.2239 
L 252.544685 353.2239 
L 270.842732 353.2239 
L 289.140779 353.2239 
L 307.438825 353.2239 
L 325.736872 353.2239 
L 344.034919 353.148974 
L 362.332965 353.194069 
L 380.631012 353.22362 
L 398.929059 353.22376 
L 417.227105 353.137209 
L 435.525152 353.22348 
L 453.823199 353.085811 
L 472.121246 353.218858 
L 490.419292 353.2239 
L 508.717339 353.2239 
L 527.015386 353.2239 
L 545.313432 353.2239 
L 563.611479 353.214377 
L 581.909526 353.214377 
L 600.207572 353.154155 
L 618.505619 353.219699 
L 636.803666 353.192109 
L 655.101712 353.2239 
L 673.399759 353.22264 
L 691.697806 353.2239 
L 709.995852 353.2239 
L 728.293899 353.2239 
L 746.591946 353.2239 
L 764.889993 353.2239 
L 783.188039 353.2239 
L 801.486086 353.2239 
L 819.784133 353.2239 
L 838.082179 353.142671 
L 856.380226 353.211436 
L 874.678273 353.2239 
L 892.976319 353.2239 
L 911.274366 353.129367 
L 929.572413 353.2239 
L 947.870459 353.2239 
" clip-path="url(#p20c035c631)" style="fill: none; stroke: #5cb85c; stroke-linecap: square"/>
   </g>
   <g id="line2d_15">
    <path d="M 42.117148 353.214348 
L 51.266172 353.185433 
L 60.415195 349.790022 
L 69.564218 353.2239 
L 78.713242 353.222609 
L 87.862265 353.2239 
L 97.011288 353.2239 
L 106.160312 353.2239 
L 115.309335 353.2239 
L 124.458358 353.221706 
L 142.756405 353.2239 
L 161.054452 353.2239 
L 179.352499 353.2239 
L 197.650545 353.200536 
L 215.948592 353.2239 
L 234.246639 353.2239 
L 252.544685 353.2239 
L 270.842732 353.2239 
L 289.140779 353.2239 
L 307.438825 353.2239 
L 325.736872 353.2239 
L 344.034919 353.14787 
L 362.332965 353.190596 
L 380.631012 353.223642 
L 398.929059 353.2239 
L 417.227105 353.132767 
L 435.525152 353.22248 
L 453.823199 353.074163 
L 472.121246 353.217833 
L 490.419292 353.223771 
L 508.717339 353.2239 
L 527.015386 353.2239 
L 545.313432 353.2239 
L 563.611479 353.213315 
L 581.909526 353.212799 
L 600.207572 353.153162 
L 618.505619 353.219124 
L 636.803666 353.192016 
L 655.101712 353.2239 
L 673.399759 353.222738 
L 691.697806 353.2239 
L 709.995852 353.223642 
L 728.293899 353.2239 
L 746.591946 353.2239 
L 764.889993 353.2239 
L 783.188039 353.2239 
L 801.486086 353.2239 
L 819.784133 353.2239 
L 838.082179 353.138705 
L 856.380226 353.21125 
L 874.678273 353.2239 
L 892.976319 353.2239 
L 911.274366 353.123344 
L 929.572413 353.2239 
L 947.870459 353.2239 
" clip-path="url(#p20c035c631)" style="fill: none; stroke: #5cb85c; stroke-linecap: square"/>
   </g>
   <g id="line2d_16">
    <path d="M 42.117148 353.218032 
L 51.266172 353.190987 
L 60.415195 349.781326 
L 69.564218 353.2239 
L 78.713242 353.222624 
L 87.862265 353.22339 
L 97.011288 353.2239 
L 106.160312 353.2239 
L 115.309335 353.2239 
L 124.458358 353.221476 
L 142.756405 353.2239 
L 161.054452 353.2239 
L 179.352499 353.2239 
L 197.650545 353.200938 
L 215.948592 353.2239 
L 234.246639 353.2239 
L 252.544685 353.2239 
L 270.842732 353.2239 
L 289.140779 353.2239 
L 307.438825 353.2239 
L 325.736872 353.2239 
L 344.034919 353.140725 
L 362.332965 353.184609 
L 380.631012 353.2239 
L 398.929059 353.223645 
L 417.227105 353.124907 
L 435.525152 353.222624 
L 453.823199 353.065715 
L 472.121246 353.217777 
L 490.419292 353.2239 
L 508.717339 353.2239 
L 527.015386 353.2239 
L 545.313432 353.2239 
L 563.611479 353.212546 
L 581.909526 353.212546 
L 600.207572 353.144552 
L 618.505619 353.219818 
L 636.803666 353.187288 
L 655.101712 353.2239 
L 673.399759 353.222624 
L 691.697806 353.2239 
L 709.995852 353.223517 
L 728.293899 353.2239 
L 746.591946 353.2239 
L 764.889993 353.2239 
L 783.188039 353.2239 
L 801.486086 353.2239 
L 819.784133 353.2239 
L 838.082179 353.133581 
L 856.380226 353.210123 
L 874.678273 353.2239 
L 892.976319 353.2239 
L 911.274366 353.118656 
L 929.572413 353.2239 
L 947.870459 353.2239 
" clip-path="url(#p20c035c631)" style="fill: none; stroke: #5cb85c; stroke-linecap: square"/>
   </g>
   <g id="line2d_17">
    <path d="M 42.117148 353.215055 
L 51.266172 353.185658 
L 60.415195 349.803165 
L 69.564218 353.2239 
L 78.713242 353.222339 
L 87.862265 353.22364 
L 97.011288 353.2239 
L 106.160312 353.2239 
L 115.309335 353.2239 
L 124.458358 353.222599 
L 142.756405 353.2239 
L 161.054452 353.2239 
L 179.352499 353.2239 
L 197.650545 353.201397 
L 215.948592 353.2239 
L 234.246639 353.2239 
L 252.544685 353.2239 
L 270.842732 353.2239 
L 289.140779 353.2239 
L 307.438825 353.2239 
L 325.736872 353.2239 
L 344.034919 353.149757 
L 362.332965 353.18878 
L 380.631012 353.22351 
L 398.929059 353.22377 
L 417.227105 353.130766 
L 435.525152 353.222729 
L 453.823199 353.078735 
L 472.121246 353.218047 
L 490.419292 353.2239 
L 508.717339 353.2239 
L 527.015386 353.2239 
L 545.313432 353.2239 
L 563.611479 353.211673 
L 581.909526 353.212713 
L 600.207572 353.152228 
L 618.505619 353.218827 
L 636.803666 353.188129 
L 655.101712 353.2239 
L 673.399759 353.22325 
L 691.697806 353.2239 
L 709.995852 353.22377 
L 728.293899 353.2239 
L 746.591946 353.2239 
L 764.889993 353.2239 
L 783.188039 353.2239 
L 801.486086 353.2239 
L 819.784133 353.2239 
L 838.082179 353.1387 
L 856.380226 353.210242 
L 874.678273 353.2239 
L 892.976319 353.2239 
L 911.274366 353.124392 
L 929.572413 353.2239 
L 947.870459 353.2239 
" clip-path="url(#p20c035c631)" style="fill: none; stroke: #5cb85c; stroke-linecap: square"/>
   </g>
   <g id="line2d_18">
    <path d="M 42.117148 353.217206 
L 51.266172 353.1832 
L 60.415195 349.757426 
L 69.564218 353.2239 
L 78.713242 353.223364 
L 87.862265 353.223632 
L 97.011288 353.2239 
L 106.160312 353.2239 
L 115.309335 353.2239 
L 124.458358 353.22149 
L 142.756405 353.2239 
L 161.054452 353.2239 
L 179.352499 353.2239 
L 197.650545 353.198998 
L 215.948592 353.2239 
L 234.246639 353.2239 
L 252.544685 353.2239 
L 270.842732 353.2239 
L 289.140779 353.2239 
L 307.438825 353.2239 
L 325.736872 353.2239 
L 344.034919 353.151336 
L 362.332965 353.189091 
L 380.631012 353.223632 
L 398.929059 353.223766 
L 417.227105 353.135404 
L 435.525152 353.222963 
L 453.823199 353.083592 
L 472.121246 353.218812 
L 490.419292 353.223632 
L 508.717339 353.2239 
L 527.015386 353.2239 
L 545.313432 353.2239 
L 563.611479 353.211449 
L 581.909526 353.215867 
L 600.207572 353.154549 
L 618.505619 353.218946 
L 636.803666 353.186949 
L 655.101712 353.2239 
L 673.399759 353.223097 
L 691.697806 353.2239 
L 709.995852 353.223766 
L 728.293899 353.2239 
L 746.591946 353.2239 
L 764.889993 353.2239 
L 783.188039 353.2239 
L 801.486086 353.2239 
L 819.784133 353.2239 
L 838.082179 353.142232 
L 856.380226 353.210913 
L 874.678273 353.2239 
L 892.976319 353.2239 
L 911.274366 353.132994 
L 929.572413 353.2239 
L 947.870459 353.2239 
" clip-path="url(#p20c035c631)" style="fill: none; stroke: #5cb85c; stroke-linecap: square"/>
   </g>
   <g id="line2d_19">
    <path d="M 42.117148 353.217037 
L 51.266172 353.126608 
L 60.415195 351.447213 
L 69.564218 353.173034 
L 78.713242 353.183934 
L 87.862265 353.2239 
L 97.011288 353.223294 
L 106.160312 353.2239 
L 115.309335 353.2239 
L 124.458358 353.220872 
L 142.756405 353.2239 
L 161.054452 353.2239 
L 179.352499 353.223799 
L 197.650545 353.211789 
L 215.948592 353.2239 
L 234.246639 353.2239 
L 252.544685 353.2239 
L 270.842732 353.222487 
L 289.140779 353.2239 
L 307.438825 353.199577 
L 325.736872 353.222285 
L 344.034919 353.164253 
L 362.332965 353.204421 
L 380.631012 353.2239 
L 398.929059 353.2239 
L 417.227105 353.17697 
L 435.525152 353.223093 
L 453.823199 353.150124 
L 472.121246 353.220771 
L 490.419292 353.223496 
L 508.717339 353.220469 
L 527.015386 353.2239 
L 545.313432 353.2239 
L 563.611479 353.218349 
L 581.909526 353.216835 
L 600.207572 353.187163 
L 618.505619 353.222588 
L 636.803666 353.207954 
L 655.101712 353.215725 
L 673.399759 353.211284 
L 691.697806 350.009635 
L 709.995852 353.223698 
L 728.293899 353.223799 
L 746.591946 353.2239 
L 764.889993 353.222689 
L 783.188039 353.218955 
L 801.486086 353.201696 
L 819.784133 353.2239 
L 838.082179 353.180199 
L 856.380226 353.216532 
L 874.678273 353.2239 
L 892.976319 353.2239 
L 911.274366 353.174144 
L 929.572413 353.2239 
L 947.870459 353.223799 
" clip-path="url(#p20c035c631)" style="fill: none; stroke: #5cb85c; stroke-linecap: square"/>
   </g>
   <g id="line2d_20">
    <path d="M 42.117148 353.215115 
L 51.266172 353.188148 
L 60.415195 349.788005 
L 69.564218 353.2239 
L 78.713242 353.222879 
L 87.862265 353.223696 
L 97.011288 353.2239 
L 106.160312 353.2239 
L 115.309335 353.2239 
L 124.458358 353.221448 
L 142.756405 353.2239 
L 161.054452 353.2239 
L 179.352499 353.2239 
L 197.650545 353.200916 
L 215.948592 353.2239 
L 234.246639 353.2239 
L 252.544685 353.2239 
L 270.842732 353.2239 
L 289.140779 353.2239 
L 307.438825 353.2239 
L 325.736872 353.2239 
L 344.034919 353.151783 
L 362.332965 353.191723 
L 380.631012 353.223798 
L 398.929059 353.2239 
L 417.227105 353.135745 
L 435.525152 353.221551 
L 453.823199 353.081708 
L 472.121246 353.217362 
L 490.419292 353.223594 
L 508.717339 353.2239 
L 527.015386 353.2239 
L 545.313432 353.2239 
L 563.611479 353.214298 
L 581.909526 353.210518 
L 600.207572 353.149127 
L 618.505619 353.219201 
L 636.803666 353.191417 
L 655.101712 353.2239 
L 673.399759 353.223389 
L 691.697806 353.2239 
L 709.995852 353.223594 
L 728.293899 353.2239 
L 746.591946 353.2239 
L 764.889993 353.2239 
L 783.188039 353.2239 
L 801.486086 353.2239 
L 819.784133 353.2239 
L 838.082179 353.139933 
L 856.380226 353.210212 
L 874.678273 353.2239 
L 892.976319 353.2239 
L 911.274366 353.131455 
L 929.572413 353.2239 
L 947.870459 353.2239 
" clip-path="url(#p20c035c631)" style="fill: none; stroke: #5cb85c; stroke-linecap: square"/>
   </g>
   <g id="line2d_21">
    <path d="M 42.117148 353.213845 
L 51.266172 353.187031 
L 60.415195 349.758517 
L 69.564218 353.2239 
L 78.713242 353.223621 
L 87.862265 353.2239 
L 97.011288 353.2239 
L 106.160312 353.2239 
L 115.309335 353.2239 
L 124.458358 353.220967 
L 142.756405 353.2239 
L 161.054452 353.2239 
L 179.352499 353.22376 
L 197.650545 353.206583 
L 215.948592 353.2239 
L 234.246639 353.2239 
L 252.544685 353.2239 
L 270.842732 353.2239 
L 289.140779 353.2239 
L 307.438825 353.2239 
L 325.736872 353.2239 
L 344.034919 353.156168 
L 362.332965 353.192198 
L 380.631012 353.223621 
L 398.929059 353.2239 
L 417.227105 353.136197 
L 435.525152 353.223062 
L 453.823199 353.08648 
L 472.121246 353.21999 
L 490.419292 353.2239 
L 508.717339 353.2239 
L 527.015386 353.2239 
L 545.313432 353.2239 
L 563.611479 353.213007 
L 581.909526 353.213566 
L 600.207572 353.151699 
L 618.505619 353.218733 
L 636.803666 353.189964 
L 655.101712 353.2239 
L 673.399759 353.223202 
L 691.697806 353.2239 
L 709.995852 353.223481 
L 728.293899 353.2239 
L 746.591946 353.2239 
L 764.889993 353.2239 
L 783.188039 353.2239 
L 801.486086 353.2239 
L 819.784133 353.2239 
L 838.082179 353.14709 
L 856.380226 353.212728 
L 874.678273 353.2239 
L 892.976319 353.2239 
L 911.274366 353.134661 
L 929.572413 353.2239 
L 947.870459 353.2239 
" clip-path="url(#p20c035c631)" style="fill: none; stroke: #5cb85c; stroke-linecap: square"/>
   </g>
   <g id="line2d_22">
    <path d="M 42.117148 353.214137 
L 51.266172 353.131497 
L 60.415195 351.060709 
L 69.564218 353.177585 
L 78.713242 353.20937 
L 87.862265 353.2239 
L 97.011288 353.2239 
L 106.160312 353.2239 
L 115.309335 353.2239 
L 124.458358 353.221516 
L 142.756405 353.2239 
L 161.054452 353.2239 
L 179.352499 353.2239 
L 197.650545 353.21391 
L 215.948592 353.2239 
L 234.246639 353.2239 
L 252.544685 353.2239 
L 270.842732 353.222424 
L 289.140779 353.2239 
L 307.438825 353.216181 
L 325.736872 353.222992 
L 344.034919 353.181558 
L 362.332965 353.201991 
L 380.631012 353.2239 
L 398.929059 353.2239 
L 417.227105 353.170774 
L 435.525152 353.223673 
L 453.823199 353.153746 
L 472.121246 353.221857 
L 490.419292 353.223786 
L 508.717339 353.222878 
L 527.015386 353.2239 
L 545.313432 353.2239 
L 563.611479 353.216181 
L 581.909526 353.22163 
L 600.207572 353.18292 
L 618.505619 353.220949 
L 636.803666 353.199153 
L 655.101712 353.221743 
L 673.399759 353.219927 
L 691.697806 350.834128 
L 709.995852 353.223786 
L 728.293899 353.2239 
L 746.591946 353.2239 
L 764.889993 353.223446 
L 783.188039 353.222197 
L 801.486086 353.216975 
L 819.784133 353.2239 
L 838.082179 353.176677 
L 856.380226 353.217089 
L 874.678273 353.2239 
L 892.976319 353.2239 
L 911.274366 353.171114 
L 929.572413 353.2239 
L 947.870459 353.223786 
" clip-path="url(#p20c035c631)" style="fill: none; stroke: #5cb85c; stroke-linecap: square"/>
   </g>
   <g id="line2d_23">
    <path d="M 42.117148 353.214794 
L 51.266172 353.187744 
L 60.415195 349.754823 
L 69.564218 353.2239 
L 78.713242 353.222829 
L 87.862265 353.223364 
L 97.011288 353.2239 
L 106.160312 353.2239 
L 115.309335 353.2239 
L 124.458358 353.221088 
L 142.756405 353.2239 
L 161.054452 353.2239 
L 179.352499 353.223766 
L 197.650545 353.200466 
L 215.948592 353.2239 
L 234.246639 353.2239 
L 252.544685 353.2239 
L 270.842732 353.2239 
L 289.140779 353.2239 
L 307.438825 353.2239 
L 325.736872 353.2239 
L 344.034919 353.151321 
L 362.332965 353.192163 
L 380.631012 353.223766 
L 398.929059 353.2239 
L 417.227105 353.135787 
L 435.525152 353.223364 
L 453.823199 353.079947 
L 472.121246 353.220954 
L 490.419292 353.223498 
L 508.717339 353.2239 
L 527.015386 353.2239 
L 545.313432 353.2239 
L 563.611479 353.213723 
L 581.909526 353.215731 
L 600.207572 353.155338 
L 618.505619 353.219615 
L 636.803666 353.189217 
L 655.101712 353.2239 
L 673.399759 353.223097 
L 691.697806 353.2239 
L 709.995852 353.2239 
L 728.293899 353.2239 
L 746.591946 353.2239 
L 764.889993 353.2239 
L 783.188039 353.2239 
L 801.486086 353.2239 
L 819.784133 353.2239 
L 838.082179 353.144357 
L 856.380226 353.211982 
L 874.678273 353.2239 
L 892.976319 353.2239 
L 911.274366 353.13177 
L 929.572413 353.2239 
L 947.870459 353.2239 
" clip-path="url(#p20c035c631)" style="fill: none; stroke: #5cb85c; stroke-linecap: square"/>
   </g>
   <g id="line2d_24">
    <path d="M 42.117148 353.215768 
L 51.266172 353.188169 
L 60.415195 349.694951 
L 69.564218 353.2239 
L 78.713242 353.223161 
L 87.862265 353.2239 
L 97.011288 353.2239 
L 106.160312 353.2239 
L 115.309335 353.2239 
L 124.458358 353.221559 
L 142.756405 353.2239 
L 161.054452 353.2239 
L 179.352499 353.223777 
L 197.650545 353.198519 
L 215.948592 353.2239 
L 234.246639 353.2239 
L 252.544685 353.2239 
L 270.842732 353.2239 
L 289.140779 353.2239 
L 307.438825 353.2239 
L 325.736872 353.2239 
L 344.034919 353.155642 
L 362.332965 353.189032 
L 380.631012 353.223654 
L 398.929059 353.2239 
L 417.227105 353.133218 
L 435.525152 353.223407 
L 453.823199 353.090095 
L 472.121246 353.219095 
L 490.419292 353.223777 
L 508.717339 353.2239 
L 527.015386 353.2239 
L 545.313432 353.2239 
L 563.611479 353.211456 
L 581.909526 353.215645 
L 600.207572 353.152932 
L 618.505619 353.218848 
L 636.803666 353.189155 
L 655.101712 353.2239 
L 673.399759 353.222421 
L 691.697806 353.2239 
L 709.995852 353.223777 
L 728.293899 353.2239 
L 746.591946 353.2239 
L 764.889993 353.2239 
L 783.188039 353.2239 
L 801.486086 353.2239 
L 819.784133 353.2239 
L 838.082179 353.139995 
L 856.380226 353.211826 
L 874.678273 353.2239 
L 892.976319 353.2239 
L 911.274366 353.127304 
L 929.572413 353.2239 
L 947.870459 353.2239 
" clip-path="url(#p20c035c631)" style="fill: none; stroke: #5cb85c; stroke-linecap: square"/>
   </g>
   <g id="line2d_25">
    <path d="M 42.117148 353.219453 
L 51.266172 353.185658 
L 60.415195 349.767044 
L 69.564218 353.223307 
L 78.713242 353.221825 
L 87.862265 353.223604 
L 97.011288 353.2239 
L 106.160312 353.2239 
L 115.309335 353.2239 
L 124.458358 353.221973 
L 142.756405 353.2239 
L 161.054452 353.2239 
L 179.352499 353.2239 
L 197.650545 353.200777 
L 215.948592 353.2239 
L 234.246639 353.2239 
L 252.544685 353.2239 
L 270.842732 353.2239 
L 289.140779 353.2239 
L 307.438825 353.2239 
L 325.736872 353.2239 
L 344.034919 353.14801 
L 362.332965 353.187882 
L 380.631012 353.2239 
L 398.929059 353.223604 
L 417.227105 353.136152 
L 435.525152 353.223307 
L 453.823199 353.077011 
L 472.121246 353.21886 
L 490.419292 353.223752 
L 508.717339 353.2239 
L 527.015386 353.2239 
L 545.313432 353.2239 
L 563.611479 353.213524 
L 581.909526 353.212783 
L 600.207572 353.15216 
L 618.505619 353.219009 
L 636.803666 353.192625 
L 655.101712 353.2239 
L 673.399759 353.223159 
L 691.697806 353.2239 
L 709.995852 353.2239 
L 728.293899 353.2239 
L 746.591946 353.2239 
L 764.889993 353.223752 
L 783.188039 353.2239 
L 801.486086 353.2239 
L 819.784133 353.2239 
L 838.082179 353.136745 
L 856.380226 353.209967 
L 874.678273 353.2239 
L 892.976319 353.2239 
L 911.274366 353.130668 
L 929.572413 353.2239 
L 947.870459 353.2239 
" clip-path="url(#p20c035c631)" style="fill: none; stroke: #5cb85c; stroke-linecap: square"/>
   </g>
   <g id="line2d_26">
    <path d="M 42.117148 353.217873 
L 51.266172 353.190621 
L 60.415195 349.756306 
L 69.564218 353.2239 
L 78.713242 353.223376 
L 87.862265 353.2239 
L 97.011288 353.2239 
L 106.160312 353.2239 
L 115.309335 353.2239 
L 124.458358 353.222328 
L 142.756405 353.2239 
L 161.054452 353.2239 
L 179.352499 353.223769 
L 197.650545 353.196386 
L 215.948592 353.2239 
L 234.246639 353.2239 
L 252.544685 353.2239 
L 270.842732 353.2239 
L 289.140779 353.2239 
L 307.438825 353.2239 
L 325.736872 353.2239 
L 344.034919 353.144895 
L 362.332965 353.188655 
L 380.631012 353.223638 
L 398.929059 353.2239 
L 417.227105 353.131792 
L 435.525152 353.222459 
L 453.823199 353.071654 
L 472.121246 353.218266 
L 490.419292 353.223769 
L 508.717339 353.2239 
L 527.015386 353.2239 
L 545.313432 353.2239 
L 563.611479 353.213942 
L 581.909526 353.211846 
L 600.207572 353.147122 
L 618.505619 353.219576 
L 636.803666 353.186559 
L 655.101712 353.2239 
L 673.399759 353.222197 
L 691.697806 353.2239 
L 709.995852 353.223507 
L 728.293899 353.2239 
L 746.591946 353.2239 
L 764.889993 353.2239 
L 783.188039 353.2239 
L 801.486086 353.2239 
L 819.784133 353.2239 
L 838.082179 353.134413 
L 856.380226 353.209357 
L 874.678273 353.2239 
L 892.976319 353.2239 
L 911.274366 353.122228 
L 929.572413 353.2239 
L 947.870459 353.2239 
" clip-path="url(#p20c035c631)" style="fill: none; stroke: #5cb85c; stroke-linecap: square"/>
   </g>
   <g id="line2d_27">
    <path d="M 42.117148 353.21459 
L 51.266172 353.185291 
L 60.415195 349.740855 
L 69.564218 353.223626 
L 78.713242 353.223079 
L 87.862265 353.2239 
L 97.011288 353.2239 
L 106.160312 353.2239 
L 115.309335 353.2239 
L 124.458358 353.222531 
L 142.756405 353.2239 
L 161.054452 353.2239 
L 179.352499 353.2239 
L 197.650545 353.201036 
L 215.948592 353.2239 
L 234.246639 353.2239 
L 252.544685 353.2239 
L 270.842732 353.2239 
L 289.140779 353.2239 
L 307.438825 353.2239 
L 325.736872 353.2239 
L 344.034919 353.149967 
L 362.332965 353.188303 
L 380.631012 353.223626 
L 398.929059 353.223763 
L 417.227105 353.130937 
L 435.525152 353.223352 
L 453.823199 353.074803 
L 472.121246 353.218971 
L 490.419292 353.223626 
L 508.717339 353.2239 
L 527.015386 353.2239 
L 545.313432 353.2239 
L 563.611479 353.212673 
L 581.909526 353.212947 
L 600.207572 353.149557 
L 618.505619 353.220203 
L 636.803666 353.186934 
L 655.101712 353.2239 
L 673.399759 353.222668 
L 691.697806 353.2239 
L 709.995852 353.223763 
L 728.293899 353.2239 
L 746.591946 353.2239 
L 764.889993 353.2239 
L 783.188039 353.2239 
L 801.486086 353.2239 
L 819.784133 353.2239 
L 838.082179 353.138741 
L 856.380226 353.212673 
L 874.678273 353.2239 
L 892.976319 353.2239 
L 911.274366 353.127651 
L 929.572413 353.2239 
L 947.870459 353.2239 
" clip-path="url(#p20c035c631)" style="fill: none; stroke: #5cb85c; stroke-linecap: square"/>
   </g>
   <g id="line2d_28">
    <path d="M 42.117148 353.215944 
L 51.266172 353.184376 
L 60.415195 349.720904 
L 69.564218 353.2239 
L 78.713242 353.222617 
L 87.862265 353.223643 
L 97.011288 353.2239 
L 106.160312 353.2239 
L 115.309335 353.2239 
L 124.458358 353.22082 
L 142.756405 353.2239 
L 161.054452 353.2239 
L 179.352499 353.2239 
L 197.650545 353.200802 
L 215.948592 353.2239 
L 234.246639 353.2239 
L 252.544685 353.2239 
L 270.842732 353.2239 
L 289.140779 353.2239 
L 307.438825 353.2239 
L 325.736872 353.2239 
L 344.034919 353.144467 
L 362.332965 353.186558 
L 380.631012 353.223772 
L 398.929059 353.2239 
L 417.227105 353.127272 
L 435.525152 353.22236 
L 453.823199 353.075301 
L 472.121246 353.218639 
L 490.419292 353.2239 
L 508.717339 353.2239 
L 527.015386 353.2239 
L 545.313432 353.2239 
L 563.611479 353.211581 
L 581.909526 353.214789 
L 600.207572 353.149087 
L 618.505619 353.218382 
L 636.803666 353.186044 
L 655.101712 353.2239 
L 673.399759 353.223002 
L 691.697806 353.2239 
L 709.995852 353.223772 
L 728.293899 353.2239 
L 746.591946 353.2239 
L 764.889993 353.2239 
L 783.188039 353.2239 
L 801.486086 353.2239 
L 819.784133 353.2239 
L 838.082179 353.135228 
L 856.380226 353.208629 
L 874.678273 353.2239 
L 892.976319 353.2239 
L 911.274366 353.122652 
L 929.572413 353.2239 
L 947.870459 353.2239 
" clip-path="url(#p20c035c631)" style="fill: none; stroke: #5cb85c; stroke-linecap: square"/>
   </g>
   <g id="line2d_29">
    <path d="M 42.117148 353.216625 
L 51.266172 353.191538 
L 60.415195 349.73983 
L 69.564218 353.2239 
L 78.713242 353.221893 
L 87.862265 353.2239 
L 97.011288 353.2239 
L 106.160312 353.2239 
L 115.309335 353.2239 
L 124.458358 353.221391 
L 142.756405 353.2239 
L 161.054452 353.2239 
L 179.352499 353.223775 
L 197.650545 353.199315 
L 215.948592 353.2239 
L 234.246639 353.2239 
L 252.544685 353.2239 
L 270.842732 353.2239 
L 289.140779 353.2239 
L 307.438825 353.2239 
L 325.736872 353.2239 
L 344.034919 353.150019 
L 362.332965 353.188653 
L 380.631012 353.2239 
L 398.929059 353.2239 
L 417.227105 353.131455 
L 435.525152 353.223524 
L 453.823199 353.080528 
L 472.121246 353.219259 
L 490.419292 353.223775 
L 508.717339 353.2239 
L 527.015386 353.2239 
L 545.313432 353.2239 
L 563.611479 353.211607 
L 581.909526 353.213238 
L 600.207572 353.151023 
L 618.505619 353.218005 
L 636.803666 353.186395 
L 655.101712 353.2239 
L 673.399759 353.222395 
L 691.697806 353.2239 
L 709.995852 353.223775 
L 728.293899 353.2239 
L 746.591946 353.2239 
L 764.889993 353.2239 
L 783.188039 353.2239 
L 801.486086 353.2239 
L 819.784133 353.2239 
L 838.082179 353.141239 
L 856.380226 353.210729 
L 874.678273 353.2239 
L 892.976319 353.2239 
L 911.274366 353.130828 
L 929.572413 353.2239 
L 947.870459 353.2239 
" clip-path="url(#p20c035c631)" style="fill: none; stroke: #5cb85c; stroke-linecap: square"/>
   </g>
   <g id="line2d_30">
    <path d="M 42.117148 353.2152 
L 51.266172 353.185733 
L 60.415195 349.77034 
L 69.564218 353.2239 
L 78.713242 353.222216 
L 87.862265 353.2239 
L 97.011288 353.2239 
L 106.160312 353.2239 
L 115.309335 353.2239 
L 124.458358 353.221515 
L 142.756405 353.2239 
L 161.054452 353.2239 
L 179.352499 353.2239 
L 197.650545 353.203554 
L 215.948592 353.2239 
L 234.246639 353.2239 
L 252.544685 353.2239 
L 270.842732 353.2239 
L 289.140779 353.2239 
L 307.438825 353.2239 
L 325.736872 353.2239 
L 344.034919 353.148969 
L 362.332965 353.189522 
L 380.631012 353.22376 
L 398.929059 353.22376 
L 417.227105 353.134235 
L 435.525152 353.222497 
L 453.823199 353.080212 
L 472.121246 353.21941 
L 490.419292 353.22376 
L 508.717339 353.2239 
L 527.015386 353.2239 
L 545.313432 353.2239 
L 563.611479 353.21534 
L 581.909526 353.211552 
L 600.207572 353.152337 
L 618.505619 353.21955 
L 636.803666 353.192749 
L 655.101712 353.2239 
L 673.399759 353.222637 
L 691.697806 353.2239 
L 709.995852 353.2239 
L 728.293899 353.2239 
L 746.591946 353.2239 
L 764.889993 353.2239 
L 783.188039 353.2239 
L 801.486086 353.2239 
L 819.784133 353.2239 
L 838.082179 353.140269 
L 856.380226 353.213376 
L 874.678273 353.2239 
L 892.976319 353.2239 
L 911.274366 353.129885 
L 929.572413 353.2239 
L 947.870459 353.2239 
" clip-path="url(#p20c035c631)" style="fill: none; stroke: #5cb85c; stroke-linecap: square"/>
   </g>
   <g id="line2d_31">
    <path d="M 42.117148 353.214135 
L 51.266172 353.14517 
L 60.415195 351.133379 
L 69.564218 353.187281 
L 78.713242 353.196029 
L 87.862265 353.2239 
L 97.011288 353.2239 
L 106.160312 353.2239 
L 115.309335 353.2239 
L 124.458358 353.220035 
L 142.756405 353.2239 
L 161.054452 353.2239 
L 179.352499 353.2239 
L 197.650545 353.210066 
L 215.948592 353.2239 
L 234.246639 353.2239 
L 252.544685 353.2239 
L 270.842732 353.223086 
L 289.140779 353.2239 
L 307.438825 353.207015 
L 325.736872 353.223086 
L 344.034919 353.172532 
L 362.332965 353.202641 
L 380.631012 353.223798 
L 398.929059 353.2239 
L 417.227105 353.173041 
L 435.525152 353.223595 
L 453.823199 353.146187 
L 472.121246 353.221764 
L 490.419292 353.223391 
L 508.717339 353.221357 
L 527.015386 353.2239 
L 545.313432 353.2239 
L 563.611479 353.21678 
L 581.909526 353.219628 
L 600.207572 353.184637 
L 618.505619 353.221255 
L 636.803666 353.202336 
L 655.101712 353.219119 
L 673.399759 353.216983 
L 691.697806 350.737491 
L 709.995852 353.223798 
L 728.293899 353.223086 
L 746.591946 353.2239 
L 764.889993 353.223086 
L 783.188039 353.220543 
L 801.486086 353.210778 
L 819.784133 353.2239 
L 838.082179 353.176703 
L 856.380226 353.216576 
L 874.678273 353.2239 
L 892.976319 353.2239 
L 911.274366 353.170905 
L 929.572413 353.2239 
L 947.870459 353.2239 
" clip-path="url(#p20c035c631)" style="fill: none; stroke: #5cb85c; stroke-linecap: square"/>
   </g>
   <g id="line2d_32">
    <path d="M 42.117148 353.217426 
L 51.266172 353.186463 
L 60.415195 349.725656 
L 69.564218 353.2239 
L 78.713242 353.223056 
L 87.862265 353.2239 
L 97.011288 353.2239 
L 106.160312 353.2239 
L 115.309335 353.2239 
L 124.458358 353.221789 
L 142.756405 353.2239 
L 161.054452 353.2239 
L 179.352499 353.2239 
L 197.650545 353.202648 
L 215.948592 353.2239 
L 234.246639 353.2239 
L 252.544685 353.2239 
L 270.842732 353.2239 
L 289.140779 353.2239 
L 307.438825 353.2239 
L 325.736872 353.2239 
L 344.034919 353.149167 
L 362.332965 353.188996 
L 380.631012 353.223478 
L 398.929059 353.2239 
L 417.227105 353.131574 
L 435.525152 353.222774 
L 453.823199 353.076545 
L 472.121246 353.218411 
L 490.419292 353.223619 
L 508.717339 353.2239 
L 527.015386 353.2239 
L 545.313432 353.2239 
L 563.611479 353.214189 
L 581.909526 353.213344 
L 600.207572 353.146493 
L 618.505619 353.219396 
L 636.803666 353.186885 
L 655.101712 353.2239 
L 673.399759 353.223196 
L 691.697806 353.2239 
L 709.995852 353.223478 
L 728.293899 353.2239 
L 746.591946 353.2239 
L 764.889993 353.2239 
L 783.188039 353.2239 
L 801.486086 353.2239 
L 819.784133 353.2239 
L 838.082179 353.134952 
L 856.380226 353.211796 
L 874.678273 353.2239 
L 892.976319 353.2239 
L 911.274366 353.131011 
L 929.572413 353.2239 
L 947.870459 353.2239 
" clip-path="url(#p20c035c631)" style="fill: none; stroke: #5cb85c; stroke-linecap: square"/>
   </g>
   <g id="line2d_33">
    <path d="M 42.117148 353.215381 
L 51.266172 353.189094 
L 60.415195 349.777167 
L 69.564218 353.2239 
L 78.713242 353.22244 
L 87.862265 353.2239 
L 97.011288 353.2239 
L 106.160312 353.2239 
L 115.309335 353.2239 
L 124.458358 353.222196 
L 142.756405 353.2239 
L 161.054452 353.2239 
L 179.352499 353.2239 
L 197.650545 353.203333 
L 215.948592 353.2239 
L 234.246639 353.2239 
L 252.544685 353.2239 
L 270.842732 353.2239 
L 289.140779 353.2239 
L 307.438825 353.2239 
L 325.736872 353.2239 
L 344.034919 353.14723 
L 362.332965 353.191528 
L 380.631012 353.223657 
L 398.929059 353.2239 
L 417.227105 353.13214 
L 435.525152 353.223048 
L 453.823199 353.073116 
L 472.121246 353.218667 
L 490.419292 353.223535 
L 508.717339 353.2239 
L 527.015386 353.2239 
L 545.313432 353.2239 
L 563.611479 353.212947 
L 581.909526 353.212339 
L 600.207572 353.149177 
L 618.505619 353.219519 
L 636.803666 353.187634 
L 655.101712 353.2239 
L 673.399759 353.222926 
L 691.697806 353.2239 
L 709.995852 353.223778 
L 728.293899 353.2239 
L 746.591946 353.2239 
L 764.889993 353.2239 
L 783.188039 353.2239 
L 801.486086 353.2239 
L 819.784133 353.2239 
L 838.082179 353.138346 
L 856.380226 353.211 
L 874.678273 353.2239 
L 892.976319 353.2239 
L 911.274366 353.125568 
L 929.572413 353.2239 
L 947.870459 353.2239 
" clip-path="url(#p20c035c631)" style="fill: none; stroke: #5cb85c; stroke-linecap: square"/>
   </g>
   <g id="line2d_34">
    <path d="M 42.117148 353.214371 
L 51.266172 353.184918 
L 60.415195 349.815732 
L 69.564218 353.223611 
L 78.713242 353.222456 
L 87.862265 353.2239 
L 97.011288 353.2239 
L 106.160312 353.2239 
L 115.309335 353.2239 
L 124.458358 353.221734 
L 142.756405 353.2239 
L 161.054452 353.2239 
L 179.352499 353.2239 
L 197.650545 353.20181 
L 215.948592 353.2239 
L 234.246639 353.2239 
L 252.544685 353.2239 
L 270.842732 353.2239 
L 289.140779 353.2239 
L 307.438825 353.2239 
L 325.736872 353.2239 
L 344.034919 353.148535 
L 362.332965 353.189971 
L 380.631012 353.223756 
L 398.929059 353.223756 
L 417.227105 353.132798 
L 435.525152 353.222167 
L 453.823199 353.081977 
L 472.121246 353.217547 
L 490.419292 353.223756 
L 508.717339 353.2239 
L 527.015386 353.2239 
L 545.313432 353.2239 
L 563.611479 353.211917 
L 581.909526 353.212205 
L 600.207572 353.151134 
L 618.505619 353.219857 
L 636.803666 353.187373 
L 655.101712 353.2239 
L 673.399759 353.222456 
L 691.697806 353.2239 
L 709.995852 353.2239 
L 728.293899 353.2239 
L 746.591946 353.2239 
L 764.889993 353.2239 
L 783.188039 353.2239 
L 801.486086 353.2239 
L 819.784133 353.2239 
L 838.082179 353.141749 
L 856.380226 353.210762 
L 874.678273 353.2239 
L 892.976319 353.2239 
L 911.274366 353.130488 
L 929.572413 353.2239 
L 947.870459 353.2239 
" clip-path="url(#p20c035c631)" style="fill: none; stroke: #5cb85c; stroke-linecap: square"/>
   </g>
   <g id="line2d_35">
    <path d="M 42.117148 353.214563 
L 51.266172 353.187331 
L 60.415195 349.70445 
L 69.564218 353.2239 
L 78.713242 353.223122 
L 87.862265 353.2239 
L 97.011288 353.2239 
L 106.160312 353.2239 
L 115.309335 353.2239 
L 124.458358 353.221695 
L 142.756405 353.2239 
L 161.054452 353.2239 
L 179.352499 353.2239 
L 197.650545 353.201725 
L 215.948592 353.2239 
L 234.246639 353.2239 
L 252.544685 353.2239 
L 270.842732 353.2239 
L 289.140779 353.2239 
L 307.438825 353.2239 
L 325.736872 353.2239 
L 344.034919 353.144537 
L 362.332965 353.190573 
L 380.631012 353.223641 
L 398.929059 353.2239 
L 417.227105 353.134941 
L 435.525152 353.222863 
L 453.823199 353.079958 
L 472.121246 353.219361 
L 490.419292 353.223511 
L 508.717339 353.2239 
L 527.015386 353.2239 
L 545.313432 353.2239 
L 563.611479 353.212359 
L 581.909526 353.214952 
L 600.207572 353.152707 
L 618.505619 353.218065 
L 636.803666 353.189795 
L 655.101712 353.2239 
L 673.399759 353.222344 
L 691.697806 353.2239 
L 709.995852 353.223641 
L 728.293899 353.2239 
L 746.591946 353.2239 
L 764.889993 353.2239 
L 783.188039 353.2239 
L 801.486086 353.2239 
L 819.784133 353.2239 
L 838.082179 353.138832 
L 856.380226 353.212099 
L 874.678273 353.2239 
L 892.976319 353.2239 
L 911.274366 353.130921 
L 929.572413 353.2239 
L 947.870459 353.2239 
" clip-path="url(#p20c035c631)" style="fill: none; stroke: #5cb85c; stroke-linecap: square"/>
   </g>
   <g id="line2d_36">
    <path d="M 42.117148 353.215302 
L 51.266172 353.188953 
L 60.415195 349.715304 
L 69.564218 353.223623 
L 78.713242 353.222791 
L 87.862265 353.2239 
L 97.011288 353.2239 
L 106.160312 353.2239 
L 115.309335 353.2239 
L 124.458358 353.222097 
L 142.756405 353.2239 
L 161.054452 353.2239 
L 179.352499 353.223761 
L 197.650545 353.200186 
L 215.948592 353.2239 
L 234.246639 353.2239 
L 252.544685 353.2239 
L 270.842732 353.2239 
L 289.140779 353.2239 
L 307.438825 353.2239 
L 325.736872 353.2239 
L 344.034919 353.150677 
L 362.332965 353.188398 
L 380.631012 353.223623 
L 398.929059 353.223761 
L 417.227105 353.13667 
L 435.525152 353.222652 
L 453.823199 353.085914 
L 472.121246 353.218353 
L 490.419292 353.223623 
L 508.717339 353.2239 
L 527.015386 353.2239 
L 545.313432 353.2239 
L 563.611479 353.213915 
L 581.909526 353.21239 
L 600.207572 353.149845 
L 618.505619 353.218769 
L 636.803666 353.191449 
L 655.101712 353.2239 
L 673.399759 353.222929 
L 691.697806 353.2239 
L 709.995852 353.223623 
L 728.293899 353.2239 
L 746.591946 353.2239 
L 764.889993 353.2239 
L 783.188039 353.2239 
L 801.486086 353.2239 
L 819.784133 353.2239 
L 838.082179 353.142079 
L 856.380226 353.210864 
L 874.678273 353.2239 
L 892.976319 353.2239 
L 911.274366 353.134729 
L 929.572413 353.2239 
L 947.870459 353.2239 
" clip-path="url(#p20c035c631)" style="fill: none; stroke: #5cb85c; stroke-linecap: square"/>
   </g>
   <g id="line2d_37">
    <path d="M 42.117148 353.213019 
L 51.266172 353.186236 
L 60.415195 349.705563 
L 69.564218 353.223621 
L 78.713242 353.223063 
L 87.862265 353.2239 
L 97.011288 353.2239 
L 106.160312 353.2239 
L 115.309335 353.2239 
L 124.458358 353.221947 
L 142.756405 353.2239 
L 161.054452 353.2239 
L 179.352499 353.2239 
L 197.650545 353.200744 
L 215.948592 353.2239 
L 234.246639 353.2239 
L 252.544685 353.2239 
L 270.842732 353.2239 
L 289.140779 353.2239 
L 307.438825 353.2239 
L 325.736872 353.2239 
L 344.034919 353.155548 
L 362.332965 353.189863 
L 380.631012 353.2239 
L 398.929059 353.2239 
L 417.227105 353.136855 
L 435.525152 353.222924 
L 453.823199 353.088869 
L 472.121246 353.219436 
L 490.419292 353.2239 
L 508.717339 353.2239 
L 527.015386 353.2239 
L 545.313432 353.2239 
L 563.611479 353.213438 
L 581.909526 353.21274 
L 600.207572 353.152618 
L 618.505619 353.219994 
L 636.803666 353.189166 
L 655.101712 353.2239 
L 673.399759 353.221808 
L 691.697806 353.2239 
L 709.995852 353.223761 
L 728.293899 353.2239 
L 746.591946 353.2239 
L 764.889993 353.2239 
L 783.188039 353.2239 
L 801.486086 353.2239 
L 819.784133 353.2239 
L 838.082179 353.146899 
L 856.380226 353.213717 
L 874.678273 353.2239 
L 892.976319 353.2239 
L 911.274366 353.134623 
L 929.572413 353.2239 
L 947.870459 353.2239 
" clip-path="url(#p20c035c631)" style="fill: none; stroke: #5cb85c; stroke-linecap: square"/>
   </g>
   <g id="line2d_38">
    <path d="M 42.117148 353.216766 
L 51.266172 353.189552 
L 60.415195 349.761871 
L 69.564218 353.223372 
L 78.713242 353.223107 
L 87.862265 353.223636 
L 97.011288 353.2239 
L 106.160312 353.2239 
L 115.309335 353.2239 
L 124.458358 353.222183 
L 142.756405 353.2239 
L 161.054452 353.2239 
L 179.352499 353.2239 
L 197.650545 353.199196 
L 215.948592 353.2239 
L 234.246639 353.2239 
L 252.544685 353.2239 
L 270.842732 353.2239 
L 289.140779 353.2239 
L 307.438825 353.2239 
L 325.736872 353.2239 
L 344.034919 353.143446 
L 362.332965 353.182946 
L 380.631012 353.223636 
L 398.929059 353.223768 
L 417.227105 353.127461 
L 435.525152 353.222975 
L 453.823199 353.06973 
L 472.121246 353.217691 
L 490.419292 353.223768 
L 508.717339 353.2239 
L 527.015386 353.2239 
L 545.313432 353.2239 
L 563.611479 353.21135 
L 581.909526 353.212539 
L 600.207572 353.145031 
L 618.505619 353.220201 
L 636.803666 353.185324 
L 655.101712 353.2239 
L 673.399759 353.222843 
L 691.697806 353.2239 
L 709.995852 353.223636 
L 728.293899 353.2239 
L 746.591946 353.2239 
L 764.889993 353.2239 
L 783.188039 353.2239 
L 801.486086 353.2239 
L 819.784133 353.2239 
L 838.082179 353.132349 
L 856.380226 353.208047 
L 874.678273 353.2239 
L 892.976319 353.2239 
L 911.274366 353.122969 
L 929.572413 353.2239 
L 947.870459 353.2239 
" clip-path="url(#p20c035c631)" style="fill: none; stroke: #5cb85c; stroke-linecap: square"/>
   </g>
   <g id="line2d_39">
    <path d="M 42.117148 353.21572 
L 51.266172 353.18696 
L 60.415195 349.749983 
L 69.564218 353.2239 
L 78.713242 353.222317 
L 87.862265 353.223636 
L 97.011288 353.2239 
L 106.160312 353.2239 
L 115.309335 353.2239 
L 124.458358 353.222317 
L 142.756405 353.2239 
L 161.054452 353.2239 
L 179.352499 353.2239 
L 197.650545 353.200021 
L 215.948592 353.2239 
L 234.246639 353.2239 
L 252.544685 353.2239 
L 270.842732 353.2239 
L 289.140779 353.2239 
L 307.438825 353.2239 
L 325.736872 353.2239 
L 344.034919 353.148569 
L 362.332965 353.188148 
L 380.631012 353.223372 
L 398.929059 353.223768 
L 417.227105 353.130363 
L 435.525152 353.22324 
L 453.823199 353.076933 
L 472.121246 353.218095 
L 490.419292 353.223504 
L 508.717339 353.2239 
L 527.015386 353.2239 
L 545.313432 353.2239 
L 563.611479 353.213478 
L 581.909526 353.213214 
L 600.207572 353.150284 
L 618.505619 353.217699 
L 636.803666 353.18828 
L 655.101712 353.2239 
L 673.399759 353.222185 
L 691.697806 353.2239 
L 709.995852 353.223504 
L 728.293899 353.2239 
L 746.591946 353.2239 
L 764.889993 353.2239 
L 783.188039 353.2239 
L 801.486086 353.2239 
L 819.784133 353.2239 
L 838.082179 353.137355 
L 856.380226 353.211631 
L 874.678273 353.2239 
L 892.976319 353.2239 
L 911.274366 353.12601 
L 929.572413 353.2239 
L 947.870459 353.2239 
" clip-path="url(#p20c035c631)" style="fill: none; stroke: #5cb85c; stroke-linecap: square"/>
   </g>
   <g id="line2d_40">
    <path d="M 42.117148 353.216103 
L 51.266172 353.186096 
L 60.415195 349.778059 
L 69.564218 353.223664 
L 78.713242 353.222482 
L 87.862265 353.2239 
L 97.011288 353.2239 
L 106.160312 353.2239 
L 115.309335 353.2239 
L 124.458358 353.221065 
L 142.756405 353.2239 
L 161.054452 353.2239 
L 179.352499 353.2239 
L 197.650545 353.199564 
L 215.948592 353.2239 
L 234.246639 353.2239 
L 252.544685 353.2239 
L 270.842732 353.2239 
L 289.140779 353.2239 
L 307.438825 353.2239 
L 325.736872 353.2239 
L 344.034919 353.151127 
L 362.332965 353.192357 
L 380.631012 353.223782 
L 398.929059 353.2239 
L 417.227105 353.135887 
L 435.525152 353.223546 
L 453.823199 353.085443 
L 472.121246 353.219411 
L 490.419292 353.223546 
L 508.717339 353.2239 
L 527.015386 353.2239 
L 545.313432 353.2239 
L 563.611479 353.212204 
L 581.909526 353.215985 
L 600.207572 353.149237 
L 618.505619 353.218229 
L 636.803666 353.19094 
L 655.101712 353.2239 
L 673.399759 353.223191 
L 691.697806 353.2239 
L 709.995852 353.223782 
L 728.293899 353.2239 
L 746.591946 353.2239 
L 764.889993 353.2239 
L 783.188039 353.2239 
L 801.486086 353.2239 
L 819.784133 353.2239 
L 838.082179 353.143212 
L 856.380226 353.212559 
L 874.678273 353.2239 
L 892.976319 353.2239 
L 911.274366 353.131162 
L 929.572413 353.2239 
L 947.870459 353.2239 
" clip-path="url(#p20c035c631)" style="fill: none; stroke: #5cb85c; stroke-linecap: square"/>
   </g>
   <g id="line2d_41">
    <path d="M 32.968125 353.2239 
L 993.158125 353.2239 
" clip-path="url(#p20c035c631)" style="fill: none; stroke: #dedede; stroke-width: 2; stroke-linecap: square"/>
   </g>
   <g id="text_15">
    <!-- FastQC: Per Base N Content -->
    <g transform="translate(402.209375 19.3575)scale(0.16 -0.16)">
     <defs>
      <path id="DejaVuSans-46" d="M 628 4666 
L 3309 4666 
L 3309 4134 
L 1259 4134 
L 1259 2759 
L 3109 2759 
L 3109 2228 
L 1259 2228 
L 1259 0 
L 628 0 
L 628 4666 
z
" transform="scale(0.015625)"/>
      <path id="DejaVuSans-51" d="M 2522 4238 
Q 1834 4238 1429 3725 
Q 1025 3213 1025 2328 
Q 1025 1447 1429 934 
Q 1834 422 2522 422 
Q 3209 422 3611 934 
Q 4013 1447 4013 2328 
Q 4013 3213 3611 3725 
Q 3209 4238 2522 4238 
z
M 3406 84 
L 4238 -825 
L 3475 -825 
L 2784 -78 
Q 2681 -84 2626 -87 
Q 2572 -91 2522 -91 
Q 1538 -91 948 567 
Q 359 1225 359 2328 
Q 359 3434 948 4092 
Q 1538 4750 2522 4750 
Q 3503 4750 4090 4092 
Q 4678 3434 4678 2328 
Q 4678 1516 4351 937 
Q 4025 359 3406 84 
z
" transform="scale(0.015625)"/>
      <path id="DejaVuSans-3a" d="M 750 794 
L 1409 794 
L 1409 0 
L 750 0 
L 750 794 
z
M 750 3309 
L 1409 3309 
L 1409 2516 
L 750 2516 
L 750 3309 
z
" transform="scale(0.015625)"/>
      <path id="DejaVuSans-42" d="M 1259 2228 
L 1259 519 
L 2272 519 
Q 2781 519 3026 730 
Q 3272 941 3272 1375 
Q 3272 1813 3026 2020 
Q 2781 2228 2272 2228 
L 1259 2228 
z
M 1259 4147 
L 1259 2741 
L 2194 2741 
Q 2656 2741 2882 2914 
Q 3109 3088 3109 3444 
Q 3109 3797 2882 3972 
Q 2656 4147 2194 4147 
L 1259 4147 
z
M 628 4666 
L 2241 4666 
Q 2963 4666 3353 4366 
Q 3744 4066 3744 3513 
Q 3744 3084 3544 2831 
Q 3344 2578 2956 2516 
Q 3422 2416 3680 2098 
Q 3938 1781 3938 1306 
Q 3938 681 3513 340 
Q 3088 0 2303 0 
L 628 0 
L 628 4666 
z
" transform="scale(0.015625)"/>
     </defs>
     <use xlink:href="#DejaVuSans-46"/>
     <use xlink:href="#DejaVuSans-61" x="48.394531"/>
     <use xlink:href="#DejaVuSans-73" x="109.673828"/>
     <use xlink:href="#DejaVuSans-74" x="161.773438"/>
     <use xlink:href="#DejaVuSans-51" x="200.982422"/>
     <use xlink:href="#DejaVuSans-43" x="279.693359"/>
     <use xlink:href="#DejaVuSans-3a" x="349.517578"/>
     <use xlink:href="#DejaVuSans-20" x="383.208984"/>
     <use xlink:href="#DejaVuSans-50" x="414.996094"/>
     <use xlink:href="#DejaVuSans-65" x="471.673828"/>
     <use xlink:href="#DejaVuSans-72" x="533.197266"/>
     <use xlink:href="#DejaVuSans-20" x="574.310547"/>
     <use xlink:href="#DejaVuSans-42" x="606.097656"/>
     <use xlink:href="#DejaVuSans-61" x="674.701172"/>
     <use xlink:href="#DejaVuSans-73" x="735.980469"/>
     <use xlink:href="#DejaVuSans-65" x="788.080078"/>
     <use xlink:href="#DejaVuSans-20" x="849.603516"/>
     <use xlink:href="#DejaVuSans-4e" x="881.390625"/>
     <use xlink:href="#DejaVuSans-20" x="956.195312"/>
     <use xlink:href="#DejaVuSans-43" x="987.982422"/>
     <use xlink:href="#DejaVuSans-6f" x="1057.806641"/>
     <use xlink:href="#DejaVuSans-6e" x="1118.988281"/>
     <use xlink:href="#DejaVuSans-74" x="1182.367188"/>
     <use xlink:href="#DejaVuSans-65" x="1221.576172"/>
     <use xlink:href="#DejaVuSans-6e" x="1283.099609"/>
     <use xlink:href="#DejaVuSans-74" x="1346.478516"/>
    </g>
   </g>
  </g>
 </g>
 <defs>
  <clipPath id="p20c035c631">
   <rect x="32.968125" y="35.2559" width="960.19" height="317.968"/>
  </clipPath>
 </defs>
</svg>
