<?xml version="1.0" encoding="utf-8" standalone="no"?>
<!DOCTYPE svg PUBLIC "-//W3C//DTD SVG 1.1//EN"
  "http://www.w3.org/Graphics/SVG/1.1/DTD/svg11.dtd">
<svg xmlns:xlink="http://www.w3.org/1999/xlink" width="856.738125pt" height="913.107826pt" viewBox="0 0 856.738125 913.107826" xmlns="http://www.w3.org/2000/svg" version="1.1">
 <metadata>
  <rdf:RDF xmlns:dc="http://purl.org/dc/elements/1.1/" xmlns:cc="http://creativecommons.org/ns#" xmlns:rdf="http://www.w3.org/1999/02/22-rdf-syntax-ns#">
   <cc:Work>
    <dc:type rdf:resource="http://purl.org/dc/dcmitype/StillImage"/>
    <dc:date>2022-11-05T04:14:56.519939</dc:date>
    <dc:format>image/svg+xml</dc:format>
    <dc:creator>
     <cc:Agent>
      <dc:title>Matplotlib v3.5.1, https://matplotlib.org/</dc:title>
     </cc:Agent>
    </dc:creator>
   </cc:Work>
  </rdf:RDF>
 </metadata>
 <defs>
  <style type="text/css">*{stroke-linejoin: round; stroke-linecap: butt}</style>
 </defs>
 <g id="figure_1">
  <g id="axes_1">
   <g id="patch_1">
    <path d="M 56.9025 826.747826 
L 838.1025 826.747826 
L 838.1025 7.2 
L 56.9025 7.2 
z
" style="fill: #ffffff"/>
   </g>
   <g id="matplotlib.axis_1">
    <g id="xtick_1">
     <g id="line2d_1">
      <path d="M 56.9025 826.747826 
L 56.9025 7.2 
" clip-path="url(#peeb5b315a7)" style="fill: none; stroke: #dedede; stroke-linecap: square"/>
     </g>
     <g id="text_1">
      <!-- 0% -->
      <g transform="translate(50.556875 839.826576)scale(0.08 -0.08)">
       <defs>
        <path id="DejaVuSans-30" d="M 2034 4250 
Q 1547 4250 1301 3770 
Q 1056 3291 1056 2328 
Q 1056 1369 1301 889 
Q 1547 409 2034 409 
Q 2525 409 2770 889 
Q 3016 1369 3016 2328 
Q 3016 3291 2770 3770 
Q 2525 4250 2034 4250 
z
M 2034 4750 
Q 2819 4750 3233 4129 
Q 3647 3509 3647 2328 
Q 3647 1150 3233 529 
Q 2819 -91 2034 -91 
Q 1250 -91 836 529 
Q 422 1150 422 2328 
Q 422 3509 836 4129 
Q 1250 4750 2034 4750 
z
" transform="scale(0.015625)"/>
        <path id="DejaVuSans-25" d="M 4653 2053 
Q 4381 2053 4226 1822 
Q 4072 1591 4072 1178 
Q 4072 772 4226 539 
Q 4381 306 4653 306 
Q 4919 306 5073 539 
Q 5228 772 5228 1178 
Q 5228 1588 5073 1820 
Q 4919 2053 4653 2053 
z
M 4653 2450 
Q 5147 2450 5437 2106 
Q 5728 1763 5728 1178 
Q 5728 594 5436 251 
Q 5144 -91 4653 -91 
Q 4153 -91 3862 251 
Q 3572 594 3572 1178 
Q 3572 1766 3864 2108 
Q 4156 2450 4653 2450 
z
M 1428 4353 
Q 1159 4353 1004 4120 
Q 850 3888 850 3481 
Q 850 3069 1003 2837 
Q 1156 2606 1428 2606 
Q 1700 2606 1854 2837 
Q 2009 3069 2009 3481 
Q 2009 3884 1853 4118 
Q 1697 4353 1428 4353 
z
M 4250 4750 
L 4750 4750 
L 1831 -91 
L 1331 -91 
L 4250 4750 
z
M 1428 4750 
Q 1922 4750 2215 4408 
Q 2509 4066 2509 3481 
Q 2509 2891 2217 2550 
Q 1925 2209 1428 2209 
Q 931 2209 642 2551 
Q 353 2894 353 3481 
Q 353 4063 643 4406 
Q 934 4750 1428 4750 
z
" transform="scale(0.015625)"/>
       </defs>
       <use xlink:href="#DejaVuSans-30"/>
       <use xlink:href="#DejaVuSans-25" x="63.623047"/>
      </g>
     </g>
    </g>
    <g id="xtick_2">
     <g id="line2d_2">
      <path d="M 213.1425 826.747826 
L 213.1425 7.2 
" clip-path="url(#peeb5b315a7)" style="fill: none; stroke: #dedede; stroke-linecap: square"/>
     </g>
     <g id="text_2">
      <!-- 20% -->
      <g transform="translate(204.251875 839.826576)scale(0.08 -0.08)">
       <defs>
        <path id="DejaVuSans-32" d="M 1228 531 
L 3431 531 
L 3431 0 
L 469 0 
L 469 531 
Q 828 903 1448 1529 
Q 2069 2156 2228 2338 
Q 2531 2678 2651 2914 
Q 2772 3150 2772 3378 
Q 2772 3750 2511 3984 
Q 2250 4219 1831 4219 
Q 1534 4219 1204 4116 
Q 875 4013 500 3803 
L 500 4441 
Q 881 4594 1212 4672 
Q 1544 4750 1819 4750 
Q 2544 4750 2975 4387 
Q 3406 4025 3406 3419 
Q 3406 3131 3298 2873 
Q 3191 2616 2906 2266 
Q 2828 2175 2409 1742 
Q 1991 1309 1228 531 
z
" transform="scale(0.015625)"/>
       </defs>
       <use xlink:href="#DejaVuSans-32"/>
       <use xlink:href="#DejaVuSans-30" x="63.623047"/>
       <use xlink:href="#DejaVuSans-25" x="127.246094"/>
      </g>
     </g>
    </g>
    <g id="xtick_3">
     <g id="line2d_3">
      <path d="M 369.3825 826.747826 
L 369.3825 7.2 
" clip-path="url(#peeb5b315a7)" style="fill: none; stroke: #dedede; stroke-linecap: square"/>
     </g>
     <g id="text_3">
      <!-- 40% -->
      <g transform="translate(360.491875 839.826576)scale(0.08 -0.08)">
       <defs>
        <path id="DejaVuSans-34" d="M 2419 4116 
L 825 1625 
L 2419 1625 
L 2419 4116 
z
M 2253 4666 
L 3047 4666 
L 3047 1625 
L 3713 1625 
L 3713 1100 
L 3047 1100 
L 3047 0 
L 2419 0 
L 2419 1100 
L 313 1100 
L 313 1709 
L 2253 4666 
z
" transform="scale(0.015625)"/>
       </defs>
       <use xlink:href="#DejaVuSans-34"/>
       <use xlink:href="#DejaVuSans-30" x="63.623047"/>
       <use xlink:href="#DejaVuSans-25" x="127.246094"/>
      </g>
     </g>
    </g>
    <g id="xtick_4">
     <g id="line2d_4">
      <path d="M 525.6225 826.747826 
L 525.6225 7.2 
" clip-path="url(#peeb5b315a7)" style="fill: none; stroke: #dedede; stroke-linecap: square"/>
     </g>
     <g id="text_4">
      <!-- 60% -->
      <g transform="translate(516.731875 839.826576)scale(0.08 -0.08)">
       <defs>
        <path id="DejaVuSans-36" d="M 2113 2584 
Q 1688 2584 1439 2293 
Q 1191 2003 1191 1497 
Q 1191 994 1439 701 
Q 1688 409 2113 409 
Q 2538 409 2786 701 
Q 3034 994 3034 1497 
Q 3034 2003 2786 2293 
Q 2538 2584 2113 2584 
z
M 3366 4563 
L 3366 3988 
Q 3128 4100 2886 4159 
Q 2644 4219 2406 4219 
Q 1781 4219 1451 3797 
Q 1122 3375 1075 2522 
Q 1259 2794 1537 2939 
Q 1816 3084 2150 3084 
Q 2853 3084 3261 2657 
Q 3669 2231 3669 1497 
Q 3669 778 3244 343 
Q 2819 -91 2113 -91 
Q 1303 -91 875 529 
Q 447 1150 447 2328 
Q 447 3434 972 4092 
Q 1497 4750 2381 4750 
Q 2619 4750 2861 4703 
Q 3103 4656 3366 4563 
z
" transform="scale(0.015625)"/>
       </defs>
       <use xlink:href="#DejaVuSans-36"/>
       <use xlink:href="#DejaVuSans-30" x="63.623047"/>
       <use xlink:href="#DejaVuSans-25" x="127.246094"/>
      </g>
     </g>
    </g>
    <g id="xtick_5">
     <g id="line2d_5">
      <path d="M 681.8625 826.747826 
L 681.8625 7.2 
" clip-path="url(#peeb5b315a7)" style="fill: none; stroke: #dedede; stroke-linecap: square"/>
     </g>
     <g id="text_5">
      <!-- 80% -->
      <g transform="translate(672.971875 839.826576)scale(0.08 -0.08)">
       <defs>
        <path id="DejaVuSans-38" d="M 2034 2216 
Q 1584 2216 1326 1975 
Q 1069 1734 1069 1313 
Q 1069 891 1326 650 
Q 1584 409 2034 409 
Q 2484 409 2743 651 
Q 3003 894 3003 1313 
Q 3003 1734 2745 1975 
Q 2488 2216 2034 2216 
z
M 1403 2484 
Q 997 2584 770 2862 
Q 544 3141 544 3541 
Q 544 4100 942 4425 
Q 1341 4750 2034 4750 
Q 2731 4750 3128 4425 
Q 3525 4100 3525 3541 
Q 3525 3141 3298 2862 
Q 3072 2584 2669 2484 
Q 3125 2378 3379 2068 
Q 3634 1759 3634 1313 
Q 3634 634 3220 271 
Q 2806 -91 2034 -91 
Q 1263 -91 848 271 
Q 434 634 434 1313 
Q 434 1759 690 2068 
Q 947 2378 1403 2484 
z
M 1172 3481 
Q 1172 3119 1398 2916 
Q 1625 2713 2034 2713 
Q 2441 2713 2670 2916 
Q 2900 3119 2900 3481 
Q 2900 3844 2670 4047 
Q 2441 4250 2034 4250 
Q 1625 4250 1398 4047 
Q 1172 3844 1172 3481 
z
" transform="scale(0.015625)"/>
       </defs>
       <use xlink:href="#DejaVuSans-38"/>
       <use xlink:href="#DejaVuSans-30" x="63.623047"/>
       <use xlink:href="#DejaVuSans-25" x="127.246094"/>
      </g>
     </g>
    </g>
    <g id="xtick_6">
     <g id="line2d_6">
      <path d="M 838.1025 826.747826 
L 838.1025 7.2 
" clip-path="url(#peeb5b315a7)" style="fill: none; stroke: #dedede; stroke-linecap: square"/>
     </g>
     <g id="text_6">
      <!-- 100% -->
      <g transform="translate(826.666875 839.826576)scale(0.08 -0.08)">
       <defs>
        <path id="DejaVuSans-31" d="M 794 531 
L 1825 531 
L 1825 4091 
L 703 3866 
L 703 4441 
L 1819 4666 
L 2450 4666 
L 2450 531 
L 3481 531 
L 3481 0 
L 794 0 
L 794 531 
z
" transform="scale(0.015625)"/>
       </defs>
       <use xlink:href="#DejaVuSans-31"/>
       <use xlink:href="#DejaVuSans-30" x="63.623047"/>
       <use xlink:href="#DejaVuSans-30" x="127.246094"/>
       <use xlink:href="#DejaVuSans-25" x="190.869141"/>
      </g>
     </g>
    </g>
    <g id="text_7">
     <!-- # Reads -->
     <g transform="translate(426.554844 853.088764)scale(0.1 -0.1)">
      <defs>
       <path id="DejaVuSans-23" d="M 3272 2816 
L 2363 2816 
L 2100 1772 
L 3016 1772 
L 3272 2816 
z
M 2803 4594 
L 2478 3297 
L 3391 3297 
L 3719 4594 
L 4219 4594 
L 3897 3297 
L 4872 3297 
L 4872 2816 
L 3775 2816 
L 3519 1772 
L 4513 1772 
L 4513 1294 
L 3397 1294 
L 3072 0 
L 2572 0 
L 2894 1294 
L 1978 1294 
L 1656 0 
L 1153 0 
L 1478 1294 
L 494 1294 
L 494 1772 
L 1594 1772 
L 1856 2816 
L 850 2816 
L 850 3297 
L 1978 3297 
L 2297 4594 
L 2803 4594 
z
" transform="scale(0.015625)"/>
       <path id="DejaVuSans-20" transform="scale(0.015625)"/>
       <path id="DejaVuSans-52" d="M 2841 2188 
Q 3044 2119 3236 1894 
Q 3428 1669 3622 1275 
L 4263 0 
L 3584 0 
L 2988 1197 
Q 2756 1666 2539 1819 
Q 2322 1972 1947 1972 
L 1259 1972 
L 1259 0 
L 628 0 
L 628 4666 
L 2053 4666 
Q 2853 4666 3247 4331 
Q 3641 3997 3641 3322 
Q 3641 2881 3436 2590 
Q 3231 2300 2841 2188 
z
M 1259 4147 
L 1259 2491 
L 2053 2491 
Q 2509 2491 2742 2702 
Q 2975 2913 2975 3322 
Q 2975 3731 2742 3939 
Q 2509 4147 2053 4147 
L 1259 4147 
z
" transform="scale(0.015625)"/>
       <path id="DejaVuSans-65" d="M 3597 1894 
L 3597 1613 
L 953 1613 
Q 991 1019 1311 708 
Q 1631 397 2203 397 
Q 2534 397 2845 478 
Q 3156 559 3463 722 
L 3463 178 
Q 3153 47 2828 -22 
Q 2503 -91 2169 -91 
Q 1331 -91 842 396 
Q 353 884 353 1716 
Q 353 2575 817 3079 
Q 1281 3584 2069 3584 
Q 2775 3584 3186 3129 
Q 3597 2675 3597 1894 
z
M 3022 2063 
Q 3016 2534 2758 2815 
Q 2500 3097 2075 3097 
Q 1594 3097 1305 2825 
Q 1016 2553 972 2059 
L 3022 2063 
z
" transform="scale(0.015625)"/>
       <path id="DejaVuSans-61" d="M 2194 1759 
Q 1497 1759 1228 1600 
Q 959 1441 959 1056 
Q 959 750 1161 570 
Q 1363 391 1709 391 
Q 2188 391 2477 730 
Q 2766 1069 2766 1631 
L 2766 1759 
L 2194 1759 
z
M 3341 1997 
L 3341 0 
L 2766 0 
L 2766 531 
Q 2569 213 2275 61 
Q 1981 -91 1556 -91 
Q 1019 -91 701 211 
Q 384 513 384 1019 
Q 384 1609 779 1909 
Q 1175 2209 1959 2209 
L 2766 2209 
L 2766 2266 
Q 2766 2663 2505 2880 
Q 2244 3097 1772 3097 
Q 1472 3097 1187 3025 
Q 903 2953 641 2809 
L 641 3341 
Q 956 3463 1253 3523 
Q 1550 3584 1831 3584 
Q 2591 3584 2966 3190 
Q 3341 2797 3341 1997 
z
" transform="scale(0.015625)"/>
       <path id="DejaVuSans-64" d="M 2906 2969 
L 2906 4863 
L 3481 4863 
L 3481 0 
L 2906 0 
L 2906 525 
Q 2725 213 2448 61 
Q 2172 -91 1784 -91 
Q 1150 -91 751 415 
Q 353 922 353 1747 
Q 353 2572 751 3078 
Q 1150 3584 1784 3584 
Q 2172 3584 2448 3432 
Q 2725 3281 2906 2969 
z
M 947 1747 
Q 947 1113 1208 752 
Q 1469 391 1925 391 
Q 2381 391 2643 752 
Q 2906 1113 2906 1747 
Q 2906 2381 2643 2742 
Q 2381 3103 1925 3103 
Q 1469 3103 1208 2742 
Q 947 2381 947 1747 
z
" transform="scale(0.015625)"/>
       <path id="DejaVuSans-73" d="M 2834 3397 
L 2834 2853 
Q 2591 2978 2328 3040 
Q 2066 3103 1784 3103 
Q 1356 3103 1142 2972 
Q 928 2841 928 2578 
Q 928 2378 1081 2264 
Q 1234 2150 1697 2047 
L 1894 2003 
Q 2506 1872 2764 1633 
Q 3022 1394 3022 966 
Q 3022 478 2636 193 
Q 2250 -91 1575 -91 
Q 1294 -91 989 -36 
Q 684 19 347 128 
L 347 722 
Q 666 556 975 473 
Q 1284 391 1588 391 
Q 1994 391 2212 530 
Q 2431 669 2431 922 
Q 2431 1156 2273 1281 
Q 2116 1406 1581 1522 
L 1381 1569 
Q 847 1681 609 1914 
Q 372 2147 372 2553 
Q 372 3047 722 3315 
Q 1072 3584 1716 3584 
Q 2034 3584 2315 3537 
Q 2597 3491 2834 3397 
z
" transform="scale(0.015625)"/>
      </defs>
      <use xlink:href="#DejaVuSans-23"/>
      <use xlink:href="#DejaVuSans-20" x="83.789062"/>
      <use xlink:href="#DejaVuSans-52" x="115.576172"/>
      <use xlink:href="#DejaVuSans-65" x="180.558594"/>
      <use xlink:href="#DejaVuSans-61" x="242.082031"/>
      <use xlink:href="#DejaVuSans-64" x="303.361328"/>
      <use xlink:href="#DejaVuSans-73" x="366.837891"/>
     </g>
    </g>
   </g>
   <g id="matplotlib.axis_2">
    <g id="ytick_1">
     <g id="text_8">
      <!-- CTR2_1 -->
      <g transform="translate(19.69125 22.220924)scale(0.08 -0.08)">
       <defs>
        <path id="DejaVuSans-43" d="M 4122 4306 
L 4122 3641 
Q 3803 3938 3442 4084 
Q 3081 4231 2675 4231 
Q 1875 4231 1450 3742 
Q 1025 3253 1025 2328 
Q 1025 1406 1450 917 
Q 1875 428 2675 428 
Q 3081 428 3442 575 
Q 3803 722 4122 1019 
L 4122 359 
Q 3791 134 3420 21 
Q 3050 -91 2638 -91 
Q 1578 -91 968 557 
Q 359 1206 359 2328 
Q 359 3453 968 4101 
Q 1578 4750 2638 4750 
Q 3056 4750 3426 4639 
Q 3797 4528 4122 4306 
z
" transform="scale(0.015625)"/>
        <path id="DejaVuSans-54" d="M -19 4666 
L 3928 4666 
L 3928 4134 
L 2272 4134 
L 2272 0 
L 1638 0 
L 1638 4134 
L -19 4134 
L -19 4666 
z
" transform="scale(0.015625)"/>
        <path id="DejaVuSans-5f" d="M 3263 -1063 
L 3263 -1509 
L -63 -1509 
L -63 -1063 
L 3263 -1063 
z
" transform="scale(0.015625)"/>
       </defs>
       <use xlink:href="#DejaVuSans-43"/>
       <use xlink:href="#DejaVuSans-54" x="69.824219"/>
       <use xlink:href="#DejaVuSans-52" x="130.908203"/>
       <use xlink:href="#DejaVuSans-32" x="200.390625"/>
       <use xlink:href="#DejaVuSans-5f" x="264.013672"/>
       <use xlink:href="#DejaVuSans-31" x="314.013672"/>
      </g>
     </g>
    </g>
    <g id="ytick_2">
     <g id="text_9">
      <!-- CTR3_1 -->
      <g transform="translate(19.69125 46.325272)scale(0.08 -0.08)">
       <defs>
        <path id="DejaVuSans-33" d="M 2597 2516 
Q 3050 2419 3304 2112 
Q 3559 1806 3559 1356 
Q 3559 666 3084 287 
Q 2609 -91 1734 -91 
Q 1441 -91 1130 -33 
Q 819 25 488 141 
L 488 750 
Q 750 597 1062 519 
Q 1375 441 1716 441 
Q 2309 441 2620 675 
Q 2931 909 2931 1356 
Q 2931 1769 2642 2001 
Q 2353 2234 1838 2234 
L 1294 2234 
L 1294 2753 
L 1863 2753 
Q 2328 2753 2575 2939 
Q 2822 3125 2822 3475 
Q 2822 3834 2567 4026 
Q 2313 4219 1838 4219 
Q 1578 4219 1281 4162 
Q 984 4106 628 3988 
L 628 4550 
Q 988 4650 1302 4700 
Q 1616 4750 1894 4750 
Q 2613 4750 3031 4423 
Q 3450 4097 3450 3541 
Q 3450 3153 3228 2886 
Q 3006 2619 2597 2516 
z
" transform="scale(0.015625)"/>
       </defs>
       <use xlink:href="#DejaVuSans-43"/>
       <use xlink:href="#DejaVuSans-54" x="69.824219"/>
       <use xlink:href="#DejaVuSans-52" x="130.908203"/>
       <use xlink:href="#DejaVuSans-33" x="200.390625"/>
       <use xlink:href="#DejaVuSans-5f" x="264.013672"/>
       <use xlink:href="#DejaVuSans-31" x="314.013672"/>
      </g>
     </g>
    </g>
    <g id="ytick_3">
     <g id="text_10">
      <!-- CTR4_1 -->
      <g transform="translate(19.69125 70.42962)scale(0.08 -0.08)">
       <use xlink:href="#DejaVuSans-43"/>
       <use xlink:href="#DejaVuSans-54" x="69.824219"/>
       <use xlink:href="#DejaVuSans-52" x="130.908203"/>
       <use xlink:href="#DejaVuSans-34" x="200.390625"/>
       <use xlink:href="#DejaVuSans-5f" x="264.013672"/>
       <use xlink:href="#DejaVuSans-31" x="314.013672"/>
      </g>
     </g>
    </g>
    <g id="ytick_4">
     <g id="text_11">
      <!-- CTR5_1 -->
      <g transform="translate(19.69125 94.533967)scale(0.08 -0.08)">
       <defs>
        <path id="DejaVuSans-35" d="M 691 4666 
L 3169 4666 
L 3169 4134 
L 1269 4134 
L 1269 2991 
Q 1406 3038 1543 3061 
Q 1681 3084 1819 3084 
Q 2600 3084 3056 2656 
Q 3513 2228 3513 1497 
Q 3513 744 3044 326 
Q 2575 -91 1722 -91 
Q 1428 -91 1123 -41 
Q 819 9 494 109 
L 494 744 
Q 775 591 1075 516 
Q 1375 441 1709 441 
Q 2250 441 2565 725 
Q 2881 1009 2881 1497 
Q 2881 1984 2565 2268 
Q 2250 2553 1709 2553 
Q 1456 2553 1204 2497 
Q 953 2441 691 2322 
L 691 4666 
z
" transform="scale(0.015625)"/>
       </defs>
       <use xlink:href="#DejaVuSans-43"/>
       <use xlink:href="#DejaVuSans-54" x="69.824219"/>
       <use xlink:href="#DejaVuSans-52" x="130.908203"/>
       <use xlink:href="#DejaVuSans-35" x="200.390625"/>
       <use xlink:href="#DejaVuSans-5f" x="264.013672"/>
       <use xlink:href="#DejaVuSans-31" x="314.013672"/>
      </g>
     </g>
    </g>
    <g id="ytick_5">
     <g id="text_12">
      <!-- CTR6_1 -->
      <g transform="translate(19.69125 118.638315)scale(0.08 -0.08)">
       <use xlink:href="#DejaVuSans-43"/>
       <use xlink:href="#DejaVuSans-54" x="69.824219"/>
       <use xlink:href="#DejaVuSans-52" x="130.908203"/>
       <use xlink:href="#DejaVuSans-36" x="200.390625"/>
       <use xlink:href="#DejaVuSans-5f" x="264.013672"/>
       <use xlink:href="#DejaVuSans-31" x="314.013672"/>
      </g>
     </g>
    </g>
    <g id="ytick_6">
     <g id="text_13">
      <!-- C_1 -->
      <g transform="translate(35.22625 142.742663)scale(0.08 -0.08)">
       <use xlink:href="#DejaVuSans-43"/>
       <use xlink:href="#DejaVuSans-5f" x="69.824219"/>
       <use xlink:href="#DejaVuSans-31" x="119.824219"/>
      </g>
     </g>
    </g>
    <g id="ytick_7">
     <g id="text_14">
      <!-- GEMTX1_1 -->
      <g transform="translate(7.2 166.847011)scale(0.08 -0.08)">
       <defs>
        <path id="DejaVuSans-47" d="M 3809 666 
L 3809 1919 
L 2778 1919 
L 2778 2438 
L 4434 2438 
L 4434 434 
Q 4069 175 3628 42 
Q 3188 -91 2688 -91 
Q 1594 -91 976 548 
Q 359 1188 359 2328 
Q 359 3472 976 4111 
Q 1594 4750 2688 4750 
Q 3144 4750 3555 4637 
Q 3966 4525 4313 4306 
L 4313 3634 
Q 3963 3931 3569 4081 
Q 3175 4231 2741 4231 
Q 1884 4231 1454 3753 
Q 1025 3275 1025 2328 
Q 1025 1384 1454 906 
Q 1884 428 2741 428 
Q 3075 428 3337 486 
Q 3600 544 3809 666 
z
" transform="scale(0.015625)"/>
        <path id="DejaVuSans-45" d="M 628 4666 
L 3578 4666 
L 3578 4134 
L 1259 4134 
L 1259 2753 
L 3481 2753 
L 3481 2222 
L 1259 2222 
L 1259 531 
L 3634 531 
L 3634 0 
L 628 0 
L 628 4666 
z
" transform="scale(0.015625)"/>
        <path id="DejaVuSans-4d" d="M 628 4666 
L 1569 4666 
L 2759 1491 
L 3956 4666 
L 4897 4666 
L 4897 0 
L 4281 0 
L 4281 4097 
L 3078 897 
L 2444 897 
L 1241 4097 
L 1241 0 
L 628 0 
L 628 4666 
z
" transform="scale(0.015625)"/>
        <path id="DejaVuSans-58" d="M 403 4666 
L 1081 4666 
L 2241 2931 
L 3406 4666 
L 4084 4666 
L 2584 2425 
L 4184 0 
L 3506 0 
L 2194 1984 
L 872 0 
L 191 0 
L 1856 2491 
L 403 4666 
z
" transform="scale(0.015625)"/>
       </defs>
       <use xlink:href="#DejaVuSans-47"/>
       <use xlink:href="#DejaVuSans-45" x="77.490234"/>
       <use xlink:href="#DejaVuSans-4d" x="140.673828"/>
       <use xlink:href="#DejaVuSans-54" x="226.953125"/>
       <use xlink:href="#DejaVuSans-58" x="288.037109"/>
       <use xlink:href="#DejaVuSans-31" x="356.542969"/>
       <use xlink:href="#DejaVuSans-5f" x="420.166016"/>
       <use xlink:href="#DejaVuSans-31" x="470.166016"/>
      </g>
     </g>
    </g>
    <g id="ytick_8">
     <g id="text_15">
      <!-- GEMTX2_1 -->
      <g transform="translate(7.2 190.951359)scale(0.08 -0.08)">
       <use xlink:href="#DejaVuSans-47"/>
       <use xlink:href="#DejaVuSans-45" x="77.490234"/>
       <use xlink:href="#DejaVuSans-4d" x="140.673828"/>
       <use xlink:href="#DejaVuSans-54" x="226.953125"/>
       <use xlink:href="#DejaVuSans-58" x="288.037109"/>
       <use xlink:href="#DejaVuSans-32" x="356.542969"/>
       <use xlink:href="#DejaVuSans-5f" x="420.166016"/>
       <use xlink:href="#DejaVuSans-31" x="470.166016"/>
      </g>
     </g>
    </g>
    <g id="ytick_9">
     <g id="text_16">
      <!-- GEMTX3_1 -->
      <g transform="translate(7.2 215.055707)scale(0.08 -0.08)">
       <use xlink:href="#DejaVuSans-47"/>
       <use xlink:href="#DejaVuSans-45" x="77.490234"/>
       <use xlink:href="#DejaVuSans-4d" x="140.673828"/>
       <use xlink:href="#DejaVuSans-54" x="226.953125"/>
       <use xlink:href="#DejaVuSans-58" x="288.037109"/>
       <use xlink:href="#DejaVuSans-33" x="356.542969"/>
       <use xlink:href="#DejaVuSans-5f" x="420.166016"/>
       <use xlink:href="#DejaVuSans-31" x="470.166016"/>
      </g>
     </g>
    </g>
    <g id="ytick_10">
     <g id="text_17">
      <!-- GEMTX5_1 -->
      <g transform="translate(7.2 239.160054)scale(0.08 -0.08)">
       <use xlink:href="#DejaVuSans-47"/>
       <use xlink:href="#DejaVuSans-45" x="77.490234"/>
       <use xlink:href="#DejaVuSans-4d" x="140.673828"/>
       <use xlink:href="#DejaVuSans-54" x="226.953125"/>
       <use xlink:href="#DejaVuSans-58" x="288.037109"/>
       <use xlink:href="#DejaVuSans-35" x="356.542969"/>
       <use xlink:href="#DejaVuSans-5f" x="420.166016"/>
       <use xlink:href="#DejaVuSans-31" x="470.166016"/>
      </g>
     </g>
    </g>
    <g id="ytick_11">
     <g id="text_18">
      <!-- GEMTX6_1 -->
      <g transform="translate(7.2 263.264402)scale(0.08 -0.08)">
       <use xlink:href="#DejaVuSans-47"/>
       <use xlink:href="#DejaVuSans-45" x="77.490234"/>
       <use xlink:href="#DejaVuSans-4d" x="140.673828"/>
       <use xlink:href="#DejaVuSans-54" x="226.953125"/>
       <use xlink:href="#DejaVuSans-58" x="288.037109"/>
       <use xlink:href="#DejaVuSans-36" x="356.542969"/>
       <use xlink:href="#DejaVuSans-5f" x="420.166016"/>
       <use xlink:href="#DejaVuSans-31" x="470.166016"/>
      </g>
     </g>
    </g>
    <g id="ytick_12">
     <g id="text_19">
      <!-- SIM1_1 -->
      <g transform="translate(21.38125 287.36875)scale(0.08 -0.08)">
       <defs>
        <path id="DejaVuSans-53" d="M 3425 4513 
L 3425 3897 
Q 3066 4069 2747 4153 
Q 2428 4238 2131 4238 
Q 1616 4238 1336 4038 
Q 1056 3838 1056 3469 
Q 1056 3159 1242 3001 
Q 1428 2844 1947 2747 
L 2328 2669 
Q 3034 2534 3370 2195 
Q 3706 1856 3706 1288 
Q 3706 609 3251 259 
Q 2797 -91 1919 -91 
Q 1588 -91 1214 -16 
Q 841 59 441 206 
L 441 856 
Q 825 641 1194 531 
Q 1563 422 1919 422 
Q 2459 422 2753 634 
Q 3047 847 3047 1241 
Q 3047 1584 2836 1778 
Q 2625 1972 2144 2069 
L 1759 2144 
Q 1053 2284 737 2584 
Q 422 2884 422 3419 
Q 422 4038 858 4394 
Q 1294 4750 2059 4750 
Q 2388 4750 2728 4690 
Q 3069 4631 3425 4513 
z
" transform="scale(0.015625)"/>
        <path id="DejaVuSans-49" d="M 628 4666 
L 1259 4666 
L 1259 0 
L 628 0 
L 628 4666 
z
" transform="scale(0.015625)"/>
       </defs>
       <use xlink:href="#DejaVuSans-53"/>
       <use xlink:href="#DejaVuSans-49" x="63.476562"/>
       <use xlink:href="#DejaVuSans-4d" x="92.96875"/>
       <use xlink:href="#DejaVuSans-31" x="179.248047"/>
       <use xlink:href="#DejaVuSans-5f" x="242.871094"/>
       <use xlink:href="#DejaVuSans-31" x="292.871094"/>
      </g>
     </g>
    </g>
    <g id="ytick_13">
     <g id="text_20">
      <!-- SIM2_1 -->
      <g transform="translate(21.38125 311.473098)scale(0.08 -0.08)">
       <use xlink:href="#DejaVuSans-53"/>
       <use xlink:href="#DejaVuSans-49" x="63.476562"/>
       <use xlink:href="#DejaVuSans-4d" x="92.96875"/>
       <use xlink:href="#DejaVuSans-32" x="179.248047"/>
       <use xlink:href="#DejaVuSans-5f" x="242.871094"/>
       <use xlink:href="#DejaVuSans-31" x="292.871094"/>
      </g>
     </g>
    </g>
    <g id="ytick_14">
     <g id="text_21">
      <!-- SIM3_1 -->
      <g transform="translate(21.38125 335.577446)scale(0.08 -0.08)">
       <use xlink:href="#DejaVuSans-53"/>
       <use xlink:href="#DejaVuSans-49" x="63.476562"/>
       <use xlink:href="#DejaVuSans-4d" x="92.96875"/>
       <use xlink:href="#DejaVuSans-33" x="179.248047"/>
       <use xlink:href="#DejaVuSans-5f" x="242.871094"/>
       <use xlink:href="#DejaVuSans-31" x="292.871094"/>
      </g>
     </g>
    </g>
    <g id="ytick_15">
     <g id="text_22">
      <!-- SIM4_1 -->
      <g transform="translate(21.38125 359.681793)scale(0.08 -0.08)">
       <use xlink:href="#DejaVuSans-53"/>
       <use xlink:href="#DejaVuSans-49" x="63.476562"/>
       <use xlink:href="#DejaVuSans-4d" x="92.96875"/>
       <use xlink:href="#DejaVuSans-34" x="179.248047"/>
       <use xlink:href="#DejaVuSans-5f" x="242.871094"/>
       <use xlink:href="#DejaVuSans-31" x="292.871094"/>
      </g>
     </g>
    </g>
    <g id="ytick_16">
     <g id="text_23">
      <!-- SIM5_1 -->
      <g transform="translate(21.38125 383.786141)scale(0.08 -0.08)">
       <use xlink:href="#DejaVuSans-53"/>
       <use xlink:href="#DejaVuSans-49" x="63.476562"/>
       <use xlink:href="#DejaVuSans-4d" x="92.96875"/>
       <use xlink:href="#DejaVuSans-35" x="179.248047"/>
       <use xlink:href="#DejaVuSans-5f" x="242.871094"/>
       <use xlink:href="#DejaVuSans-31" x="292.871094"/>
      </g>
     </g>
    </g>
    <g id="ytick_17">
     <g id="text_24">
      <!-- SIM6_1 -->
      <g transform="translate(21.38125 407.890489)scale(0.08 -0.08)">
       <use xlink:href="#DejaVuSans-53"/>
       <use xlink:href="#DejaVuSans-49" x="63.476562"/>
       <use xlink:href="#DejaVuSans-4d" x="92.96875"/>
       <use xlink:href="#DejaVuSans-36" x="179.248047"/>
       <use xlink:href="#DejaVuSans-5f" x="242.871094"/>
       <use xlink:href="#DejaVuSans-31" x="292.871094"/>
      </g>
     </g>
    </g>
    <g id="ytick_18">
     <g id="text_25">
      <!-- VPA1_1 -->
      <g transform="translate(20.46375 431.954212)scale(0.08 -0.08)">
       <defs>
        <path id="DejaVuSans-56" d="M 1831 0 
L 50 4666 
L 709 4666 
L 2188 738 
L 3669 4666 
L 4325 4666 
L 2547 0 
L 1831 0 
z
" transform="scale(0.015625)"/>
        <path id="DejaVuSans-50" d="M 1259 4147 
L 1259 2394 
L 2053 2394 
Q 2494 2394 2734 2622 
Q 2975 2850 2975 3272 
Q 2975 3691 2734 3919 
Q 2494 4147 2053 4147 
L 1259 4147 
z
M 628 4666 
L 2053 4666 
Q 2838 4666 3239 4311 
Q 3641 3956 3641 3272 
Q 3641 2581 3239 2228 
Q 2838 1875 2053 1875 
L 1259 1875 
L 1259 0 
L 628 0 
L 628 4666 
z
" transform="scale(0.015625)"/>
        <path id="DejaVuSans-41" d="M 2188 4044 
L 1331 1722 
L 3047 1722 
L 2188 4044 
z
M 1831 4666 
L 2547 4666 
L 4325 0 
L 3669 0 
L 3244 1197 
L 1141 1197 
L 716 0 
L 50 0 
L 1831 4666 
z
" transform="scale(0.015625)"/>
       </defs>
       <use xlink:href="#DejaVuSans-56"/>
       <use xlink:href="#DejaVuSans-50" x="68.408203"/>
       <use xlink:href="#DejaVuSans-41" x="122.335938"/>
       <use xlink:href="#DejaVuSans-31" x="190.744141"/>
       <use xlink:href="#DejaVuSans-5f" x="254.367188"/>
       <use xlink:href="#DejaVuSans-31" x="304.367188"/>
      </g>
     </g>
    </g>
    <g id="ytick_19">
     <g id="text_26">
      <!-- VPA2_1 -->
      <g transform="translate(20.46375 456.099185)scale(0.08 -0.08)">
       <use xlink:href="#DejaVuSans-56"/>
       <use xlink:href="#DejaVuSans-50" x="68.408203"/>
       <use xlink:href="#DejaVuSans-41" x="122.335938"/>
       <use xlink:href="#DejaVuSans-32" x="190.744141"/>
       <use xlink:href="#DejaVuSans-5f" x="254.367188"/>
       <use xlink:href="#DejaVuSans-31" x="304.367188"/>
      </g>
     </g>
    </g>
    <g id="ytick_20">
     <g id="text_27">
      <!-- VPA3_1 -->
      <g transform="translate(20.46375 480.203533)scale(0.08 -0.08)">
       <use xlink:href="#DejaVuSans-56"/>
       <use xlink:href="#DejaVuSans-50" x="68.408203"/>
       <use xlink:href="#DejaVuSans-41" x="122.335938"/>
       <use xlink:href="#DejaVuSans-33" x="190.744141"/>
       <use xlink:href="#DejaVuSans-5f" x="254.367188"/>
       <use xlink:href="#DejaVuSans-31" x="304.367188"/>
      </g>
     </g>
    </g>
    <g id="ytick_21">
     <g id="text_28">
      <!-- VPA4_1 -->
      <g transform="translate(20.46375 504.267255)scale(0.08 -0.08)">
       <use xlink:href="#DejaVuSans-56"/>
       <use xlink:href="#DejaVuSans-50" x="68.408203"/>
       <use xlink:href="#DejaVuSans-41" x="122.335938"/>
       <use xlink:href="#DejaVuSans-34" x="190.744141"/>
       <use xlink:href="#DejaVuSans-5f" x="254.367188"/>
       <use xlink:href="#DejaVuSans-31" x="304.367188"/>
      </g>
     </g>
    </g>
    <g id="ytick_22">
     <g id="text_29">
      <!-- VPA5_1 -->
      <g transform="translate(20.46375 528.371603)scale(0.08 -0.08)">
       <use xlink:href="#DejaVuSans-56"/>
       <use xlink:href="#DejaVuSans-50" x="68.408203"/>
       <use xlink:href="#DejaVuSans-41" x="122.335938"/>
       <use xlink:href="#DejaVuSans-35" x="190.744141"/>
       <use xlink:href="#DejaVuSans-5f" x="254.367188"/>
       <use xlink:href="#DejaVuSans-31" x="304.367188"/>
      </g>
     </g>
    </g>
    <g id="ytick_23">
     <g id="text_30">
      <!-- VPA6_1 -->
      <g transform="translate(20.46375 552.516576)scale(0.08 -0.08)">
       <use xlink:href="#DejaVuSans-56"/>
       <use xlink:href="#DejaVuSans-50" x="68.408203"/>
       <use xlink:href="#DejaVuSans-41" x="122.335938"/>
       <use xlink:href="#DejaVuSans-36" x="190.744141"/>
       <use xlink:href="#DejaVuSans-5f" x="254.367188"/>
       <use xlink:href="#DejaVuSans-31" x="304.367188"/>
      </g>
     </g>
    </g>
    <g id="ytick_24">
     <g id="text_31">
      <!-- VPASM1_1 -->
      <g transform="translate(8.4825 576.620924)scale(0.08 -0.08)">
       <use xlink:href="#DejaVuSans-56"/>
       <use xlink:href="#DejaVuSans-50" x="68.408203"/>
       <use xlink:href="#DejaVuSans-41" x="122.335938"/>
       <use xlink:href="#DejaVuSans-53" x="190.744141"/>
       <use xlink:href="#DejaVuSans-4d" x="254.220703"/>
       <use xlink:href="#DejaVuSans-31" x="340.5"/>
       <use xlink:href="#DejaVuSans-5f" x="404.123047"/>
       <use xlink:href="#DejaVuSans-31" x="454.123047"/>
      </g>
     </g>
    </g>
    <g id="ytick_25">
     <g id="text_32">
      <!-- VPASM2_1 -->
      <g transform="translate(8.4825 600.725272)scale(0.08 -0.08)">
       <use xlink:href="#DejaVuSans-56"/>
       <use xlink:href="#DejaVuSans-50" x="68.408203"/>
       <use xlink:href="#DejaVuSans-41" x="122.335938"/>
       <use xlink:href="#DejaVuSans-53" x="190.744141"/>
       <use xlink:href="#DejaVuSans-4d" x="254.220703"/>
       <use xlink:href="#DejaVuSans-32" x="340.5"/>
       <use xlink:href="#DejaVuSans-5f" x="404.123047"/>
       <use xlink:href="#DejaVuSans-31" x="454.123047"/>
      </g>
     </g>
    </g>
    <g id="ytick_26">
     <g id="text_33">
      <!-- VPASM3_1 -->
      <g transform="translate(8.4825 624.82962)scale(0.08 -0.08)">
       <use xlink:href="#DejaVuSans-56"/>
       <use xlink:href="#DejaVuSans-50" x="68.408203"/>
       <use xlink:href="#DejaVuSans-41" x="122.335938"/>
       <use xlink:href="#DejaVuSans-53" x="190.744141"/>
       <use xlink:href="#DejaVuSans-4d" x="254.220703"/>
       <use xlink:href="#DejaVuSans-33" x="340.5"/>
       <use xlink:href="#DejaVuSans-5f" x="404.123047"/>
       <use xlink:href="#DejaVuSans-31" x="454.123047"/>
      </g>
     </g>
    </g>
    <g id="ytick_27">
     <g id="text_34">
      <!-- VPASM5_1 -->
      <g transform="translate(8.4825 648.933967)scale(0.08 -0.08)">
       <use xlink:href="#DejaVuSans-56"/>
       <use xlink:href="#DejaVuSans-50" x="68.408203"/>
       <use xlink:href="#DejaVuSans-41" x="122.335938"/>
       <use xlink:href="#DejaVuSans-53" x="190.744141"/>
       <use xlink:href="#DejaVuSans-4d" x="254.220703"/>
       <use xlink:href="#DejaVuSans-35" x="340.5"/>
       <use xlink:href="#DejaVuSans-5f" x="404.123047"/>
       <use xlink:href="#DejaVuSans-31" x="454.123047"/>
      </g>
     </g>
    </g>
    <g id="ytick_28">
     <g id="text_35">
      <!-- VPASM6_1 -->
      <g transform="translate(8.4825 673.038315)scale(0.08 -0.08)">
       <use xlink:href="#DejaVuSans-56"/>
       <use xlink:href="#DejaVuSans-50" x="68.408203"/>
       <use xlink:href="#DejaVuSans-41" x="122.335938"/>
       <use xlink:href="#DejaVuSans-53" x="190.744141"/>
       <use xlink:href="#DejaVuSans-4d" x="254.220703"/>
       <use xlink:href="#DejaVuSans-36" x="340.5"/>
       <use xlink:href="#DejaVuSans-5f" x="404.123047"/>
       <use xlink:href="#DejaVuSans-31" x="454.123047"/>
      </g>
     </g>
    </g>
    <g id="ytick_29">
     <g id="text_36">
      <!-- VSGTX1_1 -->
      <g transform="translate(8.89625 697.142663)scale(0.08 -0.08)">
       <use xlink:href="#DejaVuSans-56"/>
       <use xlink:href="#DejaVuSans-53" x="68.408203"/>
       <use xlink:href="#DejaVuSans-47" x="131.884766"/>
       <use xlink:href="#DejaVuSans-54" x="205.75"/>
       <use xlink:href="#DejaVuSans-58" x="266.833984"/>
       <use xlink:href="#DejaVuSans-31" x="335.339844"/>
       <use xlink:href="#DejaVuSans-5f" x="398.962891"/>
       <use xlink:href="#DejaVuSans-31" x="448.962891"/>
      </g>
     </g>
    </g>
    <g id="ytick_30">
     <g id="text_37">
      <!-- VSGTX2_1 -->
      <g transform="translate(8.89625 721.247011)scale(0.08 -0.08)">
       <use xlink:href="#DejaVuSans-56"/>
       <use xlink:href="#DejaVuSans-53" x="68.408203"/>
       <use xlink:href="#DejaVuSans-47" x="131.884766"/>
       <use xlink:href="#DejaVuSans-54" x="205.75"/>
       <use xlink:href="#DejaVuSans-58" x="266.833984"/>
       <use xlink:href="#DejaVuSans-32" x="335.339844"/>
       <use xlink:href="#DejaVuSans-5f" x="398.962891"/>
       <use xlink:href="#DejaVuSans-31" x="448.962891"/>
      </g>
     </g>
    </g>
    <g id="ytick_31">
     <g id="text_38">
      <!-- VSGTX3_1 -->
      <g transform="translate(8.89625 745.351359)scale(0.08 -0.08)">
       <use xlink:href="#DejaVuSans-56"/>
       <use xlink:href="#DejaVuSans-53" x="68.408203"/>
       <use xlink:href="#DejaVuSans-47" x="131.884766"/>
       <use xlink:href="#DejaVuSans-54" x="205.75"/>
       <use xlink:href="#DejaVuSans-58" x="266.833984"/>
       <use xlink:href="#DejaVuSans-33" x="335.339844"/>
       <use xlink:href="#DejaVuSans-5f" x="398.962891"/>
       <use xlink:href="#DejaVuSans-31" x="448.962891"/>
      </g>
     </g>
    </g>
    <g id="ytick_32">
     <g id="text_39">
      <!-- VSGTX4_1 -->
      <g transform="translate(8.89625 769.455707)scale(0.08 -0.08)">
       <use xlink:href="#DejaVuSans-56"/>
       <use xlink:href="#DejaVuSans-53" x="68.408203"/>
       <use xlink:href="#DejaVuSans-47" x="131.884766"/>
       <use xlink:href="#DejaVuSans-54" x="205.75"/>
       <use xlink:href="#DejaVuSans-58" x="266.833984"/>
       <use xlink:href="#DejaVuSans-34" x="335.339844"/>
       <use xlink:href="#DejaVuSans-5f" x="398.962891"/>
       <use xlink:href="#DejaVuSans-31" x="448.962891"/>
      </g>
     </g>
    </g>
    <g id="ytick_33">
     <g id="text_40">
      <!-- VSGTX5_1 -->
      <g transform="translate(8.89625 793.560054)scale(0.08 -0.08)">
       <use xlink:href="#DejaVuSans-56"/>
       <use xlink:href="#DejaVuSans-53" x="68.408203"/>
       <use xlink:href="#DejaVuSans-47" x="131.884766"/>
       <use xlink:href="#DejaVuSans-54" x="205.75"/>
       <use xlink:href="#DejaVuSans-58" x="266.833984"/>
       <use xlink:href="#DejaVuSans-35" x="335.339844"/>
       <use xlink:href="#DejaVuSans-5f" x="398.962891"/>
       <use xlink:href="#DejaVuSans-31" x="448.962891"/>
      </g>
     </g>
    </g>
    <g id="ytick_34">
     <g id="text_41">
      <!-- VSGTX6_1 -->
      <g transform="translate(8.89625 817.664402)scale(0.08 -0.08)">
       <use xlink:href="#DejaVuSans-56"/>
       <use xlink:href="#DejaVuSans-53" x="68.408203"/>
       <use xlink:href="#DejaVuSans-47" x="131.884766"/>
       <use xlink:href="#DejaVuSans-54" x="205.75"/>
       <use xlink:href="#DejaVuSans-58" x="266.833984"/>
       <use xlink:href="#DejaVuSans-36" x="335.339844"/>
       <use xlink:href="#DejaVuSans-5f" x="398.962891"/>
       <use xlink:href="#DejaVuSans-31" x="448.962891"/>
      </g>
     </g>
    </g>
   </g>
   <g id="patch_2">
    <path d="M 56.9025 9.610435 
L 515.261904 9.610435 
L 515.261904 28.893913 
L 56.9025 28.893913 
z
" clip-path="url(#peeb5b315a7)" style="fill: #006837"/>
   </g>
   <g id="patch_3">
    <path d="M 56.9025 33.714783 
L 465.602127 33.714783 
L 465.602127 52.998261 
L 56.9025 52.998261 
z
" clip-path="url(#peeb5b315a7)" style="fill: #006837"/>
   </g>
   <g id="patch_4">
    <path d="M 56.9025 57.81913 
L 491.751624 57.81913 
L 491.751624 77.102609 
L 56.9025 77.102609 
z
" clip-path="url(#peeb5b315a7)" style="fill: #006837"/>
   </g>
   <g id="patch_5">
    <path d="M 56.9025 81.923478 
L 499.689697 81.923478 
L 499.689697 101.206957 
L 56.9025 101.206957 
z
" clip-path="url(#peeb5b315a7)" style="fill: #006837"/>
   </g>
   <g id="patch_6">
    <path d="M 56.9025 106.027826 
L 481.047794 106.027826 
L 481.047794 125.311304 
L 56.9025 125.311304 
z
" clip-path="url(#peeb5b315a7)" style="fill: #006837"/>
   </g>
   <g id="patch_7">
    <path d="M 56.9025 130.132174 
L 488.840698 130.132174 
L 488.840698 149.415652 
L 56.9025 149.415652 
z
" clip-path="url(#peeb5b315a7)" style="fill: #006837"/>
   </g>
   <g id="patch_8">
    <path d="M 56.9025 154.236522 
L 481.147445 154.236522 
L 481.147445 173.52 
L 56.9025 173.52 
z
" clip-path="url(#peeb5b315a7)" style="fill: #006837"/>
   </g>
   <g id="patch_9">
    <path d="M 56.9025 178.34087 
L 518.59106 178.34087 
L 518.59106 197.624348 
L 56.9025 197.624348 
z
" clip-path="url(#peeb5b315a7)" style="fill: #006837"/>
   </g>
   <g id="patch_10">
    <path d="M 56.9025 202.445217 
L 464.188046 202.445217 
L 464.188046 221.728696 
L 56.9025 221.728696 
z
" clip-path="url(#peeb5b315a7)" style="fill: #006837"/>
   </g>
   <g id="patch_11">
    <path d="M 56.9025 226.549565 
L 462.994238 226.549565 
L 462.994238 245.833043 
L 56.9025 245.833043 
z
" clip-path="url(#peeb5b315a7)" style="fill: #006837"/>
   </g>
   <g id="patch_12">
    <path d="M 56.9025 250.653913 
L 496.382252 250.653913 
L 496.382252 269.937391 
L 56.9025 269.937391 
z
" clip-path="url(#peeb5b315a7)" style="fill: #006837"/>
   </g>
   <g id="patch_13">
    <path d="M 56.9025 274.758261 
L 442.401579 274.758261 
L 442.401579 294.041739 
L 56.9025 294.041739 
z
" clip-path="url(#peeb5b315a7)" style="fill: #006837"/>
   </g>
   <g id="patch_14">
    <path d="M 56.9025 298.862609 
L 448.504362 298.862609 
L 448.504362 318.146087 
L 56.9025 318.146087 
z
" clip-path="url(#peeb5b315a7)" style="fill: #006837"/>
   </g>
   <g id="patch_15">
    <path d="M 56.9025 322.966957 
L 445.293437 322.966957 
L 445.293437 342.250435 
L 56.9025 342.250435 
z
" clip-path="url(#peeb5b315a7)" style="fill: #006837"/>
   </g>
   <g id="patch_16">
    <path d="M 56.9025 347.071304 
L 455.042717 347.071304 
L 455.042717 366.354783 
L 56.9025 366.354783 
z
" clip-path="url(#peeb5b315a7)" style="fill: #006837"/>
   </g>
   <g id="patch_17">
    <path d="M 56.9025 371.175652 
L 465.873821 371.175652 
L 465.873821 390.45913 
L 56.9025 390.45913 
z
" clip-path="url(#peeb5b315a7)" style="fill: #006837"/>
   </g>
   <g id="patch_18">
    <path d="M 56.9025 395.28 
L 470.533532 395.28 
L 470.533532 414.563478 
L 56.9025 414.563478 
z
" clip-path="url(#peeb5b315a7)" style="fill: #006837"/>
   </g>
   <g id="patch_19">
    <path d="M 56.9025 419.384348 
L 480.230577 419.384348 
L 480.230577 438.667826 
L 56.9025 438.667826 
z
" clip-path="url(#peeb5b315a7)" style="fill: #006837"/>
   </g>
   <g id="patch_20">
    <path d="M 56.9025 443.488696 
L 464.918992 443.488696 
L 464.918992 462.772174 
L 56.9025 462.772174 
z
" clip-path="url(#peeb5b315a7)" style="fill: #006837"/>
   </g>
   <g id="patch_21">
    <path d="M 56.9025 467.593043 
L 433.605651 467.593043 
L 433.605651 486.876522 
L 56.9025 486.876522 
z
" clip-path="url(#peeb5b315a7)" style="fill: #006837"/>
   </g>
   <g id="patch_22">
    <path d="M 56.9025 491.697391 
L 459.658001 491.697391 
L 459.658001 510.98087 
L 56.9025 510.98087 
z
" clip-path="url(#peeb5b315a7)" style="fill: #006837"/>
   </g>
   <g id="patch_23">
    <path d="M 56.9025 515.801739 
L 426.817588 515.801739 
L 426.817588 535.085217 
L 56.9025 535.085217 
z
" clip-path="url(#peeb5b315a7)" style="fill: #006837"/>
   </g>
   <g id="patch_24">
    <path d="M 56.9025 539.906087 
L 486.014032 539.906087 
L 486.014032 559.189565 
L 56.9025 559.189565 
z
" clip-path="url(#peeb5b315a7)" style="fill: #006837"/>
   </g>
   <g id="patch_25">
    <path d="M 56.9025 564.010435 
L 528.524521 564.010435 
L 528.524521 583.293913 
L 56.9025 583.293913 
z
" clip-path="url(#peeb5b315a7)" style="fill: #006837"/>
   </g>
   <g id="patch_26">
    <path d="M 56.9025 588.114783 
L 478.495607 588.114783 
L 478.495607 607.398261 
L 56.9025 607.398261 
z
" clip-path="url(#peeb5b315a7)" style="fill: #006837"/>
   </g>
   <g id="patch_27">
    <path d="M 56.9025 612.21913 
L 471.925009 612.21913 
L 471.925009 631.502609 
L 56.9025 631.502609 
z
" clip-path="url(#peeb5b315a7)" style="fill: #006837"/>
   </g>
   <g id="patch_28">
    <path d="M 56.9025 636.323478 
L 491.747803 636.323478 
L 491.747803 655.606957 
L 56.9025 655.606957 
z
" clip-path="url(#peeb5b315a7)" style="fill: #006837"/>
   </g>
   <g id="patch_29">
    <path d="M 56.9025 660.427826 
L 460.793998 660.427826 
L 460.793998 679.711304 
L 56.9025 679.711304 
z
" clip-path="url(#peeb5b315a7)" style="fill: #006837"/>
   </g>
   <g id="patch_30">
    <path d="M 56.9025 684.532174 
L 485.502953 684.532174 
L 485.502953 703.815652 
L 56.9025 703.815652 
z
" clip-path="url(#peeb5b315a7)" style="fill: #006837"/>
   </g>
   <g id="patch_31">
    <path d="M 56.9025 708.636522 
L 552.099893 708.636522 
L 552.099893 727.92 
L 56.9025 727.92 
z
" clip-path="url(#peeb5b315a7)" style="fill: #006837"/>
   </g>
   <g id="patch_32">
    <path d="M 56.9025 732.74087 
L 485.520071 732.74087 
L 485.520071 752.024348 
L 56.9025 752.024348 
z
" clip-path="url(#peeb5b315a7)" style="fill: #006837"/>
   </g>
   <g id="patch_33">
    <path d="M 56.9025 756.845217 
L 522.705067 756.845217 
L 522.705067 776.128696 
L 56.9025 776.128696 
z
" clip-path="url(#peeb5b315a7)" style="fill: #006837"/>
   </g>
   <g id="patch_34">
    <path d="M 56.9025 780.949565 
L 456.042567 780.949565 
L 456.042567 800.233043 
L 56.9025 800.233043 
z
" clip-path="url(#peeb5b315a7)" style="fill: #006837"/>
   </g>
   <g id="patch_35">
    <path d="M 56.9025 805.053913 
L 473.487456 805.053913 
L 473.487456 824.337391 
L 56.9025 824.337391 
z
" clip-path="url(#peeb5b315a7)" style="fill: #006837"/>
   </g>
   <g id="patch_36">
    <path d="M 515.261904 9.610435 
L 697.104432 9.610435 
L 697.104432 28.893913 
L 515.261904 28.893913 
z
" clip-path="url(#peeb5b315a7)" style="fill: #66bd63"/>
   </g>
   <g id="patch_37">
    <path d="M 465.602127 33.714783 
L 704.653208 33.714783 
L 704.653208 52.998261 
L 465.602127 52.998261 
z
" clip-path="url(#peeb5b315a7)" style="fill: #66bd63"/>
   </g>
   <g id="patch_38">
    <path d="M 491.751624 57.81913 
L 701.981322 57.81913 
L 701.981322 77.102609 
L 491.751624 77.102609 
z
" clip-path="url(#peeb5b315a7)" style="fill: #66bd63"/>
   </g>
   <g id="patch_39">
    <path d="M 499.689697 81.923478 
L 704.518166 81.923478 
L 704.518166 101.206957 
L 499.689697 101.206957 
z
" clip-path="url(#peeb5b315a7)" style="fill: #66bd63"/>
   </g>
   <g id="patch_40">
    <path d="M 481.047794 106.027826 
L 713.672765 106.027826 
L 713.672765 125.311304 
L 481.047794 125.311304 
z
" clip-path="url(#peeb5b315a7)" style="fill: #66bd63"/>
   </g>
   <g id="patch_41">
    <path d="M 488.840698 130.132174 
L 745.594925 130.132174 
L 745.594925 149.415652 
L 488.840698 149.415652 
z
" clip-path="url(#peeb5b315a7)" style="fill: #66bd63"/>
   </g>
   <g id="patch_42">
    <path d="M 481.147445 154.236522 
L 683.025624 154.236522 
L 683.025624 173.52 
L 481.147445 173.52 
z
" clip-path="url(#peeb5b315a7)" style="fill: #66bd63"/>
   </g>
   <g id="patch_43">
    <path d="M 518.59106 178.34087 
L 719.857531 178.34087 
L 719.857531 197.624348 
L 518.59106 197.624348 
z
" clip-path="url(#peeb5b315a7)" style="fill: #66bd63"/>
   </g>
   <g id="patch_44">
    <path d="M 464.188046 202.445217 
L 712.059857 202.445217 
L 712.059857 221.728696 
L 464.188046 221.728696 
z
" clip-path="url(#peeb5b315a7)" style="fill: #66bd63"/>
   </g>
   <g id="patch_45">
    <path d="M 462.994238 226.549565 
L 684.977402 226.549565 
L 684.977402 245.833043 
L 462.994238 245.833043 
z
" clip-path="url(#peeb5b315a7)" style="fill: #66bd63"/>
   </g>
   <g id="patch_46">
    <path d="M 496.382252 250.653913 
L 675.634884 250.653913 
L 675.634884 269.937391 
L 496.382252 269.937391 
z
" clip-path="url(#peeb5b315a7)" style="fill: #66bd63"/>
   </g>
   <g id="patch_47">
    <path d="M 442.401579 274.758261 
L 694.401804 274.758261 
L 694.401804 294.041739 
L 442.401579 294.041739 
z
" clip-path="url(#peeb5b315a7)" style="fill: #66bd63"/>
   </g>
   <g id="patch_48">
    <path d="M 448.504362 298.862609 
L 682.368384 298.862609 
L 682.368384 318.146087 
L 448.504362 318.146087 
z
" clip-path="url(#peeb5b315a7)" style="fill: #66bd63"/>
   </g>
   <g id="patch_49">
    <path d="M 445.293437 322.966957 
L 689.073477 322.966957 
L 689.073477 342.250435 
L 445.293437 342.250435 
z
" clip-path="url(#peeb5b315a7)" style="fill: #66bd63"/>
   </g>
   <g id="patch_50">
    <path d="M 455.042717 347.071304 
L 679.658472 347.071304 
L 679.658472 366.354783 
L 455.042717 366.354783 
z
" clip-path="url(#peeb5b315a7)" style="fill: #66bd63"/>
   </g>
   <g id="patch_51">
    <path d="M 465.873821 371.175652 
L 669.667807 371.175652 
L 669.667807 390.45913 
L 465.873821 390.45913 
z
" clip-path="url(#peeb5b315a7)" style="fill: #66bd63"/>
   </g>
   <g id="patch_52">
    <path d="M 470.533532 395.28 
L 690.210755 395.28 
L 690.210755 414.563478 
L 470.533532 414.563478 
z
" clip-path="url(#peeb5b315a7)" style="fill: #66bd63"/>
   </g>
   <g id="patch_53">
    <path d="M 480.230577 419.384348 
L 669.356497 419.384348 
L 669.356497 438.667826 
L 480.230577 438.667826 
z
" clip-path="url(#peeb5b315a7)" style="fill: #66bd63"/>
   </g>
   <g id="patch_54">
    <path d="M 464.918992 443.488696 
L 727.781696 443.488696 
L 727.781696 462.772174 
L 464.918992 462.772174 
z
" clip-path="url(#peeb5b315a7)" style="fill: #66bd63"/>
   </g>
   <g id="patch_55">
    <path d="M 433.605651 467.593043 
L 737.598859 467.593043 
L 737.598859 486.876522 
L 433.605651 486.876522 
z
" clip-path="url(#peeb5b315a7)" style="fill: #66bd63"/>
   </g>
   <g id="patch_56">
    <path d="M 459.658001 491.697391 
L 719.827933 491.697391 
L 719.827933 510.98087 
L 459.658001 510.98087 
z
" clip-path="url(#peeb5b315a7)" style="fill: #66bd63"/>
   </g>
   <g id="patch_57">
    <path d="M 426.817588 515.801739 
L 716.841053 515.801739 
L 716.841053 535.085217 
L 426.817588 535.085217 
z
" clip-path="url(#peeb5b315a7)" style="fill: #66bd63"/>
   </g>
   <g id="patch_58">
    <path d="M 486.014032 539.906087 
L 737.087937 539.906087 
L 737.087937 559.189565 
L 486.014032 559.189565 
z
" clip-path="url(#peeb5b315a7)" style="fill: #66bd63"/>
   </g>
   <g id="patch_59">
    <path d="M 528.524521 564.010435 
L 749.142243 564.010435 
L 749.142243 583.293913 
L 528.524521 583.293913 
z
" clip-path="url(#peeb5b315a7)" style="fill: #66bd63"/>
   </g>
   <g id="patch_60">
    <path d="M 478.495607 588.114783 
L 639.682674 588.114783 
L 639.682674 607.398261 
L 478.495607 607.398261 
z
" clip-path="url(#peeb5b315a7)" style="fill: #66bd63"/>
   </g>
   <g id="patch_61">
    <path d="M 471.925009 612.21913 
L 686.077143 612.21913 
L 686.077143 631.502609 
L 471.925009 631.502609 
z
" clip-path="url(#peeb5b315a7)" style="fill: #66bd63"/>
   </g>
   <g id="patch_62">
    <path d="M 491.747803 636.323478 
L 676.470238 636.323478 
L 676.470238 655.606957 
L 491.747803 655.606957 
z
" clip-path="url(#peeb5b315a7)" style="fill: #66bd63"/>
   </g>
   <g id="patch_63">
    <path d="M 460.793998 660.427826 
L 699.881936 660.427826 
L 699.881936 679.711304 
L 460.793998 679.711304 
z
" clip-path="url(#peeb5b315a7)" style="fill: #66bd63"/>
   </g>
   <g id="patch_64">
    <path d="M 485.502953 684.532174 
L 692.132745 684.532174 
L 692.132745 703.815652 
L 485.502953 703.815652 
z
" clip-path="url(#peeb5b315a7)" style="fill: #66bd63"/>
   </g>
   <g id="patch_65">
    <path d="M 552.099893 708.636522 
L 740.830162 708.636522 
L 740.830162 727.92 
L 552.099893 727.92 
z
" clip-path="url(#peeb5b315a7)" style="fill: #66bd63"/>
   </g>
   <g id="patch_66">
    <path d="M 485.520071 732.74087 
L 731.563003 732.74087 
L 731.563003 752.024348 
L 485.520071 752.024348 
z
" clip-path="url(#peeb5b315a7)" style="fill: #66bd63"/>
   </g>
   <g id="patch_67">
    <path d="M 522.705067 756.845217 
L 689.628591 756.845217 
L 689.628591 776.128696 
L 522.705067 776.128696 
z
" clip-path="url(#peeb5b315a7)" style="fill: #66bd63"/>
   </g>
   <g id="patch_68">
    <path d="M 456.042567 780.949565 
L 688.64517 780.949565 
L 688.64517 800.233043 
L 456.042567 800.233043 
z
" clip-path="url(#peeb5b315a7)" style="fill: #66bd63"/>
   </g>
   <g id="patch_69">
    <path d="M 473.487456 805.053913 
L 701.032164 805.053913 
L 701.032164 824.337391 
L 473.487456 824.337391 
z
" clip-path="url(#peeb5b315a7)" style="fill: #66bd63"/>
   </g>
   <g id="patch_70">
    <path d="M 697.104432 9.610435 
L 835.919096 9.610435 
L 835.919096 28.893913 
L 697.104432 28.893913 
z
" clip-path="url(#peeb5b315a7)" style="fill: #fdae61"/>
   </g>
   <g id="patch_71">
    <path d="M 704.653208 33.714783 
L 834.68131 33.714783 
L 834.68131 52.998261 
L 704.653208 52.998261 
z
" clip-path="url(#peeb5b315a7)" style="fill: #fdae61"/>
   </g>
   <g id="patch_72">
    <path d="M 701.981322 57.81913 
L 835.240016 57.81913 
L 835.240016 77.102609 
L 701.981322 77.102609 
z
" clip-path="url(#peeb5b315a7)" style="fill: #fdae61"/>
   </g>
   <g id="patch_73">
    <path d="M 704.518166 81.923478 
L 835.011285 81.923478 
L 835.011285 101.206957 
L 704.518166 101.206957 
z
" clip-path="url(#peeb5b315a7)" style="fill: #fdae61"/>
   </g>
   <g id="patch_74">
    <path d="M 713.672765 106.027826 
L 834.946147 106.027826 
L 834.946147 125.311304 
L 713.672765 125.311304 
z
" clip-path="url(#peeb5b315a7)" style="fill: #fdae61"/>
   </g>
   <g id="patch_75">
    <path d="M 745.594925 130.132174 
L 834.828247 130.132174 
L 834.828247 149.415652 
L 745.594925 149.415652 
z
" clip-path="url(#peeb5b315a7)" style="fill: #fdae61"/>
   </g>
   <g id="patch_76">
    <path d="M 683.025624 154.236522 
L 834.946174 154.236522 
L 834.946174 173.52 
L 683.025624 173.52 
z
" clip-path="url(#peeb5b315a7)" style="fill: #fdae61"/>
   </g>
   <g id="patch_77">
    <path d="M 719.857531 178.34087 
L 834.886103 178.34087 
L 834.886103 197.624348 
L 719.857531 197.624348 
z
" clip-path="url(#peeb5b315a7)" style="fill: #fdae61"/>
   </g>
   <g id="patch_78">
    <path d="M 712.059857 202.445217 
L 835.357885 202.445217 
L 835.357885 221.728696 
L 712.059857 221.728696 
z
" clip-path="url(#peeb5b315a7)" style="fill: #fdae61"/>
   </g>
   <g id="patch_79">
    <path d="M 684.977402 226.549565 
L 835.375672 226.549565 
L 835.375672 245.833043 
L 684.977402 245.833043 
z
" clip-path="url(#peeb5b315a7)" style="fill: #fdae61"/>
   </g>
   <g id="patch_80">
    <path d="M 675.634884 250.653913 
L 834.808492 250.653913 
L 834.808492 269.937391 
L 675.634884 269.937391 
z
" clip-path="url(#peeb5b315a7)" style="fill: #fdae61"/>
   </g>
   <g id="patch_81">
    <path d="M 694.401804 274.758261 
L 835.300755 274.758261 
L 835.300755 294.041739 
L 694.401804 294.041739 
z
" clip-path="url(#peeb5b315a7)" style="fill: #fdae61"/>
   </g>
   <g id="patch_82">
    <path d="M 682.368384 298.862609 
L 835.051326 298.862609 
L 835.051326 318.146087 
L 682.368384 318.146087 
z
" clip-path="url(#peeb5b315a7)" style="fill: #fdae61"/>
   </g>
   <g id="patch_83">
    <path d="M 689.073477 322.966957 
L 834.538361 322.966957 
L 834.538361 342.250435 
L 689.073477 342.250435 
z
" clip-path="url(#peeb5b315a7)" style="fill: #fdae61"/>
   </g>
   <g id="patch_84">
    <path d="M 679.658472 347.071304 
L 834.796739 347.071304 
L 834.796739 366.354783 
L 679.658472 366.354783 
z
" clip-path="url(#peeb5b315a7)" style="fill: #fdae61"/>
   </g>
   <g id="patch_85">
    <path d="M 669.667807 371.175652 
L 834.530208 371.175652 
L 834.530208 390.45913 
L 669.667807 390.45913 
z
" clip-path="url(#peeb5b315a7)" style="fill: #fdae61"/>
   </g>
   <g id="patch_86">
    <path d="M 690.210755 395.28 
L 834.949159 395.28 
L 834.949159 414.563478 
L 690.210755 414.563478 
z
" clip-path="url(#peeb5b315a7)" style="fill: #fdae61"/>
   </g>
   <g id="patch_87">
    <path d="M 669.356497 419.384348 
L 835.134287 419.384348 
L 835.134287 438.667826 
L 669.356497 438.667826 
z
" clip-path="url(#peeb5b315a7)" style="fill: #fdae61"/>
   </g>
   <g id="patch_88">
    <path d="M 727.781696 443.488696 
L 835.695791 443.488696 
L 835.695791 462.772174 
L 727.781696 462.772174 
z
" clip-path="url(#peeb5b315a7)" style="fill: #fdae61"/>
   </g>
   <g id="patch_89">
    <path d="M 737.598859 467.593043 
L 835.154523 467.593043 
L 835.154523 486.876522 
L 737.598859 486.876522 
z
" clip-path="url(#peeb5b315a7)" style="fill: #fdae61"/>
   </g>
   <g id="patch_90">
    <path d="M 719.827933 491.697391 
L 835.30953 491.697391 
L 835.30953 510.98087 
L 719.827933 510.98087 
z
" clip-path="url(#peeb5b315a7)" style="fill: #fdae61"/>
   </g>
   <g id="patch_91">
    <path d="M 716.841053 515.801739 
L 835.538222 515.801739 
L 835.538222 535.085217 
L 716.841053 535.085217 
z
" clip-path="url(#peeb5b315a7)" style="fill: #fdae61"/>
   </g>
   <g id="patch_92">
    <path d="M 737.087937 539.906087 
L 835.502806 539.906087 
L 835.502806 559.189565 
L 737.087937 559.189565 
z
" clip-path="url(#peeb5b315a7)" style="fill: #fdae61"/>
   </g>
   <g id="patch_93">
    <path d="M 749.142243 564.010435 
L 834.697929 564.010435 
L 834.697929 583.293913 
L 749.142243 583.293913 
z
" clip-path="url(#peeb5b315a7)" style="fill: #fdae61"/>
   </g>
   <g id="patch_94">
    <path d="M 639.682674 588.114783 
L 835.056753 588.114783 
L 835.056753 607.398261 
L 639.682674 607.398261 
z
" clip-path="url(#peeb5b315a7)" style="fill: #fdae61"/>
   </g>
   <g id="patch_95">
    <path d="M 686.077143 612.21913 
L 834.694751 612.21913 
L 834.694751 631.502609 
L 686.077143 631.502609 
z
" clip-path="url(#peeb5b315a7)" style="fill: #fdae61"/>
   </g>
   <g id="patch_96">
    <path d="M 676.470238 636.323478 
L 835.912668 636.323478 
L 835.912668 655.606957 
L 676.470238 655.606957 
z
" clip-path="url(#peeb5b315a7)" style="fill: #fdae61"/>
   </g>
   <g id="patch_97">
    <path d="M 699.881936 660.427826 
L 834.722579 660.427826 
L 834.722579 679.711304 
L 699.881936 679.711304 
z
" clip-path="url(#peeb5b315a7)" style="fill: #fdae61"/>
   </g>
   <g id="patch_98">
    <path d="M 692.132745 684.532174 
L 834.474269 684.532174 
L 834.474269 703.815652 
L 692.132745 703.815652 
z
" clip-path="url(#peeb5b315a7)" style="fill: #fdae61"/>
   </g>
   <g id="patch_99">
    <path d="M 740.830162 708.636522 
L 835.242434 708.636522 
L 835.242434 727.92 
L 740.830162 727.92 
z
" clip-path="url(#peeb5b315a7)" style="fill: #fdae61"/>
   </g>
   <g id="patch_100">
    <path d="M 731.563003 732.74087 
L 835.385467 732.74087 
L 835.385467 752.024348 
L 731.563003 752.024348 
z
" clip-path="url(#peeb5b315a7)" style="fill: #fdae61"/>
   </g>
   <g id="patch_101">
    <path d="M 689.628591 756.845217 
L 834.623333 756.845217 
L 834.623333 776.128696 
L 689.628591 776.128696 
z
" clip-path="url(#peeb5b315a7)" style="fill: #fdae61"/>
   </g>
   <g id="patch_102">
    <path d="M 688.64517 780.949565 
L 834.785714 780.949565 
L 834.785714 800.233043 
L 688.64517 800.233043 
z
" clip-path="url(#peeb5b315a7)" style="fill: #fdae61"/>
   </g>
   <g id="patch_103">
    <path d="M 701.032164 805.053913 
L 834.534061 805.053913 
L 834.534061 824.337391 
L 701.032164 824.337391 
z
" clip-path="url(#peeb5b315a7)" style="fill: #fdae61"/>
   </g>
   <g id="patch_104">
    <path d="M 835.919096 9.610435 
L 837.639215 9.610435 
L 837.639215 28.893913 
L 835.919096 28.893913 
z
" clip-path="url(#peeb5b315a7)" style="fill: #d73027"/>
   </g>
   <g id="patch_105">
    <path d="M 834.68131 33.714783 
L 837.647881 33.714783 
L 837.647881 52.998261 
L 834.68131 52.998261 
z
" clip-path="url(#peeb5b315a7)" style="fill: #d73027"/>
   </g>
   <g id="patch_106">
    <path d="M 835.240016 57.81913 
L 837.649021 57.81913 
L 837.649021 77.102609 
L 835.240016 77.102609 
z
" clip-path="url(#peeb5b315a7)" style="fill: #d73027"/>
   </g>
   <g id="patch_107">
    <path d="M 835.011285 81.923478 
L 837.644455 81.923478 
L 837.644455 101.206957 
L 835.011285 101.206957 
z
" clip-path="url(#peeb5b315a7)" style="fill: #d73027"/>
   </g>
   <g id="patch_108">
    <path d="M 834.946147 106.027826 
L 837.650546 106.027826 
L 837.650546 125.311304 
L 834.946147 125.311304 
z
" clip-path="url(#peeb5b315a7)" style="fill: #d73027"/>
   </g>
   <g id="patch_109">
    <path d="M 834.828247 130.132174 
L 837.64718 130.132174 
L 837.64718 149.415652 
L 834.828247 149.415652 
z
" clip-path="url(#peeb5b315a7)" style="fill: #d73027"/>
   </g>
   <g id="patch_110">
    <path d="M 834.946174 154.236522 
L 837.647386 154.236522 
L 837.647386 173.52 
L 834.946174 173.52 
z
" clip-path="url(#peeb5b315a7)" style="fill: #d73027"/>
   </g>
   <g id="patch_111">
    <path d="M 834.886103 178.34087 
L 837.650172 178.34087 
L 837.650172 197.624348 
L 834.886103 197.624348 
z
" clip-path="url(#peeb5b315a7)" style="fill: #d73027"/>
   </g>
   <g id="patch_112">
    <path d="M 835.357885 202.445217 
L 837.648199 202.445217 
L 837.648199 221.728696 
L 835.357885 221.728696 
z
" clip-path="url(#peeb5b315a7)" style="fill: #d73027"/>
   </g>
   <g id="patch_113">
    <path d="M 835.375672 226.549565 
L 837.646226 226.549565 
L 837.646226 245.833043 
L 835.375672 245.833043 
z
" clip-path="url(#peeb5b315a7)" style="fill: #d73027"/>
   </g>
   <g id="patch_114">
    <path d="M 834.808492 250.653913 
L 837.648573 250.653913 
L 837.648573 269.937391 
L 834.808492 269.937391 
z
" clip-path="url(#peeb5b315a7)" style="fill: #d73027"/>
   </g>
   <g id="patch_115">
    <path d="M 835.300755 274.758261 
L 837.644171 274.758261 
L 837.644171 294.041739 
L 835.300755 294.041739 
z
" clip-path="url(#peeb5b315a7)" style="fill: #d73027"/>
   </g>
   <g id="patch_116">
    <path d="M 835.051326 298.862609 
L 837.839863 298.862609 
L 837.839863 318.146087 
L 835.051326 318.146087 
z
" clip-path="url(#peeb5b315a7)" style="fill: #d73027"/>
   </g>
   <g id="patch_117">
    <path d="M 834.538361 322.966957 
L 837.650436 322.966957 
L 837.650436 342.250435 
L 834.538361 342.250435 
z
" clip-path="url(#peeb5b315a7)" style="fill: #d73027"/>
   </g>
   <g id="patch_118">
    <path d="M 834.796739 347.071304 
L 837.649423 347.071304 
L 837.649423 366.354783 
L 834.796739 366.354783 
z
" clip-path="url(#peeb5b315a7)" style="fill: #d73027"/>
   </g>
   <g id="patch_119">
    <path d="M 834.530208 371.175652 
L 837.799145 371.175652 
L 837.799145 390.45913 
L 834.530208 390.45913 
z
" clip-path="url(#peeb5b315a7)" style="fill: #d73027"/>
   </g>
   <g id="patch_120">
    <path d="M 834.949159 395.28 
L 837.645457 395.28 
L 837.645457 414.563478 
L 834.949159 414.563478 
z
" clip-path="url(#peeb5b315a7)" style="fill: #d73027"/>
   </g>
   <g id="patch_121">
    <path d="M 835.134287 419.384348 
L 837.639239 419.384348 
L 837.639239 438.667826 
L 835.134287 438.667826 
z
" clip-path="url(#peeb5b315a7)" style="fill: #d73027"/>
   </g>
   <g id="patch_122">
    <path d="M 835.695791 443.488696 
L 837.644749 443.488696 
L 837.644749 462.772174 
L 835.695791 462.772174 
z
" clip-path="url(#peeb5b315a7)" style="fill: #d73027"/>
   </g>
   <g id="patch_123">
    <path d="M 835.154523 467.593043 
L 837.641155 467.593043 
L 837.641155 486.876522 
L 835.154523 486.876522 
z
" clip-path="url(#peeb5b315a7)" style="fill: #d73027"/>
   </g>
   <g id="patch_124">
    <path d="M 835.30953 491.697391 
L 837.642073 491.697391 
L 837.642073 510.98087 
L 835.30953 510.98087 
z
" clip-path="url(#peeb5b315a7)" style="fill: #d73027"/>
   </g>
   <g id="patch_125">
    <path d="M 835.538222 515.801739 
L 837.637629 515.801739 
L 837.637629 535.085217 
L 835.538222 535.085217 
z
" clip-path="url(#peeb5b315a7)" style="fill: #d73027"/>
   </g>
   <g id="patch_126">
    <path d="M 835.502806 539.906087 
L 837.640917 539.906087 
L 837.640917 559.189565 
L 835.502806 559.189565 
z
" clip-path="url(#peeb5b315a7)" style="fill: #d73027"/>
   </g>
   <g id="patch_127">
    <path d="M 834.697929 564.010435 
L 837.645643 564.010435 
L 837.645643 583.293913 
L 834.697929 583.293913 
z
" clip-path="url(#peeb5b315a7)" style="fill: #d73027"/>
   </g>
   <g id="patch_128">
    <path d="M 835.056753 588.114783 
L 837.808634 588.114783 
L 837.808634 607.398261 
L 835.056753 607.398261 
z
" clip-path="url(#peeb5b315a7)" style="fill: #d73027"/>
   </g>
   <g id="patch_129">
    <path d="M 834.694751 612.21913 
L 837.644275 612.21913 
L 837.644275 631.502609 
L 834.694751 631.502609 
z
" clip-path="url(#peeb5b315a7)" style="fill: #d73027"/>
   </g>
   <g id="patch_130">
    <path d="M 835.912668 636.323478 
L 837.648388 636.323478 
L 837.648388 655.606957 
L 835.912668 655.606957 
z
" clip-path="url(#peeb5b315a7)" style="fill: #d73027"/>
   </g>
   <g id="patch_131">
    <path d="M 834.722579 660.427826 
L 837.653291 660.427826 
L 837.653291 679.711304 
L 834.722579 679.711304 
z
" clip-path="url(#peeb5b315a7)" style="fill: #d73027"/>
   </g>
   <g id="patch_132">
    <path d="M 834.474269 684.532174 
L 837.639672 684.532174 
L 837.639672 703.815652 
L 834.474269 703.815652 
z
" clip-path="url(#peeb5b315a7)" style="fill: #d73027"/>
   </g>
   <g id="patch_133">
    <path d="M 835.242434 708.636522 
L 837.640183 708.636522 
L 837.640183 727.92 
L 835.242434 727.92 
z
" clip-path="url(#peeb5b315a7)" style="fill: #d73027"/>
   </g>
   <g id="patch_134">
    <path d="M 835.385467 732.74087 
L 837.639385 732.74087 
L 837.639385 752.024348 
L 835.385467 752.024348 
z
" clip-path="url(#peeb5b315a7)" style="fill: #d73027"/>
   </g>
   <g id="patch_135">
    <path d="M 834.623333 756.845217 
L 837.646966 756.845217 
L 837.646966 776.128696 
L 834.623333 776.128696 
z
" clip-path="url(#peeb5b315a7)" style="fill: #d73027"/>
   </g>
   <g id="patch_136">
    <path d="M 834.785714 780.949565 
L 837.642921 780.949565 
L 837.642921 800.233043 
L 834.785714 800.233043 
z
" clip-path="url(#peeb5b315a7)" style="fill: #d73027"/>
   </g>
   <g id="patch_137">
    <path d="M 834.534061 805.053913 
L 837.6469 805.053913 
L 837.6469 824.337391 
L 834.534061 824.337391 
z
" clip-path="url(#peeb5b315a7)" style="fill: #d73027"/>
   </g>
   <g id="patch_138">
    <path d="M 837.639215 9.610435 
L 838.1025 9.610435 
L 838.1025 28.893913 
L 837.639215 28.893913 
z
" clip-path="url(#peeb5b315a7)" style="fill: #a50026"/>
   </g>
   <g id="patch_139">
    <path d="M 837.647881 33.714783 
L 838.1025 33.714783 
L 838.1025 52.998261 
L 837.647881 52.998261 
z
" clip-path="url(#peeb5b315a7)" style="fill: #a50026"/>
   </g>
   <g id="patch_140">
    <path d="M 837.649021 57.81913 
L 838.1025 57.81913 
L 838.1025 77.102609 
L 837.649021 77.102609 
z
" clip-path="url(#peeb5b315a7)" style="fill: #a50026"/>
   </g>
   <g id="patch_141">
    <path d="M 837.644455 81.923478 
L 838.1025 81.923478 
L 838.1025 101.206957 
L 837.644455 101.206957 
z
" clip-path="url(#peeb5b315a7)" style="fill: #a50026"/>
   </g>
   <g id="patch_142">
    <path d="M 837.650546 106.027826 
L 838.1025 106.027826 
L 838.1025 125.311304 
L 837.650546 125.311304 
z
" clip-path="url(#peeb5b315a7)" style="fill: #a50026"/>
   </g>
   <g id="patch_143">
    <path d="M 837.64718 130.132174 
L 838.1025 130.132174 
L 838.1025 149.415652 
L 837.64718 149.415652 
z
" clip-path="url(#peeb5b315a7)" style="fill: #a50026"/>
   </g>
   <g id="patch_144">
    <path d="M 837.647386 154.236522 
L 838.1025 154.236522 
L 838.1025 173.52 
L 837.647386 173.52 
z
" clip-path="url(#peeb5b315a7)" style="fill: #a50026"/>
   </g>
   <g id="patch_145">
    <path d="M 837.650172 178.34087 
L 838.1025 178.34087 
L 838.1025 197.624348 
L 837.650172 197.624348 
z
" clip-path="url(#peeb5b315a7)" style="fill: #a50026"/>
   </g>
   <g id="patch_146">
    <path d="M 837.648199 202.445217 
L 838.1025 202.445217 
L 838.1025 221.728696 
L 837.648199 221.728696 
z
" clip-path="url(#peeb5b315a7)" style="fill: #a50026"/>
   </g>
   <g id="patch_147">
    <path d="M 837.646226 226.549565 
L 838.1025 226.549565 
L 838.1025 245.833043 
L 837.646226 245.833043 
z
" clip-path="url(#peeb5b315a7)" style="fill: #a50026"/>
   </g>
   <g id="patch_148">
    <path d="M 837.648573 250.653913 
L 838.1025 250.653913 
L 838.1025 269.937391 
L 837.648573 269.937391 
z
" clip-path="url(#peeb5b315a7)" style="fill: #a50026"/>
   </g>
   <g id="patch_149">
    <path d="M 837.644171 274.758261 
L 838.1025 274.758261 
L 838.1025 294.041739 
L 837.644171 294.041739 
z
" clip-path="url(#peeb5b315a7)" style="fill: #a50026"/>
   </g>
   <g id="patch_150">
    <path d="M 837.839863 298.862609 
L 838.1025 298.862609 
L 838.1025 318.146087 
L 837.839863 318.146087 
z
" clip-path="url(#peeb5b315a7)" style="fill: #a50026"/>
   </g>
   <g id="patch_151">
    <path d="M 837.650436 322.966957 
L 838.1025 322.966957 
L 838.1025 342.250435 
L 837.650436 342.250435 
z
" clip-path="url(#peeb5b315a7)" style="fill: #a50026"/>
   </g>
   <g id="patch_152">
    <path d="M 837.649423 347.071304 
L 838.1025 347.071304 
L 838.1025 366.354783 
L 837.649423 366.354783 
z
" clip-path="url(#peeb5b315a7)" style="fill: #a50026"/>
   </g>
   <g id="patch_153">
    <path d="M 837.799145 371.175652 
L 838.1025 371.175652 
L 838.1025 390.45913 
L 837.799145 390.45913 
z
" clip-path="url(#peeb5b315a7)" style="fill: #a50026"/>
   </g>
   <g id="patch_154">
    <path d="M 837.645457 395.28 
L 838.1025 395.28 
L 838.1025 414.563478 
L 837.645457 414.563478 
z
" clip-path="url(#peeb5b315a7)" style="fill: #a50026"/>
   </g>
   <g id="patch_155">
    <path d="M 837.639239 419.384348 
L 838.1025 419.384348 
L 838.1025 438.667826 
L 837.639239 438.667826 
z
" clip-path="url(#peeb5b315a7)" style="fill: #a50026"/>
   </g>
   <g id="patch_156">
    <path d="M 837.644749 443.488696 
L 838.1025 443.488696 
L 838.1025 462.772174 
L 837.644749 462.772174 
z
" clip-path="url(#peeb5b315a7)" style="fill: #a50026"/>
   </g>
   <g id="patch_157">
    <path d="M 837.641155 467.593043 
L 838.1025 467.593043 
L 838.1025 486.876522 
L 837.641155 486.876522 
z
" clip-path="url(#peeb5b315a7)" style="fill: #a50026"/>
   </g>
   <g id="patch_158">
    <path d="M 837.642073 491.697391 
L 838.1025 491.697391 
L 838.1025 510.98087 
L 837.642073 510.98087 
z
" clip-path="url(#peeb5b315a7)" style="fill: #a50026"/>
   </g>
   <g id="patch_159">
    <path d="M 837.637629 515.801739 
L 838.1025 515.801739 
L 838.1025 535.085217 
L 837.637629 535.085217 
z
" clip-path="url(#peeb5b315a7)" style="fill: #a50026"/>
   </g>
   <g id="patch_160">
    <path d="M 837.640917 539.906087 
L 838.1025 539.906087 
L 838.1025 559.189565 
L 837.640917 559.189565 
z
" clip-path="url(#peeb5b315a7)" style="fill: #a50026"/>
   </g>
   <g id="patch_161">
    <path d="M 837.645643 564.010435 
L 838.1025 564.010435 
L 838.1025 583.293913 
L 837.645643 583.293913 
z
" clip-path="url(#peeb5b315a7)" style="fill: #a50026"/>
   </g>
   <g id="patch_162">
    <path d="M 837.808634 588.114783 
L 838.1025 588.114783 
L 838.1025 607.398261 
L 837.808634 607.398261 
z
" clip-path="url(#peeb5b315a7)" style="fill: #a50026"/>
   </g>
   <g id="patch_163">
    <path d="M 837.644275 612.21913 
L 838.1025 612.21913 
L 838.1025 631.502609 
L 837.644275 631.502609 
z
" clip-path="url(#peeb5b315a7)" style="fill: #a50026"/>
   </g>
   <g id="patch_164">
    <path d="M 837.648388 636.323478 
L 838.1025 636.323478 
L 838.1025 655.606957 
L 837.648388 655.606957 
z
" clip-path="url(#peeb5b315a7)" style="fill: #a50026"/>
   </g>
   <g id="patch_165">
    <path d="M 837.653291 660.427826 
L 838.1025 660.427826 
L 838.1025 679.711304 
L 837.653291 679.711304 
z
" clip-path="url(#peeb5b315a7)" style="fill: #a50026"/>
   </g>
   <g id="patch_166">
    <path d="M 837.639672 684.532174 
L 838.1025 684.532174 
L 838.1025 703.815652 
L 837.639672 703.815652 
z
" clip-path="url(#peeb5b315a7)" style="fill: #a50026"/>
   </g>
   <g id="patch_167">
    <path d="M 837.640183 708.636522 
L 838.1025 708.636522 
L 838.1025 727.92 
L 837.640183 727.92 
z
" clip-path="url(#peeb5b315a7)" style="fill: #a50026"/>
   </g>
   <g id="patch_168">
    <path d="M 837.639385 732.74087 
L 838.1025 732.74087 
L 838.1025 752.024348 
L 837.639385 752.024348 
z
" clip-path="url(#peeb5b315a7)" style="fill: #a50026"/>
   </g>
   <g id="patch_169">
    <path d="M 837.646966 756.845217 
L 838.1025 756.845217 
L 838.1025 776.128696 
L 837.646966 776.128696 
z
" clip-path="url(#peeb5b315a7)" style="fill: #a50026"/>
   </g>
   <g id="patch_170">
    <path d="M 837.642921 780.949565 
L 838.1025 780.949565 
L 838.1025 800.233043 
L 837.642921 800.233043 
z
" clip-path="url(#peeb5b315a7)" style="fill: #a50026"/>
   </g>
   <g id="patch_171">
    <path d="M 837.6469 805.053913 
L 838.1025 805.053913 
L 838.1025 824.337391 
L 837.6469 824.337391 
z
" clip-path="url(#peeb5b315a7)" style="fill: #a50026"/>
   </g>
   <g id="text_42">
    <!-- miRTrace: QC Plot -->
    <g transform="translate(376.54875 -20.52)scale(0.16 -0.16)">
     <defs>
      <path id="DejaVuSans-6d" d="M 3328 2828 
Q 3544 3216 3844 3400 
Q 4144 3584 4550 3584 
Q 5097 3584 5394 3201 
Q 5691 2819 5691 2113 
L 5691 0 
L 5113 0 
L 5113 2094 
Q 5113 2597 4934 2840 
Q 4756 3084 4391 3084 
Q 3944 3084 3684 2787 
Q 3425 2491 3425 1978 
L 3425 0 
L 2847 0 
L 2847 2094 
Q 2847 2600 2669 2842 
Q 2491 3084 2119 3084 
Q 1678 3084 1418 2786 
Q 1159 2488 1159 1978 
L 1159 0 
L 581 0 
L 581 3500 
L 1159 3500 
L 1159 2956 
Q 1356 3278 1631 3431 
Q 1906 3584 2284 3584 
Q 2666 3584 2933 3390 
Q 3200 3197 3328 2828 
z
" transform="scale(0.015625)"/>
      <path id="DejaVuSans-69" d="M 603 3500 
L 1178 3500 
L 1178 0 
L 603 0 
L 603 3500 
z
M 603 4863 
L 1178 4863 
L 1178 4134 
L 603 4134 
L 603 4863 
z
" transform="scale(0.015625)"/>
      <path id="DejaVuSans-72" d="M 2631 2963 
Q 2534 3019 2420 3045 
Q 2306 3072 2169 3072 
Q 1681 3072 1420 2755 
Q 1159 2438 1159 1844 
L 1159 0 
L 581 0 
L 581 3500 
L 1159 3500 
L 1159 2956 
Q 1341 3275 1631 3429 
Q 1922 3584 2338 3584 
Q 2397 3584 2469 3576 
Q 2541 3569 2628 3553 
L 2631 2963 
z
" transform="scale(0.015625)"/>
      <path id="DejaVuSans-63" d="M 3122 3366 
L 3122 2828 
Q 2878 2963 2633 3030 
Q 2388 3097 2138 3097 
Q 1578 3097 1268 2742 
Q 959 2388 959 1747 
Q 959 1106 1268 751 
Q 1578 397 2138 397 
Q 2388 397 2633 464 
Q 2878 531 3122 666 
L 3122 134 
Q 2881 22 2623 -34 
Q 2366 -91 2075 -91 
Q 1284 -91 818 406 
Q 353 903 353 1747 
Q 353 2603 823 3093 
Q 1294 3584 2113 3584 
Q 2378 3584 2631 3529 
Q 2884 3475 3122 3366 
z
" transform="scale(0.015625)"/>
      <path id="DejaVuSans-3a" d="M 750 794 
L 1409 794 
L 1409 0 
L 750 0 
L 750 794 
z
M 750 3309 
L 1409 3309 
L 1409 2516 
L 750 2516 
L 750 3309 
z
" transform="scale(0.015625)"/>
      <path id="DejaVuSans-51" d="M 2522 4238 
Q 1834 4238 1429 3725 
Q 1025 3213 1025 2328 
Q 1025 1447 1429 934 
Q 1834 422 2522 422 
Q 3209 422 3611 934 
Q 4013 1447 4013 2328 
Q 4013 3213 3611 3725 
Q 3209 4238 2522 4238 
z
M 3406 84 
L 4238 -825 
L 3475 -825 
L 2784 -78 
Q 2681 -84 2626 -87 
Q 2572 -91 2522 -91 
Q 1538 -91 948 567 
Q 359 1225 359 2328 
Q 359 3434 948 4092 
Q 1538 4750 2522 4750 
Q 3503 4750 4090 4092 
Q 4678 3434 4678 2328 
Q 4678 1516 4351 937 
Q 4025 359 3406 84 
z
" transform="scale(0.015625)"/>
      <path id="DejaVuSans-6c" d="M 603 4863 
L 1178 4863 
L 1178 0 
L 603 0 
L 603 4863 
z
" transform="scale(0.015625)"/>
      <path id="DejaVuSans-6f" d="M 1959 3097 
Q 1497 3097 1228 2736 
Q 959 2375 959 1747 
Q 959 1119 1226 758 
Q 1494 397 1959 397 
Q 2419 397 2687 759 
Q 2956 1122 2956 1747 
Q 2956 2369 2687 2733 
Q 2419 3097 1959 3097 
z
M 1959 3584 
Q 2709 3584 3137 3096 
Q 3566 2609 3566 1747 
Q 3566 888 3137 398 
Q 2709 -91 1959 -91 
Q 1206 -91 779 398 
Q 353 888 353 1747 
Q 353 2609 779 3096 
Q 1206 3584 1959 3584 
z
" transform="scale(0.015625)"/>
      <path id="DejaVuSans-74" d="M 1172 4494 
L 1172 3500 
L 2356 3500 
L 2356 3053 
L 1172 3053 
L 1172 1153 
Q 1172 725 1289 603 
Q 1406 481 1766 481 
L 2356 481 
L 2356 0 
L 1766 0 
Q 1100 0 847 248 
Q 594 497 594 1153 
L 594 3053 
L 172 3053 
L 172 3500 
L 594 3500 
L 594 4494 
L 1172 4494 
z
" transform="scale(0.015625)"/>
     </defs>
     <use xlink:href="#DejaVuSans-6d"/>
     <use xlink:href="#DejaVuSans-69" x="97.412109"/>
     <use xlink:href="#DejaVuSans-52" x="125.195312"/>
     <use xlink:href="#DejaVuSans-54" x="187.427734"/>
     <use xlink:href="#DejaVuSans-72" x="233.761719"/>
     <use xlink:href="#DejaVuSans-61" x="274.875"/>
     <use xlink:href="#DejaVuSans-63" x="336.154297"/>
     <use xlink:href="#DejaVuSans-65" x="391.134766"/>
     <use xlink:href="#DejaVuSans-3a" x="452.658203"/>
     <use xlink:href="#DejaVuSans-20" x="486.349609"/>
     <use xlink:href="#DejaVuSans-51" x="518.136719"/>
     <use xlink:href="#DejaVuSans-43" x="596.847656"/>
     <use xlink:href="#DejaVuSans-20" x="666.671875"/>
     <use xlink:href="#DejaVuSans-50" x="698.458984"/>
     <use xlink:href="#DejaVuSans-6c" x="758.761719"/>
     <use xlink:href="#DejaVuSans-6f" x="786.544922"/>
     <use xlink:href="#DejaVuSans-74" x="847.726562"/>
    </g>
   </g>
   <g id="legend_1">
    <g id="patch_172">
     <path d="M 64.1025 901.044076 
L 80.1025 901.044076 
L 80.1025 895.444076 
L 64.1025 895.444076 
z
" style="fill: #006837"/>
    </g>
    <g id="text_43">
     <!-- Reads  18 nt after adapter removal -->
     <g transform="translate(86.5025 901.044076)scale(0.08 -0.08)">
      <defs>
       <path id="DejaVuSans-2265" d="M 678 3175 
L 678 3725 
L 4684 2578 
L 4684 2047 
L 678 897 
L 678 1453 
L 3681 2309 
L 678 3175 
z
M 4684 531 
L 4684 0 
L 678 0 
L 678 531 
L 4684 531 
z
" transform="scale(0.015625)"/>
       <path id="DejaVuSans-6e" d="M 3513 2113 
L 3513 0 
L 2938 0 
L 2938 2094 
Q 2938 2591 2744 2837 
Q 2550 3084 2163 3084 
Q 1697 3084 1428 2787 
Q 1159 2491 1159 1978 
L 1159 0 
L 581 0 
L 581 3500 
L 1159 3500 
L 1159 2956 
Q 1366 3272 1645 3428 
Q 1925 3584 2291 3584 
Q 2894 3584 3203 3211 
Q 3513 2838 3513 2113 
z
" transform="scale(0.015625)"/>
       <path id="DejaVuSans-66" d="M 2375 4863 
L 2375 4384 
L 1825 4384 
Q 1516 4384 1395 4259 
Q 1275 4134 1275 3809 
L 1275 3500 
L 2222 3500 
L 2222 3053 
L 1275 3053 
L 1275 0 
L 697 0 
L 697 3053 
L 147 3053 
L 147 3500 
L 697 3500 
L 697 3744 
Q 697 4328 969 4595 
Q 1241 4863 1831 4863 
L 2375 4863 
z
" transform="scale(0.015625)"/>
       <path id="DejaVuSans-70" d="M 1159 525 
L 1159 -1331 
L 581 -1331 
L 581 3500 
L 1159 3500 
L 1159 2969 
Q 1341 3281 1617 3432 
Q 1894 3584 2278 3584 
Q 2916 3584 3314 3078 
Q 3713 2572 3713 1747 
Q 3713 922 3314 415 
Q 2916 -91 2278 -91 
Q 1894 -91 1617 61 
Q 1341 213 1159 525 
z
M 3116 1747 
Q 3116 2381 2855 2742 
Q 2594 3103 2138 3103 
Q 1681 3103 1420 2742 
Q 1159 2381 1159 1747 
Q 1159 1113 1420 752 
Q 1681 391 2138 391 
Q 2594 391 2855 752 
Q 3116 1113 3116 1747 
z
" transform="scale(0.015625)"/>
       <path id="DejaVuSans-76" d="M 191 3500 
L 800 3500 
L 1894 563 
L 2988 3500 
L 3597 3500 
L 2284 0 
L 1503 0 
L 191 3500 
z
" transform="scale(0.015625)"/>
      </defs>
      <use xlink:href="#DejaVuSans-52"/>
      <use xlink:href="#DejaVuSans-65" x="64.982422"/>
      <use xlink:href="#DejaVuSans-61" x="126.505859"/>
      <use xlink:href="#DejaVuSans-64" x="187.785156"/>
      <use xlink:href="#DejaVuSans-73" x="251.261719"/>
      <use xlink:href="#DejaVuSans-20" x="303.361328"/>
      <use xlink:href="#DejaVuSans-2265" x="335.148438"/>
      <use xlink:href="#DejaVuSans-20" x="418.9375"/>
      <use xlink:href="#DejaVuSans-31" x="450.724609"/>
      <use xlink:href="#DejaVuSans-38" x="514.347656"/>
      <use xlink:href="#DejaVuSans-20" x="577.970703"/>
      <use xlink:href="#DejaVuSans-6e" x="609.757812"/>
      <use xlink:href="#DejaVuSans-74" x="673.136719"/>
      <use xlink:href="#DejaVuSans-20" x="712.345703"/>
      <use xlink:href="#DejaVuSans-61" x="744.132812"/>
      <use xlink:href="#DejaVuSans-66" x="805.412109"/>
      <use xlink:href="#DejaVuSans-74" x="838.867188"/>
      <use xlink:href="#DejaVuSans-65" x="878.076172"/>
      <use xlink:href="#DejaVuSans-72" x="939.599609"/>
      <use xlink:href="#DejaVuSans-20" x="980.712891"/>
      <use xlink:href="#DejaVuSans-61" x="1012.5"/>
      <use xlink:href="#DejaVuSans-64" x="1073.779297"/>
      <use xlink:href="#DejaVuSans-61" x="1137.255859"/>
      <use xlink:href="#DejaVuSans-70" x="1198.535156"/>
      <use xlink:href="#DejaVuSans-74" x="1262.011719"/>
      <use xlink:href="#DejaVuSans-65" x="1301.220703"/>
      <use xlink:href="#DejaVuSans-72" x="1362.744141"/>
      <use xlink:href="#DejaVuSans-20" x="1403.857422"/>
      <use xlink:href="#DejaVuSans-72" x="1435.644531"/>
      <use xlink:href="#DejaVuSans-65" x="1474.507812"/>
      <use xlink:href="#DejaVuSans-6d" x="1536.03125"/>
      <use xlink:href="#DejaVuSans-6f" x="1633.443359"/>
      <use xlink:href="#DejaVuSans-76" x="1694.625"/>
      <use xlink:href="#DejaVuSans-61" x="1753.804688"/>
      <use xlink:href="#DejaVuSans-6c" x="1815.083984"/>
     </g>
    </g>
    <g id="patch_173">
     <path d="M 246.056875 901.044076 
L 262.056875 901.044076 
L 262.056875 895.444076 
L 246.056875 895.444076 
z
" style="fill: #66bd63"/>
    </g>
    <g id="text_44">
     <!-- Reads without adapter -->
     <g transform="translate(268.456875 901.044076)scale(0.08 -0.08)">
      <defs>
       <path id="DejaVuSans-77" d="M 269 3500 
L 844 3500 
L 1563 769 
L 2278 3500 
L 2956 3500 
L 3675 769 
L 4391 3500 
L 4966 3500 
L 4050 0 
L 3372 0 
L 2619 2869 
L 1863 0 
L 1184 0 
L 269 3500 
z
" transform="scale(0.015625)"/>
       <path id="DejaVuSans-68" d="M 3513 2113 
L 3513 0 
L 2938 0 
L 2938 2094 
Q 2938 2591 2744 2837 
Q 2550 3084 2163 3084 
Q 1697 3084 1428 2787 
Q 1159 2491 1159 1978 
L 1159 0 
L 581 0 
L 581 4863 
L 1159 4863 
L 1159 2956 
Q 1366 3272 1645 3428 
Q 1925 3584 2291 3584 
Q 2894 3584 3203 3211 
Q 3513 2838 3513 2113 
z
" transform="scale(0.015625)"/>
       <path id="DejaVuSans-75" d="M 544 1381 
L 544 3500 
L 1119 3500 
L 1119 1403 
Q 1119 906 1312 657 
Q 1506 409 1894 409 
Q 2359 409 2629 706 
Q 2900 1003 2900 1516 
L 2900 3500 
L 3475 3500 
L 3475 0 
L 2900 0 
L 2900 538 
Q 2691 219 2414 64 
Q 2138 -91 1772 -91 
Q 1169 -91 856 284 
Q 544 659 544 1381 
z
M 1991 3584 
L 1991 3584 
z
" transform="scale(0.015625)"/>
      </defs>
      <use xlink:href="#DejaVuSans-52"/>
      <use xlink:href="#DejaVuSans-65" x="64.982422"/>
      <use xlink:href="#DejaVuSans-61" x="126.505859"/>
      <use xlink:href="#DejaVuSans-64" x="187.785156"/>
      <use xlink:href="#DejaVuSans-73" x="251.261719"/>
      <use xlink:href="#DejaVuSans-20" x="303.361328"/>
      <use xlink:href="#DejaVuSans-77" x="335.148438"/>
      <use xlink:href="#DejaVuSans-69" x="416.935547"/>
      <use xlink:href="#DejaVuSans-74" x="444.71875"/>
      <use xlink:href="#DejaVuSans-68" x="483.927734"/>
      <use xlink:href="#DejaVuSans-6f" x="547.306641"/>
      <use xlink:href="#DejaVuSans-75" x="608.488281"/>
      <use xlink:href="#DejaVuSans-74" x="671.867188"/>
      <use xlink:href="#DejaVuSans-20" x="711.076172"/>
      <use xlink:href="#DejaVuSans-61" x="742.863281"/>
      <use xlink:href="#DejaVuSans-64" x="804.142578"/>
      <use xlink:href="#DejaVuSans-61" x="867.619141"/>
      <use xlink:href="#DejaVuSans-70" x="928.898438"/>
      <use xlink:href="#DejaVuSans-74" x="992.375"/>
      <use xlink:href="#DejaVuSans-65" x="1031.583984"/>
      <use xlink:href="#DejaVuSans-72" x="1093.107422"/>
     </g>
    </g>
    <g id="patch_174">
     <path d="M 371.31875 901.044076 
L 387.31875 901.044076 
L 387.31875 895.444076 
L 371.31875 895.444076 
z
" style="fill: #fdae61"/>
    </g>
    <g id="text_45">
     <!-- Reads &lt; 18 nt after adapter removal -->
     <g transform="translate(393.71875 901.044076)scale(0.08 -0.08)">
      <defs>
       <path id="DejaVuSans-3c" d="M 4684 3150 
L 1459 2003 
L 4684 863 
L 4684 294 
L 678 1747 
L 678 2266 
L 4684 3719 
L 4684 3150 
z
" transform="scale(0.015625)"/>
      </defs>
      <use xlink:href="#DejaVuSans-52"/>
      <use xlink:href="#DejaVuSans-65" x="64.982422"/>
      <use xlink:href="#DejaVuSans-61" x="126.505859"/>
      <use xlink:href="#DejaVuSans-64" x="187.785156"/>
      <use xlink:href="#DejaVuSans-73" x="251.261719"/>
      <use xlink:href="#DejaVuSans-20" x="303.361328"/>
      <use xlink:href="#DejaVuSans-3c" x="335.148438"/>
      <use xlink:href="#DejaVuSans-20" x="418.9375"/>
      <use xlink:href="#DejaVuSans-31" x="450.724609"/>
      <use xlink:href="#DejaVuSans-38" x="514.347656"/>
      <use xlink:href="#DejaVuSans-20" x="577.970703"/>
      <use xlink:href="#DejaVuSans-6e" x="609.757812"/>
      <use xlink:href="#DejaVuSans-74" x="673.136719"/>
      <use xlink:href="#DejaVuSans-20" x="712.345703"/>
      <use xlink:href="#DejaVuSans-61" x="744.132812"/>
      <use xlink:href="#DejaVuSans-66" x="805.412109"/>
      <use xlink:href="#DejaVuSans-74" x="838.867188"/>
      <use xlink:href="#DejaVuSans-65" x="878.076172"/>
      <use xlink:href="#DejaVuSans-72" x="939.599609"/>
      <use xlink:href="#DejaVuSans-20" x="980.712891"/>
      <use xlink:href="#DejaVuSans-61" x="1012.5"/>
      <use xlink:href="#DejaVuSans-64" x="1073.779297"/>
      <use xlink:href="#DejaVuSans-61" x="1137.255859"/>
      <use xlink:href="#DejaVuSans-70" x="1198.535156"/>
      <use xlink:href="#DejaVuSans-74" x="1262.011719"/>
      <use xlink:href="#DejaVuSans-65" x="1301.220703"/>
      <use xlink:href="#DejaVuSans-72" x="1362.744141"/>
      <use xlink:href="#DejaVuSans-20" x="1403.857422"/>
      <use xlink:href="#DejaVuSans-72" x="1435.644531"/>
      <use xlink:href="#DejaVuSans-65" x="1474.507812"/>
      <use xlink:href="#DejaVuSans-6d" x="1536.03125"/>
      <use xlink:href="#DejaVuSans-6f" x="1633.443359"/>
      <use xlink:href="#DejaVuSans-76" x="1694.625"/>
      <use xlink:href="#DejaVuSans-61" x="1753.804688"/>
      <use xlink:href="#DejaVuSans-6c" x="1815.083984"/>
     </g>
    </g>
    <g id="patch_175">
     <path d="M 553.273125 901.044076 
L 569.273125 901.044076 
L 569.273125 895.444076 
L 553.273125 895.444076 
z
" style="fill: #d73027"/>
    </g>
    <g id="text_46">
     <!-- Reads with low complexity -->
     <g transform="translate(575.673125 901.044076)scale(0.08 -0.08)">
      <defs>
       <path id="DejaVuSans-78" d="M 3513 3500 
L 2247 1797 
L 3578 0 
L 2900 0 
L 1881 1375 
L 863 0 
L 184 0 
L 1544 1831 
L 300 3500 
L 978 3500 
L 1906 2253 
L 2834 3500 
L 3513 3500 
z
" transform="scale(0.015625)"/>
       <path id="DejaVuSans-79" d="M 2059 -325 
Q 1816 -950 1584 -1140 
Q 1353 -1331 966 -1331 
L 506 -1331 
L 506 -850 
L 844 -850 
Q 1081 -850 1212 -737 
Q 1344 -625 1503 -206 
L 1606 56 
L 191 3500 
L 800 3500 
L 1894 763 
L 2988 3500 
L 3597 3500 
L 2059 -325 
z
" transform="scale(0.015625)"/>
      </defs>
      <use xlink:href="#DejaVuSans-52"/>
      <use xlink:href="#DejaVuSans-65" x="64.982422"/>
      <use xlink:href="#DejaVuSans-61" x="126.505859"/>
      <use xlink:href="#DejaVuSans-64" x="187.785156"/>
      <use xlink:href="#DejaVuSans-73" x="251.261719"/>
      <use xlink:href="#DejaVuSans-20" x="303.361328"/>
      <use xlink:href="#DejaVuSans-77" x="335.148438"/>
      <use xlink:href="#DejaVuSans-69" x="416.935547"/>
      <use xlink:href="#DejaVuSans-74" x="444.71875"/>
      <use xlink:href="#DejaVuSans-68" x="483.927734"/>
      <use xlink:href="#DejaVuSans-20" x="547.306641"/>
      <use xlink:href="#DejaVuSans-6c" x="579.09375"/>
      <use xlink:href="#DejaVuSans-6f" x="606.876953"/>
      <use xlink:href="#DejaVuSans-77" x="668.058594"/>
      <use xlink:href="#DejaVuSans-20" x="749.845703"/>
      <use xlink:href="#DejaVuSans-63" x="781.632812"/>
      <use xlink:href="#DejaVuSans-6f" x="836.613281"/>
      <use xlink:href="#DejaVuSans-6d" x="897.794922"/>
      <use xlink:href="#DejaVuSans-70" x="995.207031"/>
      <use xlink:href="#DejaVuSans-6c" x="1058.683594"/>
      <use xlink:href="#DejaVuSans-65" x="1086.466797"/>
      <use xlink:href="#DejaVuSans-78" x="1146.240234"/>
      <use xlink:href="#DejaVuSans-69" x="1205.419922"/>
      <use xlink:href="#DejaVuSans-74" x="1233.203125"/>
      <use xlink:href="#DejaVuSans-79" x="1272.412109"/>
     </g>
    </g>
    <g id="patch_176">
     <path d="M 694.325 901.044076 
L 710.325 901.044076 
L 710.325 895.444076 
L 694.325 895.444076 
z
" style="fill: #a50026"/>
    </g>
    <g id="text_47">
     <!-- Reads with low PHRED score -->
     <g transform="translate(716.725 901.044076)scale(0.08 -0.08)">
      <defs>
       <path id="DejaVuSans-48" d="M 628 4666 
L 1259 4666 
L 1259 2753 
L 3553 2753 
L 3553 4666 
L 4184 4666 
L 4184 0 
L 3553 0 
L 3553 2222 
L 1259 2222 
L 1259 0 
L 628 0 
L 628 4666 
z
" transform="scale(0.015625)"/>
       <path id="DejaVuSans-44" d="M 1259 4147 
L 1259 519 
L 2022 519 
Q 2988 519 3436 956 
Q 3884 1394 3884 2338 
Q 3884 3275 3436 3711 
Q 2988 4147 2022 4147 
L 1259 4147 
z
M 628 4666 
L 1925 4666 
Q 3281 4666 3915 4102 
Q 4550 3538 4550 2338 
Q 4550 1131 3912 565 
Q 3275 0 1925 0 
L 628 0 
L 628 4666 
z
" transform="scale(0.015625)"/>
      </defs>
      <use xlink:href="#DejaVuSans-52"/>
      <use xlink:href="#DejaVuSans-65" x="64.982422"/>
      <use xlink:href="#DejaVuSans-61" x="126.505859"/>
      <use xlink:href="#DejaVuSans-64" x="187.785156"/>
      <use xlink:href="#DejaVuSans-73" x="251.261719"/>
      <use xlink:href="#DejaVuSans-20" x="303.361328"/>
      <use xlink:href="#DejaVuSans-77" x="335.148438"/>
      <use xlink:href="#DejaVuSans-69" x="416.935547"/>
      <use xlink:href="#DejaVuSans-74" x="444.71875"/>
      <use xlink:href="#DejaVuSans-68" x="483.927734"/>
      <use xlink:href="#DejaVuSans-20" x="547.306641"/>
      <use xlink:href="#DejaVuSans-6c" x="579.09375"/>
      <use xlink:href="#DejaVuSans-6f" x="606.876953"/>
      <use xlink:href="#DejaVuSans-77" x="668.058594"/>
      <use xlink:href="#DejaVuSans-20" x="749.845703"/>
      <use xlink:href="#DejaVuSans-50" x="781.632812"/>
      <use xlink:href="#DejaVuSans-48" x="841.935547"/>
      <use xlink:href="#DejaVuSans-52" x="917.130859"/>
      <use xlink:href="#DejaVuSans-45" x="986.613281"/>
      <use xlink:href="#DejaVuSans-44" x="1049.796875"/>
      <use xlink:href="#DejaVuSans-20" x="1126.798828"/>
      <use xlink:href="#DejaVuSans-73" x="1158.585938"/>
      <use xlink:href="#DejaVuSans-63" x="1210.685547"/>
      <use xlink:href="#DejaVuSans-6f" x="1265.666016"/>
      <use xlink:href="#DejaVuSans-72" x="1326.847656"/>
      <use xlink:href="#DejaVuSans-65" x="1365.710938"/>
     </g>
    </g>
   </g>
  </g>
 </g>
 <defs>
  <clipPath id="peeb5b315a7">
   <rect x="56.9025" y="7.2" width="781.2" height="819.547826"/>
  </clipPath>
 </defs>
</svg>
