<?xml version="1.0" encoding="utf-8" standalone="no"?>
<!DOCTYPE svg PUBLIC "-//W3C//DTD SVG 1.1//EN"
  "http://www.w3.org/Graphics/SVG/1.1/DTD/svg11.dtd">
<svg xmlns:xlink="http://www.w3.org/1999/xlink" width="1000.340625pt" height="388.844525pt" viewBox="0 0 1000.340625 388.844525" xmlns="http://www.w3.org/2000/svg" version="1.1">
 <metadata>
  <rdf:RDF xmlns:dc="http://purl.org/dc/elements/1.1/" xmlns:cc="http://creativecommons.org/ns#" xmlns:rdf="http://www.w3.org/1999/02/22-rdf-syntax-ns#">
   <cc:Work>
    <dc:type rdf:resource="http://purl.org/dc/dcmitype/StillImage"/>
    <dc:date>2022-11-05T04:15:17.727254</dc:date>
    <dc:format>image/svg+xml</dc:format>
    <dc:creator>
     <cc:Agent>
      <dc:title>Matplotlib v3.5.1, https://matplotlib.org/</dc:title>
     </cc:Agent>
    </dc:creator>
   </cc:Work>
  </rdf:RDF>
 </metadata>
 <defs>
  <style type="text/css">*{stroke-linejoin: round; stroke-linecap: butt}</style>
 </defs>
 <g id="figure_1">
  <g id="axes_1">
   <g id="patch_1">
    <path d="M 40.600625 353.2239 
L 993.140625 353.2239 
L 993.140625 35.2559 
L 40.600625 35.2559 
z
" style="fill: #ffffff"/>
   </g>
   <g id="patch_2">
    <path d="M 738.797484 353.2239 
L 2534.160834 353.2239 
L 2534.160834 35.2559 
L 738.797484 35.2559 
z
" clip-path="url(#pb34824b68f)" style="fill: #c3e6c3"/>
   </g>
   <g id="patch_3">
    <path d="M 539.312667 353.2239 
L 738.797484 353.2239 
L 738.797484 35.2559 
L 539.312667 35.2559 
z
" clip-path="url(#pb34824b68f)" style="fill: #e6dcc3"/>
   </g>
   <g id="patch_4">
    <path d="M 40.600625 353.2239 
L 539.312667 353.2239 
L 539.312667 35.2559 
L 40.600625 35.2559 
z
" clip-path="url(#pb34824b68f)" style="fill: #e6c3c3"/>
   </g>
   <g id="matplotlib.axis_1">
    <g id="xtick_1">
     <g id="text_1">
      <!-- 0 -->
      <g transform="translate(38.055625 366.30265)scale(0.08 -0.08)">
       <defs>
        <path id="DejaVuSans-30" d="M 2034 4250 
Q 1547 4250 1301 3770 
Q 1056 3291 1056 2328 
Q 1056 1369 1301 889 
Q 1547 409 2034 409 
Q 2525 409 2770 889 
Q 3016 1369 3016 2328 
Q 3016 3291 2770 3770 
Q 2525 4250 2034 4250 
z
M 2034 4750 
Q 2819 4750 3233 4129 
Q 3647 3509 3647 2328 
Q 3647 1150 3233 529 
Q 2819 -91 2034 -91 
Q 1250 -91 836 529 
Q 422 1150 422 2328 
Q 422 3509 836 4129 
Q 1250 4750 2034 4750 
z
" transform="scale(0.015625)"/>
       </defs>
       <use xlink:href="#DejaVuSans-30"/>
      </g>
     </g>
    </g>
    <g id="xtick_2">
     <g id="text_2">
      <!-- 5 -->
      <g transform="translate(162.733635 366.30265)scale(0.08 -0.08)">
       <defs>
        <path id="DejaVuSans-35" d="M 691 4666 
L 3169 4666 
L 3169 4134 
L 1269 4134 
L 1269 2991 
Q 1406 3038 1543 3061 
Q 1681 3084 1819 3084 
Q 2600 3084 3056 2656 
Q 3513 2228 3513 1497 
Q 3513 744 3044 326 
Q 2575 -91 1722 -91 
Q 1428 -91 1123 -41 
Q 819 9 494 109 
L 494 744 
Q 775 591 1075 516 
Q 1375 441 1709 441 
Q 2250 441 2565 725 
Q 2881 1009 2881 1497 
Q 2881 1984 2565 2268 
Q 2250 2553 1709 2553 
Q 1456 2553 1204 2497 
Q 953 2441 691 2322 
L 691 4666 
z
" transform="scale(0.015625)"/>
       </defs>
       <use xlink:href="#DejaVuSans-35"/>
      </g>
     </g>
    </g>
    <g id="xtick_3">
     <g id="text_3">
      <!-- 10 -->
      <g transform="translate(284.866646 366.30265)scale(0.08 -0.08)">
       <defs>
        <path id="DejaVuSans-31" d="M 794 531 
L 1825 531 
L 1825 4091 
L 703 3866 
L 703 4441 
L 1819 4666 
L 2450 4666 
L 2450 531 
L 3481 531 
L 3481 0 
L 794 0 
L 794 531 
z
" transform="scale(0.015625)"/>
       </defs>
       <use xlink:href="#DejaVuSans-31"/>
       <use xlink:href="#DejaVuSans-30" x="63.623047"/>
      </g>
     </g>
    </g>
    <g id="xtick_4">
     <g id="text_4">
      <!-- 15 -->
      <g transform="translate(409.544656 366.30265)scale(0.08 -0.08)">
       <use xlink:href="#DejaVuSans-31"/>
       <use xlink:href="#DejaVuSans-35" x="63.623047"/>
      </g>
     </g>
    </g>
    <g id="xtick_5">
     <g id="text_5">
      <!-- 20 -->
      <g transform="translate(534.222667 366.30265)scale(0.08 -0.08)">
       <defs>
        <path id="DejaVuSans-32" d="M 1228 531 
L 3431 531 
L 3431 0 
L 469 0 
L 469 531 
Q 828 903 1448 1529 
Q 2069 2156 2228 2338 
Q 2531 2678 2651 2914 
Q 2772 3150 2772 3378 
Q 2772 3750 2511 3984 
Q 2250 4219 1831 4219 
Q 1534 4219 1204 4116 
Q 875 4013 500 3803 
L 500 4441 
Q 881 4594 1212 4672 
Q 1544 4750 1819 4750 
Q 2544 4750 2975 4387 
Q 3406 4025 3406 3419 
Q 3406 3131 3298 2873 
Q 3191 2616 2906 2266 
Q 2828 2175 2409 1742 
Q 1991 1309 1228 531 
z
" transform="scale(0.015625)"/>
       </defs>
       <use xlink:href="#DejaVuSans-32"/>
       <use xlink:href="#DejaVuSans-30" x="63.623047"/>
      </g>
     </g>
    </g>
    <g id="xtick_6">
     <g id="text_6">
      <!-- 25 -->
      <g transform="translate(658.900677 366.30265)scale(0.08 -0.08)">
       <use xlink:href="#DejaVuSans-32"/>
       <use xlink:href="#DejaVuSans-35" x="63.623047"/>
      </g>
     </g>
    </g>
    <g id="xtick_7">
     <g id="text_7">
      <!-- 30 -->
      <g transform="translate(783.578688 366.30265)scale(0.08 -0.08)">
       <defs>
        <path id="DejaVuSans-33" d="M 2597 2516 
Q 3050 2419 3304 2112 
Q 3559 1806 3559 1356 
Q 3559 666 3084 287 
Q 2609 -91 1734 -91 
Q 1441 -91 1130 -33 
Q 819 25 488 141 
L 488 750 
Q 750 597 1062 519 
Q 1375 441 1716 441 
Q 2309 441 2620 675 
Q 2931 909 2931 1356 
Q 2931 1769 2642 2001 
Q 2353 2234 1838 2234 
L 1294 2234 
L 1294 2753 
L 1863 2753 
Q 2328 2753 2575 2939 
Q 2822 3125 2822 3475 
Q 2822 3834 2567 4026 
Q 2313 4219 1838 4219 
Q 1578 4219 1281 4162 
Q 984 4106 628 3988 
L 628 4550 
Q 988 4650 1302 4700 
Q 1616 4750 1894 4750 
Q 2613 4750 3031 4423 
Q 3450 4097 3450 3541 
Q 3450 3153 3228 2886 
Q 3006 2619 2597 2516 
z
" transform="scale(0.015625)"/>
       </defs>
       <use xlink:href="#DejaVuSans-33"/>
       <use xlink:href="#DejaVuSans-30" x="63.623047"/>
      </g>
     </g>
    </g>
    <g id="xtick_8">
     <g id="text_8">
      <!-- 35 -->
      <g transform="translate(908.256698 366.30265)scale(0.08 -0.08)">
       <use xlink:href="#DejaVuSans-33"/>
       <use xlink:href="#DejaVuSans-35" x="63.623047"/>
      </g>
     </g>
    </g>
    <g id="text_9">
     <!-- Mean Sequence Quality (Phred Score) -->
     <g transform="translate(422.078438 379.564837)scale(0.1 -0.1)">
      <defs>
       <path id="DejaVuSans-4d" d="M 628 4666 
L 1569 4666 
L 2759 1491 
L 3956 4666 
L 4897 4666 
L 4897 0 
L 4281 0 
L 4281 4097 
L 3078 897 
L 2444 897 
L 1241 4097 
L 1241 0 
L 628 0 
L 628 4666 
z
" transform="scale(0.015625)"/>
       <path id="DejaVuSans-65" d="M 3597 1894 
L 3597 1613 
L 953 1613 
Q 991 1019 1311 708 
Q 1631 397 2203 397 
Q 2534 397 2845 478 
Q 3156 559 3463 722 
L 3463 178 
Q 3153 47 2828 -22 
Q 2503 -91 2169 -91 
Q 1331 -91 842 396 
Q 353 884 353 1716 
Q 353 2575 817 3079 
Q 1281 3584 2069 3584 
Q 2775 3584 3186 3129 
Q 3597 2675 3597 1894 
z
M 3022 2063 
Q 3016 2534 2758 2815 
Q 2500 3097 2075 3097 
Q 1594 3097 1305 2825 
Q 1016 2553 972 2059 
L 3022 2063 
z
" transform="scale(0.015625)"/>
       <path id="DejaVuSans-61" d="M 2194 1759 
Q 1497 1759 1228 1600 
Q 959 1441 959 1056 
Q 959 750 1161 570 
Q 1363 391 1709 391 
Q 2188 391 2477 730 
Q 2766 1069 2766 1631 
L 2766 1759 
L 2194 1759 
z
M 3341 1997 
L 3341 0 
L 2766 0 
L 2766 531 
Q 2569 213 2275 61 
Q 1981 -91 1556 -91 
Q 1019 -91 701 211 
Q 384 513 384 1019 
Q 384 1609 779 1909 
Q 1175 2209 1959 2209 
L 2766 2209 
L 2766 2266 
Q 2766 2663 2505 2880 
Q 2244 3097 1772 3097 
Q 1472 3097 1187 3025 
Q 903 2953 641 2809 
L 641 3341 
Q 956 3463 1253 3523 
Q 1550 3584 1831 3584 
Q 2591 3584 2966 3190 
Q 3341 2797 3341 1997 
z
" transform="scale(0.015625)"/>
       <path id="DejaVuSans-6e" d="M 3513 2113 
L 3513 0 
L 2938 0 
L 2938 2094 
Q 2938 2591 2744 2837 
Q 2550 3084 2163 3084 
Q 1697 3084 1428 2787 
Q 1159 2491 1159 1978 
L 1159 0 
L 581 0 
L 581 3500 
L 1159 3500 
L 1159 2956 
Q 1366 3272 1645 3428 
Q 1925 3584 2291 3584 
Q 2894 3584 3203 3211 
Q 3513 2838 3513 2113 
z
" transform="scale(0.015625)"/>
       <path id="DejaVuSans-20" transform="scale(0.015625)"/>
       <path id="DejaVuSans-53" d="M 3425 4513 
L 3425 3897 
Q 3066 4069 2747 4153 
Q 2428 4238 2131 4238 
Q 1616 4238 1336 4038 
Q 1056 3838 1056 3469 
Q 1056 3159 1242 3001 
Q 1428 2844 1947 2747 
L 2328 2669 
Q 3034 2534 3370 2195 
Q 3706 1856 3706 1288 
Q 3706 609 3251 259 
Q 2797 -91 1919 -91 
Q 1588 -91 1214 -16 
Q 841 59 441 206 
L 441 856 
Q 825 641 1194 531 
Q 1563 422 1919 422 
Q 2459 422 2753 634 
Q 3047 847 3047 1241 
Q 3047 1584 2836 1778 
Q 2625 1972 2144 2069 
L 1759 2144 
Q 1053 2284 737 2584 
Q 422 2884 422 3419 
Q 422 4038 858 4394 
Q 1294 4750 2059 4750 
Q 2388 4750 2728 4690 
Q 3069 4631 3425 4513 
z
" transform="scale(0.015625)"/>
       <path id="DejaVuSans-71" d="M 947 1747 
Q 947 1113 1208 752 
Q 1469 391 1925 391 
Q 2381 391 2643 752 
Q 2906 1113 2906 1747 
Q 2906 2381 2643 2742 
Q 2381 3103 1925 3103 
Q 1469 3103 1208 2742 
Q 947 2381 947 1747 
z
M 2906 525 
Q 2725 213 2448 61 
Q 2172 -91 1784 -91 
Q 1150 -91 751 415 
Q 353 922 353 1747 
Q 353 2572 751 3078 
Q 1150 3584 1784 3584 
Q 2172 3584 2448 3432 
Q 2725 3281 2906 2969 
L 2906 3500 
L 3481 3500 
L 3481 -1331 
L 2906 -1331 
L 2906 525 
z
" transform="scale(0.015625)"/>
       <path id="DejaVuSans-75" d="M 544 1381 
L 544 3500 
L 1119 3500 
L 1119 1403 
Q 1119 906 1312 657 
Q 1506 409 1894 409 
Q 2359 409 2629 706 
Q 2900 1003 2900 1516 
L 2900 3500 
L 3475 3500 
L 3475 0 
L 2900 0 
L 2900 538 
Q 2691 219 2414 64 
Q 2138 -91 1772 -91 
Q 1169 -91 856 284 
Q 544 659 544 1381 
z
M 1991 3584 
L 1991 3584 
z
" transform="scale(0.015625)"/>
       <path id="DejaVuSans-63" d="M 3122 3366 
L 3122 2828 
Q 2878 2963 2633 3030 
Q 2388 3097 2138 3097 
Q 1578 3097 1268 2742 
Q 959 2388 959 1747 
Q 959 1106 1268 751 
Q 1578 397 2138 397 
Q 2388 397 2633 464 
Q 2878 531 3122 666 
L 3122 134 
Q 2881 22 2623 -34 
Q 2366 -91 2075 -91 
Q 1284 -91 818 406 
Q 353 903 353 1747 
Q 353 2603 823 3093 
Q 1294 3584 2113 3584 
Q 2378 3584 2631 3529 
Q 2884 3475 3122 3366 
z
" transform="scale(0.015625)"/>
       <path id="DejaVuSans-51" d="M 2522 4238 
Q 1834 4238 1429 3725 
Q 1025 3213 1025 2328 
Q 1025 1447 1429 934 
Q 1834 422 2522 422 
Q 3209 422 3611 934 
Q 4013 1447 4013 2328 
Q 4013 3213 3611 3725 
Q 3209 4238 2522 4238 
z
M 3406 84 
L 4238 -825 
L 3475 -825 
L 2784 -78 
Q 2681 -84 2626 -87 
Q 2572 -91 2522 -91 
Q 1538 -91 948 567 
Q 359 1225 359 2328 
Q 359 3434 948 4092 
Q 1538 4750 2522 4750 
Q 3503 4750 4090 4092 
Q 4678 3434 4678 2328 
Q 4678 1516 4351 937 
Q 4025 359 3406 84 
z
" transform="scale(0.015625)"/>
       <path id="DejaVuSans-6c" d="M 603 4863 
L 1178 4863 
L 1178 0 
L 603 0 
L 603 4863 
z
" transform="scale(0.015625)"/>
       <path id="DejaVuSans-69" d="M 603 3500 
L 1178 3500 
L 1178 0 
L 603 0 
L 603 3500 
z
M 603 4863 
L 1178 4863 
L 1178 4134 
L 603 4134 
L 603 4863 
z
" transform="scale(0.015625)"/>
       <path id="DejaVuSans-74" d="M 1172 4494 
L 1172 3500 
L 2356 3500 
L 2356 3053 
L 1172 3053 
L 1172 1153 
Q 1172 725 1289 603 
Q 1406 481 1766 481 
L 2356 481 
L 2356 0 
L 1766 0 
Q 1100 0 847 248 
Q 594 497 594 1153 
L 594 3053 
L 172 3053 
L 172 3500 
L 594 3500 
L 594 4494 
L 1172 4494 
z
" transform="scale(0.015625)"/>
       <path id="DejaVuSans-79" d="M 2059 -325 
Q 1816 -950 1584 -1140 
Q 1353 -1331 966 -1331 
L 506 -1331 
L 506 -850 
L 844 -850 
Q 1081 -850 1212 -737 
Q 1344 -625 1503 -206 
L 1606 56 
L 191 3500 
L 800 3500 
L 1894 763 
L 2988 3500 
L 3597 3500 
L 2059 -325 
z
" transform="scale(0.015625)"/>
       <path id="DejaVuSans-28" d="M 1984 4856 
Q 1566 4138 1362 3434 
Q 1159 2731 1159 2009 
Q 1159 1288 1364 580 
Q 1569 -128 1984 -844 
L 1484 -844 
Q 1016 -109 783 600 
Q 550 1309 550 2009 
Q 550 2706 781 3412 
Q 1013 4119 1484 4856 
L 1984 4856 
z
" transform="scale(0.015625)"/>
       <path id="DejaVuSans-50" d="M 1259 4147 
L 1259 2394 
L 2053 2394 
Q 2494 2394 2734 2622 
Q 2975 2850 2975 3272 
Q 2975 3691 2734 3919 
Q 2494 4147 2053 4147 
L 1259 4147 
z
M 628 4666 
L 2053 4666 
Q 2838 4666 3239 4311 
Q 3641 3956 3641 3272 
Q 3641 2581 3239 2228 
Q 2838 1875 2053 1875 
L 1259 1875 
L 1259 0 
L 628 0 
L 628 4666 
z
" transform="scale(0.015625)"/>
       <path id="DejaVuSans-68" d="M 3513 2113 
L 3513 0 
L 2938 0 
L 2938 2094 
Q 2938 2591 2744 2837 
Q 2550 3084 2163 3084 
Q 1697 3084 1428 2787 
Q 1159 2491 1159 1978 
L 1159 0 
L 581 0 
L 581 4863 
L 1159 4863 
L 1159 2956 
Q 1366 3272 1645 3428 
Q 1925 3584 2291 3584 
Q 2894 3584 3203 3211 
Q 3513 2838 3513 2113 
z
" transform="scale(0.015625)"/>
       <path id="DejaVuSans-72" d="M 2631 2963 
Q 2534 3019 2420 3045 
Q 2306 3072 2169 3072 
Q 1681 3072 1420 2755 
Q 1159 2438 1159 1844 
L 1159 0 
L 581 0 
L 581 3500 
L 1159 3500 
L 1159 2956 
Q 1341 3275 1631 3429 
Q 1922 3584 2338 3584 
Q 2397 3584 2469 3576 
Q 2541 3569 2628 3553 
L 2631 2963 
z
" transform="scale(0.015625)"/>
       <path id="DejaVuSans-64" d="M 2906 2969 
L 2906 4863 
L 3481 4863 
L 3481 0 
L 2906 0 
L 2906 525 
Q 2725 213 2448 61 
Q 2172 -91 1784 -91 
Q 1150 -91 751 415 
Q 353 922 353 1747 
Q 353 2572 751 3078 
Q 1150 3584 1784 3584 
Q 2172 3584 2448 3432 
Q 2725 3281 2906 2969 
z
M 947 1747 
Q 947 1113 1208 752 
Q 1469 391 1925 391 
Q 2381 391 2643 752 
Q 2906 1113 2906 1747 
Q 2906 2381 2643 2742 
Q 2381 3103 1925 3103 
Q 1469 3103 1208 2742 
Q 947 2381 947 1747 
z
" transform="scale(0.015625)"/>
       <path id="DejaVuSans-6f" d="M 1959 3097 
Q 1497 3097 1228 2736 
Q 959 2375 959 1747 
Q 959 1119 1226 758 
Q 1494 397 1959 397 
Q 2419 397 2687 759 
Q 2956 1122 2956 1747 
Q 2956 2369 2687 2733 
Q 2419 3097 1959 3097 
z
M 1959 3584 
Q 2709 3584 3137 3096 
Q 3566 2609 3566 1747 
Q 3566 888 3137 398 
Q 2709 -91 1959 -91 
Q 1206 -91 779 398 
Q 353 888 353 1747 
Q 353 2609 779 3096 
Q 1206 3584 1959 3584 
z
" transform="scale(0.015625)"/>
       <path id="DejaVuSans-29" d="M 513 4856 
L 1013 4856 
Q 1481 4119 1714 3412 
Q 1947 2706 1947 2009 
Q 1947 1309 1714 600 
Q 1481 -109 1013 -844 
L 513 -844 
Q 928 -128 1133 580 
Q 1338 1288 1338 2009 
Q 1338 2731 1133 3434 
Q 928 4138 513 4856 
z
" transform="scale(0.015625)"/>
      </defs>
      <use xlink:href="#DejaVuSans-4d"/>
      <use xlink:href="#DejaVuSans-65" x="86.279297"/>
      <use xlink:href="#DejaVuSans-61" x="147.802734"/>
      <use xlink:href="#DejaVuSans-6e" x="209.082031"/>
      <use xlink:href="#DejaVuSans-20" x="272.460938"/>
      <use xlink:href="#DejaVuSans-53" x="304.248047"/>
      <use xlink:href="#DejaVuSans-65" x="367.724609"/>
      <use xlink:href="#DejaVuSans-71" x="429.248047"/>
      <use xlink:href="#DejaVuSans-75" x="492.724609"/>
      <use xlink:href="#DejaVuSans-65" x="556.103516"/>
      <use xlink:href="#DejaVuSans-6e" x="617.626953"/>
      <use xlink:href="#DejaVuSans-63" x="681.005859"/>
      <use xlink:href="#DejaVuSans-65" x="735.986328"/>
      <use xlink:href="#DejaVuSans-20" x="797.509766"/>
      <use xlink:href="#DejaVuSans-51" x="829.296875"/>
      <use xlink:href="#DejaVuSans-75" x="908.007812"/>
      <use xlink:href="#DejaVuSans-61" x="971.386719"/>
      <use xlink:href="#DejaVuSans-6c" x="1032.666016"/>
      <use xlink:href="#DejaVuSans-69" x="1060.449219"/>
      <use xlink:href="#DejaVuSans-74" x="1088.232422"/>
      <use xlink:href="#DejaVuSans-79" x="1127.441406"/>
      <use xlink:href="#DejaVuSans-20" x="1186.621094"/>
      <use xlink:href="#DejaVuSans-28" x="1218.408203"/>
      <use xlink:href="#DejaVuSans-50" x="1257.421875"/>
      <use xlink:href="#DejaVuSans-68" x="1317.724609"/>
      <use xlink:href="#DejaVuSans-72" x="1381.103516"/>
      <use xlink:href="#DejaVuSans-65" x="1419.966797"/>
      <use xlink:href="#DejaVuSans-64" x="1481.490234"/>
      <use xlink:href="#DejaVuSans-20" x="1544.966797"/>
      <use xlink:href="#DejaVuSans-53" x="1576.753906"/>
      <use xlink:href="#DejaVuSans-63" x="1640.230469"/>
      <use xlink:href="#DejaVuSans-6f" x="1695.210938"/>
      <use xlink:href="#DejaVuSans-72" x="1756.392578"/>
      <use xlink:href="#DejaVuSans-65" x="1795.255859"/>
      <use xlink:href="#DejaVuSans-29" x="1856.779297"/>
     </g>
    </g>
   </g>
   <g id="matplotlib.axis_2">
    <g id="ytick_1">
     <g id="line2d_1">
      <path d="M 40.600625 353.2239 
L 993.140625 353.2239 
" clip-path="url(#pb34824b68f)" style="fill: none; stroke: #dedede; stroke-linecap: square"/>
     </g>
     <g id="text_10">
      <!-- 0.0 -->
      <g transform="translate(20.878125 356.263275)scale(0.08 -0.08)">
       <defs>
        <path id="DejaVuSans-2e" d="M 684 794 
L 1344 794 
L 1344 0 
L 684 0 
L 684 794 
z
" transform="scale(0.015625)"/>
       </defs>
       <use xlink:href="#DejaVuSans-30"/>
       <use xlink:href="#DejaVuSans-2e" x="63.623047"/>
       <use xlink:href="#DejaVuSans-30" x="95.410156"/>
      </g>
     </g>
    </g>
    <g id="ytick_2">
     <g id="line2d_2">
      <path d="M 40.600625 290.341103 
L 993.140625 290.341103 
" clip-path="url(#pb34824b68f)" style="fill: none; stroke: #dedede; stroke-linecap: square"/>
     </g>
     <g id="text_11">
      <!-- 0.2 -->
      <g transform="translate(20.878125 293.380478)scale(0.08 -0.08)">
       <use xlink:href="#DejaVuSans-30"/>
       <use xlink:href="#DejaVuSans-2e" x="63.623047"/>
       <use xlink:href="#DejaVuSans-32" x="95.410156"/>
      </g>
     </g>
    </g>
    <g id="ytick_3">
     <g id="line2d_3">
      <path d="M 40.600625 227.458306 
L 993.140625 227.458306 
" clip-path="url(#pb34824b68f)" style="fill: none; stroke: #dedede; stroke-linecap: square"/>
     </g>
     <g id="text_12">
      <!-- 0.4 -->
      <g transform="translate(20.878125 230.497681)scale(0.08 -0.08)">
       <defs>
        <path id="DejaVuSans-34" d="M 2419 4116 
L 825 1625 
L 2419 1625 
L 2419 4116 
z
M 2253 4666 
L 3047 4666 
L 3047 1625 
L 3713 1625 
L 3713 1100 
L 3047 1100 
L 3047 0 
L 2419 0 
L 2419 1100 
L 313 1100 
L 313 1709 
L 2253 4666 
z
" transform="scale(0.015625)"/>
       </defs>
       <use xlink:href="#DejaVuSans-30"/>
       <use xlink:href="#DejaVuSans-2e" x="63.623047"/>
       <use xlink:href="#DejaVuSans-34" x="95.410156"/>
      </g>
     </g>
    </g>
    <g id="ytick_4">
     <g id="line2d_4">
      <path d="M 40.600625 164.575509 
L 993.140625 164.575509 
" clip-path="url(#pb34824b68f)" style="fill: none; stroke: #dedede; stroke-linecap: square"/>
     </g>
     <g id="text_13">
      <!-- 0.6 -->
      <g transform="translate(20.878125 167.614884)scale(0.08 -0.08)">
       <defs>
        <path id="DejaVuSans-36" d="M 2113 2584 
Q 1688 2584 1439 2293 
Q 1191 2003 1191 1497 
Q 1191 994 1439 701 
Q 1688 409 2113 409 
Q 2538 409 2786 701 
Q 3034 994 3034 1497 
Q 3034 2003 2786 2293 
Q 2538 2584 2113 2584 
z
M 3366 4563 
L 3366 3988 
Q 3128 4100 2886 4159 
Q 2644 4219 2406 4219 
Q 1781 4219 1451 3797 
Q 1122 3375 1075 2522 
Q 1259 2794 1537 2939 
Q 1816 3084 2150 3084 
Q 2853 3084 3261 2657 
Q 3669 2231 3669 1497 
Q 3669 778 3244 343 
Q 2819 -91 2113 -91 
Q 1303 -91 875 529 
Q 447 1150 447 2328 
Q 447 3434 972 4092 
Q 1497 4750 2381 4750 
Q 2619 4750 2861 4703 
Q 3103 4656 3366 4563 
z
" transform="scale(0.015625)"/>
       </defs>
       <use xlink:href="#DejaVuSans-30"/>
       <use xlink:href="#DejaVuSans-2e" x="63.623047"/>
       <use xlink:href="#DejaVuSans-36" x="95.410156"/>
      </g>
     </g>
    </g>
    <g id="ytick_5">
     <g id="line2d_5">
      <path d="M 40.600625 101.692712 
L 993.140625 101.692712 
" clip-path="url(#pb34824b68f)" style="fill: none; stroke: #dedede; stroke-linecap: square"/>
     </g>
     <g id="text_14">
      <!-- 0.8 -->
      <g transform="translate(20.878125 104.732087)scale(0.08 -0.08)">
       <defs>
        <path id="DejaVuSans-38" d="M 2034 2216 
Q 1584 2216 1326 1975 
Q 1069 1734 1069 1313 
Q 1069 891 1326 650 
Q 1584 409 2034 409 
Q 2484 409 2743 651 
Q 3003 894 3003 1313 
Q 3003 1734 2745 1975 
Q 2488 2216 2034 2216 
z
M 1403 2484 
Q 997 2584 770 2862 
Q 544 3141 544 3541 
Q 544 4100 942 4425 
Q 1341 4750 2034 4750 
Q 2731 4750 3128 4425 
Q 3525 4100 3525 3541 
Q 3525 3141 3298 2862 
Q 3072 2584 2669 2484 
Q 3125 2378 3379 2068 
Q 3634 1759 3634 1313 
Q 3634 634 3220 271 
Q 2806 -91 2034 -91 
Q 1263 -91 848 271 
Q 434 634 434 1313 
Q 434 1759 690 2068 
Q 947 2378 1403 2484 
z
M 1172 3481 
Q 1172 3119 1398 2916 
Q 1625 2713 2034 2713 
Q 2441 2713 2670 2916 
Q 2900 3119 2900 3481 
Q 2900 3844 2670 4047 
Q 2441 4250 2034 4250 
Q 1625 4250 1398 4047 
Q 1172 3844 1172 3481 
z
" transform="scale(0.015625)"/>
       </defs>
       <use xlink:href="#DejaVuSans-30"/>
       <use xlink:href="#DejaVuSans-2e" x="63.623047"/>
       <use xlink:href="#DejaVuSans-38" x="95.410156"/>
      </g>
     </g>
    </g>
    <g id="ytick_6">
     <g id="line2d_6">
      <path d="M 40.600625 38.809915 
L 993.140625 38.809915 
" clip-path="url(#pb34824b68f)" style="fill: none; stroke: #dedede; stroke-linecap: square"/>
     </g>
     <g id="text_15">
      <!-- 1.0 -->
      <g transform="translate(20.878125 41.84929)scale(0.08 -0.08)">
       <use xlink:href="#DejaVuSans-31"/>
       <use xlink:href="#DejaVuSans-2e" x="63.623047"/>
       <use xlink:href="#DejaVuSans-30" x="95.410156"/>
      </g>
     </g>
    </g>
    <g id="text_16">
     <!-- Count -->
     <g transform="translate(14.798438 209.088338)rotate(-90)scale(0.1 -0.1)">
      <defs>
       <path id="DejaVuSans-43" d="M 4122 4306 
L 4122 3641 
Q 3803 3938 3442 4084 
Q 3081 4231 2675 4231 
Q 1875 4231 1450 3742 
Q 1025 3253 1025 2328 
Q 1025 1406 1450 917 
Q 1875 428 2675 428 
Q 3081 428 3442 575 
Q 3803 722 4122 1019 
L 4122 359 
Q 3791 134 3420 21 
Q 3050 -91 2638 -91 
Q 1578 -91 968 557 
Q 359 1206 359 2328 
Q 359 3453 968 4101 
Q 1578 4750 2638 4750 
Q 3056 4750 3426 4639 
Q 3797 4528 4122 4306 
z
" transform="scale(0.015625)"/>
      </defs>
      <use xlink:href="#DejaVuSans-43"/>
      <use xlink:href="#DejaVuSans-6f" x="69.824219"/>
      <use xlink:href="#DejaVuSans-75" x="131.005859"/>
      <use xlink:href="#DejaVuSans-6e" x="194.384766"/>
      <use xlink:href="#DejaVuSans-74" x="257.763672"/>
     </g>
    </g>
    <g id="text_17">
     <!-- 1e7 -->
     <g transform="translate(40.600625 32.2559)scale(0.1 -0.1)">
      <defs>
       <path id="DejaVuSans-37" d="M 525 4666 
L 3525 4666 
L 3525 4397 
L 1831 0 
L 1172 0 
L 2766 4134 
L 525 4134 
L 525 4666 
z
" transform="scale(0.015625)"/>
      </defs>
      <use xlink:href="#DejaVuSans-31"/>
      <use xlink:href="#DejaVuSans-65" x="63.623047"/>
      <use xlink:href="#DejaVuSans-37" x="125.146484"/>
     </g>
    </g>
   </g>
   <g id="line2d_7">
    <path d="M 464.505861 353.223806 
L 489.441463 353.223554 
L 514.377065 353.222737 
L 539.312667 353.218052 
L 564.248269 353.19488 
L 589.183871 353.125551 
L 614.119473 352.923603 
L 639.055075 352.494271 
L 663.990677 351.708236 
L 688.926279 350.595022 
L 713.861882 349.00874 
L 738.797484 347.058996 
L 763.733086 344.395438 
L 788.668688 341.400614 
L 813.60429 335.260234 
L 838.539892 317.526499 
L 863.475494 268.852385 
L 888.411096 196.021215 
L 913.346698 163.349766 
L 938.2823 132.989826 
L 963.217902 310.177418 
" clip-path="url(#pb34824b68f)" style="fill: none; stroke: #5cb85c; stroke-linecap: square"/>
   </g>
   <g id="line2d_8">
    <path d="M 439.570259 353.223711 
L 464.505861 353.223586 
L 489.441463 353.222422 
L 514.377065 353.219844 
L 539.312667 353.206639 
L 564.248269 353.167054 
L 589.183871 353.051821 
L 614.119473 352.759856 
L 639.055075 352.180297 
L 663.990677 351.144272 
L 688.926279 349.781696 
L 713.861882 347.818935 
L 738.797484 345.588954 
L 763.733086 342.515368 
L 788.668688 338.995315 
L 813.60429 332.433747 
L 838.539892 314.757298 
L 863.475494 247.321252 
L 888.411096 128.2074 
L 913.346698 80.437194 
L 938.2823 104.933848 
L 963.217902 324.252758 
" clip-path="url(#pb34824b68f)" style="fill: none; stroke: #5cb85c; stroke-linecap: square"/>
   </g>
   <g id="line2d_9">
    <path d="M 439.570259 353.223869 
L 464.505861 353.223586 
L 489.441463 353.223051 
L 514.377065 353.220567 
L 539.312667 353.208619 
L 564.248269 353.159822 
L 589.183871 353.017865 
L 614.119473 352.623715 
L 639.055075 351.861356 
L 663.990677 350.568422 
L 688.926279 349.007891 
L 713.861882 346.806207 
L 738.797484 344.08137 
L 763.733086 339.289166 
L 788.668688 326.409166 
L 813.60429 281.017219 
L 838.539892 225.447471 
L 863.475494 187.39096 
L 888.411096 230.973957 
L 913.346698 278.834211 
L 938.2823 184.002237 
L 963.217902 315.660358 
" clip-path="url(#pb34824b68f)" style="fill: none; stroke: #5cb85c; stroke-linecap: square"/>
   </g>
   <g id="line2d_10">
    <path d="M 414.634656 353.223837 
L 439.570259 353.223837 
L 464.505861 353.223428 
L 489.441463 353.221982 
L 514.377065 353.214876 
L 539.312667 353.184252 
L 564.248269 353.060153 
L 589.183871 352.711845 
L 614.119473 351.830354 
L 639.055075 350.266239 
L 663.990677 347.842233 
L 688.926279 344.92073 
L 713.861882 340.219926 
L 738.797484 331.925622 
L 763.733086 285.718431 
L 788.668688 156.917988 
L 813.60429 109.084679 
L 838.539892 213.82824 
L 863.475494 308.162025 
L 888.411096 320.341196 
L 913.346698 321.543453 
L 938.2823 198.813557 
L 963.217902 331.460636 
" clip-path="url(#pb34824b68f)" style="fill: none; stroke: #5cb85c; stroke-linecap: square"/>
   </g>
   <g id="line2d_11">
    <path d="M 464.505861 353.223743 
L 489.441463 353.223365 
L 514.377065 353.221259 
L 539.312667 353.2095 
L 564.248269 353.159445 
L 589.183871 352.997522 
L 614.119473 352.531246 
L 639.055075 351.563888 
L 663.990677 349.823356 
L 688.926279 347.601926 
L 713.861882 344.316457 
L 738.797484 340.220178 
L 763.733086 332.237521 
L 788.668688 302.897697 
L 813.60429 219.473794 
L 838.539892 139.246192 
L 863.475494 166.151981 
L 888.411096 263.922939 
L 913.346698 310.556948 
L 938.2823 195.512902 
L 963.217902 319.744061 
" clip-path="url(#pb34824b68f)" style="fill: none; stroke: #5cb85c; stroke-linecap: square"/>
   </g>
   <g id="line2d_12">
    <path d="M 439.570259 353.223837 
L 464.505861 353.223648 
L 489.441463 353.223271 
L 514.377065 353.222202 
L 539.312667 353.215914 
L 564.248269 353.191264 
L 589.183871 353.12596 
L 614.119473 352.960138 
L 639.055075 352.57866 
L 663.990677 351.909995 
L 688.926279 350.949524 
L 713.861882 349.477815 
L 738.797484 347.746966 
L 763.733086 345.389678 
L 788.668688 342.90367 
L 813.60429 338.619622 
L 838.539892 330.229579 
L 863.475494 297.373066 
L 888.411096 212.875094 
L 913.346698 107.360087 
L 938.2823 52.77829 
L 963.217902 313.796072 
" clip-path="url(#pb34824b68f)" style="fill: none; stroke: #5cb85c; stroke-linecap: square"/>
   </g>
   <g id="line2d_13">
    <path d="M 439.570259 353.223837 
L 464.505861 353.223711 
L 489.441463 353.223114 
L 514.377065 353.22107 
L 539.312667 353.20884 
L 564.248269 353.160105 
L 589.183871 352.997145 
L 614.119473 352.570705 
L 639.055075 351.72207 
L 663.990677 350.290638 
L 688.926279 348.497252 
L 713.861882 345.911983 
L 738.797484 342.600166 
L 763.733086 335.763611 
L 788.668688 308.445563 
L 813.60429 238.044342 
L 838.539892 195.147584 
L 863.475494 235.088284 
L 888.411096 293.910142 
L 913.346698 319.272849 
L 938.2823 245.78556 
L 963.217902 331.321948 
" clip-path="url(#pb34824b68f)" style="fill: none; stroke: #5cb85c; stroke-linecap: square"/>
   </g>
   <g id="line2d_14">
    <path d="M 464.505861 353.223743 
L 489.441463 353.223303 
L 514.377065 353.22129 
L 539.312667 353.211984 
L 564.248269 353.172839 
L 589.183871 353.045942 
L 614.119473 352.720586 
L 639.055075 352.102134 
L 663.990677 351.013821 
L 688.926279 349.668035 
L 713.861882 347.764573 
L 738.797484 345.509124 
L 763.733086 341.823217 
L 788.668688 333.637795 
L 813.60429 307.643933 
L 838.539892 265.275108 
L 863.475494 211.59109 
L 888.411096 216.275732 
L 913.346698 260.219268 
L 938.2823 225.393769 
L 963.217902 324.119761 
" clip-path="url(#pb34824b68f)" style="fill: none; stroke: #5cb85c; stroke-linecap: square"/>
   </g>
   <g id="line2d_15">
    <path d="M 439.570259 353.223869 
L 464.505861 353.223491 
L 489.441463 353.223177 
L 514.377065 353.221888 
L 539.312667 353.213996 
L 564.248269 353.190289 
L 589.183871 353.117156 
L 614.119473 352.922534 
L 639.055075 352.513922 
L 663.990677 351.738514 
L 688.926279 350.653157 
L 713.861882 349.027165 
L 738.797484 347.02941 
L 763.733086 344.263133 
L 788.668688 340.698559 
L 813.60429 331.643279 
L 838.539892 303.163157 
L 863.475494 243.857542 
L 888.411096 190.852155 
L 913.346698 192.810734 
L 938.2823 153.380767 
L 963.217902 319.469955 
" clip-path="url(#pb34824b68f)" style="fill: none; stroke: #5cb85c; stroke-linecap: square"/>
   </g>
   <g id="line2d_16">
    <path d="M 439.570259 353.223869 
L 464.505861 353.223554 
L 489.441463 353.222611 
L 514.377065 353.219624 
L 539.312667 353.20623 
L 564.248269 353.159822 
L 589.183871 353.022989 
L 614.119473 352.67311 
L 639.055075 351.989165 
L 663.990677 350.862462 
L 688.926279 349.461088 
L 713.861882 347.445537 
L 738.797484 345.098594 
L 763.733086 341.389295 
L 788.668688 334.685108 
L 813.60429 308.306215 
L 838.539892 257.341532 
L 863.475494 211.187005 
L 888.411096 207.598189 
L 913.346698 237.613186 
L 938.2823 194.260025 
L 963.217902 325.053444 
" clip-path="url(#pb34824b68f)" style="fill: none; stroke: #5cb85c; stroke-linecap: square"/>
   </g>
   <g id="line2d_17">
    <path d="M 364.763452 353.223869 
L 389.699054 353.2239 
L 414.634656 353.2239 
L 439.570259 353.223869 
L 464.505861 353.223334 
L 489.441463 353.222296 
L 514.377065 353.216417 
L 539.312667 353.192899 
L 564.248269 353.102159 
L 589.183871 352.854181 
L 614.119473 352.198722 
L 639.055075 351.030579 
L 663.990677 349.179153 
L 688.926279 347.040666 
L 713.861882 343.887848 
L 738.797484 339.579465 
L 763.733086 326.66032 
L 788.668688 264.379186 
L 813.60429 184.636442 
L 838.539892 196.998319 
L 863.475494 256.295256 
L 888.411096 297.613467 
L 913.346698 314.865237 
L 938.2823 269.378494 
L 963.217902 336.568448 
" clip-path="url(#pb34824b68f)" style="fill: none; stroke: #5cb85c; stroke-linecap: square"/>
   </g>
   <g id="line2d_18">
    <path d="M 439.570259 353.223837 
L 464.505861 353.22346 
L 489.441463 353.222611 
L 514.377065 353.218618 
L 539.312667 353.204532 
L 564.248269 353.149352 
L 589.183871 352.996799 
L 614.119473 352.620697 
L 639.055075 351.93235 
L 663.990677 350.781249 
L 688.926279 349.452221 
L 713.861882 347.637707 
L 738.797484 345.465483 
L 763.733086 341.784262 
L 788.668688 332.682574 
L 813.60429 298.100023 
L 838.539892 248.383185 
L 863.475494 215.704756 
L 888.411096 236.240549 
L 913.346698 269.826974 
L 938.2823 194.410661 
L 963.217902 316.935087 
" clip-path="url(#pb34824b68f)" style="fill: none; stroke: #5cb85c; stroke-linecap: square"/>
   </g>
   <g id="line2d_19">
    <path d="M 439.570259 353.223774 
L 464.505861 353.223208 
L 489.441463 353.221793 
L 514.377065 353.216354 
L 539.312667 353.194031 
L 564.248269 353.113918 
L 589.183871 352.901972 
L 614.119473 352.372813 
L 639.055075 351.391653 
L 663.990677 349.753744 
L 688.926279 347.789286 
L 713.861882 345.017789 
L 738.797484 341.857772 
L 763.733086 337.251292 
L 788.668688 331.354709 
L 813.60429 314.921485 
L 838.539892 258.628051 
L 863.475494 187.321506 
L 888.411096 171.95383 
L 913.346698 186.595964 
L 938.2823 113.974256 
L 963.217902 318.07512 
" clip-path="url(#pb34824b68f)" style="fill: none; stroke: #5cb85c; stroke-linecap: square"/>
   </g>
   <g id="line2d_20">
    <path d="M 439.570259 353.223869 
L 464.505861 353.223743 
L 489.441463 353.223114 
L 514.377065 353.220787 
L 539.312667 353.210066 
L 564.248269 353.168909 
L 589.183871 353.049589 
L 614.119473 352.718857 
L 639.055075 352.060725 
L 663.990677 350.852275 
L 688.926279 349.309697 
L 713.861882 347.137443 
L 738.797484 344.50105 
L 763.733086 340.705004 
L 788.668688 335.77603 
L 813.60429 321.652586 
L 838.539892 281.924492 
L 863.475494 212.698267 
L 888.411096 150.500987 
L 913.346698 155.412762 
L 938.2823 112.961843 
L 963.217902 311.693365 
" clip-path="url(#pb34824b68f)" style="fill: none; stroke: #5cb85c; stroke-linecap: square"/>
   </g>
   <g id="line2d_21">
    <path d="M 414.634656 353.223869 
L 439.570259 353.223837 
L 464.505861 353.223806 
L 489.441463 353.222862 
L 514.377065 353.220976 
L 539.312667 353.215631 
L 564.248269 353.191735 
L 589.183871 353.129922 
L 614.119473 352.95888 
L 639.055075 352.613214 
L 663.990677 351.975959 
L 688.926279 351.092708 
L 713.861882 349.805245 
L 738.797484 348.262887 
L 763.733086 346.176342 
L 788.668688 343.920139 
L 813.60429 340.216656 
L 838.539892 332.208595 
L 863.475494 298.056476 
L 888.411096 217.19772 
L 913.346698 140.094796 
L 938.2823 130.112938 
L 963.217902 327.939954 
" clip-path="url(#pb34824b68f)" style="fill: none; stroke: #5cb85c; stroke-linecap: square"/>
   </g>
   <g id="line2d_22">
    <path d="M 439.570259 353.22368 
L 464.505861 353.22324 
L 489.441463 353.221668 
L 514.377065 353.21365 
L 539.312667 353.178907 
L 564.248269 353.052733 
L 589.183871 352.722001 
L 614.119473 351.923515 
L 639.055075 350.504691 
L 663.990677 348.29458 
L 688.926279 345.825047 
L 713.861882 342.223404 
L 738.797484 337.655754 
L 763.733086 326.973445 
L 788.668688 283.915739 
L 813.60429 202.44966 
L 838.539892 197.736343 
L 863.475494 220.314286 
L 888.411096 266.907514 
L 913.346698 298.8643 
L 938.2823 210.091681 
L 963.217902 334.721643 
" clip-path="url(#pb34824b68f)" style="fill: none; stroke: #5cb85c; stroke-linecap: square"/>
   </g>
   <g id="line2d_23">
    <path d="M 414.634656 353.223869 
L 439.570259 353.223774 
L 464.505861 353.223523 
L 489.441463 353.2228 
L 514.377065 353.220536 
L 539.312667 353.210003 
L 564.248269 353.175386 
L 589.183871 353.06946 
L 614.119473 352.794756 
L 639.055075 352.273049 
L 663.990677 351.357476 
L 688.926279 350.222567 
L 713.861882 348.623049 
L 738.797484 346.730748 
L 763.733086 343.904795 
L 788.668688 340.009961 
L 813.60429 328.843831 
L 838.539892 296.095602 
L 863.475494 238.264494 
L 888.411096 191.355248 
L 913.346698 204.340389 
L 938.2823 186.679409 
L 963.217902 320.512992 
" clip-path="url(#pb34824b68f)" style="fill: none; stroke: #5cb85c; stroke-linecap: square"/>
   </g>
   <g id="line2d_24">
    <path d="M 439.570259 353.223869 
L 464.505861 353.223743 
L 489.441463 353.22302 
L 514.377065 353.22151 
L 539.312667 353.214813 
L 564.248269 353.187428 
L 589.183871 353.109673 
L 614.119473 352.908071 
L 639.055075 352.496157 
L 663.990677 351.740055 
L 688.926279 350.707645 
L 713.861882 349.209211 
L 738.797484 347.504961 
L 763.733086 345.368864 
L 788.668688 343.037201 
L 813.60429 339.069391 
L 838.539892 331.157006 
L 863.475494 293.806731 
L 888.411096 177.855444 
L 913.346698 97.843153 
L 938.2823 124.383372 
L 963.217902 330.019142 
" clip-path="url(#pb34824b68f)" style="fill: none; stroke: #5cb85c; stroke-linecap: square"/>
   </g>
   <g id="line2d_25">
    <path d="M 439.570259 353.223869 
L 464.505861 353.223837 
L 489.441463 353.223523 
L 514.377065 353.221668 
L 539.312667 353.215757 
L 564.248269 353.191893 
L 589.183871 353.129167 
L 614.119473 352.951712 
L 639.055075 352.591959 
L 663.990677 351.935746 
L 688.926279 351.031491 
L 713.861882 349.742583 
L 738.797484 348.252638 
L 763.733086 346.266327 
L 788.668688 344.02575 
L 813.60429 339.88866 
L 838.539892 328.914228 
L 863.475494 289.301713 
L 888.411096 224.821221 
L 913.346698 183.986076 
L 938.2823 137.264158 
L 963.217902 323.040786 
" clip-path="url(#pb34824b68f)" style="fill: none; stroke: #5cb85c; stroke-linecap: square"/>
   </g>
   <g id="line2d_26">
    <path d="M 439.570259 353.223869 
L 464.505861 353.223617 
L 489.441463 353.223208 
L 514.377065 353.221007 
L 539.312667 353.212896 
L 564.248269 353.176989 
L 589.183871 353.063863 
L 614.119473 352.765893 
L 639.055075 352.17033 
L 663.990677 351.089218 
L 688.926279 349.675644 
L 713.861882 347.58259 
L 738.797484 344.933369 
L 763.733086 340.42439 
L 788.668688 326.487424 
L 813.60429 279.753086 
L 838.539892 222.599163 
L 863.475494 215.540727 
L 888.411096 274.072946 
L 913.346698 308.008905 
L 938.2823 165.879195 
L 963.217902 304.560853 
" clip-path="url(#pb34824b68f)" style="fill: none; stroke: #5cb85c; stroke-linecap: square"/>
   </g>
   <g id="line2d_27">
    <path d="M 439.570259 353.223869 
L 464.505861 353.223586 
L 489.441463 353.222768 
L 514.377065 353.220536 
L 539.312667 353.212455 
L 564.248269 353.171739 
L 589.183871 353.059996 
L 614.119473 352.759196 
L 639.055075 352.185045 
L 663.990677 351.152792 
L 688.926279 349.85442 
L 713.861882 347.953127 
L 738.797484 345.600147 
L 763.733086 341.561594 
L 788.668688 331.203476 
L 813.60429 296.297299 
L 838.539892 249.370917 
L 863.475494 217.700814 
L 888.411096 242.284749 
L 913.346698 273.84792 
L 938.2823 192.418722 
L 963.217902 324.198113 
" clip-path="url(#pb34824b68f)" style="fill: none; stroke: #5cb85c; stroke-linecap: square"/>
   </g>
   <g id="line2d_28">
    <path d="M 414.634656 353.223869 
L 439.570259 353.2239 
L 464.505861 353.223523 
L 489.441463 353.222642 
L 514.377065 353.22063 
L 539.312667 353.211072 
L 564.248269 353.17133 
L 589.183871 353.069554 
L 614.119473 352.815099 
L 639.055075 352.335335 
L 663.990677 351.524147 
L 688.926279 350.467024 
L 713.861882 349.005691 
L 738.797484 347.329833 
L 763.733086 344.890483 
L 788.668688 341.842051 
L 813.60429 335.045049 
L 838.539892 315.429358 
L 863.475494 266.505253 
L 888.411096 207.5404 
L 913.346698 181.740154 
L 938.2823 116.310918 
L 963.217902 306.732384 
" clip-path="url(#pb34824b68f)" style="fill: none; stroke: #5cb85c; stroke-linecap: square"/>
   </g>
   <g id="line2d_29">
    <path d="M 439.570259 353.223837 
L 464.505861 353.223617 
L 489.441463 353.222642 
L 514.377065 353.218083 
L 539.312667 353.191735 
L 564.248269 353.085306 
L 589.183871 352.787053 
L 614.119473 352.022776 
L 639.055075 350.679033 
L 663.990677 348.586734 
L 688.926279 346.039792 
L 713.861882 342.207306 
L 738.797484 335.379523 
L 763.733086 288.224468 
L 788.668688 177.835699 
L 813.60429 190.849576 
L 838.539892 267.095534 
L 863.475494 327.063493 
L 888.411096 329.458825 
L 913.346698 328.554947 
L 938.2823 197.926469 
L 963.217902 320.031373 
" clip-path="url(#pb34824b68f)" style="fill: none; stroke: #5cb85c; stroke-linecap: square"/>
   </g>
   <g id="line2d_30">
    <path d="M 439.570259 353.223869 
L 464.505861 353.223869 
L 489.441463 353.223774 
L 514.377065 353.222265 
L 539.312667 353.216291 
L 564.248269 353.188528 
L 589.183871 353.099141 
L 614.119473 352.852954 
L 639.055075 352.321972 
L 663.990677 351.320941 
L 688.926279 349.997761 
L 713.861882 348.141964 
L 738.797484 345.926571 
L 763.733086 342.521845 
L 788.668688 337.384101 
L 813.60429 319.773396 
L 838.539892 286.498304 
L 863.475494 228.631667 
L 888.411096 204.077822 
L 913.346698 235.418733 
L 938.2823 203.781675 
L 963.217902 327.410638 
" clip-path="url(#pb34824b68f)" style="fill: none; stroke: #5cb85c; stroke-linecap: square"/>
   </g>
   <g id="line2d_31">
    <path d="M 389.699054 353.223869 
L 414.634656 353.2239 
L 439.570259 353.223837 
L 464.505861 353.223303 
L 489.441463 353.221982 
L 514.377065 353.216731 
L 539.312667 353.19554 
L 564.248269 353.1253 
L 589.183871 352.935834 
L 614.119473 352.480531 
L 639.055075 351.635229 
L 663.990677 350.222221 
L 688.926279 348.463704 
L 713.861882 346.063436 
L 738.797484 343.410285 
L 763.733086 339.76695 
L 788.668688 335.188988 
L 813.60429 324.721455 
L 838.539892 289.034367 
L 863.475494 195.79839 
L 888.411096 123.015042 
L 913.346698 132.148391 
L 938.2823 155.119697 
L 963.217902 328.869864 
" clip-path="url(#pb34824b68f)" style="fill: none; stroke: #5cb85c; stroke-linecap: square"/>
   </g>
   <g id="line2d_32">
    <path d="M 439.570259 353.223869 
L 464.505861 353.223774 
L 489.441463 353.223114 
L 514.377065 353.218272 
L 539.312667 353.194785 
L 564.248269 353.100304 
L 589.183871 352.823462 
L 614.119473 352.13587 
L 639.055075 350.915787 
L 663.990677 349.027888 
L 688.926279 346.798945 
L 713.861882 343.313414 
L 738.797484 337.819596 
L 763.733086 305.731856 
L 788.668688 194.294265 
L 813.60429 175.093977 
L 838.539892 274.768776 
L 863.475494 328.495146 
L 888.411096 332.637739 
L 913.346698 334.614742 
L 938.2823 238.665844 
L 963.217902 324.264171 
" clip-path="url(#pb34824b68f)" style="fill: none; stroke: #5cb85c; stroke-linecap: square"/>
   </g>
   <g id="line2d_33">
    <path d="M 414.634656 353.223869 
L 439.570259 353.223617 
L 464.505861 353.223114 
L 489.441463 353.221762 
L 514.377065 353.216197 
L 539.312667 353.197584 
L 564.248269 353.130047 
L 589.183871 352.95756 
L 614.119473 352.530554 
L 639.055075 351.74977 
L 663.990677 350.469791 
L 688.926279 348.927936 
L 713.861882 346.789072 
L 738.797484 344.197735 
L 763.733086 340.241747 
L 788.668688 333.481877 
L 813.60429 306.849535 
L 838.539892 240.384871 
L 863.475494 181.587538 
L 888.411096 189.448233 
L 913.346698 236.664505 
L 938.2823 225.358209 
L 963.217902 328.585948 
" clip-path="url(#pb34824b68f)" style="fill: none; stroke: #5cb85c; stroke-linecap: square"/>
   </g>
   <g id="line2d_34">
    <path d="M 464.505861 353.223491 
L 489.441463 353.223145 
L 514.377065 353.220976 
L 539.312667 353.212078 
L 564.248269 353.175983 
L 589.183871 353.068076 
L 614.119473 352.796328 
L 639.055075 352.24406 
L 663.990677 351.317042 
L 688.926279 350.141291 
L 713.861882 348.454869 
L 738.797484 346.321853 
L 763.733086 342.864305 
L 788.668688 335.662653 
L 813.60429 307.87028 
L 838.539892 262.040323 
L 863.475494 218.011455 
L 888.411096 234.030721 
L 913.346698 274.39673 
L 938.2823 208.831698 
L 963.217902 321.147417 
" clip-path="url(#pb34824b68f)" style="fill: none; stroke: #5cb85c; stroke-linecap: square"/>
   </g>
   <g id="line2d_35">
    <path d="M 464.505861 353.223806 
L 489.441463 353.222674 
L 514.377065 353.220819 
L 539.312667 353.211355 
L 564.248269 353.174914 
L 589.183871 353.070057 
L 614.119473 352.798278 
L 639.055075 352.258083 
L 663.990677 351.306855 
L 688.926279 350.063065 
L 713.861882 348.366015 
L 738.797484 346.387628 
L 763.733086 343.493668 
L 788.668688 339.68297 
L 813.60429 328.84578 
L 838.539892 294.368337 
L 863.475494 229.457727 
L 888.411096 178.839402 
L 913.346698 198.115338 
L 938.2823 184.744569 
L 963.217902 328.910927 
" clip-path="url(#pb34824b68f)" style="fill: none; stroke: #5cb85c; stroke-linecap: square"/>
   </g>
   <g id="line2d_36">
    <path d="M 439.570259 353.223837 
L 464.505861 353.223711 
L 489.441463 353.223208 
L 514.377065 353.222171 
L 539.312667 353.215474 
L 564.248269 353.188277 
L 589.183871 353.106435 
L 614.119473 352.868738 
L 639.055075 352.357186 
L 663.990677 351.420862 
L 688.926279 350.173267 
L 713.861882 348.472004 
L 738.797484 346.472992 
L 763.733086 343.586514 
L 788.668688 340.028668 
L 813.60429 330.938425 
L 838.539892 302.853522 
L 863.475494 235.990055 
L 888.411096 179.583086 
L 913.346698 200.03952 
L 938.2823 210.693784 
L 963.217902 332.14829 
" clip-path="url(#pb34824b68f)" style="fill: none; stroke: #5cb85c; stroke-linecap: square"/>
   </g>
   <g id="line2d_37">
    <path d="M 439.570259 353.223837 
L 464.505861 353.223806 
L 489.441463 353.223271 
L 514.377065 353.221919 
L 539.312667 353.214373 
L 564.248269 353.177933 
L 589.183871 353.070812 
L 614.119473 352.787588 
L 639.055075 352.19454 
L 663.990677 351.146252 
L 688.926279 349.846622 
L 713.861882 347.940393 
L 738.797484 345.586721 
L 763.733086 341.748261 
L 788.668688 333.005917 
L 813.60429 301.706477 
L 838.539892 249.003053 
L 863.475494 208.88911 
L 888.411096 240.427883 
L 913.346698 283.925894 
L 938.2823 203.223402 
L 963.217902 320.454291 
" clip-path="url(#pb34824b68f)" style="fill: none; stroke: #5cb85c; stroke-linecap: square"/>
   </g>
   <g id="line2d_38">
    <path d="M 464.505861 353.223554 
L 489.441463 353.223208 
L 514.377065 353.22129 
L 539.312667 353.212235 
L 564.248269 353.171267 
L 589.183871 353.03412 
L 614.119473 352.663583 
L 639.055075 351.90987 
L 663.990677 350.493215 
L 688.926279 348.651377 
L 713.861882 345.858186 
L 738.797484 342.59982 
L 763.733086 336.758606 
L 788.668688 315.167011 
L 813.60429 246.321604 
L 838.539892 173.703418 
L 863.475494 189.326838 
L 888.411096 278.262481 
L 913.346698 322.743917 
L 938.2823 255.758017 
L 963.217902 331.643279 
" clip-path="url(#pb34824b68f)" style="fill: none; stroke: #5cb85c; stroke-linecap: square"/>
   </g>
   <g id="line2d_39">
    <path d="M 439.570259 353.223806 
L 464.505861 353.223428 
L 489.441463 353.223051 
L 514.377065 353.22107 
L 539.312667 353.215348 
L 564.248269 353.195257 
L 589.183871 353.133286 
L 614.119473 352.964446 
L 639.055075 352.624753 
L 663.990677 351.970614 
L 688.926279 351.079534 
L 713.861882 349.723781 
L 738.797484 348.135047 
L 763.733086 345.946663 
L 788.668688 343.674424 
L 813.60429 340.090922 
L 838.539892 333.325393 
L 863.475494 304.496304 
L 888.411096 224.620028 
L 913.346698 127.559456 
L 938.2823 89.459807 
L 963.217902 325.028071 
" clip-path="url(#pb34824b68f)" style="fill: none; stroke: #5cb85c; stroke-linecap: square"/>
   </g>
   <g id="line2d_40">
    <path d="M 439.570259 353.223869 
L 464.505861 353.223806 
L 489.441463 353.223051 
L 514.377065 353.222108 
L 539.312667 353.218146 
L 564.248269 353.201985 
L 589.183871 353.148346 
L 614.119473 352.99661 
L 639.055075 352.663992 
L 663.990677 352.021612 
L 688.926279 351.098053 
L 713.861882 349.643919 
L 738.797484 347.844182 
L 763.733086 345.459635 
L 788.668688 343.02648 
L 813.60429 339.116459 
L 838.539892 331.935055 
L 863.475494 301.472081 
L 888.411096 216.307803 
L 913.346698 101.068726 
L 938.2823 50.397233 
L 963.217902 317.166653 
" clip-path="url(#pb34824b68f)" style="fill: none; stroke: #5cb85c; stroke-linecap: square"/>
   </g>
   <g id="line2d_41">
    <path d="M 40.600625 353.2239 
L 993.140625 353.2239 
" clip-path="url(#pb34824b68f)" style="fill: none; stroke: #dedede; stroke-width: 2; stroke-linecap: square"/>
   </g>
   <g id="text_18">
    <!-- FastQC: Per Sequence Quality Scores -->
    <g transform="translate(368.678125 19.3575)scale(0.16 -0.16)">
     <defs>
      <path id="DejaVuSans-46" d="M 628 4666 
L 3309 4666 
L 3309 4134 
L 1259 4134 
L 1259 2759 
L 3109 2759 
L 3109 2228 
L 1259 2228 
L 1259 0 
L 628 0 
L 628 4666 
z
" transform="scale(0.015625)"/>
      <path id="DejaVuSans-73" d="M 2834 3397 
L 2834 2853 
Q 2591 2978 2328 3040 
Q 2066 3103 1784 3103 
Q 1356 3103 1142 2972 
Q 928 2841 928 2578 
Q 928 2378 1081 2264 
Q 1234 2150 1697 2047 
L 1894 2003 
Q 2506 1872 2764 1633 
Q 3022 1394 3022 966 
Q 3022 478 2636 193 
Q 2250 -91 1575 -91 
Q 1294 -91 989 -36 
Q 684 19 347 128 
L 347 722 
Q 666 556 975 473 
Q 1284 391 1588 391 
Q 1994 391 2212 530 
Q 2431 669 2431 922 
Q 2431 1156 2273 1281 
Q 2116 1406 1581 1522 
L 1381 1569 
Q 847 1681 609 1914 
Q 372 2147 372 2553 
Q 372 3047 722 3315 
Q 1072 3584 1716 3584 
Q 2034 3584 2315 3537 
Q 2597 3491 2834 3397 
z
" transform="scale(0.015625)"/>
      <path id="DejaVuSans-3a" d="M 750 794 
L 1409 794 
L 1409 0 
L 750 0 
L 750 794 
z
M 750 3309 
L 1409 3309 
L 1409 2516 
L 750 2516 
L 750 3309 
z
" transform="scale(0.015625)"/>
     </defs>
     <use xlink:href="#DejaVuSans-46"/>
     <use xlink:href="#DejaVuSans-61" x="48.394531"/>
     <use xlink:href="#DejaVuSans-73" x="109.673828"/>
     <use xlink:href="#DejaVuSans-74" x="161.773438"/>
     <use xlink:href="#DejaVuSans-51" x="200.982422"/>
     <use xlink:href="#DejaVuSans-43" x="279.693359"/>
     <use xlink:href="#DejaVuSans-3a" x="349.517578"/>
     <use xlink:href="#DejaVuSans-20" x="383.208984"/>
     <use xlink:href="#DejaVuSans-50" x="414.996094"/>
     <use xlink:href="#DejaVuSans-65" x="471.673828"/>
     <use xlink:href="#DejaVuSans-72" x="533.197266"/>
     <use xlink:href="#DejaVuSans-20" x="574.310547"/>
     <use xlink:href="#DejaVuSans-53" x="606.097656"/>
     <use xlink:href="#DejaVuSans-65" x="669.574219"/>
     <use xlink:href="#DejaVuSans-71" x="731.097656"/>
     <use xlink:href="#DejaVuSans-75" x="794.574219"/>
     <use xlink:href="#DejaVuSans-65" x="857.953125"/>
     <use xlink:href="#DejaVuSans-6e" x="919.476562"/>
     <use xlink:href="#DejaVuSans-63" x="982.855469"/>
     <use xlink:href="#DejaVuSans-65" x="1037.835938"/>
     <use xlink:href="#DejaVuSans-20" x="1099.359375"/>
     <use xlink:href="#DejaVuSans-51" x="1131.146484"/>
     <use xlink:href="#DejaVuSans-75" x="1209.857422"/>
     <use xlink:href="#DejaVuSans-61" x="1273.236328"/>
     <use xlink:href="#DejaVuSans-6c" x="1334.515625"/>
     <use xlink:href="#DejaVuSans-69" x="1362.298828"/>
     <use xlink:href="#DejaVuSans-74" x="1390.082031"/>
     <use xlink:href="#DejaVuSans-79" x="1429.291016"/>
     <use xlink:href="#DejaVuSans-20" x="1488.470703"/>
     <use xlink:href="#DejaVuSans-53" x="1520.257812"/>
     <use xlink:href="#DejaVuSans-63" x="1583.734375"/>
     <use xlink:href="#DejaVuSans-6f" x="1638.714844"/>
     <use xlink:href="#DejaVuSans-72" x="1699.896484"/>
     <use xlink:href="#DejaVuSans-65" x="1738.759766"/>
     <use xlink:href="#DejaVuSans-73" x="1800.283203"/>
    </g>
   </g>
  </g>
 </g>
 <defs>
  <clipPath id="pb34824b68f">
   <rect x="40.600625" y="35.2559" width="952.54" height="317.968"/>
  </clipPath>
 </defs>
</svg>
