<?xml version="1.0" encoding="utf-8" standalone="no"?>
<!DOCTYPE svg PUBLIC "-//W3C//DTD SVG 1.1//EN"
  "http://www.w3.org/Graphics/SVG/1.1/DTD/svg11.dtd">
<svg xmlns:xlink="http://www.w3.org/1999/xlink" width="845.3025pt" height="913.107826pt" viewBox="0 0 845.3025 913.107826" xmlns="http://www.w3.org/2000/svg" version="1.1">
 <metadata>
  <rdf:RDF xmlns:dc="http://purl.org/dc/elements/1.1/" xmlns:cc="http://creativecommons.org/ns#" xmlns:rdf="http://www.w3.org/1999/02/22-rdf-syntax-ns#">
   <cc:Work>
    <dc:type rdf:resource="http://purl.org/dc/dcmitype/StillImage"/>
    <dc:date>2022-11-05T04:14:59.211765</dc:date>
    <dc:format>image/svg+xml</dc:format>
    <dc:creator>
     <cc:Agent>
      <dc:title>Matplotlib v3.5.1, https://matplotlib.org/</dc:title>
     </cc:Agent>
    </dc:creator>
   </cc:Work>
  </rdf:RDF>
 </metadata>
 <defs>
  <style type="text/css">*{stroke-linejoin: round; stroke-linecap: butt}</style>
 </defs>
 <g id="figure_1">
  <g id="axes_1">
   <g id="patch_1">
    <path d="M 56.9025 826.747826 
L 838.1025 826.747826 
L 838.1025 7.2 
L 56.9025 7.2 
z
" style="fill: #ffffff"/>
   </g>
   <g id="matplotlib.axis_1">
    <g id="xtick_1">
     <g id="line2d_1">
      <path d="M 56.9025 826.747826 
L 56.9025 7.2 
" clip-path="url(#padfa90cf81)" style="fill: none; stroke: #dedede; stroke-linecap: square"/>
     </g>
     <g id="text_1">
      <!-- 0 -->
      <g transform="translate(54.3575 839.826576)scale(0.08 -0.08)">
       <defs>
        <path id="DejaVuSans-30" d="M 2034 4250 
Q 1547 4250 1301 3770 
Q 1056 3291 1056 2328 
Q 1056 1369 1301 889 
Q 1547 409 2034 409 
Q 2525 409 2770 889 
Q 3016 1369 3016 2328 
Q 3016 3291 2770 3770 
Q 2525 4250 2034 4250 
z
M 2034 4750 
Q 2819 4750 3233 4129 
Q 3647 3509 3647 2328 
Q 3647 1150 3233 529 
Q 2819 -91 2034 -91 
Q 1250 -91 836 529 
Q 422 1150 422 2328 
Q 422 3509 836 4129 
Q 1250 4750 2034 4750 
z
" transform="scale(0.015625)"/>
       </defs>
       <use xlink:href="#DejaVuSans-30"/>
      </g>
     </g>
    </g>
    <g id="xtick_2">
     <g id="line2d_2">
      <path d="M 206.360113 826.747826 
L 206.360113 7.2 
" clip-path="url(#padfa90cf81)" style="fill: none; stroke: #dedede; stroke-linecap: square"/>
     </g>
     <g id="text_2">
      <!-- 1000 -->
      <g transform="translate(196.180113 839.826576)scale(0.08 -0.08)">
       <defs>
        <path id="DejaVuSans-31" d="M 794 531 
L 1825 531 
L 1825 4091 
L 703 3866 
L 703 4441 
L 1819 4666 
L 2450 4666 
L 2450 531 
L 3481 531 
L 3481 0 
L 794 0 
L 794 531 
z
" transform="scale(0.015625)"/>
       </defs>
       <use xlink:href="#DejaVuSans-31"/>
       <use xlink:href="#DejaVuSans-30" x="63.623047"/>
       <use xlink:href="#DejaVuSans-30" x="127.246094"/>
       <use xlink:href="#DejaVuSans-30" x="190.869141"/>
      </g>
     </g>
    </g>
    <g id="xtick_3">
     <g id="line2d_3">
      <path d="M 355.817727 826.747826 
L 355.817727 7.2 
" clip-path="url(#padfa90cf81)" style="fill: none; stroke: #dedede; stroke-linecap: square"/>
     </g>
     <g id="text_3">
      <!-- 2000 -->
      <g transform="translate(345.637727 839.826576)scale(0.08 -0.08)">
       <defs>
        <path id="DejaVuSans-32" d="M 1228 531 
L 3431 531 
L 3431 0 
L 469 0 
L 469 531 
Q 828 903 1448 1529 
Q 2069 2156 2228 2338 
Q 2531 2678 2651 2914 
Q 2772 3150 2772 3378 
Q 2772 3750 2511 3984 
Q 2250 4219 1831 4219 
Q 1534 4219 1204 4116 
Q 875 4013 500 3803 
L 500 4441 
Q 881 4594 1212 4672 
Q 1544 4750 1819 4750 
Q 2544 4750 2975 4387 
Q 3406 4025 3406 3419 
Q 3406 3131 3298 2873 
Q 3191 2616 2906 2266 
Q 2828 2175 2409 1742 
Q 1991 1309 1228 531 
z
" transform="scale(0.015625)"/>
       </defs>
       <use xlink:href="#DejaVuSans-32"/>
       <use xlink:href="#DejaVuSans-30" x="63.623047"/>
       <use xlink:href="#DejaVuSans-30" x="127.246094"/>
       <use xlink:href="#DejaVuSans-30" x="190.869141"/>
      </g>
     </g>
    </g>
    <g id="xtick_4">
     <g id="line2d_4">
      <path d="M 505.27534 826.747826 
L 505.27534 7.2 
" clip-path="url(#padfa90cf81)" style="fill: none; stroke: #dedede; stroke-linecap: square"/>
     </g>
     <g id="text_4">
      <!-- 3000 -->
      <g transform="translate(495.09534 839.826576)scale(0.08 -0.08)">
       <defs>
        <path id="DejaVuSans-33" d="M 2597 2516 
Q 3050 2419 3304 2112 
Q 3559 1806 3559 1356 
Q 3559 666 3084 287 
Q 2609 -91 1734 -91 
Q 1441 -91 1130 -33 
Q 819 25 488 141 
L 488 750 
Q 750 597 1062 519 
Q 1375 441 1716 441 
Q 2309 441 2620 675 
Q 2931 909 2931 1356 
Q 2931 1769 2642 2001 
Q 2353 2234 1838 2234 
L 1294 2234 
L 1294 2753 
L 1863 2753 
Q 2328 2753 2575 2939 
Q 2822 3125 2822 3475 
Q 2822 3834 2567 4026 
Q 2313 4219 1838 4219 
Q 1578 4219 1281 4162 
Q 984 4106 628 3988 
L 628 4550 
Q 988 4650 1302 4700 
Q 1616 4750 1894 4750 
Q 2613 4750 3031 4423 
Q 3450 4097 3450 3541 
Q 3450 3153 3228 2886 
Q 3006 2619 2597 2516 
z
" transform="scale(0.015625)"/>
       </defs>
       <use xlink:href="#DejaVuSans-33"/>
       <use xlink:href="#DejaVuSans-30" x="63.623047"/>
       <use xlink:href="#DejaVuSans-30" x="127.246094"/>
       <use xlink:href="#DejaVuSans-30" x="190.869141"/>
      </g>
     </g>
    </g>
    <g id="xtick_5">
     <g id="line2d_5">
      <path d="M 654.732954 826.747826 
L 654.732954 7.2 
" clip-path="url(#padfa90cf81)" style="fill: none; stroke: #dedede; stroke-linecap: square"/>
     </g>
     <g id="text_5">
      <!-- 4000 -->
      <g transform="translate(644.552954 839.826576)scale(0.08 -0.08)">
       <defs>
        <path id="DejaVuSans-34" d="M 2419 4116 
L 825 1625 
L 2419 1625 
L 2419 4116 
z
M 2253 4666 
L 3047 4666 
L 3047 1625 
L 3713 1625 
L 3713 1100 
L 3047 1100 
L 3047 0 
L 2419 0 
L 2419 1100 
L 313 1100 
L 313 1709 
L 2253 4666 
z
" transform="scale(0.015625)"/>
       </defs>
       <use xlink:href="#DejaVuSans-34"/>
       <use xlink:href="#DejaVuSans-30" x="63.623047"/>
       <use xlink:href="#DejaVuSans-30" x="127.246094"/>
       <use xlink:href="#DejaVuSans-30" x="190.869141"/>
      </g>
     </g>
    </g>
    <g id="xtick_6">
     <g id="line2d_6">
      <path d="M 804.190567 826.747826 
L 804.190567 7.2 
" clip-path="url(#padfa90cf81)" style="fill: none; stroke: #dedede; stroke-linecap: square"/>
     </g>
     <g id="text_6">
      <!-- 5000 -->
      <g transform="translate(794.010567 839.826576)scale(0.08 -0.08)">
       <defs>
        <path id="DejaVuSans-35" d="M 691 4666 
L 3169 4666 
L 3169 4134 
L 1269 4134 
L 1269 2991 
Q 1406 3038 1543 3061 
Q 1681 3084 1819 3084 
Q 2600 3084 3056 2656 
Q 3513 2228 3513 1497 
Q 3513 744 3044 326 
Q 2575 -91 1722 -91 
Q 1428 -91 1123 -41 
Q 819 9 494 109 
L 494 744 
Q 775 591 1075 516 
Q 1375 441 1709 441 
Q 2250 441 2565 725 
Q 2881 1009 2881 1497 
Q 2881 1984 2565 2268 
Q 2250 2553 1709 2553 
Q 1456 2553 1204 2497 
Q 953 2441 691 2322 
L 691 4666 
z
" transform="scale(0.015625)"/>
       </defs>
       <use xlink:href="#DejaVuSans-35"/>
       <use xlink:href="#DejaVuSans-30" x="63.623047"/>
       <use xlink:href="#DejaVuSans-30" x="127.246094"/>
       <use xlink:href="#DejaVuSans-30" x="190.869141"/>
      </g>
     </g>
    </g>
    <g id="text_7">
     <!-- # miRNA detected -->
     <g transform="translate(400.992344 853.088764)scale(0.1 -0.1)">
      <defs>
       <path id="DejaVuSans-23" d="M 3272 2816 
L 2363 2816 
L 2100 1772 
L 3016 1772 
L 3272 2816 
z
M 2803 4594 
L 2478 3297 
L 3391 3297 
L 3719 4594 
L 4219 4594 
L 3897 3297 
L 4872 3297 
L 4872 2816 
L 3775 2816 
L 3519 1772 
L 4513 1772 
L 4513 1294 
L 3397 1294 
L 3072 0 
L 2572 0 
L 2894 1294 
L 1978 1294 
L 1656 0 
L 1153 0 
L 1478 1294 
L 494 1294 
L 494 1772 
L 1594 1772 
L 1856 2816 
L 850 2816 
L 850 3297 
L 1978 3297 
L 2297 4594 
L 2803 4594 
z
" transform="scale(0.015625)"/>
       <path id="DejaVuSans-20" transform="scale(0.015625)"/>
       <path id="DejaVuSans-6d" d="M 3328 2828 
Q 3544 3216 3844 3400 
Q 4144 3584 4550 3584 
Q 5097 3584 5394 3201 
Q 5691 2819 5691 2113 
L 5691 0 
L 5113 0 
L 5113 2094 
Q 5113 2597 4934 2840 
Q 4756 3084 4391 3084 
Q 3944 3084 3684 2787 
Q 3425 2491 3425 1978 
L 3425 0 
L 2847 0 
L 2847 2094 
Q 2847 2600 2669 2842 
Q 2491 3084 2119 3084 
Q 1678 3084 1418 2786 
Q 1159 2488 1159 1978 
L 1159 0 
L 581 0 
L 581 3500 
L 1159 3500 
L 1159 2956 
Q 1356 3278 1631 3431 
Q 1906 3584 2284 3584 
Q 2666 3584 2933 3390 
Q 3200 3197 3328 2828 
z
" transform="scale(0.015625)"/>
       <path id="DejaVuSans-69" d="M 603 3500 
L 1178 3500 
L 1178 0 
L 603 0 
L 603 3500 
z
M 603 4863 
L 1178 4863 
L 1178 4134 
L 603 4134 
L 603 4863 
z
" transform="scale(0.015625)"/>
       <path id="DejaVuSans-52" d="M 2841 2188 
Q 3044 2119 3236 1894 
Q 3428 1669 3622 1275 
L 4263 0 
L 3584 0 
L 2988 1197 
Q 2756 1666 2539 1819 
Q 2322 1972 1947 1972 
L 1259 1972 
L 1259 0 
L 628 0 
L 628 4666 
L 2053 4666 
Q 2853 4666 3247 4331 
Q 3641 3997 3641 3322 
Q 3641 2881 3436 2590 
Q 3231 2300 2841 2188 
z
M 1259 4147 
L 1259 2491 
L 2053 2491 
Q 2509 2491 2742 2702 
Q 2975 2913 2975 3322 
Q 2975 3731 2742 3939 
Q 2509 4147 2053 4147 
L 1259 4147 
z
" transform="scale(0.015625)"/>
       <path id="DejaVuSans-4e" d="M 628 4666 
L 1478 4666 
L 3547 763 
L 3547 4666 
L 4159 4666 
L 4159 0 
L 3309 0 
L 1241 3903 
L 1241 0 
L 628 0 
L 628 4666 
z
" transform="scale(0.015625)"/>
       <path id="DejaVuSans-41" d="M 2188 4044 
L 1331 1722 
L 3047 1722 
L 2188 4044 
z
M 1831 4666 
L 2547 4666 
L 4325 0 
L 3669 0 
L 3244 1197 
L 1141 1197 
L 716 0 
L 50 0 
L 1831 4666 
z
" transform="scale(0.015625)"/>
       <path id="DejaVuSans-64" d="M 2906 2969 
L 2906 4863 
L 3481 4863 
L 3481 0 
L 2906 0 
L 2906 525 
Q 2725 213 2448 61 
Q 2172 -91 1784 -91 
Q 1150 -91 751 415 
Q 353 922 353 1747 
Q 353 2572 751 3078 
Q 1150 3584 1784 3584 
Q 2172 3584 2448 3432 
Q 2725 3281 2906 2969 
z
M 947 1747 
Q 947 1113 1208 752 
Q 1469 391 1925 391 
Q 2381 391 2643 752 
Q 2906 1113 2906 1747 
Q 2906 2381 2643 2742 
Q 2381 3103 1925 3103 
Q 1469 3103 1208 2742 
Q 947 2381 947 1747 
z
" transform="scale(0.015625)"/>
       <path id="DejaVuSans-65" d="M 3597 1894 
L 3597 1613 
L 953 1613 
Q 991 1019 1311 708 
Q 1631 397 2203 397 
Q 2534 397 2845 478 
Q 3156 559 3463 722 
L 3463 178 
Q 3153 47 2828 -22 
Q 2503 -91 2169 -91 
Q 1331 -91 842 396 
Q 353 884 353 1716 
Q 353 2575 817 3079 
Q 1281 3584 2069 3584 
Q 2775 3584 3186 3129 
Q 3597 2675 3597 1894 
z
M 3022 2063 
Q 3016 2534 2758 2815 
Q 2500 3097 2075 3097 
Q 1594 3097 1305 2825 
Q 1016 2553 972 2059 
L 3022 2063 
z
" transform="scale(0.015625)"/>
       <path id="DejaVuSans-74" d="M 1172 4494 
L 1172 3500 
L 2356 3500 
L 2356 3053 
L 1172 3053 
L 1172 1153 
Q 1172 725 1289 603 
Q 1406 481 1766 481 
L 2356 481 
L 2356 0 
L 1766 0 
Q 1100 0 847 248 
Q 594 497 594 1153 
L 594 3053 
L 172 3053 
L 172 3500 
L 594 3500 
L 594 4494 
L 1172 4494 
z
" transform="scale(0.015625)"/>
       <path id="DejaVuSans-63" d="M 3122 3366 
L 3122 2828 
Q 2878 2963 2633 3030 
Q 2388 3097 2138 3097 
Q 1578 3097 1268 2742 
Q 959 2388 959 1747 
Q 959 1106 1268 751 
Q 1578 397 2138 397 
Q 2388 397 2633 464 
Q 2878 531 3122 666 
L 3122 134 
Q 2881 22 2623 -34 
Q 2366 -91 2075 -91 
Q 1284 -91 818 406 
Q 353 903 353 1747 
Q 353 2603 823 3093 
Q 1294 3584 2113 3584 
Q 2378 3584 2631 3529 
Q 2884 3475 3122 3366 
z
" transform="scale(0.015625)"/>
      </defs>
      <use xlink:href="#DejaVuSans-23"/>
      <use xlink:href="#DejaVuSans-20" x="83.789062"/>
      <use xlink:href="#DejaVuSans-6d" x="115.576172"/>
      <use xlink:href="#DejaVuSans-69" x="212.988281"/>
      <use xlink:href="#DejaVuSans-52" x="240.771484"/>
      <use xlink:href="#DejaVuSans-4e" x="310.253906"/>
      <use xlink:href="#DejaVuSans-41" x="385.058594"/>
      <use xlink:href="#DejaVuSans-20" x="453.466797"/>
      <use xlink:href="#DejaVuSans-64" x="485.253906"/>
      <use xlink:href="#DejaVuSans-65" x="548.730469"/>
      <use xlink:href="#DejaVuSans-74" x="610.253906"/>
      <use xlink:href="#DejaVuSans-65" x="649.462891"/>
      <use xlink:href="#DejaVuSans-63" x="710.986328"/>
      <use xlink:href="#DejaVuSans-74" x="765.966797"/>
      <use xlink:href="#DejaVuSans-65" x="805.175781"/>
      <use xlink:href="#DejaVuSans-64" x="866.699219"/>
     </g>
    </g>
   </g>
   <g id="matplotlib.axis_2">
    <g id="ytick_1">
     <g id="text_8">
      <!-- CTR2_1 -->
      <g transform="translate(19.69125 22.220924)scale(0.08 -0.08)">
       <defs>
        <path id="DejaVuSans-43" d="M 4122 4306 
L 4122 3641 
Q 3803 3938 3442 4084 
Q 3081 4231 2675 4231 
Q 1875 4231 1450 3742 
Q 1025 3253 1025 2328 
Q 1025 1406 1450 917 
Q 1875 428 2675 428 
Q 3081 428 3442 575 
Q 3803 722 4122 1019 
L 4122 359 
Q 3791 134 3420 21 
Q 3050 -91 2638 -91 
Q 1578 -91 968 557 
Q 359 1206 359 2328 
Q 359 3453 968 4101 
Q 1578 4750 2638 4750 
Q 3056 4750 3426 4639 
Q 3797 4528 4122 4306 
z
" transform="scale(0.015625)"/>
        <path id="DejaVuSans-54" d="M -19 4666 
L 3928 4666 
L 3928 4134 
L 2272 4134 
L 2272 0 
L 1638 0 
L 1638 4134 
L -19 4134 
L -19 4666 
z
" transform="scale(0.015625)"/>
        <path id="DejaVuSans-5f" d="M 3263 -1063 
L 3263 -1509 
L -63 -1509 
L -63 -1063 
L 3263 -1063 
z
" transform="scale(0.015625)"/>
       </defs>
       <use xlink:href="#DejaVuSans-43"/>
       <use xlink:href="#DejaVuSans-54" x="69.824219"/>
       <use xlink:href="#DejaVuSans-52" x="130.908203"/>
       <use xlink:href="#DejaVuSans-32" x="200.390625"/>
       <use xlink:href="#DejaVuSans-5f" x="264.013672"/>
       <use xlink:href="#DejaVuSans-31" x="314.013672"/>
      </g>
     </g>
    </g>
    <g id="ytick_2">
     <g id="text_9">
      <!-- CTR3_1 -->
      <g transform="translate(19.69125 46.325272)scale(0.08 -0.08)">
       <use xlink:href="#DejaVuSans-43"/>
       <use xlink:href="#DejaVuSans-54" x="69.824219"/>
       <use xlink:href="#DejaVuSans-52" x="130.908203"/>
       <use xlink:href="#DejaVuSans-33" x="200.390625"/>
       <use xlink:href="#DejaVuSans-5f" x="264.013672"/>
       <use xlink:href="#DejaVuSans-31" x="314.013672"/>
      </g>
     </g>
    </g>
    <g id="ytick_3">
     <g id="text_10">
      <!-- CTR4_1 -->
      <g transform="translate(19.69125 70.42962)scale(0.08 -0.08)">
       <use xlink:href="#DejaVuSans-43"/>
       <use xlink:href="#DejaVuSans-54" x="69.824219"/>
       <use xlink:href="#DejaVuSans-52" x="130.908203"/>
       <use xlink:href="#DejaVuSans-34" x="200.390625"/>
       <use xlink:href="#DejaVuSans-5f" x="264.013672"/>
       <use xlink:href="#DejaVuSans-31" x="314.013672"/>
      </g>
     </g>
    </g>
    <g id="ytick_4">
     <g id="text_11">
      <!-- CTR5_1 -->
      <g transform="translate(19.69125 94.533967)scale(0.08 -0.08)">
       <use xlink:href="#DejaVuSans-43"/>
       <use xlink:href="#DejaVuSans-54" x="69.824219"/>
       <use xlink:href="#DejaVuSans-52" x="130.908203"/>
       <use xlink:href="#DejaVuSans-35" x="200.390625"/>
       <use xlink:href="#DejaVuSans-5f" x="264.013672"/>
       <use xlink:href="#DejaVuSans-31" x="314.013672"/>
      </g>
     </g>
    </g>
    <g id="ytick_5">
     <g id="text_12">
      <!-- CTR6_1 -->
      <g transform="translate(19.69125 118.638315)scale(0.08 -0.08)">
       <defs>
        <path id="DejaVuSans-36" d="M 2113 2584 
Q 1688 2584 1439 2293 
Q 1191 2003 1191 1497 
Q 1191 994 1439 701 
Q 1688 409 2113 409 
Q 2538 409 2786 701 
Q 3034 994 3034 1497 
Q 3034 2003 2786 2293 
Q 2538 2584 2113 2584 
z
M 3366 4563 
L 3366 3988 
Q 3128 4100 2886 4159 
Q 2644 4219 2406 4219 
Q 1781 4219 1451 3797 
Q 1122 3375 1075 2522 
Q 1259 2794 1537 2939 
Q 1816 3084 2150 3084 
Q 2853 3084 3261 2657 
Q 3669 2231 3669 1497 
Q 3669 778 3244 343 
Q 2819 -91 2113 -91 
Q 1303 -91 875 529 
Q 447 1150 447 2328 
Q 447 3434 972 4092 
Q 1497 4750 2381 4750 
Q 2619 4750 2861 4703 
Q 3103 4656 3366 4563 
z
" transform="scale(0.015625)"/>
       </defs>
       <use xlink:href="#DejaVuSans-43"/>
       <use xlink:href="#DejaVuSans-54" x="69.824219"/>
       <use xlink:href="#DejaVuSans-52" x="130.908203"/>
       <use xlink:href="#DejaVuSans-36" x="200.390625"/>
       <use xlink:href="#DejaVuSans-5f" x="264.013672"/>
       <use xlink:href="#DejaVuSans-31" x="314.013672"/>
      </g>
     </g>
    </g>
    <g id="ytick_6">
     <g id="text_13">
      <!-- C_1 -->
      <g transform="translate(35.22625 142.742663)scale(0.08 -0.08)">
       <use xlink:href="#DejaVuSans-43"/>
       <use xlink:href="#DejaVuSans-5f" x="69.824219"/>
       <use xlink:href="#DejaVuSans-31" x="119.824219"/>
      </g>
     </g>
    </g>
    <g id="ytick_7">
     <g id="text_14">
      <!-- GEMTX1_1 -->
      <g transform="translate(7.2 166.847011)scale(0.08 -0.08)">
       <defs>
        <path id="DejaVuSans-47" d="M 3809 666 
L 3809 1919 
L 2778 1919 
L 2778 2438 
L 4434 2438 
L 4434 434 
Q 4069 175 3628 42 
Q 3188 -91 2688 -91 
Q 1594 -91 976 548 
Q 359 1188 359 2328 
Q 359 3472 976 4111 
Q 1594 4750 2688 4750 
Q 3144 4750 3555 4637 
Q 3966 4525 4313 4306 
L 4313 3634 
Q 3963 3931 3569 4081 
Q 3175 4231 2741 4231 
Q 1884 4231 1454 3753 
Q 1025 3275 1025 2328 
Q 1025 1384 1454 906 
Q 1884 428 2741 428 
Q 3075 428 3337 486 
Q 3600 544 3809 666 
z
" transform="scale(0.015625)"/>
        <path id="DejaVuSans-45" d="M 628 4666 
L 3578 4666 
L 3578 4134 
L 1259 4134 
L 1259 2753 
L 3481 2753 
L 3481 2222 
L 1259 2222 
L 1259 531 
L 3634 531 
L 3634 0 
L 628 0 
L 628 4666 
z
" transform="scale(0.015625)"/>
        <path id="DejaVuSans-4d" d="M 628 4666 
L 1569 4666 
L 2759 1491 
L 3956 4666 
L 4897 4666 
L 4897 0 
L 4281 0 
L 4281 4097 
L 3078 897 
L 2444 897 
L 1241 4097 
L 1241 0 
L 628 0 
L 628 4666 
z
" transform="scale(0.015625)"/>
        <path id="DejaVuSans-58" d="M 403 4666 
L 1081 4666 
L 2241 2931 
L 3406 4666 
L 4084 4666 
L 2584 2425 
L 4184 0 
L 3506 0 
L 2194 1984 
L 872 0 
L 191 0 
L 1856 2491 
L 403 4666 
z
" transform="scale(0.015625)"/>
       </defs>
       <use xlink:href="#DejaVuSans-47"/>
       <use xlink:href="#DejaVuSans-45" x="77.490234"/>
       <use xlink:href="#DejaVuSans-4d" x="140.673828"/>
       <use xlink:href="#DejaVuSans-54" x="226.953125"/>
       <use xlink:href="#DejaVuSans-58" x="288.037109"/>
       <use xlink:href="#DejaVuSans-31" x="356.542969"/>
       <use xlink:href="#DejaVuSans-5f" x="420.166016"/>
       <use xlink:href="#DejaVuSans-31" x="470.166016"/>
      </g>
     </g>
    </g>
    <g id="ytick_8">
     <g id="text_15">
      <!-- GEMTX2_1 -->
      <g transform="translate(7.2 190.951359)scale(0.08 -0.08)">
       <use xlink:href="#DejaVuSans-47"/>
       <use xlink:href="#DejaVuSans-45" x="77.490234"/>
       <use xlink:href="#DejaVuSans-4d" x="140.673828"/>
       <use xlink:href="#DejaVuSans-54" x="226.953125"/>
       <use xlink:href="#DejaVuSans-58" x="288.037109"/>
       <use xlink:href="#DejaVuSans-32" x="356.542969"/>
       <use xlink:href="#DejaVuSans-5f" x="420.166016"/>
       <use xlink:href="#DejaVuSans-31" x="470.166016"/>
      </g>
     </g>
    </g>
    <g id="ytick_9">
     <g id="text_16">
      <!-- GEMTX3_1 -->
      <g transform="translate(7.2 215.055707)scale(0.08 -0.08)">
       <use xlink:href="#DejaVuSans-47"/>
       <use xlink:href="#DejaVuSans-45" x="77.490234"/>
       <use xlink:href="#DejaVuSans-4d" x="140.673828"/>
       <use xlink:href="#DejaVuSans-54" x="226.953125"/>
       <use xlink:href="#DejaVuSans-58" x="288.037109"/>
       <use xlink:href="#DejaVuSans-33" x="356.542969"/>
       <use xlink:href="#DejaVuSans-5f" x="420.166016"/>
       <use xlink:href="#DejaVuSans-31" x="470.166016"/>
      </g>
     </g>
    </g>
    <g id="ytick_10">
     <g id="text_17">
      <!-- GEMTX5_1 -->
      <g transform="translate(7.2 239.160054)scale(0.08 -0.08)">
       <use xlink:href="#DejaVuSans-47"/>
       <use xlink:href="#DejaVuSans-45" x="77.490234"/>
       <use xlink:href="#DejaVuSans-4d" x="140.673828"/>
       <use xlink:href="#DejaVuSans-54" x="226.953125"/>
       <use xlink:href="#DejaVuSans-58" x="288.037109"/>
       <use xlink:href="#DejaVuSans-35" x="356.542969"/>
       <use xlink:href="#DejaVuSans-5f" x="420.166016"/>
       <use xlink:href="#DejaVuSans-31" x="470.166016"/>
      </g>
     </g>
    </g>
    <g id="ytick_11">
     <g id="text_18">
      <!-- GEMTX6_1 -->
      <g transform="translate(7.2 263.264402)scale(0.08 -0.08)">
       <use xlink:href="#DejaVuSans-47"/>
       <use xlink:href="#DejaVuSans-45" x="77.490234"/>
       <use xlink:href="#DejaVuSans-4d" x="140.673828"/>
       <use xlink:href="#DejaVuSans-54" x="226.953125"/>
       <use xlink:href="#DejaVuSans-58" x="288.037109"/>
       <use xlink:href="#DejaVuSans-36" x="356.542969"/>
       <use xlink:href="#DejaVuSans-5f" x="420.166016"/>
       <use xlink:href="#DejaVuSans-31" x="470.166016"/>
      </g>
     </g>
    </g>
    <g id="ytick_12">
     <g id="text_19">
      <!-- SIM1_1 -->
      <g transform="translate(21.38125 287.36875)scale(0.08 -0.08)">
       <defs>
        <path id="DejaVuSans-53" d="M 3425 4513 
L 3425 3897 
Q 3066 4069 2747 4153 
Q 2428 4238 2131 4238 
Q 1616 4238 1336 4038 
Q 1056 3838 1056 3469 
Q 1056 3159 1242 3001 
Q 1428 2844 1947 2747 
L 2328 2669 
Q 3034 2534 3370 2195 
Q 3706 1856 3706 1288 
Q 3706 609 3251 259 
Q 2797 -91 1919 -91 
Q 1588 -91 1214 -16 
Q 841 59 441 206 
L 441 856 
Q 825 641 1194 531 
Q 1563 422 1919 422 
Q 2459 422 2753 634 
Q 3047 847 3047 1241 
Q 3047 1584 2836 1778 
Q 2625 1972 2144 2069 
L 1759 2144 
Q 1053 2284 737 2584 
Q 422 2884 422 3419 
Q 422 4038 858 4394 
Q 1294 4750 2059 4750 
Q 2388 4750 2728 4690 
Q 3069 4631 3425 4513 
z
" transform="scale(0.015625)"/>
        <path id="DejaVuSans-49" d="M 628 4666 
L 1259 4666 
L 1259 0 
L 628 0 
L 628 4666 
z
" transform="scale(0.015625)"/>
       </defs>
       <use xlink:href="#DejaVuSans-53"/>
       <use xlink:href="#DejaVuSans-49" x="63.476562"/>
       <use xlink:href="#DejaVuSans-4d" x="92.96875"/>
       <use xlink:href="#DejaVuSans-31" x="179.248047"/>
       <use xlink:href="#DejaVuSans-5f" x="242.871094"/>
       <use xlink:href="#DejaVuSans-31" x="292.871094"/>
      </g>
     </g>
    </g>
    <g id="ytick_13">
     <g id="text_20">
      <!-- SIM2_1 -->
      <g transform="translate(21.38125 311.473098)scale(0.08 -0.08)">
       <use xlink:href="#DejaVuSans-53"/>
       <use xlink:href="#DejaVuSans-49" x="63.476562"/>
       <use xlink:href="#DejaVuSans-4d" x="92.96875"/>
       <use xlink:href="#DejaVuSans-32" x="179.248047"/>
       <use xlink:href="#DejaVuSans-5f" x="242.871094"/>
       <use xlink:href="#DejaVuSans-31" x="292.871094"/>
      </g>
     </g>
    </g>
    <g id="ytick_14">
     <g id="text_21">
      <!-- SIM3_1 -->
      <g transform="translate(21.38125 335.577446)scale(0.08 -0.08)">
       <use xlink:href="#DejaVuSans-53"/>
       <use xlink:href="#DejaVuSans-49" x="63.476562"/>
       <use xlink:href="#DejaVuSans-4d" x="92.96875"/>
       <use xlink:href="#DejaVuSans-33" x="179.248047"/>
       <use xlink:href="#DejaVuSans-5f" x="242.871094"/>
       <use xlink:href="#DejaVuSans-31" x="292.871094"/>
      </g>
     </g>
    </g>
    <g id="ytick_15">
     <g id="text_22">
      <!-- SIM4_1 -->
      <g transform="translate(21.38125 359.681793)scale(0.08 -0.08)">
       <use xlink:href="#DejaVuSans-53"/>
       <use xlink:href="#DejaVuSans-49" x="63.476562"/>
       <use xlink:href="#DejaVuSans-4d" x="92.96875"/>
       <use xlink:href="#DejaVuSans-34" x="179.248047"/>
       <use xlink:href="#DejaVuSans-5f" x="242.871094"/>
       <use xlink:href="#DejaVuSans-31" x="292.871094"/>
      </g>
     </g>
    </g>
    <g id="ytick_16">
     <g id="text_23">
      <!-- SIM5_1 -->
      <g transform="translate(21.38125 383.786141)scale(0.08 -0.08)">
       <use xlink:href="#DejaVuSans-53"/>
       <use xlink:href="#DejaVuSans-49" x="63.476562"/>
       <use xlink:href="#DejaVuSans-4d" x="92.96875"/>
       <use xlink:href="#DejaVuSans-35" x="179.248047"/>
       <use xlink:href="#DejaVuSans-5f" x="242.871094"/>
       <use xlink:href="#DejaVuSans-31" x="292.871094"/>
      </g>
     </g>
    </g>
    <g id="ytick_17">
     <g id="text_24">
      <!-- SIM6_1 -->
      <g transform="translate(21.38125 407.890489)scale(0.08 -0.08)">
       <use xlink:href="#DejaVuSans-53"/>
       <use xlink:href="#DejaVuSans-49" x="63.476562"/>
       <use xlink:href="#DejaVuSans-4d" x="92.96875"/>
       <use xlink:href="#DejaVuSans-36" x="179.248047"/>
       <use xlink:href="#DejaVuSans-5f" x="242.871094"/>
       <use xlink:href="#DejaVuSans-31" x="292.871094"/>
      </g>
     </g>
    </g>
    <g id="ytick_18">
     <g id="text_25">
      <!-- VPA1_1 -->
      <g transform="translate(20.46375 431.954212)scale(0.08 -0.08)">
       <defs>
        <path id="DejaVuSans-56" d="M 1831 0 
L 50 4666 
L 709 4666 
L 2188 738 
L 3669 4666 
L 4325 4666 
L 2547 0 
L 1831 0 
z
" transform="scale(0.015625)"/>
        <path id="DejaVuSans-50" d="M 1259 4147 
L 1259 2394 
L 2053 2394 
Q 2494 2394 2734 2622 
Q 2975 2850 2975 3272 
Q 2975 3691 2734 3919 
Q 2494 4147 2053 4147 
L 1259 4147 
z
M 628 4666 
L 2053 4666 
Q 2838 4666 3239 4311 
Q 3641 3956 3641 3272 
Q 3641 2581 3239 2228 
Q 2838 1875 2053 1875 
L 1259 1875 
L 1259 0 
L 628 0 
L 628 4666 
z
" transform="scale(0.015625)"/>
       </defs>
       <use xlink:href="#DejaVuSans-56"/>
       <use xlink:href="#DejaVuSans-50" x="68.408203"/>
       <use xlink:href="#DejaVuSans-41" x="122.335938"/>
       <use xlink:href="#DejaVuSans-31" x="190.744141"/>
       <use xlink:href="#DejaVuSans-5f" x="254.367188"/>
       <use xlink:href="#DejaVuSans-31" x="304.367188"/>
      </g>
     </g>
    </g>
    <g id="ytick_19">
     <g id="text_26">
      <!-- VPA2_1 -->
      <g transform="translate(20.46375 456.099185)scale(0.08 -0.08)">
       <use xlink:href="#DejaVuSans-56"/>
       <use xlink:href="#DejaVuSans-50" x="68.408203"/>
       <use xlink:href="#DejaVuSans-41" x="122.335938"/>
       <use xlink:href="#DejaVuSans-32" x="190.744141"/>
       <use xlink:href="#DejaVuSans-5f" x="254.367188"/>
       <use xlink:href="#DejaVuSans-31" x="304.367188"/>
      </g>
     </g>
    </g>
    <g id="ytick_20">
     <g id="text_27">
      <!-- VPA3_1 -->
      <g transform="translate(20.46375 480.203533)scale(0.08 -0.08)">
       <use xlink:href="#DejaVuSans-56"/>
       <use xlink:href="#DejaVuSans-50" x="68.408203"/>
       <use xlink:href="#DejaVuSans-41" x="122.335938"/>
       <use xlink:href="#DejaVuSans-33" x="190.744141"/>
       <use xlink:href="#DejaVuSans-5f" x="254.367188"/>
       <use xlink:href="#DejaVuSans-31" x="304.367188"/>
      </g>
     </g>
    </g>
    <g id="ytick_21">
     <g id="text_28">
      <!-- VPA4_1 -->
      <g transform="translate(20.46375 504.267255)scale(0.08 -0.08)">
       <use xlink:href="#DejaVuSans-56"/>
       <use xlink:href="#DejaVuSans-50" x="68.408203"/>
       <use xlink:href="#DejaVuSans-41" x="122.335938"/>
       <use xlink:href="#DejaVuSans-34" x="190.744141"/>
       <use xlink:href="#DejaVuSans-5f" x="254.367188"/>
       <use xlink:href="#DejaVuSans-31" x="304.367188"/>
      </g>
     </g>
    </g>
    <g id="ytick_22">
     <g id="text_29">
      <!-- VPA5_1 -->
      <g transform="translate(20.46375 528.371603)scale(0.08 -0.08)">
       <use xlink:href="#DejaVuSans-56"/>
       <use xlink:href="#DejaVuSans-50" x="68.408203"/>
       <use xlink:href="#DejaVuSans-41" x="122.335938"/>
       <use xlink:href="#DejaVuSans-35" x="190.744141"/>
       <use xlink:href="#DejaVuSans-5f" x="254.367188"/>
       <use xlink:href="#DejaVuSans-31" x="304.367188"/>
      </g>
     </g>
    </g>
    <g id="ytick_23">
     <g id="text_30">
      <!-- VPA6_1 -->
      <g transform="translate(20.46375 552.516576)scale(0.08 -0.08)">
       <use xlink:href="#DejaVuSans-56"/>
       <use xlink:href="#DejaVuSans-50" x="68.408203"/>
       <use xlink:href="#DejaVuSans-41" x="122.335938"/>
       <use xlink:href="#DejaVuSans-36" x="190.744141"/>
       <use xlink:href="#DejaVuSans-5f" x="254.367188"/>
       <use xlink:href="#DejaVuSans-31" x="304.367188"/>
      </g>
     </g>
    </g>
    <g id="ytick_24">
     <g id="text_31">
      <!-- VPASM1_1 -->
      <g transform="translate(8.4825 576.620924)scale(0.08 -0.08)">
       <use xlink:href="#DejaVuSans-56"/>
       <use xlink:href="#DejaVuSans-50" x="68.408203"/>
       <use xlink:href="#DejaVuSans-41" x="122.335938"/>
       <use xlink:href="#DejaVuSans-53" x="190.744141"/>
       <use xlink:href="#DejaVuSans-4d" x="254.220703"/>
       <use xlink:href="#DejaVuSans-31" x="340.5"/>
       <use xlink:href="#DejaVuSans-5f" x="404.123047"/>
       <use xlink:href="#DejaVuSans-31" x="454.123047"/>
      </g>
     </g>
    </g>
    <g id="ytick_25">
     <g id="text_32">
      <!-- VPASM2_1 -->
      <g transform="translate(8.4825 600.725272)scale(0.08 -0.08)">
       <use xlink:href="#DejaVuSans-56"/>
       <use xlink:href="#DejaVuSans-50" x="68.408203"/>
       <use xlink:href="#DejaVuSans-41" x="122.335938"/>
       <use xlink:href="#DejaVuSans-53" x="190.744141"/>
       <use xlink:href="#DejaVuSans-4d" x="254.220703"/>
       <use xlink:href="#DejaVuSans-32" x="340.5"/>
       <use xlink:href="#DejaVuSans-5f" x="404.123047"/>
       <use xlink:href="#DejaVuSans-31" x="454.123047"/>
      </g>
     </g>
    </g>
    <g id="ytick_26">
     <g id="text_33">
      <!-- VPASM3_1 -->
      <g transform="translate(8.4825 624.82962)scale(0.08 -0.08)">
       <use xlink:href="#DejaVuSans-56"/>
       <use xlink:href="#DejaVuSans-50" x="68.408203"/>
       <use xlink:href="#DejaVuSans-41" x="122.335938"/>
       <use xlink:href="#DejaVuSans-53" x="190.744141"/>
       <use xlink:href="#DejaVuSans-4d" x="254.220703"/>
       <use xlink:href="#DejaVuSans-33" x="340.5"/>
       <use xlink:href="#DejaVuSans-5f" x="404.123047"/>
       <use xlink:href="#DejaVuSans-31" x="454.123047"/>
      </g>
     </g>
    </g>
    <g id="ytick_27">
     <g id="text_34">
      <!-- VPASM5_1 -->
      <g transform="translate(8.4825 648.933967)scale(0.08 -0.08)">
       <use xlink:href="#DejaVuSans-56"/>
       <use xlink:href="#DejaVuSans-50" x="68.408203"/>
       <use xlink:href="#DejaVuSans-41" x="122.335938"/>
       <use xlink:href="#DejaVuSans-53" x="190.744141"/>
       <use xlink:href="#DejaVuSans-4d" x="254.220703"/>
       <use xlink:href="#DejaVuSans-35" x="340.5"/>
       <use xlink:href="#DejaVuSans-5f" x="404.123047"/>
       <use xlink:href="#DejaVuSans-31" x="454.123047"/>
      </g>
     </g>
    </g>
    <g id="ytick_28">
     <g id="text_35">
      <!-- VPASM6_1 -->
      <g transform="translate(8.4825 673.038315)scale(0.08 -0.08)">
       <use xlink:href="#DejaVuSans-56"/>
       <use xlink:href="#DejaVuSans-50" x="68.408203"/>
       <use xlink:href="#DejaVuSans-41" x="122.335938"/>
       <use xlink:href="#DejaVuSans-53" x="190.744141"/>
       <use xlink:href="#DejaVuSans-4d" x="254.220703"/>
       <use xlink:href="#DejaVuSans-36" x="340.5"/>
       <use xlink:href="#DejaVuSans-5f" x="404.123047"/>
       <use xlink:href="#DejaVuSans-31" x="454.123047"/>
      </g>
     </g>
    </g>
    <g id="ytick_29">
     <g id="text_36">
      <!-- VSGTX1_1 -->
      <g transform="translate(8.89625 697.142663)scale(0.08 -0.08)">
       <use xlink:href="#DejaVuSans-56"/>
       <use xlink:href="#DejaVuSans-53" x="68.408203"/>
       <use xlink:href="#DejaVuSans-47" x="131.884766"/>
       <use xlink:href="#DejaVuSans-54" x="205.75"/>
       <use xlink:href="#DejaVuSans-58" x="266.833984"/>
       <use xlink:href="#DejaVuSans-31" x="335.339844"/>
       <use xlink:href="#DejaVuSans-5f" x="398.962891"/>
       <use xlink:href="#DejaVuSans-31" x="448.962891"/>
      </g>
     </g>
    </g>
    <g id="ytick_30">
     <g id="text_37">
      <!-- VSGTX2_1 -->
      <g transform="translate(8.89625 721.247011)scale(0.08 -0.08)">
       <use xlink:href="#DejaVuSans-56"/>
       <use xlink:href="#DejaVuSans-53" x="68.408203"/>
       <use xlink:href="#DejaVuSans-47" x="131.884766"/>
       <use xlink:href="#DejaVuSans-54" x="205.75"/>
       <use xlink:href="#DejaVuSans-58" x="266.833984"/>
       <use xlink:href="#DejaVuSans-32" x="335.339844"/>
       <use xlink:href="#DejaVuSans-5f" x="398.962891"/>
       <use xlink:href="#DejaVuSans-31" x="448.962891"/>
      </g>
     </g>
    </g>
    <g id="ytick_31">
     <g id="text_38">
      <!-- VSGTX3_1 -->
      <g transform="translate(8.89625 745.351359)scale(0.08 -0.08)">
       <use xlink:href="#DejaVuSans-56"/>
       <use xlink:href="#DejaVuSans-53" x="68.408203"/>
       <use xlink:href="#DejaVuSans-47" x="131.884766"/>
       <use xlink:href="#DejaVuSans-54" x="205.75"/>
       <use xlink:href="#DejaVuSans-58" x="266.833984"/>
       <use xlink:href="#DejaVuSans-33" x="335.339844"/>
       <use xlink:href="#DejaVuSans-5f" x="398.962891"/>
       <use xlink:href="#DejaVuSans-31" x="448.962891"/>
      </g>
     </g>
    </g>
    <g id="ytick_32">
     <g id="text_39">
      <!-- VSGTX4_1 -->
      <g transform="translate(8.89625 769.455707)scale(0.08 -0.08)">
       <use xlink:href="#DejaVuSans-56"/>
       <use xlink:href="#DejaVuSans-53" x="68.408203"/>
       <use xlink:href="#DejaVuSans-47" x="131.884766"/>
       <use xlink:href="#DejaVuSans-54" x="205.75"/>
       <use xlink:href="#DejaVuSans-58" x="266.833984"/>
       <use xlink:href="#DejaVuSans-34" x="335.339844"/>
       <use xlink:href="#DejaVuSans-5f" x="398.962891"/>
       <use xlink:href="#DejaVuSans-31" x="448.962891"/>
      </g>
     </g>
    </g>
    <g id="ytick_33">
     <g id="text_40">
      <!-- VSGTX5_1 -->
      <g transform="translate(8.89625 793.560054)scale(0.08 -0.08)">
       <use xlink:href="#DejaVuSans-56"/>
       <use xlink:href="#DejaVuSans-53" x="68.408203"/>
       <use xlink:href="#DejaVuSans-47" x="131.884766"/>
       <use xlink:href="#DejaVuSans-54" x="205.75"/>
       <use xlink:href="#DejaVuSans-58" x="266.833984"/>
       <use xlink:href="#DejaVuSans-35" x="335.339844"/>
       <use xlink:href="#DejaVuSans-5f" x="398.962891"/>
       <use xlink:href="#DejaVuSans-31" x="448.962891"/>
      </g>
     </g>
    </g>
    <g id="ytick_34">
     <g id="text_41">
      <!-- VSGTX6_1 -->
      <g transform="translate(8.89625 817.664402)scale(0.08 -0.08)">
       <use xlink:href="#DejaVuSans-56"/>
       <use xlink:href="#DejaVuSans-53" x="68.408203"/>
       <use xlink:href="#DejaVuSans-47" x="131.884766"/>
       <use xlink:href="#DejaVuSans-54" x="205.75"/>
       <use xlink:href="#DejaVuSans-58" x="266.833984"/>
       <use xlink:href="#DejaVuSans-36" x="335.339844"/>
       <use xlink:href="#DejaVuSans-5f" x="398.962891"/>
       <use xlink:href="#DejaVuSans-31" x="448.962891"/>
      </g>
     </g>
    </g>
   </g>
   <g id="patch_2">
    <path d="M 56.9025 9.610435 
L 170.789201 9.610435 
L 170.789201 28.893913 
L 56.9025 28.893913 
z
" clip-path="url(#padfa90cf81)" style="fill: #8dd3c7"/>
   </g>
   <g id="patch_3">
    <path d="M 56.9025 33.714783 
L 280.192175 33.714783 
L 280.192175 52.998261 
L 56.9025 52.998261 
z
" clip-path="url(#padfa90cf81)" style="fill: #8dd3c7"/>
   </g>
   <g id="patch_4">
    <path d="M 56.9025 57.81913 
L 288.561801 57.81913 
L 288.561801 77.102609 
L 56.9025 77.102609 
z
" clip-path="url(#padfa90cf81)" style="fill: #8dd3c7"/>
   </g>
   <g id="patch_5">
    <path d="M 56.9025 81.923478 
L 409.47301 81.923478 
L 409.47301 101.206957 
L 56.9025 101.206957 
z
" clip-path="url(#padfa90cf81)" style="fill: #8dd3c7"/>
   </g>
   <g id="patch_6">
    <path d="M 56.9025 106.027826 
L 268.683938 106.027826 
L 268.683938 125.311304 
L 56.9025 125.311304 
z
" clip-path="url(#padfa90cf81)" style="fill: #8dd3c7"/>
   </g>
   <g id="patch_7">
    <path d="M 56.9025 130.132174 
L 379.282572 130.132174 
L 379.282572 149.415652 
L 56.9025 149.415652 
z
" clip-path="url(#padfa90cf81)" style="fill: #8dd3c7"/>
   </g>
   <g id="patch_8">
    <path d="M 56.9025 154.236522 
L 448.630905 154.236522 
L 448.630905 173.52 
L 56.9025 173.52 
z
" clip-path="url(#padfa90cf81)" style="fill: #8dd3c7"/>
   </g>
   <g id="patch_9">
    <path d="M 56.9025 178.34087 
L 366.130302 178.34087 
L 366.130302 197.624348 
L 56.9025 197.624348 
z
" clip-path="url(#padfa90cf81)" style="fill: #8dd3c7"/>
   </g>
   <g id="patch_10">
    <path d="M 56.9025 202.445217 
L 291.849868 202.445217 
L 291.849868 221.728696 
L 56.9025 221.728696 
z
" clip-path="url(#padfa90cf81)" style="fill: #8dd3c7"/>
   </g>
   <g id="patch_11">
    <path d="M 56.9025 226.549565 
L 242.827771 226.549565 
L 242.827771 245.833043 
L 56.9025 245.833043 
z
" clip-path="url(#padfa90cf81)" style="fill: #8dd3c7"/>
   </g>
   <g id="patch_12">
    <path d="M 56.9025 250.653913 
L 167.800049 250.653913 
L 167.800049 269.937391 
L 56.9025 269.937391 
z
" clip-path="url(#padfa90cf81)" style="fill: #8dd3c7"/>
   </g>
   <g id="patch_13">
    <path d="M 56.9025 274.758261 
L 206.957944 274.758261 
L 206.957944 294.041739 
L 56.9025 294.041739 
z
" clip-path="url(#padfa90cf81)" style="fill: #8dd3c7"/>
   </g>
   <g id="patch_14">
    <path d="M 56.9025 298.862609 
L 256.577872 298.862609 
L 256.577872 318.146087 
L 56.9025 318.146087 
z
" clip-path="url(#padfa90cf81)" style="fill: #8dd3c7"/>
   </g>
   <g id="patch_15">
    <path d="M 56.9025 322.966957 
L 397.964774 322.966957 
L 397.964774 342.250435 
L 56.9025 342.250435 
z
" clip-path="url(#padfa90cf81)" style="fill: #8dd3c7"/>
   </g>
   <g id="patch_16">
    <path d="M 56.9025 347.071304 
L 264.349668 347.071304 
L 264.349668 366.354783 
L 56.9025 366.354783 
z
" clip-path="url(#padfa90cf81)" style="fill: #8dd3c7"/>
   </g>
   <g id="patch_17">
    <path d="M 56.9025 371.175652 
L 281.08892 371.175652 
L 281.08892 390.45913 
L 56.9025 390.45913 
z
" clip-path="url(#padfa90cf81)" style="fill: #8dd3c7"/>
   </g>
   <g id="patch_18">
    <path d="M 56.9025 395.28 
L 473.291411 395.28 
L 473.291411 414.563478 
L 56.9025 414.563478 
z
" clip-path="url(#padfa90cf81)" style="fill: #8dd3c7"/>
   </g>
   <g id="patch_19">
    <path d="M 56.9025 419.384348 
L 367.475421 419.384348 
L 367.475421 438.667826 
L 56.9025 438.667826 
z
" clip-path="url(#padfa90cf81)" style="fill: #8dd3c7"/>
   </g>
   <g id="patch_20">
    <path d="M 56.9025 443.488696 
L 170.639744 443.488696 
L 170.639744 462.772174 
L 56.9025 462.772174 
z
" clip-path="url(#padfa90cf81)" style="fill: #8dd3c7"/>
   </g>
   <g id="patch_21">
    <path d="M 56.9025 467.593043 
L 249.254449 467.593043 
L 249.254449 486.876522 
L 56.9025 486.876522 
z
" clip-path="url(#padfa90cf81)" style="fill: #8dd3c7"/>
   </g>
   <g id="patch_22">
    <path d="M 56.9025 491.697391 
L 272.420379 491.697391 
L 272.420379 510.98087 
L 56.9025 510.98087 
z
" clip-path="url(#padfa90cf81)" style="fill: #8dd3c7"/>
   </g>
   <g id="patch_23">
    <path d="M 56.9025 515.801739 
L 156.889643 515.801739 
L 156.889643 535.085217 
L 56.9025 535.085217 
z
" clip-path="url(#padfa90cf81)" style="fill: #8dd3c7"/>
   </g>
   <g id="patch_24">
    <path d="M 56.9025 539.906087 
L 332.651797 539.906087 
L 332.651797 559.189565 
L 56.9025 559.189565 
z
" clip-path="url(#padfa90cf81)" style="fill: #8dd3c7"/>
   </g>
   <g id="patch_25">
    <path d="M 56.9025 564.010435 
L 537.408727 564.010435 
L 537.408727 583.293913 
L 56.9025 583.293913 
z
" clip-path="url(#padfa90cf81)" style="fill: #8dd3c7"/>
   </g>
   <g id="patch_26">
    <path d="M 56.9025 588.114783 
L 279.145971 588.114783 
L 279.145971 607.398261 
L 56.9025 607.398261 
z
" clip-path="url(#padfa90cf81)" style="fill: #8dd3c7"/>
   </g>
   <g id="patch_27">
    <path d="M 56.9025 612.21913 
L 214.430825 612.21913 
L 214.430825 631.502609 
L 56.9025 631.502609 
z
" clip-path="url(#padfa90cf81)" style="fill: #8dd3c7"/>
   </g>
   <g id="patch_28">
    <path d="M 56.9025 636.323478 
L 162.12066 636.323478 
L 162.12066 655.606957 
L 56.9025 655.606957 
z
" clip-path="url(#padfa90cf81)" style="fill: #8dd3c7"/>
   </g>
   <g id="patch_29">
    <path d="M 56.9025 660.427826 
L 392.5843 660.427826 
L 392.5843 679.711304 
L 56.9025 679.711304 
z
" clip-path="url(#padfa90cf81)" style="fill: #8dd3c7"/>
   </g>
   <g id="patch_30">
    <path d="M 56.9025 684.532174 
L 377.638539 684.532174 
L 377.638539 703.815652 
L 56.9025 703.815652 
z
" clip-path="url(#padfa90cf81)" style="fill: #8dd3c7"/>
   </g>
   <g id="patch_31">
    <path d="M 56.9025 708.636522 
L 398.562604 708.636522 
L 398.562604 727.92 
L 56.9025 727.92 
z
" clip-path="url(#padfa90cf81)" style="fill: #8dd3c7"/>
   </g>
   <g id="patch_32">
    <path d="M 56.9025 732.74087 
L 431.443279 732.74087 
L 431.443279 752.024348 
L 56.9025 752.024348 
z
" clip-path="url(#padfa90cf81)" style="fill: #8dd3c7"/>
   </g>
   <g id="patch_33">
    <path d="M 56.9025 756.845217 
L 399.010977 756.845217 
L 399.010977 776.128696 
L 56.9025 776.128696 
z
" clip-path="url(#padfa90cf81)" style="fill: #8dd3c7"/>
   </g>
   <g id="patch_34">
    <path d="M 56.9025 780.949565 
L 267.787193 780.949565 
L 267.787193 800.233043 
L 56.9025 800.233043 
z
" clip-path="url(#padfa90cf81)" style="fill: #8dd3c7"/>
   </g>
   <g id="patch_35">
    <path d="M 56.9025 805.053913 
L 416.497518 805.053913 
L 416.497518 824.337391 
L 56.9025 824.337391 
z
" clip-path="url(#padfa90cf81)" style="fill: #8dd3c7"/>
   </g>
   <g id="patch_36">
    <path d="M 170.789201 9.610435 
L 333.10017 9.610435 
L 333.10017 28.893913 
L 170.789201 28.893913 
z
" clip-path="url(#padfa90cf81)" style="fill: #ffffb3"/>
   </g>
   <g id="patch_37">
    <path d="M 280.192175 33.714783 
L 651.743802 33.714783 
L 651.743802 52.998261 
L 280.192175 52.998261 
z
" clip-path="url(#padfa90cf81)" style="fill: #ffffb3"/>
   </g>
   <g id="patch_38">
    <path d="M 288.561801 57.81913 
L 592.110214 57.81913 
L 592.110214 77.102609 
L 288.561801 77.102609 
z
" clip-path="url(#padfa90cf81)" style="fill: #ffffb3"/>
   </g>
   <g id="patch_39">
    <path d="M 409.47301 81.923478 
L 747.69559 81.923478 
L 747.69559 101.206957 
L 409.47301 101.206957 
z
" clip-path="url(#padfa90cf81)" style="fill: #ffffb3"/>
   </g>
   <g id="patch_40">
    <path d="M 268.683938 106.027826 
L 632.314312 106.027826 
L 632.314312 125.311304 
L 268.683938 125.311304 
z
" clip-path="url(#padfa90cf81)" style="fill: #ffffb3"/>
   </g>
   <g id="patch_41">
    <path d="M 379.282572 130.132174 
L 682.681528 130.132174 
L 682.681528 149.415652 
L 379.282572 149.415652 
z
" clip-path="url(#padfa90cf81)" style="fill: #ffffb3"/>
   </g>
   <g id="patch_42">
    <path d="M 448.630905 154.236522 
L 657.423191 154.236522 
L 657.423191 173.52 
L 448.630905 173.52 
z
" clip-path="url(#padfa90cf81)" style="fill: #ffffb3"/>
   </g>
   <g id="patch_43">
    <path d="M 366.130302 178.34087 
L 599.732552 178.34087 
L 599.732552 197.624348 
L 366.130302 197.624348 
z
" clip-path="url(#padfa90cf81)" style="fill: #ffffb3"/>
   </g>
   <g id="patch_44">
    <path d="M 291.849868 202.445217 
L 479.867546 202.445217 
L 479.867546 221.728696 
L 291.849868 221.728696 
z
" clip-path="url(#padfa90cf81)" style="fill: #ffffb3"/>
   </g>
   <g id="patch_45">
    <path d="M 242.827771 226.549565 
L 422.475823 226.549565 
L 422.475823 245.833043 
L 242.827771 245.833043 
z
" clip-path="url(#padfa90cf81)" style="fill: #ffffb3"/>
   </g>
   <g id="patch_46">
    <path d="M 167.800049 250.653913 
L 280.042717 250.653913 
L 280.042717 269.937391 
L 167.800049 269.937391 
z
" clip-path="url(#padfa90cf81)" style="fill: #ffffb3"/>
   </g>
   <g id="patch_47">
    <path d="M 206.957944 274.758261 
L 392.434842 274.758261 
L 392.434842 294.041739 
L 206.957944 294.041739 
z
" clip-path="url(#padfa90cf81)" style="fill: #ffffb3"/>
   </g>
   <g id="patch_48">
    <path d="M 256.577872 298.862609 
L 484.052359 298.862609 
L 484.052359 318.146087 
L 256.577872 318.146087 
z
" clip-path="url(#padfa90cf81)" style="fill: #ffffb3"/>
   </g>
   <g id="patch_49">
    <path d="M 397.964774 322.966957 
L 800.9025 322.966957 
L 800.9025 342.250435 
L 397.964774 342.250435 
z
" clip-path="url(#padfa90cf81)" style="fill: #ffffb3"/>
   </g>
   <g id="patch_50">
    <path d="M 264.349668 347.071304 
L 550.560997 347.071304 
L 550.560997 366.354783 
L 264.349668 366.354783 
z
" clip-path="url(#padfa90cf81)" style="fill: #ffffb3"/>
   </g>
   <g id="patch_51">
    <path d="M 281.08892 371.175652 
L 597.640146 371.175652 
L 597.640146 390.45913 
L 281.08892 390.45913 
z
" clip-path="url(#padfa90cf81)" style="fill: #ffffb3"/>
   </g>
   <g id="patch_52">
    <path d="M 473.291411 395.28 
L 739.027048 395.28 
L 739.027048 414.563478 
L 473.291411 414.563478 
z
" clip-path="url(#padfa90cf81)" style="fill: #ffffb3"/>
   </g>
   <g id="patch_53">
    <path d="M 367.475421 419.384348 
L 553.101777 419.384348 
L 553.101777 438.667826 
L 367.475421 438.667826 
z
" clip-path="url(#padfa90cf81)" style="fill: #ffffb3"/>
   </g>
   <g id="patch_54">
    <path d="M 170.639744 443.488696 
L 339.526847 443.488696 
L 339.526847 462.772174 
L 170.639744 462.772174 
z
" clip-path="url(#padfa90cf81)" style="fill: #ffffb3"/>
   </g>
   <g id="patch_55">
    <path d="M 249.254449 467.593043 
L 443.250431 467.593043 
L 443.250431 486.876522 
L 249.254449 486.876522 
z
" clip-path="url(#padfa90cf81)" style="fill: #ffffb3"/>
   </g>
   <g id="patch_56">
    <path d="M 272.420379 491.697391 
L 533.522829 491.697391 
L 533.522829 510.98087 
L 272.420379 510.98087 
z
" clip-path="url(#padfa90cf81)" style="fill: #ffffb3"/>
   </g>
   <g id="patch_57">
    <path d="M 156.889643 515.801739 
L 358.806879 515.801739 
L 358.806879 535.085217 
L 156.889643 535.085217 
z
" clip-path="url(#padfa90cf81)" style="fill: #ffffb3"/>
   </g>
   <g id="patch_58">
    <path d="M 332.651797 539.906087 
L 550.859913 539.906087 
L 550.859913 559.189565 
L 332.651797 559.189565 
z
" clip-path="url(#padfa90cf81)" style="fill: #ffffb3"/>
   </g>
   <g id="patch_59">
    <path d="M 537.408727 564.010435 
L 738.578675 564.010435 
L 738.578675 583.293913 
L 537.408727 583.293913 
z
" clip-path="url(#padfa90cf81)" style="fill: #ffffb3"/>
   </g>
   <g id="patch_60">
    <path d="M 279.145971 588.114783 
L 527.395067 588.114783 
L 527.395067 607.398261 
L 279.145971 607.398261 
z
" clip-path="url(#padfa90cf81)" style="fill: #ffffb3"/>
   </g>
   <g id="patch_61">
    <path d="M 214.430825 612.21913 
L 496.905714 612.21913 
L 496.905714 631.502609 
L 214.430825 631.502609 
z
" clip-path="url(#padfa90cf81)" style="fill: #ffffb3"/>
   </g>
   <g id="patch_62">
    <path d="M 162.12066 636.323478 
L 308.140748 636.323478 
L 308.140748 655.606957 
L 162.12066 655.606957 
z
" clip-path="url(#padfa90cf81)" style="fill: #ffffb3"/>
   </g>
   <g id="patch_63">
    <path d="M 392.5843 660.427826 
L 684.923392 660.427826 
L 684.923392 679.711304 
L 392.5843 679.711304 
z
" clip-path="url(#padfa90cf81)" style="fill: #ffffb3"/>
   </g>
   <g id="patch_64">
    <path d="M 377.638539 684.532174 
L 605.262484 684.532174 
L 605.262484 703.815652 
L 377.638539 703.815652 
z
" clip-path="url(#padfa90cf81)" style="fill: #ffffb3"/>
   </g>
   <g id="patch_65">
    <path d="M 398.562604 708.636522 
L 544.582693 708.636522 
L 544.582693 727.92 
L 398.562604 727.92 
z
" clip-path="url(#padfa90cf81)" style="fill: #ffffb3"/>
   </g>
   <g id="patch_66">
    <path d="M 431.443279 732.74087 
L 708.986068 732.74087 
L 708.986068 752.024348 
L 431.443279 752.024348 
z
" clip-path="url(#padfa90cf81)" style="fill: #ffffb3"/>
   </g>
   <g id="patch_67">
    <path d="M 399.010977 756.845217 
L 643.673091 756.845217 
L 643.673091 776.128696 
L 399.010977 776.128696 
z
" clip-path="url(#padfa90cf81)" style="fill: #ffffb3"/>
   </g>
   <g id="patch_68">
    <path d="M 267.787193 780.949565 
L 502.286188 780.949565 
L 502.286188 800.233043 
L 267.787193 800.233043 
z
" clip-path="url(#padfa90cf81)" style="fill: #ffffb3"/>
   </g>
   <g id="patch_69">
    <path d="M 416.497518 805.053913 
L 665.792817 805.053913 
L 665.792817 824.337391 
L 416.497518 824.337391 
z
" clip-path="url(#padfa90cf81)" style="fill: #ffffb3"/>
   </g>
   <g id="text_42">
    <!-- miRTrace: Contamination Check -->
    <g transform="translate(319.99875 -20.52)scale(0.16 -0.16)">
     <defs>
      <path id="DejaVuSans-72" d="M 2631 2963 
Q 2534 3019 2420 3045 
Q 2306 3072 2169 3072 
Q 1681 3072 1420 2755 
Q 1159 2438 1159 1844 
L 1159 0 
L 581 0 
L 581 3500 
L 1159 3500 
L 1159 2956 
Q 1341 3275 1631 3429 
Q 1922 3584 2338 3584 
Q 2397 3584 2469 3576 
Q 2541 3569 2628 3553 
L 2631 2963 
z
" transform="scale(0.015625)"/>
      <path id="DejaVuSans-61" d="M 2194 1759 
Q 1497 1759 1228 1600 
Q 959 1441 959 1056 
Q 959 750 1161 570 
Q 1363 391 1709 391 
Q 2188 391 2477 730 
Q 2766 1069 2766 1631 
L 2766 1759 
L 2194 1759 
z
M 3341 1997 
L 3341 0 
L 2766 0 
L 2766 531 
Q 2569 213 2275 61 
Q 1981 -91 1556 -91 
Q 1019 -91 701 211 
Q 384 513 384 1019 
Q 384 1609 779 1909 
Q 1175 2209 1959 2209 
L 2766 2209 
L 2766 2266 
Q 2766 2663 2505 2880 
Q 2244 3097 1772 3097 
Q 1472 3097 1187 3025 
Q 903 2953 641 2809 
L 641 3341 
Q 956 3463 1253 3523 
Q 1550 3584 1831 3584 
Q 2591 3584 2966 3190 
Q 3341 2797 3341 1997 
z
" transform="scale(0.015625)"/>
      <path id="DejaVuSans-3a" d="M 750 794 
L 1409 794 
L 1409 0 
L 750 0 
L 750 794 
z
M 750 3309 
L 1409 3309 
L 1409 2516 
L 750 2516 
L 750 3309 
z
" transform="scale(0.015625)"/>
      <path id="DejaVuSans-6f" d="M 1959 3097 
Q 1497 3097 1228 2736 
Q 959 2375 959 1747 
Q 959 1119 1226 758 
Q 1494 397 1959 397 
Q 2419 397 2687 759 
Q 2956 1122 2956 1747 
Q 2956 2369 2687 2733 
Q 2419 3097 1959 3097 
z
M 1959 3584 
Q 2709 3584 3137 3096 
Q 3566 2609 3566 1747 
Q 3566 888 3137 398 
Q 2709 -91 1959 -91 
Q 1206 -91 779 398 
Q 353 888 353 1747 
Q 353 2609 779 3096 
Q 1206 3584 1959 3584 
z
" transform="scale(0.015625)"/>
      <path id="DejaVuSans-6e" d="M 3513 2113 
L 3513 0 
L 2938 0 
L 2938 2094 
Q 2938 2591 2744 2837 
Q 2550 3084 2163 3084 
Q 1697 3084 1428 2787 
Q 1159 2491 1159 1978 
L 1159 0 
L 581 0 
L 581 3500 
L 1159 3500 
L 1159 2956 
Q 1366 3272 1645 3428 
Q 1925 3584 2291 3584 
Q 2894 3584 3203 3211 
Q 3513 2838 3513 2113 
z
" transform="scale(0.015625)"/>
      <path id="DejaVuSans-68" d="M 3513 2113 
L 3513 0 
L 2938 0 
L 2938 2094 
Q 2938 2591 2744 2837 
Q 2550 3084 2163 3084 
Q 1697 3084 1428 2787 
Q 1159 2491 1159 1978 
L 1159 0 
L 581 0 
L 581 4863 
L 1159 4863 
L 1159 2956 
Q 1366 3272 1645 3428 
Q 1925 3584 2291 3584 
Q 2894 3584 3203 3211 
Q 3513 2838 3513 2113 
z
" transform="scale(0.015625)"/>
      <path id="DejaVuSans-6b" d="M 581 4863 
L 1159 4863 
L 1159 1991 
L 2875 3500 
L 3609 3500 
L 1753 1863 
L 3688 0 
L 2938 0 
L 1159 1709 
L 1159 0 
L 581 0 
L 581 4863 
z
" transform="scale(0.015625)"/>
     </defs>
     <use xlink:href="#DejaVuSans-6d"/>
     <use xlink:href="#DejaVuSans-69" x="97.412109"/>
     <use xlink:href="#DejaVuSans-52" x="125.195312"/>
     <use xlink:href="#DejaVuSans-54" x="187.427734"/>
     <use xlink:href="#DejaVuSans-72" x="233.761719"/>
     <use xlink:href="#DejaVuSans-61" x="274.875"/>
     <use xlink:href="#DejaVuSans-63" x="336.154297"/>
     <use xlink:href="#DejaVuSans-65" x="391.134766"/>
     <use xlink:href="#DejaVuSans-3a" x="452.658203"/>
     <use xlink:href="#DejaVuSans-20" x="486.349609"/>
     <use xlink:href="#DejaVuSans-43" x="518.136719"/>
     <use xlink:href="#DejaVuSans-6f" x="587.960938"/>
     <use xlink:href="#DejaVuSans-6e" x="649.142578"/>
     <use xlink:href="#DejaVuSans-74" x="712.521484"/>
     <use xlink:href="#DejaVuSans-61" x="751.730469"/>
     <use xlink:href="#DejaVuSans-6d" x="813.009766"/>
     <use xlink:href="#DejaVuSans-69" x="910.421875"/>
     <use xlink:href="#DejaVuSans-6e" x="938.205078"/>
     <use xlink:href="#DejaVuSans-61" x="1001.583984"/>
     <use xlink:href="#DejaVuSans-74" x="1062.863281"/>
     <use xlink:href="#DejaVuSans-69" x="1102.072266"/>
     <use xlink:href="#DejaVuSans-6f" x="1129.855469"/>
     <use xlink:href="#DejaVuSans-6e" x="1191.037109"/>
     <use xlink:href="#DejaVuSans-20" x="1254.416016"/>
     <use xlink:href="#DejaVuSans-43" x="1286.203125"/>
     <use xlink:href="#DejaVuSans-68" x="1356.027344"/>
     <use xlink:href="#DejaVuSans-65" x="1419.40625"/>
     <use xlink:href="#DejaVuSans-63" x="1480.929688"/>
     <use xlink:href="#DejaVuSans-6b" x="1535.910156"/>
    </g>
   </g>
   <g id="legend_1">
    <g id="patch_70">
     <path d="M 64.1025 901.044076 
L 80.1025 901.044076 
L 80.1025 895.444076 
L 64.1025 895.444076 
z
" style="fill: #8dd3c7"/>
    </g>
    <g id="text_43">
     <!-- rodents -->
     <g transform="translate(86.5025 901.044076)scale(0.08 -0.08)">
      <defs>
       <path id="DejaVuSans-73" d="M 2834 3397 
L 2834 2853 
Q 2591 2978 2328 3040 
Q 2066 3103 1784 3103 
Q 1356 3103 1142 2972 
Q 928 2841 928 2578 
Q 928 2378 1081 2264 
Q 1234 2150 1697 2047 
L 1894 2003 
Q 2506 1872 2764 1633 
Q 3022 1394 3022 966 
Q 3022 478 2636 193 
Q 2250 -91 1575 -91 
Q 1294 -91 989 -36 
Q 684 19 347 128 
L 347 722 
Q 666 556 975 473 
Q 1284 391 1588 391 
Q 1994 391 2212 530 
Q 2431 669 2431 922 
Q 2431 1156 2273 1281 
Q 2116 1406 1581 1522 
L 1381 1569 
Q 847 1681 609 1914 
Q 372 2147 372 2553 
Q 372 3047 722 3315 
Q 1072 3584 1716 3584 
Q 2034 3584 2315 3537 
Q 2597 3491 2834 3397 
z
" transform="scale(0.015625)"/>
      </defs>
      <use xlink:href="#DejaVuSans-72"/>
      <use xlink:href="#DejaVuSans-6f" x="38.863281"/>
      <use xlink:href="#DejaVuSans-64" x="100.044922"/>
      <use xlink:href="#DejaVuSans-65" x="163.521484"/>
      <use xlink:href="#DejaVuSans-6e" x="225.044922"/>
      <use xlink:href="#DejaVuSans-74" x="288.423828"/>
      <use xlink:href="#DejaVuSans-73" x="327.632812"/>
     </g>
    </g>
    <g id="patch_71">
     <path d="M 772.99125 901.044076 
L 788.99125 901.044076 
L 788.99125 895.444076 
L 772.99125 895.444076 
z
" style="fill: #ffffb3"/>
    </g>
    <g id="text_44">
     <!-- primates -->
     <g transform="translate(795.39125 901.044076)scale(0.08 -0.08)">
      <defs>
       <path id="DejaVuSans-70" d="M 1159 525 
L 1159 -1331 
L 581 -1331 
L 581 3500 
L 1159 3500 
L 1159 2969 
Q 1341 3281 1617 3432 
Q 1894 3584 2278 3584 
Q 2916 3584 3314 3078 
Q 3713 2572 3713 1747 
Q 3713 922 3314 415 
Q 2916 -91 2278 -91 
Q 1894 -91 1617 61 
Q 1341 213 1159 525 
z
M 3116 1747 
Q 3116 2381 2855 2742 
Q 2594 3103 2138 3103 
Q 1681 3103 1420 2742 
Q 1159 2381 1159 1747 
Q 1159 1113 1420 752 
Q 1681 391 2138 391 
Q 2594 391 2855 752 
Q 3116 1113 3116 1747 
z
" transform="scale(0.015625)"/>
      </defs>
      <use xlink:href="#DejaVuSans-70"/>
      <use xlink:href="#DejaVuSans-72" x="63.476562"/>
      <use xlink:href="#DejaVuSans-69" x="104.589844"/>
      <use xlink:href="#DejaVuSans-6d" x="132.373047"/>
      <use xlink:href="#DejaVuSans-61" x="229.785156"/>
      <use xlink:href="#DejaVuSans-74" x="291.064453"/>
      <use xlink:href="#DejaVuSans-65" x="330.273438"/>
      <use xlink:href="#DejaVuSans-73" x="391.796875"/>
     </g>
    </g>
   </g>
  </g>
 </g>
 <defs>
  <clipPath id="padfa90cf81">
   <rect x="56.9025" y="7.2" width="781.2" height="819.547826"/>
  </clipPath>
 </defs>
</svg>
