<?xml version="1.0" encoding="utf-8" standalone="no"?>
<!DOCTYPE svg PUBLIC "-//W3C//DTD SVG 1.1//EN"
  "http://www.w3.org/Graphics/SVG/1.1/DTD/svg11.dtd">
<svg xmlns:xlink="http://www.w3.org/1999/xlink" width="1000.318125pt" height="388.844525pt" viewBox="0 0 1000.318125 388.844525" xmlns="http://www.w3.org/2000/svg" version="1.1">
 <metadata>
  <rdf:RDF xmlns:dc="http://purl.org/dc/elements/1.1/" xmlns:cc="http://creativecommons.org/ns#" xmlns:rdf="http://www.w3.org/1999/02/22-rdf-syntax-ns#">
   <cc:Work>
    <dc:type rdf:resource="http://purl.org/dc/dcmitype/StillImage"/>
    <dc:date>2022-11-05T04:15:17.261911</dc:date>
    <dc:format>image/svg+xml</dc:format>
    <dc:creator>
     <cc:Agent>
      <dc:title>Matplotlib v3.5.1, https://matplotlib.org/</dc:title>
     </cc:Agent>
    </dc:creator>
   </cc:Work>
  </rdf:RDF>
 </metadata>
 <defs>
  <style type="text/css">*{stroke-linejoin: round; stroke-linecap: butt}</style>
 </defs>
 <g id="figure_1">
  <g id="axes_1">
   <g id="patch_1">
    <path d="M 38.058125 353.2239 
L 993.118125 353.2239 
L 993.118125 35.2559 
L 38.058125 35.2559 
z
" style="fill: #ffffff"/>
   </g>
   <g id="patch_2">
    <path d="M 38.058125 114.271222 
L 958.476371 114.271222 
L 958.476371 -500.178522 
L 38.058125 -500.178522 
z
" clip-path="url(#p65a25a295c)" style="fill: #c3e6c3"/>
   </g>
   <g id="patch_3">
    <path d="M 38.058125 182.543416 
L 958.476371 182.543416 
L 958.476371 114.271222 
L 38.058125 114.271222 
z
" clip-path="url(#p65a25a295c)" style="fill: #e6dcc3"/>
   </g>
   <g id="patch_4">
    <path d="M 38.058125 353.2239 
L 958.476371 353.2239 
L 958.476371 182.543416 
L 38.058125 182.543416 
z
" clip-path="url(#p65a25a295c)" style="fill: #e6c3c3"/>
   </g>
   <g id="matplotlib.axis_1">
    <g id="xtick_1">
     <g id="text_1">
      <!-- 0 -->
      <g transform="translate(70.154879 366.30265)scale(0.08 -0.08)">
       <defs>
        <path id="DejaVuSans-30" d="M 2034 4250 
Q 1547 4250 1301 3770 
Q 1056 3291 1056 2328 
Q 1056 1369 1301 889 
Q 1547 409 2034 409 
Q 2525 409 2770 889 
Q 3016 1369 3016 2328 
Q 3016 3291 2770 3770 
Q 2525 4250 2034 4250 
z
M 2034 4750 
Q 2819 4750 3233 4129 
Q 3647 3509 3647 2328 
Q 3647 1150 3233 529 
Q 2819 -91 2034 -91 
Q 1250 -91 836 529 
Q 422 1150 422 2328 
Q 422 3509 836 4129 
Q 1250 4750 2034 4750 
z
" transform="scale(0.015625)"/>
       </defs>
       <use xlink:href="#DejaVuSans-30"/>
      </g>
     </g>
    </g>
    <g id="xtick_2">
     <g id="text_2">
      <!-- 20 -->
      <g transform="translate(243.011164 366.30265)scale(0.08 -0.08)">
       <defs>
        <path id="DejaVuSans-32" d="M 1228 531 
L 3431 531 
L 3431 0 
L 469 0 
L 469 531 
Q 828 903 1448 1529 
Q 2069 2156 2228 2338 
Q 2531 2678 2651 2914 
Q 2772 3150 2772 3378 
Q 2772 3750 2511 3984 
Q 2250 4219 1831 4219 
Q 1534 4219 1204 4116 
Q 875 4013 500 3803 
L 500 4441 
Q 881 4594 1212 4672 
Q 1544 4750 1819 4750 
Q 2544 4750 2975 4387 
Q 3406 4025 3406 3419 
Q 3406 3131 3298 2873 
Q 3191 2616 2906 2266 
Q 2828 2175 2409 1742 
Q 1991 1309 1228 531 
z
" transform="scale(0.015625)"/>
       </defs>
       <use xlink:href="#DejaVuSans-32"/>
       <use xlink:href="#DejaVuSans-30" x="63.623047"/>
      </g>
     </g>
    </g>
    <g id="xtick_3">
     <g id="text_3">
      <!-- 40 -->
      <g transform="translate(418.41245 366.30265)scale(0.08 -0.08)">
       <defs>
        <path id="DejaVuSans-34" d="M 2419 4116 
L 825 1625 
L 2419 1625 
L 2419 4116 
z
M 2253 4666 
L 3047 4666 
L 3047 1625 
L 3713 1625 
L 3713 1100 
L 3047 1100 
L 3047 0 
L 2419 0 
L 2419 1100 
L 313 1100 
L 313 1709 
L 2253 4666 
z
" transform="scale(0.015625)"/>
       </defs>
       <use xlink:href="#DejaVuSans-34"/>
       <use xlink:href="#DejaVuSans-30" x="63.623047"/>
      </g>
     </g>
    </g>
    <g id="xtick_4">
     <g id="text_4">
      <!-- 60 -->
      <g transform="translate(593.813736 366.30265)scale(0.08 -0.08)">
       <defs>
        <path id="DejaVuSans-36" d="M 2113 2584 
Q 1688 2584 1439 2293 
Q 1191 2003 1191 1497 
Q 1191 994 1439 701 
Q 1688 409 2113 409 
Q 2538 409 2786 701 
Q 3034 994 3034 1497 
Q 3034 2003 2786 2293 
Q 2538 2584 2113 2584 
z
M 3366 4563 
L 3366 3988 
Q 3128 4100 2886 4159 
Q 2644 4219 2406 4219 
Q 1781 4219 1451 3797 
Q 1122 3375 1075 2522 
Q 1259 2794 1537 2939 
Q 1816 3084 2150 3084 
Q 2853 3084 3261 2657 
Q 3669 2231 3669 1497 
Q 3669 778 3244 343 
Q 2819 -91 2113 -91 
Q 1303 -91 875 529 
Q 447 1150 447 2328 
Q 447 3434 972 4092 
Q 1497 4750 2381 4750 
Q 2619 4750 2861 4703 
Q 3103 4656 3366 4563 
z
" transform="scale(0.015625)"/>
       </defs>
       <use xlink:href="#DejaVuSans-36"/>
       <use xlink:href="#DejaVuSans-30" x="63.623047"/>
      </g>
     </g>
    </g>
    <g id="xtick_5">
     <g id="text_5">
      <!-- 80 -->
      <g transform="translate(769.215021 366.30265)scale(0.08 -0.08)">
       <defs>
        <path id="DejaVuSans-38" d="M 2034 2216 
Q 1584 2216 1326 1975 
Q 1069 1734 1069 1313 
Q 1069 891 1326 650 
Q 1584 409 2034 409 
Q 2484 409 2743 651 
Q 3003 894 3003 1313 
Q 3003 1734 2745 1975 
Q 2488 2216 2034 2216 
z
M 1403 2484 
Q 997 2584 770 2862 
Q 544 3141 544 3541 
Q 544 4100 942 4425 
Q 1341 4750 2034 4750 
Q 2731 4750 3128 4425 
Q 3525 4100 3525 3541 
Q 3525 3141 3298 2862 
Q 3072 2584 2669 2484 
Q 3125 2378 3379 2068 
Q 3634 1759 3634 1313 
Q 3634 634 3220 271 
Q 2806 -91 2034 -91 
Q 1263 -91 848 271 
Q 434 634 434 1313 
Q 434 1759 690 2068 
Q 947 2378 1403 2484 
z
M 1172 3481 
Q 1172 3119 1398 2916 
Q 1625 2713 2034 2713 
Q 2441 2713 2670 2916 
Q 2900 3119 2900 3481 
Q 2900 3844 2670 4047 
Q 2441 4250 2034 4250 
Q 1625 4250 1398 4047 
Q 1172 3844 1172 3481 
z
" transform="scale(0.015625)"/>
       </defs>
       <use xlink:href="#DejaVuSans-38"/>
       <use xlink:href="#DejaVuSans-30" x="63.623047"/>
      </g>
     </g>
    </g>
    <g id="xtick_6">
     <g id="text_6">
      <!-- 100 -->
      <g transform="translate(942.071307 366.30265)scale(0.08 -0.08)">
       <defs>
        <path id="DejaVuSans-31" d="M 794 531 
L 1825 531 
L 1825 4091 
L 703 3866 
L 703 4441 
L 1819 4666 
L 2450 4666 
L 2450 531 
L 3481 531 
L 3481 0 
L 794 0 
L 794 531 
z
" transform="scale(0.015625)"/>
       </defs>
       <use xlink:href="#DejaVuSans-31"/>
       <use xlink:href="#DejaVuSans-30" x="63.623047"/>
       <use xlink:href="#DejaVuSans-30" x="127.246094"/>
      </g>
     </g>
    </g>
    <g id="text_7">
     <!-- Position (bp) -->
     <g transform="translate(484.285 379.564837)scale(0.1 -0.1)">
      <defs>
       <path id="DejaVuSans-50" d="M 1259 4147 
L 1259 2394 
L 2053 2394 
Q 2494 2394 2734 2622 
Q 2975 2850 2975 3272 
Q 2975 3691 2734 3919 
Q 2494 4147 2053 4147 
L 1259 4147 
z
M 628 4666 
L 2053 4666 
Q 2838 4666 3239 4311 
Q 3641 3956 3641 3272 
Q 3641 2581 3239 2228 
Q 2838 1875 2053 1875 
L 1259 1875 
L 1259 0 
L 628 0 
L 628 4666 
z
" transform="scale(0.015625)"/>
       <path id="DejaVuSans-6f" d="M 1959 3097 
Q 1497 3097 1228 2736 
Q 959 2375 959 1747 
Q 959 1119 1226 758 
Q 1494 397 1959 397 
Q 2419 397 2687 759 
Q 2956 1122 2956 1747 
Q 2956 2369 2687 2733 
Q 2419 3097 1959 3097 
z
M 1959 3584 
Q 2709 3584 3137 3096 
Q 3566 2609 3566 1747 
Q 3566 888 3137 398 
Q 2709 -91 1959 -91 
Q 1206 -91 779 398 
Q 353 888 353 1747 
Q 353 2609 779 3096 
Q 1206 3584 1959 3584 
z
" transform="scale(0.015625)"/>
       <path id="DejaVuSans-73" d="M 2834 3397 
L 2834 2853 
Q 2591 2978 2328 3040 
Q 2066 3103 1784 3103 
Q 1356 3103 1142 2972 
Q 928 2841 928 2578 
Q 928 2378 1081 2264 
Q 1234 2150 1697 2047 
L 1894 2003 
Q 2506 1872 2764 1633 
Q 3022 1394 3022 966 
Q 3022 478 2636 193 
Q 2250 -91 1575 -91 
Q 1294 -91 989 -36 
Q 684 19 347 128 
L 347 722 
Q 666 556 975 473 
Q 1284 391 1588 391 
Q 1994 391 2212 530 
Q 2431 669 2431 922 
Q 2431 1156 2273 1281 
Q 2116 1406 1581 1522 
L 1381 1569 
Q 847 1681 609 1914 
Q 372 2147 372 2553 
Q 372 3047 722 3315 
Q 1072 3584 1716 3584 
Q 2034 3584 2315 3537 
Q 2597 3491 2834 3397 
z
" transform="scale(0.015625)"/>
       <path id="DejaVuSans-69" d="M 603 3500 
L 1178 3500 
L 1178 0 
L 603 0 
L 603 3500 
z
M 603 4863 
L 1178 4863 
L 1178 4134 
L 603 4134 
L 603 4863 
z
" transform="scale(0.015625)"/>
       <path id="DejaVuSans-74" d="M 1172 4494 
L 1172 3500 
L 2356 3500 
L 2356 3053 
L 1172 3053 
L 1172 1153 
Q 1172 725 1289 603 
Q 1406 481 1766 481 
L 2356 481 
L 2356 0 
L 1766 0 
Q 1100 0 847 248 
Q 594 497 594 1153 
L 594 3053 
L 172 3053 
L 172 3500 
L 594 3500 
L 594 4494 
L 1172 4494 
z
" transform="scale(0.015625)"/>
       <path id="DejaVuSans-6e" d="M 3513 2113 
L 3513 0 
L 2938 0 
L 2938 2094 
Q 2938 2591 2744 2837 
Q 2550 3084 2163 3084 
Q 1697 3084 1428 2787 
Q 1159 2491 1159 1978 
L 1159 0 
L 581 0 
L 581 3500 
L 1159 3500 
L 1159 2956 
Q 1366 3272 1645 3428 
Q 1925 3584 2291 3584 
Q 2894 3584 3203 3211 
Q 3513 2838 3513 2113 
z
" transform="scale(0.015625)"/>
       <path id="DejaVuSans-20" transform="scale(0.015625)"/>
       <path id="DejaVuSans-28" d="M 1984 4856 
Q 1566 4138 1362 3434 
Q 1159 2731 1159 2009 
Q 1159 1288 1364 580 
Q 1569 -128 1984 -844 
L 1484 -844 
Q 1016 -109 783 600 
Q 550 1309 550 2009 
Q 550 2706 781 3412 
Q 1013 4119 1484 4856 
L 1984 4856 
z
" transform="scale(0.015625)"/>
       <path id="DejaVuSans-62" d="M 3116 1747 
Q 3116 2381 2855 2742 
Q 2594 3103 2138 3103 
Q 1681 3103 1420 2742 
Q 1159 2381 1159 1747 
Q 1159 1113 1420 752 
Q 1681 391 2138 391 
Q 2594 391 2855 752 
Q 3116 1113 3116 1747 
z
M 1159 2969 
Q 1341 3281 1617 3432 
Q 1894 3584 2278 3584 
Q 2916 3584 3314 3078 
Q 3713 2572 3713 1747 
Q 3713 922 3314 415 
Q 2916 -91 2278 -91 
Q 1894 -91 1617 61 
Q 1341 213 1159 525 
L 1159 0 
L 581 0 
L 581 4863 
L 1159 4863 
L 1159 2969 
z
" transform="scale(0.015625)"/>
       <path id="DejaVuSans-70" d="M 1159 525 
L 1159 -1331 
L 581 -1331 
L 581 3500 
L 1159 3500 
L 1159 2969 
Q 1341 3281 1617 3432 
Q 1894 3584 2278 3584 
Q 2916 3584 3314 3078 
Q 3713 2572 3713 1747 
Q 3713 922 3314 415 
Q 2916 -91 2278 -91 
Q 1894 -91 1617 61 
Q 1341 213 1159 525 
z
M 3116 1747 
Q 3116 2381 2855 2742 
Q 2594 3103 2138 3103 
Q 1681 3103 1420 2742 
Q 1159 2381 1159 1747 
Q 1159 1113 1420 752 
Q 1681 391 2138 391 
Q 2594 391 2855 752 
Q 3116 1113 3116 1747 
z
" transform="scale(0.015625)"/>
       <path id="DejaVuSans-29" d="M 513 4856 
L 1013 4856 
Q 1481 4119 1714 3412 
Q 1947 2706 1947 2009 
Q 1947 1309 1714 600 
Q 1481 -109 1013 -844 
L 513 -844 
Q 928 -128 1133 580 
Q 1338 1288 1338 2009 
Q 1338 2731 1133 3434 
Q 928 4138 513 4856 
z
" transform="scale(0.015625)"/>
      </defs>
      <use xlink:href="#DejaVuSans-50"/>
      <use xlink:href="#DejaVuSans-6f" x="56.677734"/>
      <use xlink:href="#DejaVuSans-73" x="117.859375"/>
      <use xlink:href="#DejaVuSans-69" x="169.958984"/>
      <use xlink:href="#DejaVuSans-74" x="197.742188"/>
      <use xlink:href="#DejaVuSans-69" x="236.951172"/>
      <use xlink:href="#DejaVuSans-6f" x="264.734375"/>
      <use xlink:href="#DejaVuSans-6e" x="325.916016"/>
      <use xlink:href="#DejaVuSans-20" x="389.294922"/>
      <use xlink:href="#DejaVuSans-28" x="421.082031"/>
      <use xlink:href="#DejaVuSans-62" x="460.095703"/>
      <use xlink:href="#DejaVuSans-70" x="523.572266"/>
      <use xlink:href="#DejaVuSans-29" x="587.048828"/>
     </g>
    </g>
   </g>
   <g id="matplotlib.axis_2">
    <g id="ytick_1">
     <g id="line2d_1">
      <path d="M 38.058125 353.2239 
L 993.118125 353.2239 
" clip-path="url(#p65a25a295c)" style="fill: none; stroke: #dedede; stroke-linecap: square"/>
     </g>
     <g id="text_8">
      <!-- 0 -->
      <g transform="translate(25.968125 356.263275)scale(0.08 -0.08)">
       <use xlink:href="#DejaVuSans-30"/>
      </g>
     </g>
    </g>
    <g id="ytick_2">
     <g id="line2d_2">
      <path d="M 38.058125 310.553779 
L 993.118125 310.553779 
" clip-path="url(#p65a25a295c)" style="fill: none; stroke: #dedede; stroke-linecap: square"/>
     </g>
     <g id="text_9">
      <!-- 5 -->
      <g transform="translate(25.968125 313.593154)scale(0.08 -0.08)">
       <defs>
        <path id="DejaVuSans-35" d="M 691 4666 
L 3169 4666 
L 3169 4134 
L 1269 4134 
L 1269 2991 
Q 1406 3038 1543 3061 
Q 1681 3084 1819 3084 
Q 2600 3084 3056 2656 
Q 3513 2228 3513 1497 
Q 3513 744 3044 326 
Q 2575 -91 1722 -91 
Q 1428 -91 1123 -41 
Q 819 9 494 109 
L 494 744 
Q 775 591 1075 516 
Q 1375 441 1709 441 
Q 2250 441 2565 725 
Q 2881 1009 2881 1497 
Q 2881 1984 2565 2268 
Q 2250 2553 1709 2553 
Q 1456 2553 1204 2497 
Q 953 2441 691 2322 
L 691 4666 
z
" transform="scale(0.015625)"/>
       </defs>
       <use xlink:href="#DejaVuSans-35"/>
      </g>
     </g>
    </g>
    <g id="ytick_3">
     <g id="line2d_3">
      <path d="M 38.058125 267.883658 
L 993.118125 267.883658 
" clip-path="url(#p65a25a295c)" style="fill: none; stroke: #dedede; stroke-linecap: square"/>
     </g>
     <g id="text_10">
      <!-- 10 -->
      <g transform="translate(20.878125 270.923033)scale(0.08 -0.08)">
       <use xlink:href="#DejaVuSans-31"/>
       <use xlink:href="#DejaVuSans-30" x="63.623047"/>
      </g>
     </g>
    </g>
    <g id="ytick_4">
     <g id="line2d_4">
      <path d="M 38.058125 225.213537 
L 993.118125 225.213537 
" clip-path="url(#p65a25a295c)" style="fill: none; stroke: #dedede; stroke-linecap: square"/>
     </g>
     <g id="text_11">
      <!-- 15 -->
      <g transform="translate(20.878125 228.252912)scale(0.08 -0.08)">
       <use xlink:href="#DejaVuSans-31"/>
       <use xlink:href="#DejaVuSans-35" x="63.623047"/>
      </g>
     </g>
    </g>
    <g id="ytick_5">
     <g id="line2d_5">
      <path d="M 38.058125 182.543416 
L 993.118125 182.543416 
" clip-path="url(#p65a25a295c)" style="fill: none; stroke: #dedede; stroke-linecap: square"/>
     </g>
     <g id="text_12">
      <!-- 20 -->
      <g transform="translate(20.878125 185.582791)scale(0.08 -0.08)">
       <use xlink:href="#DejaVuSans-32"/>
       <use xlink:href="#DejaVuSans-30" x="63.623047"/>
      </g>
     </g>
    </g>
    <g id="ytick_6">
     <g id="line2d_6">
      <path d="M 38.058125 139.873295 
L 993.118125 139.873295 
" clip-path="url(#p65a25a295c)" style="fill: none; stroke: #dedede; stroke-linecap: square"/>
     </g>
     <g id="text_13">
      <!-- 25 -->
      <g transform="translate(20.878125 142.91267)scale(0.08 -0.08)">
       <use xlink:href="#DejaVuSans-32"/>
       <use xlink:href="#DejaVuSans-35" x="63.623047"/>
      </g>
     </g>
    </g>
    <g id="ytick_7">
     <g id="line2d_7">
      <path d="M 38.058125 97.203173 
L 993.118125 97.203173 
" clip-path="url(#p65a25a295c)" style="fill: none; stroke: #dedede; stroke-linecap: square"/>
     </g>
     <g id="text_14">
      <!-- 30 -->
      <g transform="translate(20.878125 100.242548)scale(0.08 -0.08)">
       <defs>
        <path id="DejaVuSans-33" d="M 2597 2516 
Q 3050 2419 3304 2112 
Q 3559 1806 3559 1356 
Q 3559 666 3084 287 
Q 2609 -91 1734 -91 
Q 1441 -91 1130 -33 
Q 819 25 488 141 
L 488 750 
Q 750 597 1062 519 
Q 1375 441 1716 441 
Q 2309 441 2620 675 
Q 2931 909 2931 1356 
Q 2931 1769 2642 2001 
Q 2353 2234 1838 2234 
L 1294 2234 
L 1294 2753 
L 1863 2753 
Q 2328 2753 2575 2939 
Q 2822 3125 2822 3475 
Q 2822 3834 2567 4026 
Q 2313 4219 1838 4219 
Q 1578 4219 1281 4162 
Q 984 4106 628 3988 
L 628 4550 
Q 988 4650 1302 4700 
Q 1616 4750 1894 4750 
Q 2613 4750 3031 4423 
Q 3450 4097 3450 3541 
Q 3450 3153 3228 2886 
Q 3006 2619 2597 2516 
z
" transform="scale(0.015625)"/>
       </defs>
       <use xlink:href="#DejaVuSans-33"/>
       <use xlink:href="#DejaVuSans-30" x="63.623047"/>
      </g>
     </g>
    </g>
    <g id="ytick_8">
     <g id="line2d_8">
      <path d="M 38.058125 54.533052 
L 993.118125 54.533052 
" clip-path="url(#p65a25a295c)" style="fill: none; stroke: #dedede; stroke-linecap: square"/>
     </g>
     <g id="text_15">
      <!-- 35 -->
      <g transform="translate(20.878125 57.572427)scale(0.08 -0.08)">
       <use xlink:href="#DejaVuSans-33"/>
       <use xlink:href="#DejaVuSans-35" x="63.623047"/>
      </g>
     </g>
    </g>
    <g id="text_16">
     <!-- Phred Score -->
     <g transform="translate(14.798438 224.20865)rotate(-90)scale(0.1 -0.1)">
      <defs>
       <path id="DejaVuSans-68" d="M 3513 2113 
L 3513 0 
L 2938 0 
L 2938 2094 
Q 2938 2591 2744 2837 
Q 2550 3084 2163 3084 
Q 1697 3084 1428 2787 
Q 1159 2491 1159 1978 
L 1159 0 
L 581 0 
L 581 4863 
L 1159 4863 
L 1159 2956 
Q 1366 3272 1645 3428 
Q 1925 3584 2291 3584 
Q 2894 3584 3203 3211 
Q 3513 2838 3513 2113 
z
" transform="scale(0.015625)"/>
       <path id="DejaVuSans-72" d="M 2631 2963 
Q 2534 3019 2420 3045 
Q 2306 3072 2169 3072 
Q 1681 3072 1420 2755 
Q 1159 2438 1159 1844 
L 1159 0 
L 581 0 
L 581 3500 
L 1159 3500 
L 1159 2956 
Q 1341 3275 1631 3429 
Q 1922 3584 2338 3584 
Q 2397 3584 2469 3576 
Q 2541 3569 2628 3553 
L 2631 2963 
z
" transform="scale(0.015625)"/>
       <path id="DejaVuSans-65" d="M 3597 1894 
L 3597 1613 
L 953 1613 
Q 991 1019 1311 708 
Q 1631 397 2203 397 
Q 2534 397 2845 478 
Q 3156 559 3463 722 
L 3463 178 
Q 3153 47 2828 -22 
Q 2503 -91 2169 -91 
Q 1331 -91 842 396 
Q 353 884 353 1716 
Q 353 2575 817 3079 
Q 1281 3584 2069 3584 
Q 2775 3584 3186 3129 
Q 3597 2675 3597 1894 
z
M 3022 2063 
Q 3016 2534 2758 2815 
Q 2500 3097 2075 3097 
Q 1594 3097 1305 2825 
Q 1016 2553 972 2059 
L 3022 2063 
z
" transform="scale(0.015625)"/>
       <path id="DejaVuSans-64" d="M 2906 2969 
L 2906 4863 
L 3481 4863 
L 3481 0 
L 2906 0 
L 2906 525 
Q 2725 213 2448 61 
Q 2172 -91 1784 -91 
Q 1150 -91 751 415 
Q 353 922 353 1747 
Q 353 2572 751 3078 
Q 1150 3584 1784 3584 
Q 2172 3584 2448 3432 
Q 2725 3281 2906 2969 
z
M 947 1747 
Q 947 1113 1208 752 
Q 1469 391 1925 391 
Q 2381 391 2643 752 
Q 2906 1113 2906 1747 
Q 2906 2381 2643 2742 
Q 2381 3103 1925 3103 
Q 1469 3103 1208 2742 
Q 947 2381 947 1747 
z
" transform="scale(0.015625)"/>
       <path id="DejaVuSans-53" d="M 3425 4513 
L 3425 3897 
Q 3066 4069 2747 4153 
Q 2428 4238 2131 4238 
Q 1616 4238 1336 4038 
Q 1056 3838 1056 3469 
Q 1056 3159 1242 3001 
Q 1428 2844 1947 2747 
L 2328 2669 
Q 3034 2534 3370 2195 
Q 3706 1856 3706 1288 
Q 3706 609 3251 259 
Q 2797 -91 1919 -91 
Q 1588 -91 1214 -16 
Q 841 59 441 206 
L 441 856 
Q 825 641 1194 531 
Q 1563 422 1919 422 
Q 2459 422 2753 634 
Q 3047 847 3047 1241 
Q 3047 1584 2836 1778 
Q 2625 1972 2144 2069 
L 1759 2144 
Q 1053 2284 737 2584 
Q 422 2884 422 3419 
Q 422 4038 858 4394 
Q 1294 4750 2059 4750 
Q 2388 4750 2728 4690 
Q 3069 4631 3425 4513 
z
" transform="scale(0.015625)"/>
       <path id="DejaVuSans-63" d="M 3122 3366 
L 3122 2828 
Q 2878 2963 2633 3030 
Q 2388 3097 2138 3097 
Q 1578 3097 1268 2742 
Q 959 2388 959 1747 
Q 959 1106 1268 751 
Q 1578 397 2138 397 
Q 2388 397 2633 464 
Q 2878 531 3122 666 
L 3122 134 
Q 2881 22 2623 -34 
Q 2366 -91 2075 -91 
Q 1284 -91 818 406 
Q 353 903 353 1747 
Q 353 2603 823 3093 
Q 1294 3584 2113 3584 
Q 2378 3584 2631 3529 
Q 2884 3475 3122 3366 
z
" transform="scale(0.015625)"/>
      </defs>
      <use xlink:href="#DejaVuSans-50"/>
      <use xlink:href="#DejaVuSans-68" x="60.302734"/>
      <use xlink:href="#DejaVuSans-72" x="123.681641"/>
      <use xlink:href="#DejaVuSans-65" x="162.544922"/>
      <use xlink:href="#DejaVuSans-64" x="224.068359"/>
      <use xlink:href="#DejaVuSans-20" x="287.544922"/>
      <use xlink:href="#DejaVuSans-53" x="319.332031"/>
      <use xlink:href="#DejaVuSans-63" x="382.808594"/>
      <use xlink:href="#DejaVuSans-6f" x="437.789062"/>
      <use xlink:href="#DejaVuSans-72" x="498.970703"/>
      <use xlink:href="#DejaVuSans-65" x="537.833984"/>
     </g>
    </g>
   </g>
   <g id="line2d_9">
    <path d="M 81.469943 41.981723 
L 90.240007 42.901428 
L 99.010072 42.647873 
L 107.780136 42.334246 
L 116.5502 42.084029 
L 125.320265 41.885928 
L 134.090329 42.374701 
L 142.860393 41.734736 
L 151.630457 42.159706 
L 160.400522 41.960448 
L 177.94065 42.225314 
L 195.480779 42.174756 
L 213.020907 42.112277 
L 230.561036 42.590098 
L 248.101164 42.613976 
L 265.641293 43.652317 
L 283.181422 42.27013 
L 300.72155 42.982868 
L 318.261679 43.066831 
L 335.801807 42.685024 
L 353.341936 42.908608 
L 370.882064 43.265937 
L 388.422193 43.559667 
L 405.962322 43.244217 
L 423.50245 43.05113 
L 441.042579 43.250762 
L 458.582707 44.757512 
L 476.122836 44.207814 
L 493.662964 43.684596 
L 511.203093 44.564563 
L 528.743221 46.211702 
L 546.28335 48.320041 
L 563.823479 48.48645 
L 581.363607 49.191031 
L 598.903736 49.213375 
L 616.443864 51.271749 
L 633.983993 53.801096 
L 651.524121 64.611647 
L 669.06425 62.83074 
L 686.604378 61.547383 
L 704.144507 65.575857 
L 721.684636 65.964875 
L 739.224764 70.622377 
L 756.764893 73.398695 
L 774.305021 79.8184 
L 791.84515 81.148555 
L 809.385278 80.11821 
L 826.925407 80.944336 
L 844.465535 78.53637 
L 862.005664 87.933298 
L 879.545793 93.816355 
L 897.085921 77.057856 
L 914.62605 70.296874 
L 932.166178 68.598123 
L 949.706307 75.954695 
" clip-path="url(#p65a25a295c)" style="fill: none; stroke: #5cb85c; stroke-linecap: square"/>
   </g>
   <g id="line2d_10">
    <path d="M 81.469943 41.853512 
L 90.240007 42.727447 
L 99.010072 42.038624 
L 107.780136 41.557819 
L 116.5502 41.559703 
L 125.320265 41.526342 
L 134.090329 41.670257 
L 142.860393 41.55563 
L 151.630457 41.732919 
L 160.400522 41.641185 
L 177.94065 41.965365 
L 195.480779 41.971637 
L 213.020907 42.189817 
L 230.561036 42.423677 
L 248.101164 42.29872 
L 265.641293 42.451978 
L 283.181422 42.370953 
L 300.72155 43.244134 
L 318.261679 43.013533 
L 335.801807 42.815979 
L 353.341936 42.881486 
L 370.882064 43.094603 
L 388.422193 43.50042 
L 405.962322 43.356293 
L 423.50245 43.33238 
L 441.042579 43.129658 
L 458.582707 43.726361 
L 476.122836 43.418243 
L 493.662964 43.595098 
L 511.203093 44.60759 
L 528.743221 46.015394 
L 546.28335 48.310766 
L 563.823479 50.518375 
L 581.363607 52.381648 
L 598.903736 53.006596 
L 616.443864 54.797257 
L 633.983993 56.987876 
L 651.524121 61.70085 
L 669.06425 61.566082 
L 686.604378 61.175448 
L 704.144507 64.901253 
L 721.684636 66.321122 
L 739.224764 71.240896 
L 756.764893 75.532901 
L 774.305021 81.938676 
L 791.84515 86.294584 
L 809.385278 87.312484 
L 826.925407 87.885155 
L 844.465535 83.688957 
L 862.005664 88.277598 
L 879.545793 87.804014 
L 897.085921 79.089624 
L 914.62605 75.596948 
L 932.166178 72.371613 
L 949.706307 73.662187 
" clip-path="url(#p65a25a295c)" style="fill: none; stroke: #5cb85c; stroke-linecap: square"/>
   </g>
   <g id="line2d_11">
    <path d="M 81.469943 41.863654 
L 90.240007 42.791216 
L 99.010072 42.283635 
L 107.780136 41.792492 
L 116.5502 41.634302 
L 125.320265 41.755425 
L 134.090329 41.979076 
L 142.860393 42.002931 
L 151.630457 41.994885 
L 160.400522 42.079085 
L 177.94065 42.248924 
L 195.480779 42.462766 
L 213.020907 42.085426 
L 230.561036 42.443988 
L 248.101164 42.094622 
L 265.641293 42.381558 
L 283.181422 42.113525 
L 300.72155 43.313202 
L 318.261679 43.397372 
L 335.801807 42.870985 
L 353.341936 43.188095 
L 370.882064 43.213229 
L 388.422193 43.365772 
L 405.962322 43.373879 
L 423.50245 43.503447 
L 441.042579 43.17832 
L 458.582707 45.301975 
L 476.122836 44.402679 
L 493.662964 44.905615 
L 511.203093 46.101628 
L 528.743221 48.535149 
L 546.28335 52.421018 
L 563.823479 55.433909 
L 581.363607 58.014593 
L 598.903736 59.934641 
L 616.443864 62.654526 
L 633.983993 67.762659 
L 651.524121 82.454843 
L 669.06425 82.439389 
L 686.604378 92.432648 
L 704.144507 93.949305 
L 721.684636 90.550929 
L 739.224764 99.129885 
L 756.764893 106.072157 
L 774.305021 112.563293 
L 791.84515 111.952538 
L 809.385278 108.64607 
L 826.925407 105.882744 
L 844.465535 100.13626 
L 862.005664 101.006086 
L 879.545793 108.315505 
L 897.085921 88.432473 
L 914.62605 78.930536 
L 932.166178 72.637648 
L 949.706307 72.298651 
" clip-path="url(#p65a25a295c)" style="fill: none; stroke: #5cb85c; stroke-linecap: square"/>
   </g>
   <g id="line2d_12">
    <path d="M 81.469943 41.530051 
L 90.240007 42.445277 
L 99.010072 42.044469 
L 107.780136 41.908094 
L 116.5502 42.565423 
L 125.320265 41.416496 
L 134.090329 41.72899 
L 142.860393 41.656118 
L 151.630457 41.998257 
L 160.400522 42.299757 
L 177.94065 43.072292 
L 195.480779 43.083074 
L 213.020907 43.29429 
L 230.561036 44.034831 
L 248.101164 44.390557 
L 265.641293 46.692179 
L 283.181422 44.337694 
L 300.72155 43.749276 
L 318.261679 43.636175 
L 335.801807 43.768645 
L 353.341936 45.065186 
L 370.882064 44.408001 
L 388.422193 44.862869 
L 405.962322 44.890634 
L 423.50245 45.047978 
L 441.042579 45.429156 
L 458.582707 46.493914 
L 476.122836 45.658987 
L 493.662964 46.663368 
L 511.203093 49.075959 
L 528.743221 49.523296 
L 546.28335 51.977973 
L 563.823479 55.308491 
L 581.363607 60.517832 
L 598.903736 65.989119 
L 616.443864 73.332307 
L 633.983993 81.298463 
L 651.524121 94.447305 
L 669.06425 100.6006 
L 686.604378 120.14883 
L 704.144507 125.404919 
L 721.684636 131.71717 
L 739.224764 141.945642 
L 756.764893 149.138999 
L 774.305021 156.86388 
L 791.84515 158.991842 
L 809.385278 156.241217 
L 826.925407 156.245416 
L 844.465535 149.880689 
L 862.005664 140.53547 
L 879.545793 134.412157 
L 897.085921 121.715127 
L 914.62605 112.998944 
L 932.166178 101.783361 
L 949.706307 94.986178 
" clip-path="url(#p65a25a295c)" style="fill: none; stroke: #d9534f; stroke-linecap: square"/>
   </g>
   <g id="line2d_13">
    <path d="M 81.469943 42.140625 
L 90.240007 42.824785 
L 99.010072 42.264893 
L 107.780136 41.737098 
L 116.5502 42.830396 
L 125.320265 41.693352 
L 134.090329 42.067459 
L 142.860393 41.80892 
L 151.630457 41.922098 
L 160.400522 41.916057 
L 177.94065 42.235857 
L 195.480779 42.470679 
L 213.020907 42.287153 
L 230.561036 42.439506 
L 248.101164 43.136087 
L 265.641293 42.231324 
L 283.181422 42.28209 
L 300.72155 43.347893 
L 318.261679 43.353942 
L 335.801807 42.936384 
L 353.341936 43.300337 
L 370.882064 43.336647 
L 388.422193 43.70439 
L 405.962322 43.528733 
L 423.50245 43.658883 
L 441.042579 43.326701 
L 458.582707 45.368003 
L 476.122836 44.558962 
L 493.662964 45.12296 
L 511.203093 46.505751 
L 528.743221 48.432175 
L 546.28335 52.314251 
L 563.823479 55.139859 
L 581.363607 59.130342 
L 598.903736 62.307966 
L 616.443864 65.980119 
L 633.983993 71.046239 
L 651.524121 83.449459 
L 669.06425 86.000631 
L 686.604378 98.762238 
L 704.144507 103.766926 
L 721.684636 103.059554 
L 739.224764 113.445628 
L 756.764893 120.294408 
L 774.305021 128.088168 
L 791.84515 130.799886 
L 809.385278 127.877099 
L 826.925407 126.010096 
L 844.465535 120.578648 
L 862.005664 116.131253 
L 879.545793 120.592722 
L 897.085921 104.730861 
L 914.62605 94.607816 
L 932.166178 85.427039 
L 949.706307 83.830199 
" clip-path="url(#p65a25a295c)" style="fill: none; stroke: #5cb85c; stroke-linecap: square"/>
   </g>
   <g id="line2d_14">
    <path d="M 81.469943 41.60679 
L 90.240007 42.309916 
L 99.010072 41.939175 
L 107.780136 41.455271 
L 116.5502 42.65357 
L 125.320265 41.451959 
L 134.090329 41.827051 
L 142.860393 41.462325 
L 151.630457 41.842783 
L 160.400522 41.329504 
L 177.94065 41.60616 
L 195.480779 42.093192 
L 213.020907 42.063253 
L 230.561036 42.163168 
L 248.101164 42.17315 
L 265.641293 41.989257 
L 283.181422 41.798875 
L 300.72155 43.236891 
L 318.261679 43.069067 
L 335.801807 42.26148 
L 353.341936 42.412761 
L 370.882064 42.634373 
L 388.422193 42.873086 
L 405.962322 42.948802 
L 423.50245 42.801237 
L 441.042579 43.913465 
L 458.582707 46.246597 
L 476.122836 45.446111 
L 493.662964 44.526819 
L 511.203093 45.16659 
L 528.743221 47.373686 
L 546.28335 52.444354 
L 563.823479 53.645805 
L 581.363607 51.156556 
L 598.903736 49.902976 
L 616.443864 50.063472 
L 633.983993 51.656912 
L 651.524121 64.579947 
L 669.06425 60.639743 
L 686.604378 55.217204 
L 704.144507 57.002306 
L 721.684636 57.041686 
L 739.224764 64.875368 
L 756.764893 72.480724 
L 774.305021 77.1555 
L 791.84515 73.960289 
L 809.385278 70.900727 
L 826.925407 69.794488 
L 844.465535 64.869876 
L 862.005664 78.438376 
L 879.545793 84.23447 
L 897.085921 65.804588 
L 914.62605 61.322496 
L 932.166178 58.429855 
L 949.706307 63.290152 
" clip-path="url(#p65a25a295c)" style="fill: none; stroke: #5cb85c; stroke-linecap: square"/>
   </g>
   <g id="line2d_15">
    <path d="M 81.469943 41.894236 
L 90.240007 42.935442 
L 99.010072 42.524615 
L 107.780136 42.180743 
L 116.5502 43.188332 
L 125.320265 42.105342 
L 134.090329 42.295927 
L 142.860393 41.906314 
L 151.630457 42.062645 
L 160.400522 41.905182 
L 177.94065 42.569777 
L 195.480779 43.096196 
L 213.020907 43.037924 
L 230.561036 43.321607 
L 248.101164 43.049224 
L 265.641293 43.216498 
L 283.181422 42.849478 
L 300.72155 44.331453 
L 318.261679 44.297436 
L 335.801807 43.249432 
L 353.341936 43.463528 
L 370.882064 43.615896 
L 388.422193 43.790726 
L 405.962322 43.424682 
L 423.50245 43.205728 
L 441.042579 43.294402 
L 458.582707 45.042503 
L 476.122836 44.693618 
L 493.662964 44.680565 
L 511.203093 45.623591 
L 528.743221 48.102177 
L 546.28335 52.189306 
L 563.823479 56.377074 
L 581.363607 61.510626 
L 598.903736 65.488068 
L 616.443864 70.107467 
L 633.983993 76.544529 
L 651.524121 88.862187 
L 669.06425 93.370096 
L 686.604378 107.215103 
L 704.144507 111.967856 
L 721.684636 111.987303 
L 739.224764 119.547591 
L 756.764893 127.821003 
L 774.305021 133.818602 
L 791.84515 135.735275 
L 809.385278 132.862197 
L 826.925407 128.705806 
L 844.465535 120.170272 
L 862.005664 114.668022 
L 879.545793 117.613252 
L 897.085921 101.227938 
L 914.62605 90.742842 
L 932.166178 84.288614 
L 949.706307 83.537026 
" clip-path="url(#p65a25a295c)" style="fill: none; stroke: #5cb85c; stroke-linecap: square"/>
   </g>
   <g id="line2d_16">
    <path d="M 81.469943 42.044531 
L 90.240007 42.875705 
L 99.010072 42.624457 
L 107.780136 41.920623 
L 116.5502 42.031198 
L 125.320265 41.849299 
L 134.090329 42.237228 
L 142.860393 41.856972 
L 151.630457 42.100041 
L 160.400522 41.782077 
L 177.94065 41.925189 
L 195.480779 41.877342 
L 213.020907 42.009294 
L 230.561036 42.340351 
L 248.101164 42.208552 
L 265.641293 41.894079 
L 283.181422 41.867838 
L 300.72155 43.577176 
L 318.261679 43.006236 
L 335.801807 42.857515 
L 353.341936 42.985374 
L 370.882064 43.023655 
L 388.422193 43.035037 
L 405.962322 43.195996 
L 423.50245 43.884806 
L 441.042579 43.205379 
L 458.582707 45.003829 
L 476.122836 44.20467 
L 493.662964 44.817319 
L 511.203093 46.898355 
L 528.743221 50.322505 
L 546.28335 53.257119 
L 563.823479 55.00358 
L 581.363607 56.484279 
L 598.903736 56.850602 
L 616.443864 60.016554 
L 633.983993 64.942369 
L 651.524121 76.859939 
L 669.06425 75.765967 
L 686.604378 79.47447 
L 704.144507 84.047138 
L 721.684636 86.350565 
L 739.224764 90.853083 
L 756.764893 97.815452 
L 774.305021 104.87798 
L 791.84515 101.822379 
L 809.385278 101.413583 
L 826.925407 102.227947 
L 844.465535 100.937566 
L 862.005664 104.749859 
L 879.545793 109.09921 
L 897.085921 90.724042 
L 914.62605 84.303511 
L 932.166178 81.001596 
L 949.706307 88.328222 
" clip-path="url(#p65a25a295c)" style="fill: none; stroke: #5cb85c; stroke-linecap: square"/>
   </g>
   <g id="line2d_17">
    <path d="M 81.469943 41.897565 
L 90.240007 42.576284 
L 99.010072 41.956738 
L 107.780136 41.520254 
L 116.5502 43.174043 
L 125.320265 41.72149 
L 134.090329 41.799851 
L 142.860393 41.705528 
L 151.630457 42.233152 
L 160.400522 41.590416 
L 177.94065 41.746372 
L 195.480779 42.011342 
L 213.020907 41.941206 
L 230.561036 42.138924 
L 248.101164 42.534237 
L 265.641293 42.059044 
L 283.181422 41.957462 
L 300.72155 42.828172 
L 318.261679 42.783654 
L 335.801807 42.402724 
L 353.341936 42.697748 
L 370.882064 42.883401 
L 388.422193 43.052152 
L 405.962322 42.948249 
L 423.50245 42.863764 
L 441.042579 43.309663 
L 458.582707 44.863265 
L 476.122836 44.341924 
L 493.662964 43.807976 
L 511.203093 44.476862 
L 528.743221 46.56517 
L 546.28335 49.79936 
L 563.823479 51.138569 
L 581.363607 52.358337 
L 598.903736 53.299056 
L 616.443864 54.540577 
L 633.983993 57.315833 
L 651.524121 66.935549 
L 669.06425 66.389756 
L 686.604378 67.19445 
L 704.144507 70.33885 
L 721.684636 70.88765 
L 739.224764 76.491277 
L 756.764893 81.877622 
L 774.305021 88.265724 
L 791.84515 89.206155 
L 809.385278 87.936999 
L 826.925407 86.599102 
L 844.465535 83.18695 
L 862.005664 89.769194 
L 879.545793 93.082589 
L 897.085921 78.190835 
L 914.62605 73.581097 
L 932.166178 70.588231 
L 949.706307 74.454596 
" clip-path="url(#p65a25a295c)" style="fill: none; stroke: #5cb85c; stroke-linecap: square"/>
   </g>
   <g id="line2d_18">
    <path d="M 81.469943 41.958276 
L 90.240007 42.751524 
L 99.010072 42.167867 
L 107.780136 41.623131 
L 116.5502 41.84814 
L 125.320265 41.703332 
L 134.090329 41.942747 
L 142.860393 41.649235 
L 151.630457 41.709421 
L 160.400522 41.699921 
L 177.94065 42.085511 
L 195.480779 42.284158 
L 213.020907 42.351921 
L 230.561036 42.53373 
L 248.101164 42.463056 
L 265.641293 42.491037 
L 283.181422 42.392082 
L 300.72155 43.142049 
L 318.261679 43.259721 
L 335.801807 43.083655 
L 353.341936 43.395008 
L 370.882064 43.488462 
L 388.422193 43.798687 
L 405.962322 43.685721 
L 423.50245 43.729804 
L 441.042579 43.602613 
L 458.582707 44.67067 
L 476.122836 44.28671 
L 493.662964 44.229581 
L 511.203093 45.359885 
L 528.743221 47.633155 
L 546.28335 51.98476 
L 563.823479 55.162186 
L 581.363607 57.816352 
L 598.903736 59.919722 
L 616.443864 62.816521 
L 633.983993 66.883024 
L 651.524121 75.027314 
L 669.06425 78.338742 
L 686.604378 80.95749 
L 704.144507 84.082066 
L 721.684636 84.240266 
L 739.224764 90.350526 
L 756.764893 95.498702 
L 774.305021 102.388824 
L 791.84515 104.662524 
L 809.385278 102.969929 
L 826.925407 100.904496 
L 844.465535 95.348562 
L 862.005664 96.725636 
L 879.545793 98.118213 
L 897.085921 85.191492 
L 914.62605 79.442928 
L 932.166178 74.927492 
L 949.706307 75.550675 
" clip-path="url(#p65a25a295c)" style="fill: none; stroke: #5cb85c; stroke-linecap: square"/>
   </g>
   <g id="line2d_19">
    <path d="M 81.469943 42.352132 
L 90.240007 43.10209 
L 99.010072 42.33894 
L 107.780136 41.81433 
L 116.5502 42.410365 
L 125.320265 41.895831 
L 134.090329 42.143845 
L 142.860393 41.996098 
L 151.630457 42.057834 
L 160.400522 41.987416 
L 177.94065 42.466069 
L 195.480779 42.451593 
L 213.020907 42.599222 
L 230.561036 42.829085 
L 248.101164 42.690908 
L 265.641293 43.107621 
L 283.181422 42.878312 
L 300.72155 43.619714 
L 318.261679 43.688785 
L 335.801807 43.57401 
L 353.341936 43.886207 
L 370.882064 43.918492 
L 388.422193 44.340475 
L 405.962322 44.23739 
L 423.50245 44.271473 
L 441.042579 44.220239 
L 458.582707 45.471526 
L 476.122836 45.472856 
L 493.662964 46.027736 
L 511.203093 46.323521 
L 528.743221 48.369415 
L 546.28335 52.310031 
L 563.823479 57.805604 
L 581.363607 63.513457 
L 598.903736 69.239467 
L 616.443864 76.601468 
L 633.983993 83.844351 
L 651.524121 94.597479 
L 669.06425 102.814718 
L 686.604378 112.295241 
L 704.144507 117.51472 
L 721.684636 121.131878 
L 739.224764 130.244682 
L 756.764893 136.109695 
L 774.305021 141.335556 
L 791.84515 145.835622 
L 809.385278 143.956081 
L 826.925407 142.716238 
L 844.465535 135.596777 
L 862.005664 130.110215 
L 879.545793 124.456493 
L 897.085921 115.311674 
L 914.62605 110.369455 
L 932.166178 102.784673 
L 949.706307 97.539811 
" clip-path="url(#p65a25a295c)" style="fill: none; stroke: #5cb85c; stroke-linecap: square"/>
   </g>
   <g id="line2d_20">
    <path d="M 81.469943 41.803327 
L 90.240007 42.729065 
L 99.010072 42.028509 
L 107.780136 41.600664 
L 116.5502 42.759635 
L 125.320265 41.562495 
L 134.090329 41.791722 
L 142.860393 41.540907 
L 151.630457 41.555956 
L 160.400522 41.627065 
L 177.94065 42.078398 
L 195.480779 42.099485 
L 213.020907 42.05835 
L 230.561036 42.374237 
L 248.101164 42.168741 
L 265.641293 42.372559 
L 283.181422 42.303859 
L 300.72155 43.246748 
L 318.261679 43.138082 
L 335.801807 42.902891 
L 353.341936 42.974557 
L 370.882064 43.169204 
L 388.422193 43.337441 
L 405.962322 43.455391 
L 423.50245 43.337793 
L 441.042579 43.035925 
L 458.582707 43.913958 
L 476.122836 44.320814 
L 493.662964 45.156321 
L 511.203093 46.169888 
L 528.743221 47.953687 
L 546.28335 51.340712 
L 563.823479 55.09833 
L 581.363607 58.085271 
L 598.903736 61.491257 
L 616.443864 64.419205 
L 633.983993 67.704776 
L 651.524121 77.577757 
L 669.06425 80.004923 
L 686.604378 84.703429 
L 704.144507 88.571098 
L 721.684636 87.603065 
L 739.224764 93.843962 
L 756.764893 99.026224 
L 774.305021 105.462103 
L 791.84515 107.897538 
L 809.385278 105.722076 
L 826.925407 103.881776 
L 844.465535 97.189476 
L 862.005664 97.245915 
L 879.545793 98.776511 
L 897.085921 85.994783 
L 914.62605 79.742308 
L 932.166178 74.991906 
L 949.706307 74.576633 
" clip-path="url(#p65a25a295c)" style="fill: none; stroke: #5cb85c; stroke-linecap: square"/>
   </g>
   <g id="line2d_21">
    <path d="M 81.469943 42.891673 
L 90.240007 43.504898 
L 99.010072 42.893447 
L 107.780136 42.397613 
L 116.5502 43.417664 
L 125.320265 42.367602 
L 134.090329 42.627893 
L 142.860393 43.594093 
L 151.630457 42.503213 
L 160.400522 42.361442 
L 177.94065 42.529895 
L 195.480779 42.652905 
L 213.020907 42.612677 
L 230.561036 42.90148 
L 248.101164 42.830525 
L 265.641293 42.930555 
L 283.181422 42.825814 
L 300.72155 43.872442 
L 318.261679 43.795121 
L 335.801807 43.530448 
L 353.341936 43.777504 
L 370.882064 44.1559 
L 388.422193 44.175864 
L 405.962322 44.104243 
L 423.50245 44.203085 
L 441.042579 44.298531 
L 458.582707 46.159513 
L 476.122836 45.582561 
L 493.662964 44.864018 
L 511.203093 45.698333 
L 528.743221 48.10717 
L 546.28335 51.746949 
L 563.823479 53.95781 
L 581.363607 57.025049 
L 598.903736 55.963932 
L 616.443864 58.218616 
L 633.983993 61.553717 
L 651.524121 70.703965 
L 669.06425 71.60594 
L 686.604378 72.003736 
L 704.144507 75.538388 
L 721.684636 77.546978 
L 739.224764 84.079412 
L 756.764893 92.07988 
L 774.305021 97.548534 
L 791.84515 97.01584 
L 809.385278 95.390624 
L 826.925407 92.65429 
L 844.465535 91.220283 
L 862.005664 96.690699 
L 879.545793 95.922938 
L 897.085921 83.502309 
L 914.62605 76.815773 
L 932.166178 74.239543 
L 949.706307 75.759402 
" clip-path="url(#p65a25a295c)" style="fill: none; stroke: #5cb85c; stroke-linecap: square"/>
   </g>
   <g id="line2d_22">
    <path d="M 81.469943 41.950841 
L 90.240007 42.77729 
L 99.010072 42.120748 
L 107.780136 41.655441 
L 116.5502 43.591876 
L 125.320265 41.824769 
L 134.090329 42.072865 
L 142.860393 41.876096 
L 151.630457 41.729975 
L 160.400522 41.87613 
L 177.94065 42.171438 
L 195.480779 42.703875 
L 213.020907 42.054737 
L 230.561036 42.54301 
L 248.101164 42.192706 
L 265.641293 42.254211 
L 283.181422 42.278525 
L 300.72155 44.237026 
L 318.261679 44.142149 
L 335.801807 43.360763 
L 353.341936 43.656158 
L 370.882064 43.423236 
L 388.422193 43.438196 
L 405.962322 43.939452 
L 423.50245 45.010302 
L 441.042579 43.83011 
L 458.582707 45.517964 
L 476.122836 45.160735 
L 493.662964 45.175213 
L 511.203093 46.1616 
L 528.743221 48.656326 
L 546.28335 52.029941 
L 563.823479 53.438708 
L 581.363607 55.169819 
L 598.903736 55.079797 
L 616.443864 56.306461 
L 633.983993 60.269377 
L 651.524121 74.428114 
L 669.06425 73.187544 
L 686.604378 71.684599 
L 704.144507 76.212877 
L 721.684636 74.746459 
L 739.224764 79.839901 
L 756.764893 86.875297 
L 774.305021 94.603599 
L 791.84515 91.712695 
L 809.385278 87.659922 
L 826.925407 86.74979 
L 844.465535 79.211501 
L 862.005664 86.109251 
L 879.545793 95.214762 
L 897.085921 74.500714 
L 914.62605 66.329041 
L 932.166178 63.434591 
L 949.706307 64.921348 
" clip-path="url(#p65a25a295c)" style="fill: none; stroke: #5cb85c; stroke-linecap: square"/>
   </g>
   <g id="line2d_23">
    <path d="M 81.469943 41.706697 
L 90.240007 42.654813 
L 99.010072 42.062269 
L 107.780136 41.58017 
L 116.5502 42.075598 
L 125.320265 41.593516 
L 134.090329 41.869281 
L 142.860393 41.569115 
L 151.630457 41.760029 
L 160.400522 41.5836 
L 177.94065 42.007215 
L 195.480779 42.339896 
L 213.020907 42.227832 
L 230.561036 42.527804 
L 248.101164 42.186661 
L 265.641293 42.306811 
L 283.181422 42.117486 
L 300.72155 43.966598 
L 318.261679 42.977925 
L 335.801807 42.510452 
L 353.341936 42.874089 
L 370.882064 42.977772 
L 388.422193 43.344994 
L 405.962322 43.031871 
L 423.50245 42.851386 
L 441.042579 43.010414 
L 458.582707 44.887167 
L 476.122836 43.989285 
L 493.662964 43.553346 
L 511.203093 44.719932 
L 528.743221 47.41166 
L 546.28335 51.777473 
L 563.823479 51.783594 
L 581.363607 52.526312 
L 598.903736 50.461795 
L 616.443864 52.419794 
L 633.983993 54.752916 
L 651.524121 68.078614 
L 669.06425 64.298506 
L 686.604378 58.801151 
L 704.144507 61.718229 
L 721.684636 62.058769 
L 739.224764 68.352085 
L 756.764893 77.390357 
L 774.305021 84.47189 
L 791.84515 80.078205 
L 809.385278 76.78892 
L 826.925407 76.047764 
L 844.465535 69.306454 
L 862.005664 80.762572 
L 879.545793 86.151471 
L 897.085921 65.619411 
L 914.62605 59.586846 
L 932.166178 57.14165 
L 949.706307 59.59177 
" clip-path="url(#p65a25a295c)" style="fill: none; stroke: #5cb85c; stroke-linecap: square"/>
   </g>
   <g id="line2d_24">
    <path d="M 81.469943 42.556555 
L 90.240007 43.296612 
L 99.010072 42.631909 
L 107.780136 42.129767 
L 116.5502 43.53803 
L 125.320265 42.233956 
L 134.090329 42.534937 
L 142.860393 42.296214 
L 151.630457 42.203676 
L 160.400522 42.26938 
L 177.94065 42.743223 
L 195.480779 43.060234 
L 213.020907 42.633682 
L 230.561036 42.917918 
L 248.101164 42.79625 
L 265.641293 43.002777 
L 283.181422 42.917688 
L 300.72155 44.199387 
L 318.261679 44.271363 
L 335.801807 43.629992 
L 353.341936 44.084852 
L 370.882064 44.473256 
L 388.422193 44.879794 
L 405.962322 44.242271 
L 423.50245 44.431381 
L 441.042579 45.645733 
L 458.582707 51.180123 
L 476.122836 50.270385 
L 493.662964 49.373793 
L 511.203093 49.9772 
L 528.743221 52.25604 
L 546.28335 57.510634 
L 563.823479 65.96333 
L 581.363607 74.481096 
L 598.903736 68.179005 
L 616.443864 71.454301 
L 633.983993 78.302078 
L 651.524121 93.754023 
L 669.06425 97.36686 
L 686.604378 105.487878 
L 704.144507 110.1902 
L 721.684636 109.005714 
L 739.224764 117.553746 
L 756.764893 126.580615 
L 774.305021 131.075829 
L 791.84515 130.079051 
L 809.385278 126.381221 
L 826.925407 121.079066 
L 844.465535 115.111992 
L 862.005664 114.157455 
L 879.545793 117.620178 
L 897.085921 101.153475 
L 914.62605 89.635357 
L 932.166178 82.954506 
L 949.706307 79.054221 
" clip-path="url(#p65a25a295c)" style="fill: none; stroke: #5cb85c; stroke-linecap: square"/>
   </g>
   <g id="line2d_25">
    <path d="M 81.469943 41.768082 
L 90.240007 42.596605 
L 99.010072 42.063332 
L 107.780136 41.404328 
L 116.5502 41.591935 
L 125.320265 41.488979 
L 134.090329 41.788914 
L 142.860393 41.518608 
L 151.630457 41.927008 
L 160.400522 41.626196 
L 177.94065 42.194846 
L 195.480779 42.365038 
L 213.020907 42.233384 
L 230.561036 42.584345 
L 248.101164 42.263425 
L 265.641293 42.293508 
L 283.181422 42.113993 
L 300.72155 43.269244 
L 318.261679 43.034171 
L 335.801807 42.463821 
L 353.341936 42.751815 
L 370.882064 42.815381 
L 388.422193 42.994444 
L 405.962322 42.984783 
L 423.50245 43.019314 
L 441.042579 43.14072 
L 458.582707 44.407679 
L 476.122836 43.735044 
L 493.662964 43.870527 
L 511.203093 45.174637 
L 528.743221 47.990583 
L 546.28335 51.858559 
L 563.823479 53.50887 
L 581.363607 55.106161 
L 598.903736 55.048822 
L 616.443864 57.724618 
L 633.983993 63.17351 
L 651.524121 74.649764 
L 669.06425 72.961736 
L 686.604378 73.611923 
L 704.144507 76.252209 
L 721.684636 74.639225 
L 739.224764 83.004157 
L 756.764893 88.218616 
L 774.305021 95.720558 
L 791.84515 95.557136 
L 809.385278 92.739996 
L 826.925407 90.613415 
L 844.465535 84.011811 
L 862.005664 90.86132 
L 879.545793 95.897636 
L 897.085921 77.522211 
L 914.62605 69.56541 
L 932.166178 65.233354 
L 949.706307 66.164801 
" clip-path="url(#p65a25a295c)" style="fill: none; stroke: #5cb85c; stroke-linecap: square"/>
   </g>
   <g id="line2d_26">
    <path d="M 81.469943 42.008999 
L 90.240007 42.87886 
L 99.010072 42.05808 
L 107.780136 41.635111 
L 116.5502 42.178303 
L 125.320265 41.449415 
L 134.090329 41.782807 
L 142.860393 41.498229 
L 151.630457 41.707852 
L 160.400522 41.641117 
L 177.94065 41.985953 
L 195.480779 42.174842 
L 213.020907 42.161593 
L 230.561036 42.52927 
L 248.101164 42.394625 
L 265.641293 42.859059 
L 283.181422 42.322423 
L 300.72155 42.968905 
L 318.261679 42.890524 
L 335.801807 42.698197 
L 353.341936 42.902922 
L 370.882064 43.021654 
L 388.422193 43.277817 
L 405.962322 43.285325 
L 423.50245 43.058734 
L 441.042579 43.295764 
L 458.582707 44.767793 
L 476.122836 45.415133 
L 493.662964 45.392301 
L 511.203093 46.617424 
L 528.743221 48.66958 
L 546.28335 51.553347 
L 563.823479 52.357301 
L 581.363607 53.495334 
L 598.903736 55.345082 
L 616.443864 53.024031 
L 633.983993 54.565682 
L 651.524121 61.407936 
L 669.06425 60.266838 
L 686.604378 57.704373 
L 704.144507 60.768122 
L 721.684636 61.897591 
L 739.224764 66.285342 
L 756.764893 72.81593 
L 774.305021 80.660048 
L 791.84515 81.516006 
L 809.385278 80.239997 
L 826.925407 80.025163 
L 844.465535 74.621384 
L 862.005664 80.716124 
L 879.545793 81.520954 
L 897.085921 69.901291 
L 914.62605 65.921254 
L 932.166178 64.576855 
L 949.706307 66.0844 
" clip-path="url(#p65a25a295c)" style="fill: none; stroke: #5cb85c; stroke-linecap: square"/>
   </g>
   <g id="line2d_27">
    <path d="M 81.469943 41.993442 
L 90.240007 42.830941 
L 99.010072 42.224552 
L 107.780136 41.860325 
L 116.5502 41.624379 
L 125.320265 41.634046 
L 134.090329 42.29098 
L 142.860393 42.824912 
L 151.630457 42.103529 
L 160.400522 41.747724 
L 177.94065 41.978504 
L 195.480779 42.005362 
L 213.020907 41.941183 
L 230.561036 42.391664 
L 248.101164 42.316496 
L 265.641293 42.70488 
L 283.181422 42.201753 
L 300.72155 43.263788 
L 318.261679 43.012455 
L 335.801807 42.760776 
L 353.341936 42.710075 
L 370.882064 42.921104 
L 388.422193 43.244226 
L 405.962322 43.206707 
L 423.50245 43.038721 
L 441.042579 42.975511 
L 458.582707 44.114388 
L 476.122836 43.763457 
L 493.662964 43.574353 
L 511.203093 43.967067 
L 528.743221 45.204968 
L 546.28335 47.643679 
L 563.823479 48.873818 
L 581.363607 51.782353 
L 598.903736 50.08961 
L 616.443864 51.524459 
L 633.983993 53.896995 
L 651.524121 61.676376 
L 669.06425 60.189364 
L 686.604378 58.724736 
L 704.144507 62.333333 
L 721.684636 62.331106 
L 739.224764 68.226327 
L 756.764893 72.692192 
L 774.305021 77.81168 
L 791.84515 80.455349 
L 809.385278 80.084918 
L 826.925407 80.15592 
L 844.465535 76.174994 
L 862.005664 83.771969 
L 879.545793 86.630076 
L 897.085921 74.247094 
L 914.62605 69.921721 
L 932.166178 67.04829 
L 949.706307 69.25314 
" clip-path="url(#p65a25a295c)" style="fill: none; stroke: #5cb85c; stroke-linecap: square"/>
   </g>
   <g id="line2d_28">
    <path d="M 81.469943 41.912875 
L 90.240007 42.913771 
L 99.010072 42.427907 
L 107.780136 42.096444 
L 116.5502 42.613848 
L 125.320265 41.840837 
L 134.090329 42.44259 
L 142.860393 41.73351 
L 151.630457 41.735394 
L 160.400522 41.866273 
L 177.94065 42.016404 
L 195.480779 41.95782 
L 213.020907 42.010534 
L 230.561036 42.422332 
L 248.101164 42.258571 
L 265.641293 42.267113 
L 283.181422 41.967334 
L 300.72155 42.626017 
L 318.261679 42.708616 
L 335.801807 42.522596 
L 353.341936 42.666294 
L 370.882064 42.869158 
L 388.422193 42.963826 
L 405.962322 43.032756 
L 423.50245 43.081147 
L 441.042579 43.043772 
L 458.582707 44.318049 
L 476.122836 44.122602 
L 493.662964 44.007499 
L 511.203093 44.425041 
L 528.743221 46.410887 
L 546.28335 49.999589 
L 563.823479 51.85784 
L 581.363607 54.723087 
L 598.903736 57.297331 
L 616.443864 59.281431 
L 633.983993 63.299648 
L 651.524121 73.126204 
L 669.06425 75.041197 
L 686.604378 84.670042 
L 704.144507 87.66596 
L 721.684636 87.01468 
L 739.224764 95.153324 
L 756.764893 101.618587 
L 774.305021 108.55851 
L 791.84515 111.6846 
L 809.385278 109.862834 
L 826.925407 109.119628 
L 844.465535 106.620668 
L 862.005664 105.534673 
L 879.545793 108.543147 
L 897.085921 95.3284 
L 914.62605 87.394429 
L 932.166178 80.853389 
L 949.706307 80.443239 
" clip-path="url(#p65a25a295c)" style="fill: none; stroke: #5cb85c; stroke-linecap: square"/>
   </g>
   <g id="line2d_29">
    <path d="M 81.469943 41.723543 
L 90.240007 42.675019 
L 99.010072 41.755902 
L 107.780136 41.486201 
L 116.5502 43.12555 
L 125.320265 41.697512 
L 134.090329 41.854724 
L 142.860393 41.673233 
L 151.630457 41.561715 
L 160.400522 41.907434 
L 177.94065 42.144312 
L 195.480779 42.417428 
L 213.020907 42.107727 
L 230.561036 42.464204 
L 248.101164 42.804 
L 265.641293 42.865752 
L 283.181422 41.973805 
L 300.72155 42.726992 
L 318.261679 43.143799 
L 335.801807 42.467612 
L 353.341936 42.810975 
L 370.882064 42.885892 
L 388.422193 43.118912 
L 405.962322 43.024216 
L 423.50245 43.071622 
L 441.042579 43.144501 
L 458.582707 45.519273 
L 476.122836 46.30035 
L 493.662964 46.16856 
L 511.203093 46.285179 
L 528.743221 47.988575 
L 546.28335 52.195498 
L 563.823479 55.312217 
L 581.363607 58.573812 
L 598.903736 59.333277 
L 616.443864 60.74844 
L 633.983993 64.294203 
L 651.524121 78.169118 
L 669.06425 84.445949 
L 686.604378 82.870336 
L 704.144507 85.784991 
L 721.684636 85.147554 
L 739.224764 94.28238 
L 756.764893 99.922114 
L 774.305021 104.138159 
L 791.84515 104.84527 
L 809.385278 103.395626 
L 826.925407 102.194799 
L 844.465535 98.430682 
L 862.005664 100.182733 
L 879.545793 105.43045 
L 897.085921 89.297938 
L 914.62605 82.444386 
L 932.166178 78.349116 
L 949.706307 78.791765 
" clip-path="url(#p65a25a295c)" style="fill: none; stroke: #5cb85c; stroke-linecap: square"/>
   </g>
   <g id="line2d_30">
    <path d="M 81.469943 42.022102 
L 90.240007 42.648716 
L 99.010072 41.950457 
L 107.780136 41.437739 
L 116.5502 41.356569 
L 125.320265 41.425732 
L 134.090329 41.809534 
L 142.860393 41.496703 
L 151.630457 41.513712 
L 160.400522 41.722448 
L 177.94065 42.004643 
L 195.480779 42.101115 
L 213.020907 41.978731 
L 230.561036 42.307995 
L 248.101164 42.03365 
L 265.641293 42.364235 
L 283.181422 42.343259 
L 300.72155 43.483016 
L 318.261679 43.288143 
L 335.801807 42.762914 
L 353.341936 42.855001 
L 370.882064 43.018475 
L 388.422193 43.371669 
L 405.962322 43.392816 
L 423.50245 43.409969 
L 441.042579 43.219101 
L 458.582707 43.87849 
L 476.122836 43.886651 
L 493.662964 43.993365 
L 511.203093 45.160687 
L 528.743221 46.944291 
L 546.28335 49.433756 
L 563.823479 51.286678 
L 581.363607 52.445048 
L 598.903736 52.966225 
L 616.443864 54.957528 
L 633.983993 58.23952 
L 651.524121 65.446494 
L 669.06425 63.990972 
L 686.604378 62.3255 
L 704.144507 65.657642 
L 721.684636 65.823997 
L 739.224764 70.410516 
L 756.764893 74.774281 
L 774.305021 81.034901 
L 791.84515 82.898992 
L 809.385278 82.404265 
L 826.925407 82.390338 
L 844.465535 77.35218 
L 862.005664 82.625474 
L 879.545793 84.927637 
L 897.085921 72.557479 
L 914.62605 67.635276 
L 932.166178 64.906116 
L 949.706307 65.975333 
" clip-path="url(#p65a25a295c)" style="fill: none; stroke: #5cb85c; stroke-linecap: square"/>
   </g>
   <g id="line2d_31">
    <path d="M 81.469943 42.19047 
L 90.240007 43.087632 
L 99.010072 42.578124 
L 107.780136 41.982439 
L 116.5502 43.150667 
L 125.320265 42.260372 
L 134.090329 42.489257 
L 142.860393 42.109941 
L 151.630457 42.141857 
L 160.400522 42.110525 
L 177.94065 42.400401 
L 195.480779 42.41263 
L 213.020907 42.340239 
L 230.561036 42.520986 
L 248.101164 42.434853 
L 265.641293 42.337557 
L 283.181422 42.259158 
L 300.72155 43.312569 
L 318.261679 43.572397 
L 335.801807 43.042569 
L 353.341936 43.293946 
L 370.882064 43.510711 
L 388.422193 44.037574 
L 405.962322 43.8418 
L 423.50245 44.085268 
L 441.042579 43.838004 
L 458.582707 45.343162 
L 476.122836 44.850103 
L 493.662964 44.929695 
L 511.203093 46.329266 
L 528.743221 47.993306 
L 546.28335 50.732533 
L 563.823479 53.133557 
L 581.363607 57.004823 
L 598.903736 60.915672 
L 616.443864 65.987123 
L 633.983993 72.313038 
L 651.524121 84.279111 
L 669.06425 87.841392 
L 686.604378 105.351528 
L 704.144507 114.13128 
L 721.684636 122.600739 
L 739.224764 132.142179 
L 756.764893 141.613345 
L 774.305021 153.143384 
L 791.84515 157.486809 
L 809.385278 155.008641 
L 826.925407 158.497726 
L 844.465535 156.434492 
L 862.005664 148.576602 
L 879.545793 136.73097 
L 897.085921 127.87892 
L 914.62605 124.972088 
L 932.166178 114.554571 
L 949.706307 105.729477 
" clip-path="url(#p65a25a295c)" style="fill: none; stroke: #d9534f; stroke-linecap: square"/>
   </g>
   <g id="line2d_32">
    <path d="M 81.469943 42.204301 
L 90.240007 43.360158 
L 99.010072 42.684583 
L 107.780136 42.080567 
L 116.5502 42.863002 
L 125.320265 41.903589 
L 134.090329 42.409033 
L 142.860393 42.640998 
L 151.630457 42.141468 
L 160.400522 42.347203 
L 177.94065 42.422274 
L 195.480779 42.535909 
L 213.020907 42.568793 
L 230.561036 42.709199 
L 248.101164 42.477606 
L 265.641293 42.632006 
L 283.181422 42.354676 
L 300.72155 43.902033 
L 318.261679 44.021789 
L 335.801807 43.209827 
L 353.341936 43.348916 
L 370.882064 43.550582 
L 388.422193 44.064819 
L 405.962322 44.071325 
L 423.50245 44.391545 
L 441.042579 43.858721 
L 458.582707 47.043026 
L 476.122836 45.308164 
L 493.662964 46.066515 
L 511.203093 46.181902 
L 528.743221 47.53344 
L 546.28335 50.068525 
L 563.823479 52.649747 
L 581.363607 53.679854 
L 598.903736 53.771252 
L 616.443864 55.853869 
L 633.983993 57.961278 
L 651.524121 70.965599 
L 669.06425 69.218164 
L 686.604378 73.552917 
L 704.144507 77.060922 
L 721.684636 72.961917 
L 739.224764 81.811438 
L 756.764893 87.907288 
L 774.305021 92.273659 
L 791.84515 96.606366 
L 809.385278 97.173457 
L 826.925407 96.252073 
L 844.465535 93.86837 
L 862.005664 102.089932 
L 879.545793 111.236057 
L 897.085921 93.059936 
L 914.62605 85.348436 
L 932.166178 77.566075 
L 949.706307 78.116876 
" clip-path="url(#p65a25a295c)" style="fill: none; stroke: #5cb85c; stroke-linecap: square"/>
   </g>
   <g id="line2d_33">
    <path d="M 81.469943 42.280543 
L 90.240007 43.110865 
L 99.010072 42.44347 
L 107.780136 41.836442 
L 116.5502 42.361585 
L 125.320265 41.801056 
L 134.090329 41.916913 
L 142.860393 41.87449 
L 151.630457 42.00584 
L 160.400522 42.102829 
L 177.94065 42.423465 
L 195.480779 42.37367 
L 213.020907 42.317589 
L 230.561036 42.731843 
L 248.101164 42.80034 
L 265.641293 42.883594 
L 283.181422 42.573618 
L 300.72155 42.996208 
L 318.261679 43.099136 
L 335.801807 43.111375 
L 353.341936 43.687271 
L 370.882064 43.775776 
L 388.422193 43.734808 
L 405.962322 43.802206 
L 423.50245 43.805483 
L 441.042579 43.922878 
L 458.582707 45.559311 
L 476.122836 45.59433 
L 493.662964 46.242639 
L 511.203093 47.387373 
L 528.743221 50.019731 
L 546.28335 54.610771 
L 563.823479 56.215229 
L 581.363607 56.943182 
L 598.903736 58.790006 
L 616.443864 60.428566 
L 633.983993 60.37174 
L 651.524121 70.772306 
L 669.06425 72.195692 
L 686.604378 69.120811 
L 704.144507 72.583412 
L 721.684636 73.634652 
L 739.224764 80.644218 
L 756.764893 91.332145 
L 774.305021 99.550851 
L 791.84515 97.968076 
L 809.385278 95.020766 
L 826.925407 92.524734 
L 844.465535 88.792337 
L 862.005664 95.195861 
L 879.545793 93.590355 
L 897.085921 78.090125 
L 914.62605 70.752065 
L 932.166178 67.343215 
L 949.706307 67.776372 
" clip-path="url(#p65a25a295c)" style="fill: none; stroke: #5cb85c; stroke-linecap: square"/>
   </g>
   <g id="line2d_34">
    <path d="M 81.469943 42.033468 
L 90.240007 43.051541 
L 99.010072 42.472574 
L 107.780136 42.17814 
L 116.5502 43.666146 
L 125.320265 42.069242 
L 134.090329 42.166323 
L 142.860393 41.839727 
L 151.630457 42.023395 
L 160.400522 41.860704 
L 177.94065 42.207865 
L 195.480779 42.255549 
L 213.020907 42.14772 
L 230.561036 42.699289 
L 248.101164 42.241175 
L 265.641293 42.379606 
L 283.181422 42.127405 
L 300.72155 42.787051 
L 318.261679 43.331131 
L 335.801807 42.843301 
L 353.341936 43.030031 
L 370.882064 43.050273 
L 388.422193 43.076439 
L 405.962322 43.077059 
L 423.50245 43.054978 
L 441.042579 43.166703 
L 458.582707 45.519662 
L 476.122836 44.910926 
L 493.662964 45.467076 
L 511.203093 46.104736 
L 528.743221 48.558396 
L 546.28335 53.02286 
L 563.823479 57.510333 
L 581.363607 64.556878 
L 598.903736 70.076334 
L 616.443864 76.795701 
L 633.983993 85.27633 
L 651.524121 101.507693 
L 669.06425 106.265631 
L 686.604378 130.918122 
L 704.144507 136.943443 
L 721.684636 143.269408 
L 739.224764 151.943237 
L 756.764893 157.752765 
L 774.305021 162.801593 
L 791.84515 160.847206 
L 809.385278 153.930027 
L 826.925407 152.50309 
L 844.465535 146.017541 
L 862.005664 134.425167 
L 879.545793 128.56564 
L 897.085921 113.10778 
L 914.62605 101.59931 
L 932.166178 90.945024 
L 949.706307 83.532307 
" clip-path="url(#p65a25a295c)" style="fill: none; stroke: #d9534f; stroke-linecap: square"/>
   </g>
   <g id="line2d_35">
    <path d="M 81.469943 42.084727 
L 90.240007 42.77883 
L 99.010072 42.028708 
L 107.780136 41.440806 
L 116.5502 41.65883 
L 125.320265 41.441509 
L 134.090329 41.708906 
L 142.860393 41.577968 
L 151.630457 42.334279 
L 160.400522 41.600455 
L 177.94065 42.067495 
L 195.480779 42.02043 
L 213.020907 42.338117 
L 230.561036 42.488098 
L 248.101164 42.348172 
L 265.641293 42.637038 
L 283.181422 42.459591 
L 300.72155 43.084518 
L 318.261679 42.967521 
L 335.801807 42.745661 
L 353.341936 42.97083 
L 370.882064 43.113739 
L 388.422193 43.338563 
L 405.962322 43.288011 
L 423.50245 43.271226 
L 441.042579 43.31344 
L 458.582707 44.063626 
L 476.122836 44.042442 
L 493.662964 44.317507 
L 511.203093 45.111539 
L 528.743221 46.955868 
L 546.28335 50.121798 
L 563.823479 53.830283 
L 581.363607 57.211887 
L 598.903736 60.189525 
L 616.443864 63.790475 
L 633.983993 68.419655 
L 651.524121 75.301253 
L 669.06425 77.832904 
L 686.604378 82.881764 
L 704.144507 87.530999 
L 721.684636 88.050626 
L 739.224764 94.041455 
L 756.764893 98.813149 
L 774.305021 106.633043 
L 791.84515 112.287853 
L 809.385278 112.631552 
L 826.925407 110.70462 
L 844.465535 103.378309 
L 862.005664 103.210907 
L 879.545793 102.59496 
L 897.085921 92.410557 
L 914.62605 87.283405 
L 932.166178 82.035346 
L 949.706307 79.417995 
" clip-path="url(#p65a25a295c)" style="fill: none; stroke: #5cb85c; stroke-linecap: square"/>
   </g>
   <g id="line2d_36">
    <path d="M 81.469943 41.831754 
L 90.240007 42.621429 
L 99.010072 41.978252 
L 107.780136 41.548845 
L 116.5502 43.680906 
L 125.320265 41.576945 
L 134.090329 41.748248 
L 142.860393 41.442055 
L 151.630457 41.36961 
L 160.400522 41.563258 
L 177.94065 41.780306 
L 195.480779 41.927888 
L 213.020907 41.819704 
L 230.561036 42.346167 
L 248.101164 42.126286 
L 265.641293 41.947786 
L 283.181422 41.776607 
L 300.72155 43.123055 
L 318.261679 43.271043 
L 335.801807 42.772481 
L 353.341936 42.943461 
L 370.882064 43.016645 
L 388.422193 42.972209 
L 405.962322 43.375275 
L 423.50245 44.632545 
L 441.042579 43.746303 
L 458.582707 44.345403 
L 476.122836 43.960175 
L 493.662964 45.18541 
L 511.203093 46.468716 
L 528.743221 47.81362 
L 546.28335 50.691821 
L 563.823479 53.366562 
L 581.363607 56.109268 
L 598.903736 58.429058 
L 616.443864 61.073296 
L 633.983993 65.890857 
L 651.524121 76.531104 
L 669.06425 77.599409 
L 686.604378 85.776093 
L 704.144507 88.996507 
L 721.684636 86.342693 
L 739.224764 93.129065 
L 756.764893 100.880156 
L 774.305021 108.18635 
L 791.84515 107.154503 
L 809.385278 104.840617 
L 826.925407 102.050082 
L 844.465535 96.1291 
L 862.005664 98.296153 
L 879.545793 104.005439 
L 897.085921 84.099285 
L 914.62605 75.455707 
L 932.166178 70.507695 
L 949.706307 73.147158 
" clip-path="url(#p65a25a295c)" style="fill: none; stroke: #5cb85c; stroke-linecap: square"/>
   </g>
   <g id="line2d_37">
    <path d="M 81.469943 41.909766 
L 90.240007 42.614581 
L 99.010072 42.232348 
L 107.780136 41.737022 
L 116.5502 41.679232 
L 125.320265 41.657927 
L 134.090329 41.763929 
L 142.860393 41.825189 
L 151.630457 41.983672 
L 160.400522 41.729526 
L 177.94065 41.94966 
L 195.480779 42.40097 
L 213.020907 42.638602 
L 230.561036 42.799145 
L 248.101164 42.506556 
L 265.641293 42.493498 
L 283.181422 42.155406 
L 300.72155 44.275306 
L 318.261679 43.590415 
L 335.801807 42.901657 
L 353.341936 43.244433 
L 370.882064 43.299763 
L 388.422193 43.487684 
L 405.962322 43.504661 
L 423.50245 43.732688 
L 441.042579 43.282604 
L 458.582707 45.088089 
L 476.122836 43.984531 
L 493.662964 44.098527 
L 511.203093 44.679065 
L 528.743221 47.475591 
L 546.28335 51.25499 
L 563.823479 52.863481 
L 581.363607 54.970556 
L 598.903736 54.375784 
L 616.443864 56.079417 
L 633.983993 59.047416 
L 651.524121 70.634501 
L 669.06425 70.518071 
L 686.604378 71.248792 
L 704.144507 74.393016 
L 721.684636 75.903278 
L 739.224764 81.90353 
L 756.764893 87.76422 
L 774.305021 94.236013 
L 791.84515 92.887044 
L 809.385278 89.81602 
L 826.925407 89.426215 
L 844.465535 86.979172 
L 862.005664 92.899355 
L 879.545793 97.175714 
L 897.085921 81.831594 
L 914.62605 77.1001 
L 932.166178 73.847403 
L 949.706307 79.628602 
" clip-path="url(#p65a25a295c)" style="fill: none; stroke: #5cb85c; stroke-linecap: square"/>
   </g>
   <g id="line2d_38">
    <path d="M 81.469943 42.452383 
L 90.240007 43.104492 
L 99.010072 43.382295 
L 107.780136 42.941561 
L 116.5502 42.242766 
L 125.320265 42.128315 
L 134.090329 42.354956 
L 142.860393 42.452448 
L 151.630457 42.834718 
L 160.400522 42.15773 
L 177.94065 42.25873 
L 195.480779 41.981253 
L 213.020907 42.317191 
L 230.561036 42.810297 
L 248.101164 42.981937 
L 265.641293 42.897274 
L 283.181422 42.33408 
L 300.72155 45.511205 
L 318.261679 42.855755 
L 335.801807 42.684735 
L 353.341936 43.126884 
L 370.882064 43.123228 
L 388.422193 42.926677 
L 405.962322 43.064941 
L 423.50245 43.099093 
L 441.042579 43.301911 
L 458.582707 45.0155 
L 476.122836 44.02195 
L 493.662964 44.505024 
L 511.203093 45.793563 
L 528.743221 47.534722 
L 546.28335 49.164418 
L 563.823479 50.606175 
L 581.363607 53.024667 
L 598.903736 51.396149 
L 616.443864 53.505614 
L 633.983993 55.949458 
L 651.524121 66.306504 
L 669.06425 65.03804 
L 686.604378 67.986444 
L 704.144507 73.919933 
L 721.684636 74.294589 
L 739.224764 76.411673 
L 756.764893 81.18544 
L 774.305021 87.968836 
L 791.84515 87.610472 
L 809.385278 88.473914 
L 826.925407 90.754831 
L 844.465535 90.484746 
L 862.005664 99.382351 
L 879.545793 103.811971 
L 897.085921 91.457742 
L 914.62605 86.006144 
L 932.166178 88.542429 
L 949.706307 94.769018 
" clip-path="url(#p65a25a295c)" style="fill: none; stroke: #5cb85c; stroke-linecap: square"/>
   </g>
   <g id="line2d_39">
    <path d="M 81.469943 41.93165 
L 90.240007 42.819965 
L 99.010072 42.331664 
L 107.780136 41.81352 
L 116.5502 43.476662 
L 125.320265 42.066519 
L 134.090329 42.119508 
L 142.860393 41.657231 
L 151.630457 41.803687 
L 160.400522 41.804233 
L 177.94065 42.170581 
L 195.480779 42.053895 
L 213.020907 42.025257 
L 230.561036 42.407081 
L 248.101164 42.384025 
L 265.641293 42.234304 
L 283.181422 42.145827 
L 300.72155 43.268178 
L 318.261679 42.966337 
L 335.801807 42.455535 
L 353.341936 42.687646 
L 370.882064 43.053801 
L 388.422193 43.086935 
L 405.962322 42.906224 
L 423.50245 42.930177 
L 441.042579 43.120289 
L 458.582707 45.127438 
L 476.122836 45.037486 
L 493.662964 44.115184 
L 511.203093 44.764695 
L 528.743221 46.676933 
L 546.28335 49.914268 
L 563.823479 52.10877 
L 581.363607 53.983722 
L 598.903736 55.52808 
L 616.443864 58.058235 
L 633.983993 62.848967 
L 651.524121 78.176517 
L 669.06425 78.816974 
L 686.604378 87.237305 
L 704.144507 88.676674 
L 721.684636 87.23643 
L 739.224764 95.233194 
L 756.764893 101.824551 
L 774.305021 108.744257 
L 791.84515 109.925486 
L 809.385278 109.406874 
L 826.925407 107.492482 
L 844.465535 102.172409 
L 862.005664 103.852797 
L 879.545793 110.584447 
L 897.085921 88.661332 
L 914.62605 79.76369 
L 932.166178 73.304054 
L 949.706307 78.01457 
" clip-path="url(#p65a25a295c)" style="fill: none; stroke: #5cb85c; stroke-linecap: square"/>
   </g>
   <g id="line2d_40">
    <path d="M 81.469943 41.944274 
L 90.240007 42.791461 
L 99.010072 42.336356 
L 107.780136 42.231867 
L 116.5502 41.777134 
L 125.320265 41.745875 
L 134.090329 42.080153 
L 142.860393 41.948787 
L 151.630457 41.843101 
L 160.400522 41.967698 
L 177.94065 42.246967 
L 195.480779 42.580832 
L 213.020907 42.60845 
L 230.561036 42.795853 
L 248.101164 42.576282 
L 265.641293 42.566557 
L 283.181422 42.263514 
L 300.72155 43.419232 
L 318.261679 43.248333 
L 335.801807 43.001349 
L 353.341936 43.313223 
L 370.882064 43.632143 
L 388.422193 43.744587 
L 405.962322 43.172427 
L 423.50245 42.970264 
L 441.042579 43.156922 
L 458.582707 45.406963 
L 476.122836 44.522016 
L 493.662964 45.431614 
L 511.203093 46.348173 
L 528.743221 49.547572 
L 546.28335 53.394496 
L 563.823479 57.554035 
L 581.363607 61.130602 
L 598.903736 64.313493 
L 616.443864 68.046163 
L 633.983993 72.818116 
L 651.524121 83.960688 
L 669.06425 86.46642 
L 686.604378 98.605126 
L 704.144507 103.356783 
L 721.684636 103.569033 
L 739.224764 112.518868 
L 756.764893 123.224598 
L 774.305021 133.276874 
L 791.84515 133.067537 
L 809.385278 129.968384 
L 826.925407 129.987808 
L 844.465535 125.671482 
L 862.005664 122.076362 
L 879.545793 125.028391 
L 897.085921 108.743228 
L 914.62605 98.848604 
L 932.166178 89.498579 
L 949.706307 94.278737 
" clip-path="url(#p65a25a295c)" style="fill: none; stroke: #5cb85c; stroke-linecap: square"/>
   </g>
   <g id="line2d_41">
    <path d="M 81.469943 41.92473 
L 90.240007 42.772396 
L 99.010072 42.361973 
L 107.780136 41.981819 
L 116.5502 42.636255 
L 125.320265 41.765333 
L 134.090329 42.009605 
L 142.860393 41.826606 
L 151.630457 42.018439 
L 160.400522 42.026223 
L 177.94065 42.333355 
L 195.480779 42.40589 
L 213.020907 42.612124 
L 230.561036 42.798708 
L 248.101164 42.476079 
L 265.641293 42.624259 
L 283.181422 42.126076 
L 300.72155 43.183311 
L 318.261679 42.752483 
L 335.801807 42.663866 
L 353.341936 43.06184 
L 370.882064 43.000927 
L 388.422193 43.337491 
L 405.962322 43.361449 
L 423.50245 43.204803 
L 441.042579 43.282307 
L 458.582707 44.968233 
L 476.122836 44.310596 
L 493.662964 44.122649 
L 511.203093 45.05762 
L 528.743221 47.49265 
L 546.28335 52.175119 
L 563.823479 51.419224 
L 581.363607 51.533328 
L 598.903736 49.702763 
L 616.443864 51.560272 
L 633.983993 52.038056 
L 651.524121 62.522247 
L 669.06425 60.957702 
L 686.604378 56.381763 
L 704.144507 59.098891 
L 721.684636 59.955008 
L 739.224764 67.205868 
L 756.764893 75.459679 
L 774.305021 80.015031 
L 791.84515 75.323778 
L 809.385278 70.687374 
L 826.925407 69.872249 
L 844.465535 65.330047 
L 862.005664 75.755173 
L 879.545793 81.284283 
L 897.085921 65.252749 
L 914.62605 60.983232 
L 932.166178 59.133609 
L 949.706307 65.259396 
" clip-path="url(#p65a25a295c)" style="fill: none; stroke: #5cb85c; stroke-linecap: square"/>
   </g>
   <g id="line2d_42">
    <path d="M 81.469943 41.800645 
L 90.240007 42.480795 
L 99.010072 42.156504 
L 107.780136 41.681512 
L 116.5502 42.56671 
L 125.320265 41.48513 
L 134.090329 41.648029 
L 142.860393 41.800562 
L 151.630457 41.954138 
L 160.400522 41.541961 
L 177.94065 41.808977 
L 195.480779 42.244132 
L 213.020907 42.200485 
L 230.561036 42.262488 
L 248.101164 42.108637 
L 265.641293 42.024008 
L 283.181422 41.752561 
L 300.72155 42.641744 
L 318.261679 42.744005 
L 335.801807 42.374224 
L 353.341936 42.641547 
L 370.882064 42.676635 
L 388.422193 42.879046 
L 405.962322 42.74123 
L 423.50245 42.557233 
L 441.042579 42.954133 
L 458.582707 45.808074 
L 476.122836 45.742992 
L 493.662964 44.428698 
L 511.203093 44.85794 
L 528.743221 47.764291 
L 546.28335 51.87368 
L 563.823479 51.407704 
L 581.363607 50.047745 
L 598.903736 49.590578 
L 616.443864 48.94498 
L 633.983993 50.114954 
L 651.524121 59.999727 
L 669.06425 58.636435 
L 686.604378 54.601081 
L 704.144507 56.863625 
L 721.684636 60.189405 
L 739.224764 68.793394 
L 756.764893 74.396906 
L 774.305021 77.682298 
L 791.84515 72.241374 
L 809.385278 67.26851 
L 826.925407 66.238257 
L 844.465535 63.628182 
L 862.005664 75.225975 
L 879.545793 78.671865 
L 897.085921 64.365317 
L 914.62605 61.283186 
L 932.166178 62.02844 
L 949.706307 73.906912 
" clip-path="url(#p65a25a295c)" style="fill: none; stroke: #5cb85c; stroke-linecap: square"/>
   </g>
   <g id="line2d_43">
    <path d="M 38.058125 353.2239 
L 993.118125 353.2239 
" clip-path="url(#p65a25a295c)" style="fill: none; stroke: #dedede; stroke-width: 2; stroke-linecap: square"/>
   </g>
   <g id="text_17">
    <!-- FastQC: Mean Quality Scores -->
    <g transform="translate(400.349375 19.3575)scale(0.16 -0.16)">
     <defs>
      <path id="DejaVuSans-46" d="M 628 4666 
L 3309 4666 
L 3309 4134 
L 1259 4134 
L 1259 2759 
L 3109 2759 
L 3109 2228 
L 1259 2228 
L 1259 0 
L 628 0 
L 628 4666 
z
" transform="scale(0.015625)"/>
      <path id="DejaVuSans-61" d="M 2194 1759 
Q 1497 1759 1228 1600 
Q 959 1441 959 1056 
Q 959 750 1161 570 
Q 1363 391 1709 391 
Q 2188 391 2477 730 
Q 2766 1069 2766 1631 
L 2766 1759 
L 2194 1759 
z
M 3341 1997 
L 3341 0 
L 2766 0 
L 2766 531 
Q 2569 213 2275 61 
Q 1981 -91 1556 -91 
Q 1019 -91 701 211 
Q 384 513 384 1019 
Q 384 1609 779 1909 
Q 1175 2209 1959 2209 
L 2766 2209 
L 2766 2266 
Q 2766 2663 2505 2880 
Q 2244 3097 1772 3097 
Q 1472 3097 1187 3025 
Q 903 2953 641 2809 
L 641 3341 
Q 956 3463 1253 3523 
Q 1550 3584 1831 3584 
Q 2591 3584 2966 3190 
Q 3341 2797 3341 1997 
z
" transform="scale(0.015625)"/>
      <path id="DejaVuSans-51" d="M 2522 4238 
Q 1834 4238 1429 3725 
Q 1025 3213 1025 2328 
Q 1025 1447 1429 934 
Q 1834 422 2522 422 
Q 3209 422 3611 934 
Q 4013 1447 4013 2328 
Q 4013 3213 3611 3725 
Q 3209 4238 2522 4238 
z
M 3406 84 
L 4238 -825 
L 3475 -825 
L 2784 -78 
Q 2681 -84 2626 -87 
Q 2572 -91 2522 -91 
Q 1538 -91 948 567 
Q 359 1225 359 2328 
Q 359 3434 948 4092 
Q 1538 4750 2522 4750 
Q 3503 4750 4090 4092 
Q 4678 3434 4678 2328 
Q 4678 1516 4351 937 
Q 4025 359 3406 84 
z
" transform="scale(0.015625)"/>
      <path id="DejaVuSans-43" d="M 4122 4306 
L 4122 3641 
Q 3803 3938 3442 4084 
Q 3081 4231 2675 4231 
Q 1875 4231 1450 3742 
Q 1025 3253 1025 2328 
Q 1025 1406 1450 917 
Q 1875 428 2675 428 
Q 3081 428 3442 575 
Q 3803 722 4122 1019 
L 4122 359 
Q 3791 134 3420 21 
Q 3050 -91 2638 -91 
Q 1578 -91 968 557 
Q 359 1206 359 2328 
Q 359 3453 968 4101 
Q 1578 4750 2638 4750 
Q 3056 4750 3426 4639 
Q 3797 4528 4122 4306 
z
" transform="scale(0.015625)"/>
      <path id="DejaVuSans-3a" d="M 750 794 
L 1409 794 
L 1409 0 
L 750 0 
L 750 794 
z
M 750 3309 
L 1409 3309 
L 1409 2516 
L 750 2516 
L 750 3309 
z
" transform="scale(0.015625)"/>
      <path id="DejaVuSans-4d" d="M 628 4666 
L 1569 4666 
L 2759 1491 
L 3956 4666 
L 4897 4666 
L 4897 0 
L 4281 0 
L 4281 4097 
L 3078 897 
L 2444 897 
L 1241 4097 
L 1241 0 
L 628 0 
L 628 4666 
z
" transform="scale(0.015625)"/>
      <path id="DejaVuSans-75" d="M 544 1381 
L 544 3500 
L 1119 3500 
L 1119 1403 
Q 1119 906 1312 657 
Q 1506 409 1894 409 
Q 2359 409 2629 706 
Q 2900 1003 2900 1516 
L 2900 3500 
L 3475 3500 
L 3475 0 
L 2900 0 
L 2900 538 
Q 2691 219 2414 64 
Q 2138 -91 1772 -91 
Q 1169 -91 856 284 
Q 544 659 544 1381 
z
M 1991 3584 
L 1991 3584 
z
" transform="scale(0.015625)"/>
      <path id="DejaVuSans-6c" d="M 603 4863 
L 1178 4863 
L 1178 0 
L 603 0 
L 603 4863 
z
" transform="scale(0.015625)"/>
      <path id="DejaVuSans-79" d="M 2059 -325 
Q 1816 -950 1584 -1140 
Q 1353 -1331 966 -1331 
L 506 -1331 
L 506 -850 
L 844 -850 
Q 1081 -850 1212 -737 
Q 1344 -625 1503 -206 
L 1606 56 
L 191 3500 
L 800 3500 
L 1894 763 
L 2988 3500 
L 3597 3500 
L 2059 -325 
z
" transform="scale(0.015625)"/>
     </defs>
     <use xlink:href="#DejaVuSans-46"/>
     <use xlink:href="#DejaVuSans-61" x="48.394531"/>
     <use xlink:href="#DejaVuSans-73" x="109.673828"/>
     <use xlink:href="#DejaVuSans-74" x="161.773438"/>
     <use xlink:href="#DejaVuSans-51" x="200.982422"/>
     <use xlink:href="#DejaVuSans-43" x="279.693359"/>
     <use xlink:href="#DejaVuSans-3a" x="349.517578"/>
     <use xlink:href="#DejaVuSans-20" x="383.208984"/>
     <use xlink:href="#DejaVuSans-4d" x="414.996094"/>
     <use xlink:href="#DejaVuSans-65" x="501.275391"/>
     <use xlink:href="#DejaVuSans-61" x="562.798828"/>
     <use xlink:href="#DejaVuSans-6e" x="624.078125"/>
     <use xlink:href="#DejaVuSans-20" x="687.457031"/>
     <use xlink:href="#DejaVuSans-51" x="719.244141"/>
     <use xlink:href="#DejaVuSans-75" x="797.955078"/>
     <use xlink:href="#DejaVuSans-61" x="861.333984"/>
     <use xlink:href="#DejaVuSans-6c" x="922.613281"/>
     <use xlink:href="#DejaVuSans-69" x="950.396484"/>
     <use xlink:href="#DejaVuSans-74" x="978.179688"/>
     <use xlink:href="#DejaVuSans-79" x="1017.388672"/>
     <use xlink:href="#DejaVuSans-20" x="1076.568359"/>
     <use xlink:href="#DejaVuSans-53" x="1108.355469"/>
     <use xlink:href="#DejaVuSans-63" x="1171.832031"/>
     <use xlink:href="#DejaVuSans-6f" x="1226.8125"/>
     <use xlink:href="#DejaVuSans-72" x="1287.994141"/>
     <use xlink:href="#DejaVuSans-65" x="1326.857422"/>
     <use xlink:href="#DejaVuSans-73" x="1388.380859"/>
    </g>
   </g>
  </g>
 </g>
 <defs>
  <clipPath id="p65a25a295c">
   <rect x="38.058125" y="35.2559" width="955.06" height="317.968"/>
  </clipPath>
 </defs>
</svg>
